<svg xmlns="http://www.w3.org/2000/svg" width="8.899" height="13.218" viewBox="0 0 8.899 13.218">
  <path id="Icon_awesome-building" data-name="Icon awesome-building" d="M8.661,12.391h-.4V.62A.562.562,0,0,0,7.787,0H1.112A.562.562,0,0,0,.636.62V12.391h-.4A.281.281,0,0,0,0,12.7v.516H8.9V12.7A.281.281,0,0,0,8.661,12.391ZM2.543,1.962a.281.281,0,0,1,.238-.31h.795a.281.281,0,0,1,.238.31V2.995a.281.281,0,0,1-.238.31H2.781a.281.281,0,0,1-.238-.31Zm0,2.478a.281.281,0,0,1,.238-.31h.795a.281.281,0,0,1,.238.31V5.473a.281.281,0,0,1-.238.31H2.781a.281.281,0,0,1-.238-.31ZM3.576,8.261H2.781a.281.281,0,0,1-.238-.31V6.919a.281.281,0,0,1,.238-.31h.795a.281.281,0,0,1,.238.31V7.951A.281.281,0,0,1,3.576,8.261Zm1.51,4.13H3.814V10.223a.281.281,0,0,1,.238-.31h.795a.281.281,0,0,1,.238.31Zm1.271-4.44a.281.281,0,0,1-.238.31H5.324a.281.281,0,0,1-.238-.31V6.919a.281.281,0,0,1,.238-.31h.795a.281.281,0,0,1,.238.31Zm0-2.478a.281.281,0,0,1-.238.31H5.324a.281.281,0,0,1-.238-.31V4.44a.281.281,0,0,1,.238-.31h.795a.281.281,0,0,1,.238.31Zm0-2.478a.281.281,0,0,1-.238.31H5.324a.281.281,0,0,1-.238-.31V1.962a.281.281,0,0,1,.238-.31h.795a.281.281,0,0,1,.238.31Z"/>
</svg>
