<svg xmlns="http://www.w3.org/2000/svg" width="15.541" height="11.073" viewBox="0 0 15.541 11.073">
  <path id="car" d="M17.425,13.407l-4.29-1.543-1.8-2.253A1.665,1.665,0,0,0,10.048,9H5.608a1.665,1.665,0,0,0-1.371.733l-1.5,2.22A2.775,2.775,0,0,0,2.25,13.5v4.379a.555.555,0,0,0,.555.555H3.993a2.22,2.22,0,0,0,4.285,0h3.486a2.22,2.22,0,0,0,4.285,0h1.188a.555.555,0,0,0,.555-.555V13.929a.555.555,0,0,0-.367-.521ZM6.135,18.991a1.11,1.11,0,1,1,1.11-1.11A1.11,1.11,0,0,1,6.135,18.991Zm7.771,0a1.11,1.11,0,1,1,1.11-1.11A1.11,1.11,0,0,1,13.906,18.991Zm2.775-1.665h-.632a2.22,2.22,0,0,0-4.285,0H8.278a2.22,2.22,0,0,0-4.285,0H3.36V13.5a1.665,1.665,0,0,1,.289-.938l1.5-2.22a.555.555,0,0,1,.461-.233h4.44a.555.555,0,0,1,.427.2l1.887,2.37a.6.6,0,0,0,.244.178l4.068,1.459Z" transform="translate(-2.25 -9)"/>
</svg>
