<svg xmlns="http://www.w3.org/2000/svg" xmlns:xlink="http://www.w3.org/1999/xlink" width="79.24" height="37.961" viewBox="0 0 79.24 37.961">
  <defs>
    <filter id="Path_112" x="0" y="-0.001" width="79.24" height="37.961" filterUnits="userSpaceOnUse">
      <feOffset dy="3" input="SourceAlpha"/>
      <feGaussianBlur stdDeviation="3" result="blur"/>
      <feFlood flood-opacity="0.161"/>
      <feComposite operator="in" in2="blur"/>
      <feComposite in="SourceGraphic"/>
    </filter>
    <radialGradient id="radial-gradient" cx="0.5" cy="0.5" r="0.5" gradientUnits="objectBoundingBox">
      <stop offset="0"/>
      <stop offset="1" stop-color="#fff" stop-opacity="0"/>
    </radialGradient>
  </defs>
  <g id="Group_11830" data-name="Group 11830" transform="translate(-24.762 -526.546)">
    <g id="freepik--Car--inject-31" transform="translate(33.762 532.546)">
      <path id="Path_108" data-name="Path 108" d="M103.52,369h13.288s-1.455-6.208-6.644-6.208S103.747,367.611,103.52,369Z" transform="translate(-99.147 -351.089)" fill="#f36e2c"/>
      <path id="Path_109" data-name="Path 109" d="M103.52,369h13.288s-1.455-6.208-6.644-6.208S103.747,367.611,103.52,369Z" transform="translate(-99.147 -351.089)" opacity="0.2"/>
      <path id="Path_110" data-name="Path 110" d="M391.89,374.008h13.288s-1.455-6.208-6.644-6.208S392.117,372.621,391.89,374.008Z" transform="translate(-348.951 -355.429)" fill="#f36e2c"/>
      <path id="Path_111" data-name="Path 111" d="M391.89,374.008h13.288s-1.455-6.208-6.644-6.208S392.117,372.621,391.89,374.008Z" transform="translate(-348.951 -355.429)" opacity="0.2"/>
      <g transform="matrix(1, 0, 0, 1, -9, -6)" filter="url(#Path_112)">
        <path id="Path_112-2" data-name="Path 112" d="M72.159,281.883a50.3,50.3,0,0,0-.814,5.617c-.029.178-.444.936-.451,1.083s-.11,2.393-.051,2.541a6.166,6.166,0,0,0,.457.764,18.815,18.815,0,0,0,2.167,1.731c.21.021,2.16.036,2.2,0s.267-6.034,6.172-6.034,5.846,6.369,5.954,6.39,26.566.626,26.566.626c0-.975.076-6.777,5.874-6.777a5.679,5.679,0,0,1,5.751,5.41c.027.955-.134,2.006-.08,2.006a5.743,5.743,0,0,0,.873,0c.1-.044,1.337-.857,1.439-.887s.814-.044.988-.087a11.447,11.447,0,0,0,1.418-1.157c.021-.044.059-.465.066-.5s1.244-1.549,1.3-1.716.08-1.549.08-1.686a28.587,28.587,0,0,0-2.772-4.183,27.951,27.951,0,0,0-5.35-1.9c-1.1-.2-7.088-1.09-7.306-1.244s-10.454-6.018-12.236-6.456c-1.439-.349-18.1.134-18.975.175s-3.286.479-3.519.479-2.909-.013-3.068.059,0,.713.2.829S72.652,281.1,72.159,281.883Z" transform="translate(-61.82 -269.3)" fill="#f36e2c"/>
      </g>
      <path id="Path_113" data-name="Path 113" d="M83.639,292.276a4.852,4.852,0,0,0,1.214.04c.11-.043,6.671-4.413,6.676-4.536a8.262,8.262,0,0,0-1.38-.04C90,287.747,83.519,292.166,83.639,292.276Z" transform="translate(-81.924 -286.069)" fill="#455a64"/>
      <path id="Path_114" data-name="Path 114" d="M138.22,287.787c.285.84,34.754,2.407,34.942,2.006.14-.3-2.942-2.778-4.384-3.584s-5.562-3.144-7.6-3.384a92.487,92.487,0,0,0-9.723-.146c-3.555.066-7.742.152-9.228.785C140.934,284.017,137.994,287.12,138.22,287.787Z" transform="translate(-129.196 -281.65)" fill="#263238"/>
      <path id="Path_115" data-name="Path 115" d="M145.476,289.884c.087.316,7.7,1.134,16.62,1.549s13.326.48,13.434.436a10.215,10.215,0,0,0-.457-2.617c-.152-.2-6.544-3.468-7.547-3.555s-6.42-.1-9.16-.055-8.44.372-9.411.764C148.1,286.751,145.388,289.569,145.476,289.884Z" transform="translate(-135.491 -284.238)" fill="#455a64"/>
      <g id="Group_1" data-name="Group 1" transform="translate(10.186 1.383)" opacity="0.1">
        <path id="Path_116" data-name="Path 116" d="M184.412,286l-5.109,5.11c-.912-.08-1.755-.16-2.513-.238l4.738-4.738C182.538,286.074,183.545,286.028,184.412,286Z" transform="translate(-172.805 -285.952)" fill="#fff"/>
        <path id="Path_117" data-name="Path 117" d="M349.274,314.383l-.516.516c-.518,0-1.415-.017-2.7-.052l2.659-2.657a.647.647,0,0,1,.114.08A10.953,10.953,0,0,1,349.274,314.383Z" transform="translate(-319.436 -308.639)" fill="#fff"/>
        <path id="Path_118" data-name="Path 118" d="M218.794,285.64l-5.433,5.434c-.436-.031-.864-.062-1.281-.1l5.339-5.332C217.851,285.643,218.316,285.64,218.794,285.64Z" transform="translate(-203.375 -285.64)" fill="#fff"/>
        <path id="Path_119" data-name="Path 119" d="M316.8,300.46l-3.723,3.722-1.324-.049L315.88,300Q316.355,300.237,316.8,300.46Z" transform="translate(-289.715 -298.079)" fill="#fff"/>
        <path id="Path_120" data-name="Path 120" d="M173.328,287.43l-4.6,4.6h0l-.35-.04,4.53-4.53Z" transform="translate(-165.519 -287.191)" fill="#fff"/>
        <path id="Path_121" data-name="Path 121" d="M331.233,305.612l-3.356,3.357-.377-.012,3.477-3.477Z" transform="translate(-303.359 -302.827)" fill="#fff"/>
        <path id="Path_122" data-name="Path 122" d="M282.024,288.52l-5.39,5.388-.374-.015,5.483-5.483C281.833,288.441,281.927,288.48,282.024,288.52Z" transform="translate(-258.971 -288.04)" fill="#fff"/>
        <path id="Path_123" data-name="Path 123" d="M151.152,290.05l-3.846,3.845a3.124,3.124,0,0,1-.316-.075l3.689-3.687C150.815,290.1,150.973,290.077,151.152,290.05Z" transform="translate(-146.99 -289.46)" fill="#fff"/>
      </g>
      <path id="Path_124" data-name="Path 124" d="M167.6,288.518c.036,0,.052.047.021.134-.179.495-1.574,3.3-1.923,3.951a.3.3,0,0,1-.2.134l2.458.267a.2.2,0,0,1-.122-.223c.025-.155.936-3.449,1.224-4.258a.341.341,0,0,1,.165-.173c.048,0-.42.008-.864.053A6.92,6.92,0,0,0,167.6,288.518Z" transform="translate(-152.838 -286.604)" fill="#263238"/>
      <path id="Path_125" data-name="Path 125" d="M205.42,287.247s.045.025.047.115c.016.774.1,4.656.028,4.868-.009.028-.021.045-.036.051l.465.037a.222.222,0,0,1-.043-.116c-.052-.657-.1-4.213-.091-4.871a.221.221,0,0,1,.044-.111Z" transform="translate(-187.419 -285.626)" fill="#263238"/>
      <path id="Path_126" data-name="Path 126" d="M261.425,285.842c.055.173.144,5.239.144,5.4s-.186.2-.186.2l2.881.134s-.187-.052-.219-.14-.936-5.55-.936-5.617.147-.134.147-.134H261.25A.31.31,0,0,1,261.425,285.842Z" transform="translate(-235.783 -284.3)" fill="#263238"/>
      <path id="Path_127" data-name="Path 127" d="M75.549,329.838a2.933,2.933,0,0,0-1.2,1.047,4.649,4.649,0,0,0-.16,1.527,1.5,1.5,0,0,0,.9.625,9.137,9.137,0,0,0,2.3-.974,1.688,1.688,0,0,0,.087-1.316A3.64,3.64,0,0,0,75.549,329.838Z" transform="translate(-73.706 -322.541)" fill="#fff"/>
      <path id="Path_128" data-name="Path 128" d="M78.419,332.986a9.2,9.2,0,0,1-2.3.974,1.331,1.331,0,0,1-.772-.467,1.179,1.179,0,0,0,.71.229,11.089,11.089,0,0,0,2.072-.928c.214-.2.222-.936.194-1.07a6.978,6.978,0,0,0-1.1-.824,3.671,3.671,0,0,1,1.281.769A1.691,1.691,0,0,1,78.419,332.986Z" transform="translate(-74.745 -323.464)" fill="#ebebeb"/>
      <path id="Path_129" data-name="Path 129" d="M73.022,378.6a1.387,1.387,0,0,0-.029.9,1.819,1.819,0,0,0,.814,0,1.489,1.489,0,0,0,.393-.8C74.178,378.511,73.138,378.487,73.022,378.6Z" transform="translate(-72.648 -364.726)" fill="#fff"/>
      <path id="Path_130" data-name="Path 130" d="M470.06,341.651c.313.507,2.617,1.407,3.477,1.549a12.5,12.5,0,0,0,2.53.108c.11-.1-.8-1.352-1.265-1.657a11.441,11.441,0,0,0-3.523-1.058C470.565,340.627,469.744,341.138,470.06,341.651Z" transform="translate(-416.606 -331.86)" fill="#fff"/>
      <path id="Path_131" data-name="Path 131" d="M476.088,343.3a12.5,12.5,0,0,1-2.53-.108c-.861-.142-3.166-1.042-3.477-1.55s.512-1.023,1.221-1.057a1.418,1.418,0,0,1,.166,0c-.661.243-.8.76-.393,1.054a11.122,11.122,0,0,0,2.205,1.129,9.269,9.269,0,0,0,2.506.3.322.322,0,0,0,.071-.267C476.03,343.06,476.13,343.263,476.088,343.3Z" transform="translate(-416.626 -331.851)" fill="#ebebeb"/>
      <g id="Group_2" data-name="Group 2" transform="translate(0.283 6.813)" opacity="0.5">
        <path id="Path_132" data-name="Path 132" d="M124.2,339.9a1.173,1.173,0,0,1-.336.831,1.192,1.192,0,1,1,0-1.661A1.173,1.173,0,0,1,124.2,339.9Zm0,0a1.164,1.164,0,0,0-.346-.82,1.139,1.139,0,1,0,.007,1.64A1.164,1.164,0,0,0,124.2,339.9Z" transform="translate(-115.283 -337.042)"/>
        <path id="Path_133" data-name="Path 133" d="M95.767,353.164c-.119-.267-.227-.535-.333-.8s-.206-.535-.309-.8-.2-.535-.288-.813-.183-.546-.267-.822c.119.267.227.535.334.8s.206.535.309.8.2.535.288.813S95.687,352.882,95.767,353.164Z" transform="translate(-91.677 -346.762)"/>
        <path id="Path_134" data-name="Path 134" d="M72.94,374.052c.572-.011,1.145-.009,1.717-.008l1.717.019,1.716.041c.572.017,1.145.037,1.716.067-.572.011-1.145.011-1.717.008l-1.717-.019-1.716-.04C74.083,374.1,73.511,374.083,72.94,374.052Z" transform="translate(-72.94 -367.65)"/>
        <path id="Path_135" data-name="Path 135" d="M275,332.47l.2,1.395.086.7c.012.116.025.233.035.352s0,.234,0,.352l-.025,2.818-.024,1.41-.011.7v.352l-.027.352-.11,1.4L275,343.71l.071-1.406.082-1.406.02-.35v-.353l.007-.7.015-1.407.048-2.809c0-.116.009-.235,0-.35s-.016-.233-.027-.35l-.071-.7Z" transform="translate(-247.976 -331.637)"/>
        <path id="Path_136" data-name="Path 136" d="M201.97,327.712l.238,1.4.118.7.029.175a1,1,0,0,1,.021.178v.356c-.008.948-.032,1.9-.062,2.843-.007.237-.017.473-.029.711a2.614,2.614,0,0,1-.134.7c-.134.456-.278.907-.441,1.353a10.259,10.259,0,0,1-.567,1.307l-.088.156c-.031.051-.066.1-.1.15a1.132,1.132,0,0,1-.108.144l-.058.071a.239.239,0,0,1-.1.031c-.239.025-.475.028-.713.036-1.9.039-3.793.021-5.688.009s-3.793-.041-5.688-.076-3.792-.087-5.687-.156c-.947-.039-1.894-.07-2.841-.155a2.187,2.187,0,0,1-.36-.057c-.067-.025-.107-.056-.163-.082s-.106-.051-.159-.075c-.214-.1-.436-.183-.65-.29a2.508,2.508,0,0,1-.6-.4,5.437,5.437,0,0,1-.431-.574c-.535-.784-1.045-1.583-1.554-2.382s-1.014-1.6-1.515-2.407-1-1.613-1.485-2.426l-.182-.306c-.015-.024-.028-.053-.043-.08l-.021-.04a.16.16,0,0,1-.007-.044l-.017-.177c-.02-.237-.039-.473-.047-.71v-.178a1.106,1.106,0,0,1,.039-.175c.033-.114.071-.226.111-.337.079-.223.165-.445.253-.669q-.134.33-.247.669c-.039.112-.076.225-.107.338a1,1,0,0,0-.037.172v.178c.011.237.031.472.053.707l.017.178a.242.242,0,0,0,.008.043l.02.037c.015.025.027.049.043.075l.183.3c.495.8,1,1.6,1.5,2.407,1.012,1.6,2.019,3.21,3.076,4.777a5.82,5.82,0,0,0,.423.562,2.467,2.467,0,0,0,.583.385c.211.1.432.19.649.288.055.024.11.05.163.076a1.5,1.5,0,0,0,.154.078,2.264,2.264,0,0,0,.356.06c.936.082,1.891.11,2.838.146,1.894.066,3.789.106,5.684.142s3.792.071,5.687.092,3.792.04,5.687.008c.235-.008.475-.011.706-.035a.578.578,0,0,0,.067-.012l.055-.067a1.091,1.091,0,0,0,.106-.134c.032-.049.066-.1.1-.147l.087-.154a10,10,0,0,0,.567-1.3q.247-.669.444-1.348a2.517,2.517,0,0,0,.134-.69l.033-.709c.037-.947.068-1.9.084-2.842v-.356a.976.976,0,0,0-.019-.175l-.028-.175-.112-.7Z" transform="translate(-159.479 -326.24)"/>
        <path id="Path_137" data-name="Path 137" d="M460.492,355.28a6.383,6.383,0,0,1-.786.564c-.267.174-.548.34-.823.508s-.556.325-.839.481-.566.31-.855.453c.267-.179.542-.349.816-.519l.826-.5.833-.491.417-.243a4.02,4.02,0,0,0,.409-.254Z" transform="translate(-405.8 -351.396)"/>
        <path id="Path_138" data-name="Path 138" d="M183.48,376.01l3.694.1,3.693.112,7.385.226,7.384.258,3.693.13,3.691.144-3.693-.1-3.693-.112-7.386-.226-7.384-.258-3.693-.13Z" transform="translate(-168.696 -369.354)"/>
        <path id="Path_139" data-name="Path 139" d="M180.2,336.222l-.144.007h-.035c-.008,0-.009.007-.015.017a.556.556,0,0,0-.013.068,2.046,2.046,0,0,0,0,.286.474.474,0,0,0,.012.134.34.34,0,0,0,.016.062h.039c.092.008.19.011.285.015.384.012.769.024,1.153.031l.576.016h.412a.173.173,0,0,0,.015-.036.415.415,0,0,1,.015-.066,1.633,1.633,0,0,0,.012-.281,1.22,1.22,0,0,0-.013-.14.177.177,0,0,0-.015-.053.156.156,0,0,0-.053-.015c-.187-.033-.381-.044-.572-.063a5.239,5.239,0,0,1,.579.015.157.157,0,0,1,.082.025.167.167,0,0,1,.035.08,1.1,1.1,0,0,1,.02.147,1.656,1.656,0,0,1,0,.294.505.505,0,0,1-.013.076.134.134,0,0,1-.052.088.044.044,0,0,1-.028.009h-.423l-.578-.008c-.384-.015-.769-.025-1.154-.053-.1-.008-.191-.015-.289-.028a.242.242,0,0,1-.044-.009.114.114,0,0,1-.024-.009.067.067,0,0,1-.017-.025.307.307,0,0,1-.019-.079,1.352,1.352,0,0,1,0-.147,1.92,1.92,0,0,1,.028-.29.469.469,0,0,1,.02-.071L180,336.2c0-.007.02-.012.024-.011h.035Z" transform="translate(-165.634 -334.858)"/>
        <path id="Path_140" data-name="Path 140" d="M285.8,338.98l-.144.008h-.036c-.008,0-.009.007-.015.017a.378.378,0,0,0-.012.07,1.842,1.842,0,0,0-.007.285,1.22,1.22,0,0,0,.008.148.2.2,0,0,0,.016.061h.039c.094.009.19.011.286.015.384.012.768.024,1.153.031l.576.016h.411a.218.218,0,0,0,.016-.036.472.472,0,0,1,.013-.066,1.63,1.63,0,0,0,.012-.281,1.163,1.163,0,0,0-.012-.134.216.216,0,0,0-.016-.053c0-.007-.032-.012-.053-.016-.187-.033-.381-.044-.572-.063a5.623,5.623,0,0,1,.58.015.162.162,0,0,1,.082.025.178.178,0,0,1,.033.08,1.434,1.434,0,0,1,.021.147,1.817,1.817,0,0,1,0,.3.264.264,0,0,1-.012.076.134.134,0,0,1-.053.087.043.043,0,0,1-.028.009h-.423l-.578-.008c-.385-.013-.77-.025-1.154-.054-.1-.008-.193-.015-.29-.028a.152.152,0,0,1-.043-.009l-.024-.008a.109.109,0,0,1-.019-.025.267.267,0,0,1-.017-.079,1.386,1.386,0,0,1-.007-.147,1.913,1.913,0,0,1,.029-.29.356.356,0,0,1,.019-.072.067.067,0,0,1,.011-.019.025.025,0,0,1,.023-.009h.036Z" transform="translate(-257.098 -337.266)"/>
      </g>
      <circle id="Ellipse_1" data-name="Ellipse 1" cx="5.497" cy="5.497" r="5.497" transform="translate(4.623 22.784) rotate(-81.13)" fill="#263238"/>
      <circle id="Ellipse_2" data-name="Ellipse 2" cx="4.014" cy="4.014" r="4.014" transform="translate(6.294 21.513) rotate(-80.74)" fill="#dbdbdb"/>
      <circle id="Ellipse_3" data-name="Ellipse 3" cx="3.701" cy="3.701" r="3.701" transform="translate(7.201 14.5)" fill="#a6a6a6"/>
      <path id="Path_141" data-name="Path 141" d="M142.846,386.666h-1.161c.392-.567-.975-2.541-.975-2.541l.611-.2c.4.7.61.9.944.9s.535-.2.947-.9l.61.2S142.454,386.1,142.846,386.666Z" transform="translate(-131.364 -369.393)" fill="#dbdbdb"/>
      <path id="Path_142" data-name="Path 142" d="M127.319,393.9l-.358,1.1c-.419-.547-2.72.142-2.72.142v-.645c.79-.171,1.047-.3,1.15-.619s-.028-.575-.566-1.178l.384-.518S126.659,394.1,127.319,393.9Z" transform="translate(-117.096 -376.557)" fill="#dbdbdb"/>
      <path id="Path_143" data-name="Path 143" d="M130.054,414.1l.936.683c-.651.227-.707,2.631-.707,2.631l-.61-.194c.08-.8.036-1.089-.234-1.285s-.555-.151-1.3.174l-.373-.524S130.04,414.789,130.054,414.1Z" transform="translate(-120.154 -395.537)" fill="#dbdbdb"/>
      <path id="Path_144" data-name="Path 144" d="M152.78,414.783l.936-.683c.016.689,2.284,1.485,2.284,1.485l-.374.526c-.74-.326-1.024-.372-1.295-.175s-.314.481-.234,1.285l-.614.194S153.431,415.011,152.78,414.783Z" transform="translate(-141.819 -395.537)" fill="#dbdbdb"/>
      <path id="Path_145" data-name="Path 145" d="M157.768,395.005l-.358-1.1c.659.2,2.117-1.713,2.117-1.713l.384.518c-.535.6-.669.86-.567,1.178s.361.448,1.152.621v.643S158.187,394.457,157.768,395.005Z" transform="translate(-145.83 -376.557)" fill="#dbdbdb"/>
      <circle id="Ellipse_4" data-name="Ellipse 4" cx="1.074" cy="1.074" r="1.074" transform="translate(9.675 19.067) rotate(-81.11)" fill="#dbdbdb"/>
      <circle id="Ellipse_5" data-name="Ellipse 5" cx="5.497" cy="5.497" r="5.497" transform="translate(42.305 14.933) rotate(-20.13)" fill="#263238"/>
      <circle id="Ellipse_6" data-name="Ellipse 6" cx="4.014" cy="4.014" r="4.014" transform="matrix(0.17, -0.985, 0.985, 0.17, 44.719, 21.473)" fill="#dbdbdb"/>
      <circle id="Ellipse_7" data-name="Ellipse 7" cx="3.701" cy="3.701" r="3.701" transform="translate(45.657 14.5)" fill="#a6a6a6"/>
      <path id="Path_146" data-name="Path 146" d="M430.387,386.666h-1.162c.392-.567-.975-2.541-.975-2.541l.611-.2c.4.7.61.9.944.9s.535-.2.947-.9l.61.2S430,386.1,430.387,386.666Z" transform="translate(-380.448 -369.393)" fill="#dbdbdb"/>
      <path id="Path_147" data-name="Path 147" d="M414.825,393.9l-.358,1.1c-.419-.547-2.72.142-2.72.142l-.007-.645c.79-.171,1.047-.3,1.15-.619s-.028-.575-.566-1.178l.384-.518S414.166,394.1,414.825,393.9Z" transform="translate(-366.146 -376.557)" fill="#dbdbdb"/>
      <path id="Path_148" data-name="Path 148" d="M417.587,414.1l.936.683c-.65.227-.706,2.631-.706,2.631l-.615-.194c.082-.8.037-1.089-.233-1.285s-.556-.151-1.3.174l-.373-.524S417.572,414.789,417.587,414.1Z" transform="translate(-369.23 -395.537)" fill="#dbdbdb"/>
      <path id="Path_149" data-name="Path 149" d="M440.33,414.783l.936-.683c.016.689,2.284,1.485,2.284,1.485l-.374.526c-.74-.326-1.024-.372-1.295-.175s-.314.481-.234,1.285l-.614.194S440.981,415.011,440.33,414.783Z" transform="translate(-390.912 -395.537)" fill="#dbdbdb"/>
      <path id="Path_150" data-name="Path 150" d="M445.353,395.005,445,393.9c.659.2,2.117-1.713,2.117-1.713l.384.518c-.535.6-.669.86-.567,1.178s.361.448,1.151.621v.643S445.77,394.457,445.353,395.005Z" transform="translate(-394.958 -376.557)" fill="#dbdbdb"/>
      <path id="Path_151" data-name="Path 151" d="M434.06,404.27a1.07,1.07,0,1,1-1.07-1.07A1.07,1.07,0,0,1,434.06,404.27Z" transform="translate(-383.627 -386.094)" fill="#dbdbdb"/>
      <path id="Path_152" data-name="Path 152" d="M359.821,316.418a4.483,4.483,0,0,0-.036,2.14c.146.147,2.14.277,2.3-.836S360.134,316.109,359.821,316.418Z" transform="translate(-321.043 -310.841)" fill="#f36e2c"/>
      <path id="Path_153" data-name="Path 153" d="M339.817,287.647H338.2a98.532,98.532,0,0,0-10.005-5.534l.96-.233c3.5,1.7,10.259,5.574,10.432,5.7A1.071,1.071,0,0,0,339.817,287.647Z" transform="translate(-293.77 -281)" fill="#455a64"/>
      <g id="Group_3" data-name="Group 3" transform="translate(4.373 0.5)" opacity="0.5">
        <path id="Path_154" data-name="Path 154" d="M103.52,361.217a7.127,7.127,0,0,1,1.232-1.514,7.8,7.8,0,0,1,1.583-1.151,7.683,7.683,0,0,1,3.779-.936l.492.024.245.011c.082.009.163.023.245.033l.487.07c.16.033.32.076.479.114a6.054,6.054,0,0,1,1.8.773,6.316,6.316,0,0,1,1.459,1.305,8.675,8.675,0,0,1,1.031,1.658,9.236,9.236,0,0,0-1.081-1.617,6.22,6.22,0,0,0-1.463-1.25,7.084,7.084,0,0,0-3.7-.979,7.878,7.878,0,0,0-1.922.207,7.563,7.563,0,0,0-1.809.681,7.681,7.681,0,0,0-1.588,1.111A7.336,7.336,0,0,0,103.52,361.217Z" transform="translate(-103.52 -347.106)" fill="#fff"/>
        <path id="Path_155" data-name="Path 155" d="M391.45,361.217a7.126,7.126,0,0,1,1.232-1.514,7.8,7.8,0,0,1,1.583-1.151,7.683,7.683,0,0,1,3.78-.936l.492.024.245.011c.082.009.163.023.245.033l.487.07c.16.033.32.076.479.114a6.054,6.054,0,0,1,1.8.773,6.316,6.316,0,0,1,1.459,1.305,8.675,8.675,0,0,1,1.031,1.658,9.234,9.234,0,0,0-1.081-1.617,6.22,6.22,0,0,0-1.463-1.25,7.084,7.084,0,0,0-3.7-.979,7.878,7.878,0,0,0-1.922.207,7.563,7.563,0,0,0-1.81.681,7.684,7.684,0,0,0-1.586,1.106A7.334,7.334,0,0,0,391.45,361.217Z" transform="translate(-352.942 -347.106)" fill="#fff"/>
        <path id="Path_156" data-name="Path 156" d="M109.47,284.026c.856-.669,1.725-1.327,2.6-1.973s1.759-1.281,2.675-1.884c.115-.074.231-.146.35-.215.059-.035.119-.068.182-.1a1.113,1.113,0,0,1,.2-.076c.267-.076.527-.143.792-.21.535-.134,1.058-.255,1.593-.358a9.268,9.268,0,0,1,1.629-.167c.544-.012,1.089-.011,1.632.015-.543,0-1.087.015-1.629.049a9.4,9.4,0,0,0-1.6.2c-.535.119-1.059.242-1.585.377-.267.067-.527.134-.785.214a.938.938,0,0,0-.181.07c-.058.029-.116.062-.174.1-.116.068-.23.142-.344.214-.911.59-1.792,1.229-2.675,1.855Z" transform="translate(-108.674 -279.035)" fill="#fff"/>
      </g>
      <path id="Path_157" data-name="Path 157" d="M207.891,370.16c-4.21.963-4.272,5.732-4.272,6.607,0,0-26.456-.6-26.566-.626-.088-.019-.062-4.194-3.183-5.784a7.9,7.9,0,0,1,3.878,4.825c.074.267,3.927.669,10.512.881s12.3.078,13.4-.075S204.02,370.138,207.891,370.16Z" transform="translate(-160.089 -357.473)" opacity="0.1"/>
      <path id="Path_158" data-name="Path 158" d="M469.389,375.986c-.058.168-1.295,1.68-1.3,1.716s-.043.457-.066.5a11.542,11.542,0,0,1-1.418,1.156c-.174.044-.887.057-.988.087s-1.337.843-1.44.887a5.73,5.73,0,0,1-.872,0c-.052,0,.108-1.051.08-2.006a5.774,5.774,0,0,0-3.064-4.788,6.723,6.723,0,0,1,3.624,3.239c.73,1.527.543,1.64.713,1.823s.738-.187,1-.253,1.113-.087,1.44-.152.38-.655.6-.786A12.414,12.414,0,0,0,469.389,375.986Z" transform="translate(-408.229 -360.401)" opacity="0.1"/>
    </g>
    <ellipse id="Ellipse_32" data-name="Ellipse 32" cx="19.992" cy="2.181" rx="19.992" ry="2.181" transform="translate(41.932 553.232)" opacity="0.23" fill="url(#radial-gradient)"/>
  </g>
</svg>
