<svg xmlns="http://www.w3.org/2000/svg" width="26.233" height="26.232" viewBox="0 0 26.233 26.232">
  <path id="coins" d="M14.756,16.4A32.151,32.151,0,0,1,7.736,15.7q-3.074-.692-4.048-1.742a35.117,35.117,0,0,0,7.788.794,39.319,39.319,0,0,0,5.982-.436,18.552,18.552,0,0,0,4.573-1.2q1.742-.768,1.742-1.64V9.837h.82a2.2,2.2,0,0,1,1.191.627,1.456,1.456,0,0,1,.448,1.012v1.64q0,.9-1.537,1.653A15.291,15.291,0,0,1,20.52,15.96,35.687,35.687,0,0,1,14.756,16.4Zm-1.64-6.558a35.638,35.638,0,0,1-4.56-.269,21.356,21.356,0,0,1-3.3-.641,13.84,13.84,0,0,1-2.088-.794A5.376,5.376,0,0,1,1.973,7.4Q1.64,7.1,1.64,6.968v-1a11.682,11.682,0,0,0,4.509,1.6,36.311,36.311,0,0,0,6.968.628,36.208,36.208,0,0,0,6.968-.627,11.674,11.674,0,0,0,4.508-1.6v.59q0,.871-1.537,1.626a15.6,15.6,0,0,1-4.175,1.2A34.553,34.553,0,0,1,13.116,9.837Zm0-3.279A34.5,34.5,0,0,1,7.352,6.11a15.6,15.6,0,0,1-4.175-1.2Q1.64,4.151,1.64,3.267t1.537-1.64A15.34,15.34,0,0,1,7.352.436,35.459,35.459,0,0,1,13.116,0,35.459,35.459,0,0,1,18.88.436a15.34,15.34,0,0,1,4.175,1.191q1.537.756,1.537,1.64t-1.537,1.64a15.6,15.6,0,0,1-4.175,1.2A34.5,34.5,0,0,1,13.116,6.558ZM.82,8.2q0,.871,1.742,1.64a18.521,18.521,0,0,0,4.573,1.2,39.434,39.434,0,0,0,5.982.436,38.918,38.918,0,0,0,5.482-.372,21.722,21.722,0,0,0,4.355-1.011q-.026.051-.09.167a2.376,2.376,0,0,1-.4.422,4.931,4.931,0,0,1-.807.59,9.8,9.8,0,0,1-1.383.641,13.205,13.205,0,0,1-2.05.6,27.3,27.3,0,0,1-2.908.423q-1.768.178-3.842.179a34.5,34.5,0,0,1-5.764-.448,15.6,15.6,0,0,1-4.175-1.2Q0,10.709,0,9.837V8.2a1.587,1.587,0,0,1,.82-1.2Zm0,8.634v1.2q0,.871,1.742,1.64a18.521,18.521,0,0,0,4.573,1.2,39.434,39.434,0,0,0,5.982.436,39.662,39.662,0,0,0,5.419-.359,21.69,21.69,0,0,0,4.368-1q-.384,1.281-3.663,2.139a30.9,30.9,0,0,1-7.763.858,35.459,35.459,0,0,1-5.764-.436,15.371,15.371,0,0,1-4.176-1.191Q0,20.572,0,19.675v-1.64A1.587,1.587,0,0,1,.82,16.831Zm13.936,1.2a38.474,38.474,0,0,0,5.444-.372,21.686,21.686,0,0,0,4.342-1.011Q24.184,17.933,20.9,18.8a30.613,30.613,0,0,1-7.788.871,35.459,35.459,0,0,1-5.764-.436,15.34,15.34,0,0,1-4.175-1.191Q1.64,17.292,1.64,16.4v-1.64A1.584,1.584,0,0,1,2.383,13.6q.384.128.666.2a1.384,1.384,0,0,0-.487.948q0,.871,1.716,1.64a18.057,18.057,0,0,0,4.535,1.2A39.016,39.016,0,0,0,14.756,18.035Zm9.018,3.279v-1.2a1.589,1.589,0,0,1,.82,1.2v1.64q0,.9-1.537,1.653A15.291,15.291,0,0,1,18.88,25.8a35.687,35.687,0,0,1-5.764.436,30.613,30.613,0,0,1-7.788-.871q-3.279-.871-3.638-2.152a21.665,21.665,0,0,0,4.342,1.012,38.394,38.394,0,0,0,5.444.371,39.318,39.318,0,0,0,5.982-.436,18.552,18.552,0,0,0,4.573-1.2Q23.773,22.186,23.773,21.314Z" fill="#f36e2c"/>
</svg>
