<svg xmlns="http://www.w3.org/2000/svg" width="11.25" height="15.75" viewBox="0 0 11.25 15.75">
  <g id="document" transform="translate(-6.75 -2.251)">
    <path id="Path_7748" data-name="Path 7748" d="M17.831,6.357,13.893,2.42a.51.51,0,0,0-.394-.168H7.875A1.128,1.128,0,0,0,6.75,3.376v13.5A1.128,1.128,0,0,0,7.875,18h9A1.128,1.128,0,0,0,18,16.876V6.75a.511.511,0,0,0-.168-.393ZM13.5,3.6l3.15,3.15H13.5Zm3.375,13.275h-9V3.375h4.5V6.75A1.128,1.128,0,0,0,13.5,7.875h3.375Z"/>
    <path id="Path_7749" data-name="Path 7749" d="M11.25,24.75H18v1.125H11.25Z" transform="translate(-2.25 -11.25)"/>
    <path id="Path_7750" data-name="Path 7750" d="M11.25,18H18v1.125H11.25Z" transform="translate(-2.25 -7.875)"/>
  </g>
</svg>
