<svg xmlns="http://www.w3.org/2000/svg" xmlns:xlink="http://www.w3.org/1999/xlink" width="74" height="74" viewBox="0 0 74 74">
  <defs>
    <radialGradient id="radial-gradient" cx="0.5" cy="0.5" r="0.5" gradientUnits="objectBoundingBox">
      <stop offset="0"/>
      <stop offset="1" stop-opacity="0"/>
    </radialGradient>
  </defs>
  <g id="Group_12025" data-name="Group 12025" transform="translate(9203 -10272)">
    <rect id="Rectangle_18680" data-name="Rectangle 18680" width="74" height="74" rx="10" transform="translate(-9203 10272)" fill="#f6f6f6"/>
    <ellipse id="Ellipse_12" data-name="Ellipse 12" cx="12" cy="2" rx="12" ry="2" transform="translate(-9158 10334)" opacity="0.26" fill="url(#radial-gradient)"/>
    <g id="Group_11770" data-name="Group 11770" transform="matrix(0.995, 0.105, -0.105, 0.995, -10013.741, 8807.277)">
      <path id="Path_750" data-name="Path 750" d="M3.893,0h56.86a4.218,4.218,0,0,1,4.218,4.218V36.729a4.218,4.218,0,0,1-4.218,4.218H3.893A3.893,3.893,0,0,1,0,37.053V3.893A3.893,3.893,0,0,1,3.893,0Z" transform="translate(968.592 1381.938) rotate(4.62)" fill="#f36e2c"/>
      <g id="Group_11748" data-name="Group 11748" transform="translate(966.085 1390.617)" opacity="0.2">
        <path id="Path_751" data-name="Path 751" d="M173.385,195.149l66.44-15.579-.409,5.042L172.83,202.03Z" transform="translate(-172.83 -179.57)"/>
      </g>
      <g id="Group_11749" data-name="Group 11749" transform="translate(1003.93 1384.803)" opacity="0.2">
        <path id="Path_752" data-name="Path 752" d="M289.48,161.65l5.739,16.235,5.6,25.766,6.005.487-9.658-30.1-2.307-11.955Z" transform="translate(-289.48 -161.65)"/>
      </g>
      <path id="Path_753" data-name="Path 753" d="M195.832,256.3l.782.065-.12,1.5a2.573,2.573,0,0,1-1.535.347,1.921,1.921,0,1,1,.324-3.822,1.982,1.982,0,0,1,1.5.766l-.59.461a1.246,1.246,0,0,0-.921-.493,1.187,1.187,0,1,0-.2,2.365,1.369,1.369,0,0,0,.678-.1Z" transform="translate(779.567 1160.504)" fill="#fff"/>
      <path id="Path_754" data-name="Path 754" d="M206.218,255.18l.853.068-.3,3.7-.853-.068Z" transform="translate(770.9 1159.967)" fill="#fff"/>
      <path id="Path_755" data-name="Path 755" d="M212.357,256.359l-.078.973,1.71.136-.055.688-1.71-.139-.11,1.346-.853-.068.3-3.7,2.79.224-.055.688Z" transform="translate(767.293 1159.684)" fill="#fff"/>
      <path id="Path_756" data-name="Path 756" d="M222.381,257.142l-1.181-.094.055-.7,3.222.26-.055.7-1.184-.094-.243,3-.853-.081Z" transform="translate(760.578 1159.177)" fill="#fff"/>
      <path id="Path_757" data-name="Path 757" d="M236.394,259.692a1.849,1.849,0,0,1,2.067-1.719,1.768,1.768,0,0,1,1.272.616l-.182.162a1.554,1.554,0,0,0-1.1-.532,1.627,1.627,0,1,0-.263,3.244,1.551,1.551,0,0,0,1.171-.35l.156.185a1.768,1.768,0,0,1-1.356.412,1.849,1.849,0,0,1-1.765-2.018Z" transform="translate(750.318 1158.09)" fill="#fff"/>
      <path id="Path_758" data-name="Path 758" d="M249.468,261.6l-2.144-.172-.555,1-.289-.026,2-3.569.269.019,1.4,3.835-.292-.023Zm-.084-.234-.788-2.213-1.139,2.054Z" transform="translate(743.499 1157.495)" fill="#fff"/>
      <path id="Path_759" data-name="Path 759" d="M262.426,263.453l-.782-1.3a2.734,2.734,0,0,1-.363,0l-1.054-.088-.1,1.21-.269-.019.3-3.7,1.324.107c.931.078,1.45.587,1.389,1.366a1.135,1.135,0,0,1-.973,1.087l.821,1.369Zm-1.126-1.544c.792.062,1.246-.273,1.3-.905s-.341-1.038-1.132-1.1l-1.054-.084-.162,2Z" transform="translate(734.46 1157.008)" fill="#fff"/>
      <path id="Path_760" data-name="Path 760" d="M271.868,260.48l1.463.117a1.859,1.859,0,1,1-.3,3.7l-1.463-.12Zm1.165,3.569a1.613,1.613,0,1,0,.26-3.209l-1.174-.094-.26,3.209Z" transform="translate(726.549 1156.387)" fill="#fff"/>
      <path id="Path_761" data-name="Path 761" d="M231.749,274.911c0,.045-8.9-.61-19.871-1.466S192,271.871,192,271.813s8.9.61,19.878,1.463S231.756,274.866,231.749,274.911Z" transform="translate(780.304 1148.733)" fill="#fff"/>
      <path id="Path_762" data-name="Path 762" d="M270.308,195.255a6.5,6.5,0,0,1-3.449-.3c-1.113-.357-2.177-.853-3.3-1.178a11.3,11.3,0,0,0-8.289.844.5.5,0,0,0-.3.707l2.764,10.028a1.726,1.726,0,0,0,.487.931,1.678,1.678,0,0,0,1.479.078,23.515,23.515,0,0,0,4.662-1.622,9.629,9.629,0,0,0,3.737-3.16c.425-.649.749-1.35,1.194-1.979a3.222,3.222,0,0,1,1.8-1.366Z" transform="translate(737.794 1201.738)" fill="#f36e2c"/>
      <path id="Path_763" data-name="Path 763" d="M328.86,183.23a79.249,79.249,0,0,0-2.868-12.633,12.735,12.735,0,0,0-7.764,3.043c-2.248,1.723-4.218,3.8-6.489,5.493l.032,3.059a4.12,4.12,0,0,1,2.6-.016,15.161,15.161,0,0,1,2.417,1.022,19.886,19.886,0,0,0,5.694,1.9,9.579,9.579,0,0,0,5.859-.857.973.973,0,0,0,.529-.5A1.055,1.055,0,0,0,328.86,183.23Z" transform="translate(699.411 1217.111)" fill="#f36e2c"/>
      <g id="Group_11750" data-name="Group 11750" transform="translate(992.719 1395.088)">
        <path id="Path_764" data-name="Path 764" d="M270.308,195.255a6.5,6.5,0,0,1-3.449-.3c-1.113-.357-2.177-.853-3.3-1.178a11.3,11.3,0,0,0-8.289.844.5.5,0,0,0-.3.707l2.764,10.028a1.726,1.726,0,0,0,.487.931,1.678,1.678,0,0,0,1.479.078,23.515,23.515,0,0,0,4.662-1.622,9.629,9.629,0,0,0,3.737-3.16c.425-.649.749-1.35,1.194-1.979a3.222,3.222,0,0,1,1.8-1.366Z" transform="translate(-254.925 -193.35)"/>
      </g>
      <path id="Path_765" data-name="Path 765" d="M270.128,195.118l.058.185c.039.136.091.324.162.564l.616,2.213v.039h-.039a2.819,2.819,0,0,0-1.353.847,8.129,8.129,0,0,0-1.084,1.622,8.812,8.812,0,0,1-1.3,1.862,9.594,9.594,0,0,1-1.947,1.622,18.367,18.367,0,0,1-5.278,2.122,3.6,3.6,0,0,1-1.544.224,1.025,1.025,0,0,1-.681-.467,2.856,2.856,0,0,1-.289-.759c-.282-1.022-.571-2.07-.866-3.131-.432-1.564-.85-3.092-1.259-4.568-.2-.736-.4-1.463-.6-2.17a.973.973,0,0,1-.045-.59.853.853,0,0,1,.454-.367,8.6,8.6,0,0,1,.973-.441,11.29,11.29,0,0,1,3.922-.772,11.093,11.093,0,0,1,3.494.47c1.022.324,1.9.707,2.7.973a9.9,9.9,0,0,0,2.083.545,5.613,5.613,0,0,0,1.359.029c.308-.036.48-.075.474-.068a.727.727,0,0,1-.12.036,3.45,3.45,0,0,1-.347.065,5.239,5.239,0,0,1-1.372,0,9.677,9.677,0,0,1-2.109-.522c-.8-.273-1.684-.649-2.7-.973a11.283,11.283,0,0,0-7.283.324c-.324.13-.649.273-.973.435-.162.081-.324.159-.38.289a.814.814,0,0,0,.052.483l.6,2.174c.406,1.473.827,3,1.262,4.565q.438,1.6.863,3.131a2.564,2.564,0,0,0,.269.717.853.853,0,0,0,.571.393,3.651,3.651,0,0,0,1.47-.217,18.742,18.742,0,0,0,5.243-2.089,9.617,9.617,0,0,0,1.927-1.577,9.085,9.085,0,0,0,1.3-1.83,7.948,7.948,0,0,1,1.11-1.622,2.881,2.881,0,0,1,1.408-.86l-.032.052c-.243-.951-.435-1.69-.565-2.2l-.146-.577A.786.786,0,0,1,270.128,195.118Z" transform="translate(737.974 1201.874)" fill="#263238"/>
      <g id="Group_11751" data-name="Group 11751" transform="translate(1011.152 1387.705)">
        <path id="Path_766" data-name="Path 766" d="M328.86,183.23a79.249,79.249,0,0,0-2.868-12.633,12.735,12.735,0,0,0-7.764,3.043c-2.248,1.723-4.218,3.8-6.489,5.493l.032,3.059a4.12,4.12,0,0,1,2.6-.016,15.161,15.161,0,0,1,2.417,1.022,19.886,19.886,0,0,0,5.694,1.9,9.579,9.579,0,0,0,5.859-.857.973.973,0,0,0,.529-.5A1.055,1.055,0,0,0,328.86,183.23Z" transform="translate(-311.74 -170.594)"/>
      </g>
      <path id="Path_767" data-name="Path 767" d="M328.7,183.053a1.113,1.113,0,0,1,.049.354.6.6,0,0,1-.175.4,1.678,1.678,0,0,1-.5.324,8.717,8.717,0,0,1-3.731.941,14.233,14.233,0,0,1-5.752-1.123q-.785-.324-1.593-.685c-.542-.247-1.084-.526-1.648-.775a7.294,7.294,0,0,0-1.791-.565,3.692,3.692,0,0,0-1.911.152l-.11.042v-.117c0-.973-.023-2-.036-3.059V178.9l.036-.026c1.071-.8,2.122-1.723,3.183-2.677a32.581,32.581,0,0,1,5.334-4.182,11.348,11.348,0,0,1,5.778-1.684h.052l.016.045a62.339,62.339,0,0,1,2.229,9.136c.2,1.119.341,2,.438,2.6.045.3.081.522.1.688a1.012,1.012,0,0,0,.026.175.224.224,0,0,1,0,.062.174.174,0,0,0-.016-.058l-.036-.175-.127-.681c-.11-.61-.273-1.483-.477-2.6a65.154,65.154,0,0,0-2.271-9.1l.065.049a11.065,11.065,0,0,0-5.694,1.677,33.367,33.367,0,0,0-5.3,4.169c-1.064.954-2.119,1.882-3.2,2.683l.036-.068c0,1.054.019,2.086.029,3.059l-.11-.075a3.893,3.893,0,0,1,1.992-.156,7.4,7.4,0,0,1,1.83.581c.571.253,1.11.535,1.648.782s1.061.48,1.583.688a14.171,14.171,0,0,0,5.7,1.148,8.844,8.844,0,0,0,3.712-.886,1.7,1.7,0,0,0,.493-.324.575.575,0,0,0,.175-.373q-.005-.163-.026-.324Z" transform="translate(699.574 1217.287)" fill="#263238"/>
      <path id="Path_768" data-name="Path 768" d="M299.337,210.31s-.775.127-1.4,2.3-1.872,12.26-1.872,12.26l9.645,2.579-4.153-16.835Z" transform="translate(709.998 1190.28)" fill="#f36e2c"/>
      <path id="Path_769" data-name="Path 769" d="M315.09,208.15l5.674,10.907,5-6.417s-6.346-5.583-10.382-5.483Z" transform="translate(697.148 1192.411)" fill="#f36e2c"/>
      <g id="Group_11752" data-name="Group 11752" transform="translate(1006.068 1400.59)">
        <path id="Path_770" data-name="Path 770" d="M299.337,210.31s-.775.127-1.4,2.3-1.872,12.26-1.872,12.26l9.645,2.579-4.153-16.835Z" transform="translate(-296.07 -210.31)"/>
      </g>
      <g id="Group_11753" data-name="Group 11753" transform="translate(1012.238 1399.567)">
        <path id="Path_771" data-name="Path 771" d="M315.09,208.15l5.674,10.907,5-6.417s-6.346-5.583-10.382-5.483Z" transform="translate(-315.09 -207.156)"/>
      </g>
      <path id="Path_772" data-name="Path 772" d="M299.148,210.3a.786.786,0,0,1,.143,0l.425.049,1.668.211h.026v.026c.775,3.043,2.342,9.334,4.192,16.822l.032.136-.136-.036-2.69-.72-6.949-1.853h-.068v-.068c.565-4.39,1.093-8.15,1.59-10.794a8.946,8.946,0,0,1,.954-2.991,2.272,2.272,0,0,1,.542-.649.861.861,0,0,1,.191-.107c.045-.016.071-.019.071-.016l-.068.029a.894.894,0,0,0-.175.117,2.33,2.33,0,0,0-.516.649,9.2,9.2,0,0,0-.9,2.988c-.467,2.644-.973,6.4-1.528,10.794l-.058-.088,6.956,1.856,2.69.72-.1.1c-1.843-7.488-3.374-13.788-4.1-16.844l.029.026-1.658-.243-.425-.068Z" transform="translate(710.187 1190.287)" fill="#263238"/>
      <path id="Path_773" data-name="Path 773" d="M315.09,208.088v-.062l.049-.191.214-.746v-.019h.032a9.5,9.5,0,0,1,4.406,1.3,33.147,33.147,0,0,1,6.034,4.153l.058.052-.049.062-2.294,2.939-2.712,3.475-.081.1-.058-.114-4.042-7.842-1.158-2.271-.3-.61a1.117,1.117,0,0,1-.094-.214s.045.071.123.211l.324.6c.285.542.694,1.3,1.2,2.271,1.022,1.947,2.443,4.656,4.088,7.786h-.136l2.722-3.491,2.3-2.936v.11a34.205,34.205,0,0,0-5.983-4.166,9.8,9.8,0,0,0-4.344-1.35l.026-.019-.24.73c-.026.075-.045.139-.065.188A.344.344,0,0,1,315.09,208.088Z" transform="translate(697.148 1192.473)" fill="#263238"/>
      <path id="Path_774" data-name="Path 774" d="M286.975,206.21c0,.023-.438.11-1.145.276s-1.677.418-2.728.766a26.541,26.541,0,0,0-2.638,1.035,11.357,11.357,0,0,1-1.074.477,1.14,1.14,0,0,1,.263-.175c.175-.107.435-.247.759-.412a20.642,20.642,0,0,1,2.638-1.084,21.117,21.117,0,0,1,2.754-.724c.36-.068.649-.117.853-.139A.989.989,0,0,1,286.975,206.21Z" transform="translate(721.266 1193.054)" fill="#263238"/>
      <path id="Path_775" data-name="Path 775" d="M286.331,202.818a10.01,10.01,0,0,1-1.093.036,22.972,22.972,0,0,0-2.621.2c-1.015.143-1.927.341-2.6.49a8.8,8.8,0,0,1-1.071.217,1.047,1.047,0,0,1,.273-.107c.182-.062.444-.14.769-.227a20.886,20.886,0,0,1,2.6-.539,16.823,16.823,0,0,1,2.644-.159c.324,0,.613.023.8.039A1.009,1.009,0,0,1,286.331,202.818Z" transform="translate(721.563 1195.401)" fill="#263238"/>
      <path id="Path_776" data-name="Path 776" d="M325.445,191.82c0,.029-.516.026-1.35.1a15.958,15.958,0,0,0-3.192.6,15.131,15.131,0,0,0-2.988,1.272c-.724.412-1.145.714-1.165.688a1.8,1.8,0,0,1,.282-.234,8.363,8.363,0,0,1,.824-.555,12.911,12.911,0,0,1,3-1.333,13.9,13.9,0,0,1,3.244-.555,7.649,7.649,0,0,1,.993,0A1.623,1.623,0,0,1,325.445,191.82Z" transform="translate(696.027 1202.798)" fill="#263238"/>
      <path id="Path_777" data-name="Path 777" d="M325.523,200.88a1.235,1.235,0,0,1-.3.107c-.191.062-.474.136-.827.217a18.86,18.86,0,0,1-2.8.425,18.516,18.516,0,0,1-2.829,0c-.36-.032-.649-.065-.853-.1a1.253,1.253,0,0,1-.308-.062,11.492,11.492,0,0,1,1.168.039,24.36,24.36,0,0,0,2.81-.049,26.181,26.181,0,0,0,2.784-.373A11.394,11.394,0,0,1,325.523,200.88Z" transform="translate(695.446 1196.651)" fill="#263238"/>
      <path id="Path_778" data-name="Path 778" d="M306.466,197.977a5.66,5.66,0,0,0-.629-1.664c-.243-.457-.324-.912-.973-1.155a1.947,1.947,0,0,0-1.706.324c-.422-.393-1.123-.169-1.577.185a1.856,1.856,0,0,0-.649,1.541,3.64,3.64,0,0,0,.545,1.622,4.218,4.218,0,0,0,1.765,1.755,2.245,2.245,0,0,0,2.161-.123A2.362,2.362,0,0,0,306.466,197.977Z" transform="translate(706.717 1200.566)" fill="#f36e2c"/>
      <g id="Group_11754" data-name="Group 11754" transform="translate(1007.643 1395.651)">
        <path id="Path_779" data-name="Path 779" d="M306.466,197.977a5.66,5.66,0,0,0-.629-1.664c-.243-.457-.324-.912-.973-1.155a1.947,1.947,0,0,0-1.706.324c-.422-.393-1.123-.169-1.577.185a1.856,1.856,0,0,0-.649,1.541,3.64,3.64,0,0,0,.545,1.622,4.218,4.218,0,0,0,1.765,1.755,2.245,2.245,0,0,0,2.161-.123A2.362,2.362,0,0,0,306.466,197.977Z" transform="translate(-300.926 -195.085)"/>
      </g>
      <path id="Path_780" data-name="Path 780" d="M306.308,197.789a.674.674,0,0,1,.045.182,2.647,2.647,0,0,1,.023.526,2.346,2.346,0,0,1-2.138,2.193,2.4,2.4,0,0,1-1.5-.389,4.217,4.217,0,0,1-1.22-1.2,4.681,4.681,0,0,1-.769-1.668,2.076,2.076,0,0,1,.529-1.947,2.032,2.032,0,0,1,.866-.454.973.973,0,0,1,.908.2h-.107A1.775,1.775,0,0,1,304,194.82a1.528,1.528,0,0,1,1,.2,1.5,1.5,0,0,1,.558.707c.107.25.227.464.324.675a5.1,5.1,0,0,1,.363,1,2.142,2.142,0,0,1,.055.276v.094s-.036-.127-.107-.357a6.109,6.109,0,0,0-.4-.973c-.1-.2-.23-.422-.344-.668a1.378,1.378,0,0,0-.522-.649,1.421,1.421,0,0,0-.918-.172,1.671,1.671,0,0,0-.973.376l-.052.052-.052-.049a.831.831,0,0,0-.769-.156,1.859,1.859,0,0,0-.788.419,1.917,1.917,0,0,0-.477,1.781,4.543,4.543,0,0,0,.74,1.606,4.133,4.133,0,0,0,1.165,1.161,2.271,2.271,0,0,0,1.4.383,2.206,2.206,0,0,0,1.191-.454,2.29,2.29,0,0,0,.892-1.6,5.17,5.17,0,0,0,.016-.681Z" transform="translate(706.874 1200.754)" fill="#263238"/>
      <path id="Path_781" data-name="Path 781" d="M306.506,201.118c-.023-.019.162-.243.38-.649a4.4,4.4,0,0,0,.324-3.455c-.139-.438-.282-.688-.256-.7a1.91,1.91,0,0,1,.37.665,4.036,4.036,0,0,1,.253,1.814,3.98,3.98,0,0,1-.581,1.739A1.966,1.966,0,0,1,306.506,201.118Z" transform="translate(702.949 1199.738)" fill="#263238"/>
      <path id="Path_782" data-name="Path 782" d="M311.859,200.079a2.017,2.017,0,0,1-.058.7,5,5,0,0,1-.6,1.583,4.766,4.766,0,0,1-1.1,1.3,1.9,1.9,0,0,1-.594.373,7.3,7.3,0,0,0,1.548-1.745A8.9,8.9,0,0,0,311.859,200.079Z" transform="translate(700.918 1197.192)" fill="#263238"/>
      <path id="Path_783" data-name="Path 783" d="M268.99,197.777a2.831,2.831,0,0,1-.461-.1l-1.246-.324a29.484,29.484,0,0,0-4.153-.847,13.508,13.508,0,0,0-4.218.123,10.644,10.644,0,0,0-1.239.324,3.569,3.569,0,0,1-.454.139,2.091,2.091,0,0,1,.431-.2,8.486,8.486,0,0,1,1.236-.383,12.591,12.591,0,0,1,4.253-.175,25.574,25.574,0,0,1,4.166.9c.522.152.941.285,1.23.38A2.747,2.747,0,0,1,268.99,197.777Z" transform="translate(736.244 1199.793)" fill="#fff"/>
      <path id="Path_784" data-name="Path 784" d="M283.157,205.613a8.11,8.11,0,0,1-1.275.211A7.847,7.847,0,0,1,280.6,206,5.726,5.726,0,0,1,283.157,205.613Z" transform="translate(720.449 1193.466)" fill="#fff"/>
      <path id="Path_785" data-name="Path 785" d="M284.419,212.074c.019.042-.195.178-.477.3s-.526.191-.545.149.195-.178.477-.3A1.137,1.137,0,0,1,284.419,212.074Z" transform="translate(718.56 1189.094)" fill="#fff"/>
      <path id="Path_786" data-name="Path 786" d="M302.7,199.083a.882.882,0,0,1-.217-.367,2.31,2.31,0,0,1,.191-2,.994.994,0,0,1,.289-.324,3.893,3.893,0,0,0-.448,1.314,4.064,4.064,0,0,0,.185,1.379Z" transform="translate(705.766 1199.684)" fill="#fff"/>
      <path id="Path_787" data-name="Path 787" d="M310.353,203.069a4.243,4.243,0,0,1,.036-.74,3.935,3.935,0,0,1,0-.74,1.622,1.622,0,0,1-.049,1.479Z" transform="translate(700.357 1196.171)" fill="#fff"/>
      <path id="Path_788" data-name="Path 788" d="M321.564,183.21a27.366,27.366,0,0,1-2.307,1.888,26.943,26.943,0,0,1-2.407,1.752,26.636,26.636,0,0,1,2.307-1.888A26.932,26.932,0,0,1,321.564,183.21Z" transform="translate(695.959 1208.588)" fill="#fff"/>
      <path id="Path_789" data-name="Path 789" d="M323.006,196.64a4.1,4.1,0,0,1-1.486.723,2.119,2.119,0,0,1,.707-.438A2.034,2.034,0,0,1,323.006,196.64Z" transform="translate(692.804 1199.515)" fill="#fff"/>
      <path id="Path_790" data-name="Path 790" d="M303.09,215.9a4.911,4.911,0,0,1,.1-1.872,4.847,4.847,0,0,1,.649-1.762c.045.019-.273.792-.474,1.794S303.139,215.9,303.09,215.9Z" transform="translate(705.288 1188.956)" fill="#fff"/>
      <path id="Path_791" data-name="Path 791" d="M321.4,215.98a12.84,12.84,0,0,1-1.249-2.67,6.429,6.429,0,0,1,.7,1.3A6.582,6.582,0,0,1,321.4,215.98Z" transform="translate(693.73 1188.254)" fill="#fff"/>
      <path id="Path_792" data-name="Path 792" d="M209.02,165.771c0,.049-2-.146-4.448-.428s-4.435-.552-4.432-.6,2,.146,4.451.428S209.026,165.726,209.02,165.771Z" transform="translate(774.805 1221.066)" fill="#fff"/>
    </g>
  </g>
</svg>
