<svg xmlns="http://www.w3.org/2000/svg" width="354" height="148" viewBox="0 0 354 148">
  <g id="Group_12039" data-name="Group 12039" transform="translate(-37 -135)">
    <g id="Group_11794" data-name="Group 11794" transform="translate(0 90)">
      <rect id="Rectangle_234" data-name="Rectangle 234" width="354" height="148" rx="10" transform="translate(37 45)" fill="#040707"/>
      <path id="Rectangle_18673" data-name="Rectangle 18673" d="M0,0H170a10,10,0,0,1,10,10V138a10,10,0,0,1-10,10H130A130,130,0,0,1,0,18V0A0,0,0,0,1,0,0Z" transform="translate(211 45)" fill="#f36e2c" opacity="0.57"/>
      <path id="Rectangle_18910" data-name="Rectangle 18910" d="M0,0H146a10,10,0,0,1,10,10V130a0,0,0,0,1,0,0H130A130,130,0,0,1,0,0V0A0,0,0,0,1,0,0Z" transform="translate(235 45)" fill="#f36e2c" opacity="0.57"/>
      <g id="Group_11723" data-name="Group 11723" transform="translate(0 1)">
        <text id="_100.00" data-name="$100.00" transform="translate(58 103)" fill="#fff" font-size="20" font-family="OpenSans-Bold, Open Sans" font-weight="700"><tspan x="0" y="0">$100.00</tspan></text>
        <g id="Group_11722" data-name="Group 11722" transform="translate(0 22)">
          <text id="Go_Taxi_cash" data-name="Go Taxi cash" transform="translate(58 53)" fill="#f36e2c" font-size="9" font-family="OpenSans, Open Sans"><tspan x="0" y="0">Go Taxi Cash</tspan></text>
        </g>
      </g>
    </g>
    <g id="Group_11795" data-name="Group 11795" transform="translate(60 206.25)">
      <rect id="Rectangle_236" data-name="Rectangle 236" width="112" height="35" rx="17.5" transform="translate(1 15.75)" fill="#f36e2c"/>
      <text id="Add_Funds" data-name="Add Funds" transform="translate(22 38.75)" fill="#fff" font-size="14" font-family="OpenSans-Semibold, Open Sans" font-weight="600"><tspan x="0" y="0">Add Funds</tspan></text>
    </g>
    <g id="Group_11796" data-name="Group 11796" transform="translate(-1497.81 -1300.743)">
      <g id="freepik--credit-card--inject-111" transform="translate(1756.628 1445.748)">
        <path id="Path_889" data-name="Path 889" d="M272.062,184.833l-57.578-60.9a1.6,1.6,0,0,1,.063-2.262l37.8-35.727a1.6,1.6,0,0,1,2.262.063l57.574,60.907a1.6,1.6,0,0,1-.063,2.262l-37.791,35.712a1.6,1.6,0,0,1-2.265-.052Z" transform="translate(-214.048 -85.504)" fill="#f36e2c"/>
        <g id="Group_11756" data-name="Group 11756" transform="translate(0 0)">
          <path id="Path_890" data-name="Path 890" d="M272.062,184.833l-57.578-60.9a1.6,1.6,0,0,1,.063-2.262l37.8-35.727a1.6,1.6,0,0,1,2.262.063l57.574,60.907a1.6,1.6,0,0,1-.063,2.262l-37.791,35.712a1.6,1.6,0,0,1-2.265-.052Z" transform="translate(-214.048 -85.504)"/>
        </g>
        <path id="Path_891" data-name="Path 891" d="M357.049,146.891,300.312,86.877a2.21,2.21,0,0,0-3.129-.089L286.448,96.939a.882.882,0,0,0-.268.789c1.075,6,5.368,11.372,10.487,14.928,6.183,4.3,13.511,6.562,20.46,9.43S331.08,128.734,335.257,135c3.94,5.918,4.87,13.258,6.875,20.088a39.335,39.335,0,0,0,2.038,5.424.889.889,0,0,0,1.414.275l11.379-10.758a2.21,2.21,0,0,0,.086-3.14Z" transform="translate(-259.34 -85.93)" fill="#fff"/>
        <path id="Path_892" data-name="Path 892" d="M316.225,126.962c-.513.487-1.2.372-1.934-.42L312.84,125l2.976-2.8,1.369,1.451c.7.744.744,1.417.294,1.86a.978.978,0,0,1-1.027.223,1.012,1.012,0,0,1-.227,1.228Zm-.29-3.59-.7.662.64.7c.316.335.606.405.841.186s.175-.51-.141-.844Zm-.294,2.831c.249-.234.19-.539-.149-.9l-.744-.8L314,125.2l.744.8c.35.357.64.443.893.216Z" transform="translate(-276.09 -108.549)" fill="#f36e2c"/>
        <path id="Path_893" data-name="Path 893" d="M322.943,136.643l-1.306-1.38-.885.339-.662-.7,4.218-1.488.64.681-1.711,4.133-.685-.722Zm.316-.711.692-1.544-1.581.6Z" transform="translate(-280.643 -115.589)" fill="#f36e2c"/>
        <path id="Path_894" data-name="Path 894" d="M334.869,142.372l-2.976,2.8-.525-.573.405-3.181-1.8,1.693-.64-.681,2.976-2.8.539.569-.409,3.177,1.8-1.7Z" transform="translate(-286.445 -119.495)" fill="#f36e2c"/>
        <path id="Path_895" data-name="Path 895" d="M340.2,151.626h-.792l-.744.711-.662-.688,2.976-2.809.644.684-1.388,1.309h2.63l.722.744-2.485.022-.409,2.879-.744-.8Z" transform="translate(-291.89 -125.279)" fill="#f36e2c"/>
        <path id="Path_896" data-name="Path 896" d="M283.553,160.12l-.5-.547-.744.677-.264-.279.718-.677-1.454-1.536.2-.193,3.173-.264.294.313-3.076.272,1.116,1.183.629-.6.257.275-.629.6.513.543Z" transform="translate(-256.289 -130.592)" fill="#fff"/>
        <path id="Path_897" data-name="Path 897" d="M288.7,163.854c-.458.428-1.116.432-1.741-.227a1.953,1.953,0,0,1-.577-1.313l.35-.074a1.633,1.633,0,0,0,.484,1.142c.428.454.87.5,1.209.182s.324-.744-.153-1.246l-.186-.193.208-.2,1.659-.138-1.317-1.4.249-.234,1.655,1.752-.2.186-1.7.145A1.083,1.083,0,0,1,288.7,163.854Z" transform="translate(-259.473 -132.388)" fill="#fff"/>
        <path id="Path_898" data-name="Path 898" d="M294.322,170.141c-.465.439-1.116.458-1.76-.208a1.923,1.923,0,0,1-.573-1.309l.35-.074a1.615,1.615,0,0,0,.476,1.116c.435.465.893.5,1.224.182s.372-.744-.29-1.447l-.551-.58,1.488-1.149,1.41,1.488-.249.234-1.164-1.228-.96.725.331.372C294.832,169.051,294.8,169.668,294.322,170.141Z" transform="translate(-262.996 -136.476)" fill="#fff"/>
        <path id="Path_899" data-name="Path 899" d="M300.756,176.99a1.164,1.164,0,0,1-1.715-.138c-.685-.725-.554-1.592.3-2.407a1.684,1.684,0,0,1,2.585-.086,1.7,1.7,0,0,1,.465.789l-.335.1a1.273,1.273,0,0,0-.372-.651,1.309,1.309,0,0,0-2.027.089c-.063.06-.138.138-.212.223a1.19,1.19,0,0,1,1.253.391A1.131,1.131,0,0,1,300.756,176.99Zm-.268-.268a.811.811,0,0,0-.06-1.239.824.824,0,1,0-1.161,1.131.818.818,0,0,0,1.22.108Z" transform="translate(-267.149 -140.952)" fill="#fff"/>
        <path id="Path_900" data-name="Path 900" d="M314.57,194.352l.242-1.458-1.488.156-.294-.312,1.819-.186.264-1.711.3.313-.223,1.373,1.384-.145.286.305-1.722.171-.279,1.812Z" transform="translate(-276.209 -151.655)" fill="#fff"/>
        <path id="Path_901" data-name="Path 901" d="M319.844,199.942l.242-1.462-1.488.156-.3-.312,1.819-.182.268-1.711.294.309-.22,1.373,1.38-.141.29.305-1.726.171-.279,1.812Z" transform="translate(-279.519 -155.166)" fill="#fff"/>
        <path id="Path_902" data-name="Path 902" d="M325.13,205.522l.242-1.458-1.488.156-.294-.312,1.815-.182.268-1.715.294.312-.22,1.373,1.384-.141.286.3-1.726.171-.279,1.812Z" transform="translate(-282.841 -158.67)" fill="#fff"/>
        <path id="Path_903" data-name="Path 903" d="M330.4,211.072l.242-1.458-1.488.156-.294-.313,1.815-.186.268-1.711.294.313-.219,1.373,1.384-.145.286.305-1.726.171-.275,1.812Z" transform="translate(-286.15 -162.155)" fill="#fff"/>
        <path id="Path_904" data-name="Path 904" d="M348.65,230.4l.242-1.458-1.488.156-.294-.312,1.815-.182.268-1.715.294.313-.219,1.373,1.384-.145.286.305-1.726.171-.279,1.812Z" transform="translate(-297.611 -174.295)" fill="#fff"/>
        <path id="Path_905" data-name="Path 905" d="M353.93,235.992l.242-1.462-1.488.156-.294-.309,1.815-.186.268-1.711.294.312-.22,1.373,1.384-.145.286.3-1.726.171-.279,1.812Z" transform="translate(-300.927 -177.805)" fill="#fff"/>
        <path id="Path_906" data-name="Path 906" d="M359.216,241.582l.245-1.462-1.488.156-.294-.312,1.815-.182.268-1.711.294.309-.22,1.373,1.384-.141.286.3-1.726.171-.275,1.812Z" transform="translate(-304.249 -181.316)" fill="#fff"/>
        <path id="Path_907" data-name="Path 907" d="M364.5,247.162l.242-1.458-1.488.156-.294-.313,1.815-.182.268-1.715.3.313-.223,1.373,1.384-.145.286.305-1.726.171-.275,1.812Z" transform="translate(-307.565 -184.82)" fill="#fff"/>
        <path id="Path_908" data-name="Path 908" d="M385.751,261.932l-2.723,2.578-.268-.283,2.478-2.34-.606-.64.249-.238Z" transform="translate(-320 -195.722)" fill="#fff"/>
        <path id="Path_909" data-name="Path 909" d="M387.9,268.764c-.454.431-1.116.431-1.741-.227a1.954,1.954,0,0,1-.576-1.313l.35-.074a1.664,1.664,0,0,0,.484,1.146c.428.45.874.5,1.213.182s.324-.744-.156-1.25l-.182-.193.2-.193,1.659-.141-1.317-1.391.249-.238,1.655,1.752-.2.19-1.7.145C388.366,267.778,388.34,268.358,387.9,268.764Z" transform="translate(-321.771 -198.272)" fill="#fff"/>
        <path id="Path_910" data-name="Path 910" d="M394.746,277.716l-.517-.547-.714.677-.268-.279.718-.677-1.454-1.536.2-.193,3.169-.26.294.309-3.076.272,1.116,1.183.629-.6.26.272-.632.6.517.547Z" transform="translate(-326.123 -204.445)" fill="#fff"/>
        <path id="Path_911" data-name="Path 911" d="M399.127,282.571l-.249.234-1.808-1.912.2-.186,2.18.082a1.242,1.242,0,0,0,1.019-.268c.316-.3.3-.707-.093-1.116a1.273,1.273,0,0,0-1.008-.454v-.372a1.681,1.681,0,0,1,1.3.6c.521.554.573,1.168.115,1.6a1.634,1.634,0,0,1-1.272.372l-1.789-.063Z" transform="translate(-328.986 -206.756)" fill="#fff"/>
        <path id="Path_912" data-name="Path 912" d="M260.132,170.615a.986.986,0,0,1,1.614.822l-.372-.022a.576.576,0,1,0-.989.316.565.565,0,0,0,.465.179v.372a.93.93,0,0,1-.744-.32.919.919,0,0,1,.026-1.347Z" transform="translate(-242.796 -138.81)" fill="#fff"/>
        <path id="Path_913" data-name="Path 913" d="M263.355,175.614l-.573-.6-.372.149-.29-.309,1.86-.651.279.3-.744,1.812-.324-.324Zm.138-.309.3-.677-.692.264Z" transform="translate(-244.237 -141.205)" fill="#fff"/>
        <path id="Path_914" data-name="Path 914" d="M266.915,179.032l.123-.6h0l-.249-.26-.372.342-.286-.3,1.3-1.228.532.562a.665.665,0,0,1,.06,1.008.577.577,0,0,1-.662.123l-.141.684Zm.789-1.28-.234-.245-.454.428.234.246c.171.182.346.193.487.063s.138-.309-.033-.506Z" transform="translate(-246.756 -142.957)" fill="#fff"/>
        <path id="Path_915" data-name="Path 915" d="M269.69,181.873l.324-.112a1.034,1.034,0,0,0,.271.558c.167.179.294.193.372.119.242-.231-.64-.826-.156-1.283.223-.208.573-.2.923.164a1.182,1.182,0,0,1,.312.562l-.316.123a1.015,1.015,0,0,0-.238-.458c-.171-.179-.3-.182-.372-.108-.238.227.64.83.164,1.28-.22.2-.573.2-.926-.171A1.3,1.3,0,0,1,269.69,181.873Z" transform="translate(-248.991 -145.486)" fill="#fff"/>
        <path id="Path_916" data-name="Path 916" d="M276.389,186.42l-1.3,1.231-.283-.3.532-.506-.558-.591-.532.506-.286-.3,1.3-1.228.283.3-.513.487.558.591.513-.487Z" transform="translate(-251.673 -148.132)" fill="#fff"/>
        <path id="Path_917" data-name="Path 917" d="M278.833,190.179a.982.982,0,1,1,0,1.347.93.93,0,0,1,0-1.347Zm1.056,1.116a.543.543,0,0,0,.033-.8.573.573,0,1,0-.033.8Z" transform="translate(-254.552 -151.046)" fill="#fff"/>
        <path id="Path_918" data-name="Path 918" d="M283.072,193.49l.283.3-1.056,1,.617.651-.245.231-.9-.952Z" transform="translate(-256.578 -153.319)" fill="#fff"/>
        <path id="Path_919" data-name="Path 919" d="M285.928,196.51l.558.591a.9.9,0,1,1-1.3,1.228l-.558-.591Zm-.51,1.57a.558.558,0,1,0,.807-.744l-.26-.275-.8.748Z" transform="translate(-258.374 -155.216)" fill="#fff"/>
        <path id="Path_920" data-name="Path 920" d="M289.724,202.615l-.242.231-.952-1.008,1.3-1.228.926.982-.238.227-.647-.681-.283.264.569.606-.234.219-.569-.6-.3.283Z" transform="translate(-260.823 -157.791)" fill="#fff"/>
        <path id="Path_921" data-name="Path 921" d="M292.485,206.072l.123-.591h0l-.249-.26-.372.342-.286-.3,1.3-1.231.532.565a.665.665,0,0,1,.06,1.008.577.577,0,0,1-.662.123l-.141.684Zm.789-1.28-.234-.246-.45.431.231.246c.175.182.346.193.487.06S293.445,204.979,293.274,204.793Z" transform="translate(-262.814 -159.939)" fill="#fff"/>
        <path id="Path_922" data-name="Path 922" d="M246.64,180.493l.692-.045a.8.8,0,0,0,.164.725c.219.231.476.223.744-.037l1.19-1.116-.833-.882.465-.439,1.38,1.458-1.626,1.533a1.113,1.113,0,0,1-1.774-.026A1.387,1.387,0,0,1,246.64,180.493Z" transform="translate(-234.508 -144.031)" fill="#fff"/>
        <path id="Path_923" data-name="Path 923" d="M251.749,188.91a.476.476,0,1,1-.019.673A.476.476,0,0,1,251.749,188.91Z" transform="translate(-237.631 -150.361)" fill="#fff"/>
        <path id="Path_924" data-name="Path 924" d="M260.639,189.623l-3.281,1.548-.588-.621,1.176-2.154-2.232,1.034-.584-.618,1.726-3.192.569.6-1.228,2.232,2.321-1.075.506.536-1.235,2.251,2.329-1.094Z" transform="translate(-239.848 -148.377)" fill="#fff"/>
        <path id="Path_925" data-name="Path 925" d="M266.45,196.854a.477.477,0,0,1,.666.681.476.476,0,0,1-.666-.681Zm-.517.614.528.558-1.927,1.819-.525-.558Z" transform="translate(-245.424 -155.359)" fill="#fff"/>
        <path id="Path_926" data-name="Path 926" d="M269.4,199.74l.528.558-2.656,2.515-.528-.558Z" transform="translate(-247.139 -157.244)" fill="#fff"/>
        <path id="Path_927" data-name="Path 927" d="M272.126,202.63l.528.558L270,205.7l-.528-.558Z" transform="translate(-248.853 -159.059)" fill="#fff"/>
        <path id="Path_928" data-name="Path 928" d="M274.65,205.53a.443.443,0,0,1,.64.052.435.435,0,0,1,.026.632.48.48,0,0,1-.666-.684Zm-.517.617.528.558-1.923,1.819-.528-.558Z" transform="translate(-250.574 -160.809)" fill="#fff"/>
        <path id="Path_929" data-name="Path 929" d="M277.955,213.069l-1.116,1.038-.495-.521.242-.227a.87.87,0,0,1-.822-.335.854.854,0,0,1-.1-1.268c.335-.312.8-.305,1.354.279l.42.446c.242-.227.246-.5-.041-.8a1.268,1.268,0,0,0-.7-.372l.2-.565a2.034,2.034,0,0,1,1.019.606A1.072,1.072,0,0,1,277.955,213.069Zm-1.016-.093.2-.186-.372-.372c-.245-.264-.42-.253-.551-.134s-.119.338.067.536a.569.569,0,0,0,.658.138Z" transform="translate(-252.595 -164.152)" fill="#fff"/>
        <path id="Path_930" data-name="Path 930" d="M284.746,220.218l-1.116,1.042-.525-.558,1.016-.96c.309-.294.32-.569.108-.792a.606.606,0,0,0-.908.048l-.963.915-.528-.558,1.016-.96c.312-.3.327-.565.108-.8a.6.6,0,0,0-.9.056l-.941.923-.528-.558L282.5,216.2l.506.532-.223.212a1.064,1.064,0,0,1,.822.372.99.99,0,0,1,.283.934,1.194,1.194,0,0,1,.975.394A1.018,1.018,0,0,1,284.746,220.218Z" transform="translate(-255.83 -167.581)" fill="#fff"/>
        <path id="Path_931" data-name="Path 931" d="M290.09,228.114l.577-.193a1.783,1.783,0,0,0,.446.844c.242.257.4.29.51.19.312-.3-1.116-1.157-.339-1.886.372-.342.934-.257,1.466.305a2.19,2.19,0,0,1,.532.9l-.573.19a1.488,1.488,0,0,0-.372-.692c-.234-.249-.417-.283-.517-.19-.327.312,1.09,1.175.331,1.89-.372.339-.926.249-1.488-.327A2.252,2.252,0,0,1,290.09,228.114Z" transform="translate(-261.803 -174.28)" fill="#fff"/>
        <path id="Path_932" data-name="Path 932" d="M348.694,287.036a1.5,1.5,0,1,1-.283,2.3A1.546,1.546,0,0,1,348.694,287.036Zm1.488,1.563c.569-.536.617-.96.342-1.25s-.7-.264-1.265.275-.617.96-.346,1.246.688.268,1.257-.271Z" transform="translate(-298.18 -211.689)" fill="#fff"/>
        <path id="Path_933" data-name="Path 933" d="M356.306,296.176a1.183,1.183,0,0,1-1.73-.16,1.489,1.489,0,0,1,.182-2.3,1.684,1.684,0,0,1,2.556,0,1.859,1.859,0,0,1,.491.863l-.629.186a1.16,1.16,0,0,0-.32-.588.915.915,0,0,0-1.391-.019,1.19,1.19,0,0,1,.807.409,1.116,1.116,0,0,1,.033,1.6Zm-.558-.536a.521.521,0,0,0-.03-.781.54.54,0,0,0-.785-.078.532.532,0,0,0,.045.793.521.521,0,0,0,.778.067Z" transform="translate(-302.012 -215.896)" fill="#fff"/>
        <path id="Path_934" data-name="Path 934" d="M361.426,298.8l.472.495-4.49,2.009-.469-.5Z" transform="translate(-303.785 -219.454)" fill="#fff"/>
        <path id="Path_935" data-name="Path 935" d="M364.269,305.592l-.472.446-1.8-1.894.372-.353,1.827.1a.87.87,0,0,0,.71-.175c.2-.186.182-.432-.071-.7a.837.837,0,0,0-.744-.283l-.126-.681a1.6,1.6,0,0,1,1.406.554c.528.562.592,1.2.138,1.633a1.365,1.365,0,0,1-1.187.327l-1.086-.063Z" transform="translate(-306.962 -221.496)" fill="#fff"/>
        <path id="Path_936" data-name="Path 936" d="M370.91,313.053l-.372-.405-.525.495-.536-.565.528-.495-1.276-1.35.391-.372,2.7-.32.577.606-2.545.327.636.673.469-.443.517.547-.469.443.372.409Z" transform="translate(-311.189 -226.513)" fill="#fff"/>
        <path id="Path_937" data-name="Path 937" d="M391.589,220.6a5.385,5.385,0,0,0-1.038-6.822,6.741,6.741,0,0,0-1.975-1.295,4.192,4.192,0,0,0-5.163,1.514,5.725,5.725,0,0,0,.082,4.661c.569,1.581,1.488,3.2,3.054,3.809a4.152,4.152,0,0,0,4.442-1.116A4.7,4.7,0,0,0,391.589,220.6Z" transform="translate(-320.116 -165.04)" fill="#f36e2c"/>
      </g>
      <g id="freepik--Wallet--inject-111" transform="translate(1753.99 1495.662)">
        <rect id="Rectangle_18791" data-name="Rectangle 18791" width="108.106" height="78.458" rx="3" transform="translate(4.391 0.101)" fill="#fff"/>
        <path id="Path_938" data-name="Path 938" d="M333.664,243.577v-.234a5.269,5.269,0,0,0-.067-.7,6.345,6.345,0,0,0-.952-2.541,6.765,6.765,0,0,0-1.324-1.507,6.561,6.561,0,0,0-2.117-1.161c-.208-.071-.428-.112-.647-.175a5.778,5.778,0,0,0-.688-.108l-.718-.034h-4.01l-38.788.03h-51.5a10.271,10.271,0,0,0-1.975.112,6.347,6.347,0,0,0-3.445,1.86,6.239,6.239,0,0,0-1.142,1.641,6.063,6.063,0,0,0-.58,1.923,16.186,16.186,0,0,0-.063,2.046v64.289a6.439,6.439,0,0,0,1.592,4.23,6.323,6.323,0,0,0,3.94,2.124,19.525,19.525,0,0,0,2.291.063h93.159a9.064,9.064,0,0,0,1.745-.115,6.4,6.4,0,0,0,1.633-.551,6.971,6.971,0,0,0,.744-.424,7.706,7.706,0,0,0,.67-.528,6.35,6.35,0,0,0,2.146-4.419c.037-4.464,0-8.757.022-12.849,0-16.368.026-29.626.033-38.784,0-4.579,0-8.132.019-10.546v0c0,2.414,0,5.952.019,10.546,0,9.159,0,22.409.03,38.784,0,4.092.026,8.381,0,12.856a6.521,6.521,0,0,1-1.057,3.218,6.664,6.664,0,0,1-1.116,1.309,7.412,7.412,0,0,1-.688.539,7.272,7.272,0,0,1-.744.435,6.412,6.412,0,0,1-1.67.566,8.874,8.874,0,0,1-1.774.119H233.459a19.406,19.406,0,0,1-2.318-.067,6.488,6.488,0,0,1-4.058-2.184A6.637,6.637,0,0,1,225.446,309c0-12.5,0-24.689,0-36.456V244.741a16.09,16.09,0,0,1,.067-2.072,6.206,6.206,0,0,1,.6-1.975A6.342,6.342,0,0,1,227.287,239a6.884,6.884,0,0,1,1.622-1.235,6.7,6.7,0,0,1,1.919-.67l.5-.078.5-.026c.339-.019.67,0,1,0h51.5l38.788.033h3.992l.725.037c.234.041.469.067.692.115a5.213,5.213,0,0,1,.651.179,6.582,6.582,0,0,1,2.132,1.175,6.741,6.741,0,0,1,1.328,1.522,6.322,6.322,0,0,1,.937,2.559,4.5,4.5,0,0,1,.06.7A1.861,1.861,0,0,1,333.664,243.577Z" transform="translate(-221.167 -236.988)" fill="#263238"/>
        <path id="Path_939" data-name="Path 939" d="M506.19,250.1a6.489,6.489,0,0,1,2.232,0A6.488,6.488,0,0,1,506.19,250.1Z" transform="translate(-397.48 -245.16)" fill="#263238"/>
        <path id="Path_940" data-name="Path 940" d="M481.71,250.1a26.842,26.842,0,0,1,4.553,0A26.848,26.848,0,0,1,481.71,250.1Z" transform="translate(-382.106 -245.159)" fill="#263238"/>
        <path id="Path_941" data-name="Path 941" d="M457.24,250.1a26.778,26.778,0,0,1,4.55,0A26.772,26.772,0,0,1,457.24,250.1Z" transform="translate(-366.739 -245.159)" fill="#263238"/>
        <path id="Path_942" data-name="Path 942" d="M432.76,250.1a26.841,26.841,0,0,1,4.553,0A26.847,26.847,0,0,1,432.76,250.1Z" transform="translate(-351.366 -245.159)" fill="#263238"/>
        <path id="Path_943" data-name="Path 943" d="M408.29,250.1a26.778,26.778,0,0,1,4.549,0A26.771,26.771,0,0,1,408.29,250.1Z" transform="translate(-335.998 -245.159)" fill="#263238"/>
        <path id="Path_944" data-name="Path 944" d="M383.81,250.1a26.84,26.84,0,0,1,4.553,0A26.846,26.846,0,0,1,383.81,250.1Z" transform="translate(-320.625 -245.159)" fill="#263238"/>
        <path id="Path_945" data-name="Path 945" d="M359.34,250.1a26.778,26.778,0,0,1,4.549,0A26.771,26.771,0,0,1,359.34,250.1Z" transform="translate(-305.258 -245.159)" fill="#263238"/>
        <path id="Path_946" data-name="Path 946" d="M334.86,250.1a26.839,26.839,0,0,1,4.553,0A26.845,26.845,0,0,1,334.86,250.1Z" transform="translate(-289.884 -245.159)" fill="#263238"/>
        <path id="Path_947" data-name="Path 947" d="M310.38,250.1a26.841,26.841,0,0,1,4.553,0A26.848,26.848,0,0,1,310.38,250.1Z" transform="translate(-274.511 -245.159)" fill="#263238"/>
        <path id="Path_948" data-name="Path 948" d="M285.91,250.077a26.722,26.722,0,0,1,4.542,0,26.706,26.706,0,0,1-4.542,0Z" transform="translate(-259.143 -245.14)" fill="#263238"/>
        <path id="Path_949" data-name="Path 949" d="M261.43,250.077a26.853,26.853,0,0,1,4.553,0,26.836,26.836,0,0,1-4.553,0Z" transform="translate(-243.77 -245.14)" fill="#263238"/>
        <path id="Path_950" data-name="Path 950" d="M243.015,252.329a12.654,12.654,0,0,1-.1-2.232l.1-.1h.867l.711.022a2.385,2.385,0,0,1,.655.067,2.283,2.283,0,0,1-.655.071l-.711.019h-.867l.1-.1A13.1,13.1,0,0,1,243.015,252.329Z" transform="translate(-232.136 -245.159)" fill="#263238"/>
        <path id="Path_951" data-name="Path 951" d="M243.015,271.65a22.532,22.532,0,0,1,0-4.17,22.518,22.518,0,0,1,0,4.17Z" transform="translate(-232.137 -256.137)" fill="#263238"/>
        <path id="Path_952" data-name="Path 952" d="M243.037,294.08a22.533,22.533,0,0,1,0-4.17A22.522,22.522,0,0,1,243.037,294.08Z" transform="translate(-232.158 -270.223)" fill="#263238"/>
        <path id="Path_953" data-name="Path 953" d="M243.037,316.5a22.566,22.566,0,0,1,0-4.174A22.56,22.56,0,0,1,243.037,316.5Z" transform="translate(-232.158 -284.303)" fill="#263238"/>
        <path id="Path_954" data-name="Path 954" d="M243.037,338.954a22.568,22.568,0,0,1,0-4.174,22.561,22.561,0,0,1,0,4.174Z" transform="translate(-232.158 -298.401)" fill="#263238"/>
        <path id="Path_955" data-name="Path 955" d="M243.037,361.36a22.516,22.516,0,0,1,0-4.17A22.521,22.521,0,0,1,243.037,361.36Z" transform="translate(-232.158 -312.475)" fill="#263238"/>
        <path id="Path_956" data-name="Path 956" d="M243.037,383.79a22.516,22.516,0,0,1,0-4.17A22.521,22.521,0,0,1,243.037,383.79Z" transform="translate(-232.158 -326.561)" fill="#263238"/>
        <path id="Path_957" data-name="Path 957" d="M243.037,406.22a22.516,22.516,0,0,1,0-4.17A22.521,22.521,0,0,1,243.037,406.22Z" transform="translate(-232.158 -340.647)" fill="#263238"/>
        <path id="Path_958" data-name="Path 958" d="M245.252,426.718a13.139,13.139,0,0,1-2.232.1c-.193-.193-.056-.056-.1-.1h0v-1.574a2.1,2.1,0,0,1,.071-.651,2.346,2.346,0,0,1,.067.651c0,.231,0,.465.022.71v.863h0c-.045-.041.1.1-.1-.093A12.686,12.686,0,0,1,245.252,426.718Z" transform="translate(-232.142 -354.74)" fill="#263238"/>
        <path id="Path_959" data-name="Path 959" d="M265.784,430.3a25.829,25.829,0,0,1-4.464,0,25.788,25.788,0,0,1,4.464,0Z" transform="translate(-243.701 -358.317)" fill="#263238"/>
        <path id="Path_960" data-name="Path 960" d="M289.9,430.3a25.829,25.829,0,0,1-4.464,0,25.788,25.788,0,0,1,4.464,0Z" transform="translate(-258.848 -358.317)" fill="#263238"/>
        <path id="Path_961" data-name="Path 961" d="M313.986,430.317a26.041,26.041,0,0,1-4.486,0A26.059,26.059,0,0,1,313.986,430.317Z" transform="translate(-273.958 -358.338)" fill="#263238"/>
        <path id="Path_962" data-name="Path 962" d="M338.106,430.317a26.04,26.04,0,0,1-4.486,0A26.058,26.058,0,0,1,338.106,430.317Z" transform="translate(-289.105 -358.338)" fill="#263238"/>
        <path id="Path_963" data-name="Path 963" d="M362.226,430.317a26.04,26.04,0,0,1-4.486,0A26.058,26.058,0,0,1,362.226,430.317Z" transform="translate(-304.253 -358.338)" fill="#263238"/>
        <path id="Path_964" data-name="Path 964" d="M386.346,430.317a26.04,26.04,0,0,1-4.486,0A26.059,26.059,0,0,1,386.346,430.317Z" transform="translate(-319.4 -358.338)" fill="#263238"/>
        <path id="Path_965" data-name="Path 965" d="M410.426,430.317a26.041,26.041,0,0,1-4.486,0A26.059,26.059,0,0,1,410.426,430.317Z" transform="translate(-334.523 -358.338)" fill="#263238"/>
        <path id="Path_966" data-name="Path 966" d="M434.586,430.317a26.04,26.04,0,0,1-4.486,0A26.058,26.058,0,0,1,434.586,430.317Z" transform="translate(-349.695 -358.338)" fill="#263238"/>
        <path id="Path_967" data-name="Path 967" d="M458.706,430.317a26.039,26.039,0,0,1-4.486,0A26.058,26.058,0,0,1,458.706,430.317Z" transform="translate(-364.843 -358.338)" fill="#263238"/>
        <path id="Path_968" data-name="Path 968" d="M482.836,430.317a26.039,26.039,0,0,1-4.486,0A26.058,26.058,0,0,1,482.836,430.317Z" transform="translate(-379.996 -358.338)" fill="#263238"/>
        <path id="Path_969" data-name="Path 969" d="M504.7,430.317a6.485,6.485,0,0,1-2.232,0,6.487,6.487,0,0,1,2.232,0Z" transform="translate(-395.144 -358.338)" fill="#263238"/>
        <g id="Group_11757" data-name="Group 11757" transform="translate(4.361 43.618)" opacity="0.3">
          <path id="Path_970" data-name="Path 970" d="M263,354.24a15.907,15.907,0,0,1-1.116,5.952c-1.138,2.232-1.488,3.117-3.869,3.98s-32.334,4.155-32.334,4.155V358.22Z" transform="translate(-225.68 -354.24)"/>
        </g>
        <g id="Group_11758" data-name="Group 11758" transform="translate(4.391 20.795)" opacity="0.3">
          <path id="Path_971" data-name="Path 971" d="M262.524,301.688s.342-3.8-9.185-5.208c-10.9-1.611-27.58-3.59-27.58-3.59v7.183Z" transform="translate(-225.76 -292.89)"/>
        </g>
        <rect id="Rectangle_18792" data-name="Rectangle 18792" width="41.638" height="24.522" rx="2" transform="translate(0.057 26.149)" fill="#f36e2c"/>
        <path id="Path_972" data-name="Path 972" d="M219.337,331.65h-.316a4.815,4.815,0,0,1-.926-.127,5.125,5.125,0,0,1-1.417-.551,5.269,5.269,0,0,1-1.566-1.35,5.337,5.337,0,0,1-1.06-2.362,7.752,7.752,0,0,1-.089-1.488v-13.5a5.387,5.387,0,0,1,2.135-4.129,5.26,5.26,0,0,1,2.3-1.012,6.789,6.789,0,0,1,1.287-.089h30.667a5.422,5.422,0,0,1,5.394,4.892c.041.525.026,1.034.03,1.544v11.8c0,.476.019.937,0,1.414a5.561,5.561,0,0,1-.086.7,6.987,6.987,0,0,1-.186.677,5.42,5.42,0,0,1-3.932,3.508,6.459,6.459,0,0,1-.651.115c-.22.019-.439.026-.659.033h-12.89l-13.2-.033-3.59-.019h0l3.59-.019,13.2-.03h11.61a11.02,11.02,0,0,0,2.548-.149,5.249,5.249,0,0,0,3.75-3.415,7.78,7.78,0,0,0,.275-2.738v-11.8c0-.51,0-1.027-.026-1.525a5.234,5.234,0,0,0-1.142-2.783,5.772,5.772,0,0,0-1.116-1.038,5.66,5.66,0,0,0-1.395-.666,5.8,5.8,0,0,0-1.536-.231H219.675a6.737,6.737,0,0,0-1.261.085,5.12,5.12,0,0,0-2.232.975,5.238,5.238,0,0,0-2.083,4.006c-.019,1.514,0,2.976,0,4.371v9.121a7.867,7.867,0,0,0,.082,1.469,5.319,5.319,0,0,0,3.958,4.241,5.045,5.045,0,0,0,.919.141Z" transform="translate(-213.956 -280.983)" fill="#263238"/>
        <circle id="Ellipse_11" data-name="Ellipse 11" cx="8.913" cy="8.913" r="8.913" transform="translate(20.238 30.419)" fill="#263238"/>
        <path id="Path_973" data-name="Path 973" d="M298.46,340.209a9.427,9.427,0,0,0,2.128-1.116,7.7,7.7,0,0,0,1.8-1.86,6.986,6.986,0,0,0,.963-6.06,7.572,7.572,0,0,0-1.138-2.325,9.22,9.22,0,0,0-1.674-1.719.9.9,0,0,1,.145.082,4.468,4.468,0,0,1,.4.279,6.788,6.788,0,0,1,1.243,1.276,7.545,7.545,0,0,1,1.2,2.355,7,7,0,0,1-.989,6.212,7.538,7.538,0,0,1-1.86,1.86,6.6,6.6,0,0,1-1.577.822,3.928,3.928,0,0,1-.461.145A.469.469,0,0,1,298.46,340.209Z" transform="translate(-267.025 -293.597)" fill="#fafafa"/>
      </g>
      <g id="freepik--Money--inject-111" transform="translate(1742.145 1439.724)">
        <path id="Path_974" data-name="Path 974" d="M596.569,156.918a8.769,8.769,0,1,1-9.508-7.924A8.769,8.769,0,0,1,596.569,156.918Z" transform="translate(-478.554 -141.959)" fill="#fff"/>
        <path id="Path_1435" data-name="Path 1435" d="M9.319,4.238A4.67,4.67,0,1,1,4.256.019,4.67,4.67,0,0,1,9.319,4.238Z" transform="translate(102.501 33.344) rotate(45)" fill="#fff"/>
        <g id="Group_11759" data-name="Group 11759" transform="translate(102.501 8.792)" opacity="0.3">
          <path id="Path_975" data-name="Path 975" d="M602.516,164.146a4.143,4.143,0,0,1-.246-.792,7.133,7.133,0,0,0-.951-1.971,6.817,6.817,0,0,0-.99-1.131,6.665,6.665,0,0,0-1.406-.991,6.218,6.218,0,0,0-.852-.37,6.468,6.468,0,0,0-.933-.252,6.554,6.554,0,0,0-.991-.113,6.932,6.932,0,0,0-1.03.042,7.371,7.371,0,0,0-1.01.2,6.636,6.636,0,0,0-.939.349,6.5,6.5,0,0,0-1.585,1.03,6.679,6.679,0,0,0-1.133,1.29,6.814,6.814,0,0,0-.689,1.335,7.031,7.031,0,0,0-.452,2.139,3.913,3.913,0,0,1-.054.822c-.042.006-.113-.283-.147-.822a6.2,6.2,0,0,1,.309-2.26,6.671,6.671,0,0,1,1.85-2.852,6.78,6.78,0,0,1,2.7-1.517,7.329,7.329,0,0,1,1.09-.224,7.5,7.5,0,0,1,1.111-.044,7.056,7.056,0,0,1,1.074.131,6.848,6.848,0,0,1,1.91.7,6.7,6.7,0,0,1,2.478,2.329,6.173,6.173,0,0,1,.84,2.122A2.141,2.141,0,0,1,602.516,164.146Z" transform="translate(-589.102 -158.007)"/>
        </g>
        <g id="Group_11798" data-name="Group 11798" transform="translate(102.575 34.768) rotate(45)" opacity="0.3">
          <path id="Path_975-2" data-name="Path 975" d="M7.143,3.269a2.2,2.2,0,0,1-.131-.422A3.8,3.8,0,0,0,6.506,1.8a3.63,3.63,0,0,0-.527-.6A3.549,3.549,0,0,0,5.23.668a3.314,3.314,0,0,0-.454-.2,3.446,3.446,0,0,0-.5-.134,3.49,3.49,0,0,0-.527-.06A3.691,3.691,0,0,0,3.2.3,3.926,3.926,0,0,0,2.665.4a3.534,3.534,0,0,0-.5.186,3.461,3.461,0,0,0-.844.549,3.557,3.557,0,0,0-.6.687,3.628,3.628,0,0,0-.367.711A3.742,3.742,0,0,0,.111,3.675a2.085,2.085,0,0,1-.029.438c-.022,0-.06-.151-.078-.438a3.3,3.3,0,0,1,.165-1.2A3.552,3.552,0,0,1,1.154.953,3.611,3.611,0,0,1,2.59.145a3.9,3.9,0,0,1,.58-.119A4,4,0,0,1,3.762,0a3.757,3.757,0,0,1,.572.07A3.647,3.647,0,0,1,5.351.443a3.568,3.568,0,0,1,1.32,1.24,3.286,3.286,0,0,1,.447,1.13A1.14,1.14,0,0,1,7.143,3.269Z"/>
        </g>
        <g id="Group_11760" data-name="Group 11760" transform="translate(106.373 11.085)">
          <path id="Path_976" data-name="Path 976" d="M612.664,178.137l.121,1.157-1.034.109-.117-1.127a4.936,4.936,0,0,1-2.659-.559l.436-1.321a4.194,4.194,0,0,0,2.08.525l-.18-1.725c-1.175-.16-2.5-.408-2.65-1.888-.115-1.1.584-2.118,2.2-2.474l-.119-1.147,1.034-.107.117,1.125a4.728,4.728,0,0,1,2.163.412l-.382,1.319a4.265,4.265,0,0,0-1.636-.372l.182,1.757c1.175.149,2.476.4,2.627,1.858C614.956,176.761,614.265,177.773,612.664,178.137Zm-1.507-4.461L611,172.209c-.533.18-.719.5-.683.844S610.685,173.579,611.157,173.676Zm2.036,2.306c-.038-.363-.358-.527-.818-.636l.149,1.426C613.029,176.606,613.227,176.313,613.193,175.982Z" transform="translate(-608.649 -169.58)" fill="#f36e2c"/>
        </g>
        <g id="Group_11797" data-name="Group 11797" transform="translate(103.17 37.089) rotate(45)">
          <path id="Path_976-2" data-name="Path 976" d="M2.138,4.557l.064.616-.551.058-.062-.6a2.629,2.629,0,0,1-1.416-.3l.232-.7a2.233,2.233,0,0,0,1.108.28l-.1-.919C.792,2.9.089,2.773.006,1.985-.055,1.4.318.858,1.176.668L1.113.057,1.664,0l.062.6A2.518,2.518,0,0,1,2.878.818l-.2.7a2.271,2.271,0,0,0-.871-.2l.1.936c.625.079,1.318.211,1.4.989C3.358,3.824,2.99,4.363,2.138,4.557Zm-.8-2.375L1.253,1.4c-.284.1-.383.268-.364.449S1.084,2.13,1.335,2.181ZM2.42,3.409c-.02-.193-.191-.281-.436-.339l.079.759C2.332,3.741,2.438,3.585,2.42,3.409Z" fill="#f36e2c"/>
        </g>
        <path id="Path_977" data-name="Path 977" d="M589.739,191.206a.249.249,0,0,1,.014.053,1.047,1.047,0,0,0,.028.156c.012.063.024.156.04.254a2.88,2.88,0,0,0,.069.345,6.759,6.759,0,0,0,1.807,3.261l.313.285c.053.046.1.1.16.143l.176.131c.119.087.236.184.362.265l.4.24a6.765,6.765,0,0,0,1.813.7,6.619,6.619,0,0,0,4.106-.378,6.76,6.76,0,0,0,1.654-1.022l.345-.307c.111-.1.2-.22.307-.327.049-.053.1-.107.148-.16s.089-.115.135-.17c.085-.115.17-.226.255-.337a7.013,7.013,0,0,0,.719-1.359,6.733,6.733,0,0,0,.461-2.179,2.626,2.626,0,0,0,0-.351v-.416a.311.311,0,0,1,0-.055.212.212,0,0,1,0,.053.822.822,0,0,0,.012.158c.012.063,0,.158.014.259a2.267,2.267,0,0,1,0,.353,6.518,6.518,0,0,1-.434,2.2,6.777,6.777,0,0,1-.717,1.387l-.248.347c-.045.057-.087.119-.135.174l-.151.164c-.1.109-.2.226-.311.331l-.346.315a6.85,6.85,0,0,1-1.676,1.042,6.684,6.684,0,0,1-4.16.384,6.787,6.787,0,0,1-1.838-.721l-.4-.244c-.129-.083-.246-.182-.366-.269l-.176-.135c-.058-.046-.109-.1-.164-.147l-.321-.3a6.939,6.939,0,0,1-.957-1.228,6.534,6.534,0,0,1-.828-2.086,2.4,2.4,0,0,1-.06-.347c-.012-.1-.022-.186-.031-.258s-.012-.117-.018-.158A.258.258,0,0,1,589.739,191.206Z" transform="translate(-487.111 -174.854)" fill="#263238"/>
        <path id="Path_1434" data-name="Path 1434" d="M0,.653A.133.133,0,0,1,.008.681.56.56,0,0,0,.022.765C.029.8.035.848.043.9a1.533,1.533,0,0,0,.037.184,3.6,3.6,0,0,0,.962,1.736l.167.152c.028.024.055.052.085.076l.094.07c.063.046.126.1.193.141l.211.128a3.6,3.6,0,0,0,.965.374,3.525,3.525,0,0,0,2.187-.2,3.6,3.6,0,0,0,.881-.544l.184-.164c.059-.055.105-.117.164-.174.026-.028.054-.057.079-.085S6.3,2.53,6.323,2.5c.045-.061.091-.12.136-.179A3.734,3.734,0,0,0,6.842,1.6,3.585,3.585,0,0,0,7.087.438a1.4,1.4,0,0,0,0-.187V.029a.164.164,0,0,1,0-.03.114.114,0,0,1,0,.028.439.439,0,0,0,.006.084C7.1.147,7.094.2,7.1.251a1.205,1.205,0,0,1,0,.188A3.471,3.471,0,0,1,6.87,1.611a3.61,3.61,0,0,1-.382.738l-.132.185c-.024.031-.046.063-.072.093l-.08.088c-.054.058-.105.12-.166.176l-.184.168a3.648,3.648,0,0,1-.892.555,3.559,3.559,0,0,1-2.215.2,3.614,3.614,0,0,1-.979-.384L1.557,3.3c-.069-.044-.131-.1-.2-.143l-.094-.072c-.031-.024-.058-.053-.088-.078L1.01,2.85A3.694,3.694,0,0,1,.5,2.2,3.48,3.48,0,0,1,.059,1.085,1.278,1.278,0,0,1,.028.9C.021.848.016.8.011.764S0,.7,0,.679A.138.138,0,0,1,0,.653Z" transform="translate(100.238 37.2) rotate(45)" fill="#263238"/>
        <path id="Path_982" data-name="Path 982" d="M113.441,287.244a8.32,8.32,0,1,1-9.423-7.014A8.32,8.32,0,0,1,113.441,287.244Z" transform="translate(-96.892 -254.155)" fill="#fff"/>
        <g id="Group_11763" data-name="Group 11763" transform="translate(1.884 27.706)" opacity="0.3">
          <path id="Path_983" data-name="Path 983" d="M119.079,294.294a3.95,3.95,0,0,1-.275-.729,6.673,6.673,0,0,0-1-1.818,6.573,6.573,0,0,0-.99-1.018,6.3,6.3,0,0,0-1.387-.856,5.756,5.756,0,0,0-.826-.3,5.9,5.9,0,0,0-.9-.2,6.225,6.225,0,0,0-.947-.056,6.794,6.794,0,0,0-.973.1,6.623,6.623,0,0,0-.947.246,6.488,6.488,0,0,0-.872.378,5.916,5.916,0,0,0-.776.489,6.1,6.1,0,0,0-.672.571,6.3,6.3,0,0,0-1.585,2.575,6.673,6.673,0,0,0-.315,2.052,5.3,5.3,0,0,1,0,.779,1.8,1.8,0,0,1-.18-.769,5.784,5.784,0,0,1,.174-2.157,6.362,6.362,0,0,1,.563-1.4,6.533,6.533,0,0,1,1.038-1.4,6.181,6.181,0,0,1,.709-.626,6.334,6.334,0,0,1,.83-.537,6.54,6.54,0,0,1,3.009-.782,6.686,6.686,0,0,1,1.022.067,6.1,6.1,0,0,1,.965.218,6.4,6.4,0,0,1,3.35,2.419A5.918,5.918,0,0,1,119,293.5,2.026,2.026,0,0,1,119.079,294.294Z" transform="translate(-106.401 -288.828)"/>
        </g>
        <g id="Group_11764" data-name="Group 11764" transform="translate(5.504 29.862)">
          <path id="Path_984" data-name="Path 984" d="M128.747,307.766l.174,1.089-.973.157-.17-1.062a4.619,4.619,0,0,1-2.547-.4l.345-1.274a3.962,3.962,0,0,0,2,.4l-.259-1.624c-1.123-.089-2.387-.257-2.611-1.648-.164-1.032.444-2.038,1.953-2.458l-.174-1.082.975-.155.168,1.06a4.492,4.492,0,0,1,2.072.277l-.3,1.276a4.038,4.038,0,0,0-1.571-.267l.265,1.654c1.121.079,2.365.25,2.585,1.622C130.845,306.342,130.245,307.336,128.747,307.766Zm-1.662-4.146-.222-1.387c-.5.2-.656.515-.6.836S126.636,303.553,127.085,303.62Zm2.05,2.078c-.055-.341-.366-.481-.808-.561l.214,1.343C129.011,306.3,129.185,306.009,129.136,305.7Z" transform="translate(-124.678 -299.71)" fill="#f36e2c"/>
        </g>
        <path id="Path_985" data-name="Path 985" d="M107.234,319.154a.316.316,0,0,1,.014.05c.01.038.022.087.036.147l.052.238a2.782,2.782,0,0,0,.083.323,6.383,6.383,0,0,0,.913,1.9,6.54,6.54,0,0,0,.969,1.089l.311.254c.053.042.105.087.16.127l.174.115c.117.075.232.16.357.232l.384.2a6.46,6.46,0,0,0,1.753.572,6.3,6.3,0,0,0,3.871-.572,6.477,6.477,0,0,0,1.511-1.054l.309-.311c.1-.1.184-.218.275-.323l.133-.16c.044-.056.079-.113.117-.168.077-.113.151-.224.226-.333a6.734,6.734,0,0,0,.61-1.323,6.368,6.368,0,0,0,.323-2.086,2.178,2.178,0,0,0-.014-.333c0-.093-.014-.174-.018-.244a.962.962,0,0,0-.01-.151.17.17,0,0,1,0-.052.163.163,0,0,1,.01.052,1.414,1.414,0,0,0,.02.149c.008.059.018.151.03.244a2.384,2.384,0,0,1,.022.335,6.142,6.142,0,0,1-.293,2.108,6.489,6.489,0,0,1-.608,1.347l-.224.337c-.04.057-.075.117-.119.172l-.133.163c-.091.109-.176.226-.277.331s-.2.21-.313.315a6.5,6.5,0,0,1-1.533,1.078,6.339,6.339,0,0,1-3.928.58,6.517,6.517,0,0,1-1.783-.594l-.4-.212c-.127-.071-.242-.158-.361-.236l-.176-.117c-.055-.042-.107-.089-.162-.131l-.313-.258a6.567,6.567,0,0,1-.971-1.113,6.182,6.182,0,0,1-.891-1.933,2.045,2.045,0,0,1-.075-.327c-.016-.093-.03-.172-.044-.242l-.024-.149A.2.2,0,0,1,107.234,319.154Z" transform="translate(-105.182 -283.946)" fill="#263238"/>
      </g>
    </g>
  </g>
</svg>
