<svg xmlns="http://www.w3.org/2000/svg" xmlns:xlink="http://www.w3.org/1999/xlink" width="74" height="74" viewBox="0 0 74 74">
  <defs>
    <radialGradient id="radial-gradient" cx="0.5" cy="0.5" r="0.5" gradientUnits="objectBoundingBox">
      <stop offset="0"/>
      <stop offset="1" stop-opacity="0.09"/>
    </radialGradient>
  </defs>
  <g id="Group_12028" data-name="Group 12028" transform="translate(8923 -10272)">
    <rect id="Rectangle_18683" data-name="Rectangle 18683" width="74" height="74" rx="10" transform="translate(-8923 10272)" fill="#f6f6f6"/>
    <ellipse id="Ellipse_16" data-name="Ellipse 16" cx="23" cy="2" rx="23" ry="2" transform="translate(-8906 10335)" opacity="0.11" fill="url(#radial-gradient)"/>
    <g id="Group_11771" data-name="Group 11771" transform="translate(-10654.854 8837.258)">
      <g id="freepik--credit-card--inject-111" transform="translate(1748.282 1442.277)">
        <path id="Path_889" data-name="Path 889" d="M238.632,127.6l-24.4-25.808a.679.679,0,0,1,.027-.958l16.017-15.139a.678.678,0,0,1,.958.027l24.4,25.81a.679.679,0,0,1-.027.958l-16.014,15.133a.676.676,0,0,1-.96-.022Z" transform="translate(-214.048 -85.504)" fill="#f36e2c"/>
        <g id="Group_11756" data-name="Group 11756" transform="translate(0 0)">
          <path id="Path_890" data-name="Path 890" d="M238.632,127.6l-24.4-25.808a.679.679,0,0,1,.027-.958l16.017-15.139a.678.678,0,0,1,.958.027l24.4,25.81a.679.679,0,0,1-.027.958l-16.014,15.133a.676.676,0,0,1-.96-.022Z" transform="translate(-214.048 -85.504)"/>
        </g>
        <path id="Path_891" data-name="Path 891" d="M316.2,111.908,292.162,86.476a.936.936,0,0,0-1.326-.038l-4.549,4.3a.374.374,0,0,0-.113.334,10.342,10.342,0,0,0,4.444,6.326c2.62,1.821,5.725,2.781,8.67,4s5.913,2.817,7.683,5.473c1.669,2.508,2.063,5.618,2.913,8.512a16.664,16.664,0,0,0,.864,2.3.377.377,0,0,0,.6.117l4.822-4.559a.936.936,0,0,0,.036-1.33Z" transform="translate(-274.799 -86.075)" fill="#f36e2c"/>
        <path id="Path_892" data-name="Path 892" d="M314.274,124.218c-.218.206-.508.158-.82-.178l-.615-.651L314.1,122.2l.58.615c.3.315.315.6.125.788a.415.415,0,0,1-.435.095.429.429,0,0,1-.1.52Zm-.123-1.521-.3.281.271.295c.134.142.257.172.356.079s.074-.216-.06-.358Zm-.125,1.2c.106-.1.08-.229-.063-.38l-.315-.339-.315.293.315.34c.148.151.271.188.378.091Z" transform="translate(-297.267 -116.415)" fill="#fff"/>
        <path id="Path_893" data-name="Path 893" d="M321.3,134.78l-.553-.585-.375.143-.281-.3,1.788-.631.271.288-.725,1.751-.29-.306Zm.134-.3.293-.654-.67.255Z" transform="translate(-303.374 -125.858)" fill="#fff"/>
        <path id="Path_894" data-name="Path 894" d="M331.677,140.792l-1.261,1.189-.222-.243.172-1.348-.765.717-.271-.288,1.261-1.189.229.241-.173,1.346.764-.722Z" transform="translate(-311.157 -131.098)" fill="#fff"/>
        <path id="Path_895" data-name="Path 895" d="M338.932,150.021H338.6l-.315.3L338,150.03l1.261-1.19.273.29-.588.555h1.115l.306.315-1.053.009-.173,1.22-.315-.339Z" transform="translate(-318.461 -138.856)" fill="#fff"/>
        <path id="Path_896" data-name="Path 896" d="M282.261,158.495l-.211-.232-.315.287-.112-.118.3-.287-.616-.651.085-.082,1.345-.112.125.132-1.3.115.473.5.266-.254.109.117-.266.252.218.23Z" transform="translate(-270.707 -145.982)" fill="#fff"/>
        <path id="Path_897" data-name="Path 897" d="M287.362,161.725c-.194.181-.473.183-.738-.1a.828.828,0,0,1-.244-.556l.148-.032a.692.692,0,0,0,.2.484c.181.192.369.213.512.077s.137-.315-.065-.528l-.079-.082.088-.084.7-.058-.558-.591.106-.1.7.742-.084.079-.72.061A.459.459,0,0,1,287.362,161.725Z" transform="translate(-274.978 -148.391)" fill="#fff"/>
        <path id="Path_898" data-name="Path 898" d="M292.978,168.141c-.2.186-.473.194-.746-.088a.815.815,0,0,1-.243-.555l.148-.032a.684.684,0,0,0,.2.473c.184.2.378.211.519.077s.158-.315-.123-.613l-.233-.246.631-.487.6.631-.106.1-.493-.52-.407.307.14.158C293.194,167.679,293.182,167.941,292.978,168.141Z" transform="translate(-279.703 -153.875)" fill="#fff"/>
        <path id="Path_899" data-name="Path 899" d="M299.515,175.15a.493.493,0,0,1-.727-.058c-.29-.307-.235-.675.129-1.02a.756.756,0,0,1,1.293.3l-.142.043a.539.539,0,0,0-.158-.276.555.555,0,0,0-.859.038c-.027.025-.058.058-.09.095a.5.5,0,0,1,.531.166A.479.479,0,0,1,299.515,175.15Zm-.113-.114a.344.344,0,0,0-.025-.525.349.349,0,1,0-.492.479.347.347,0,0,0,.517.046Z" transform="translate(-285.274 -159.879)" fill="#fff"/>
        <path id="Path_900" data-name="Path 900" d="M313.683,192.328l.1-.618-.631.066-.125-.132.771-.079.112-.725.126.132-.095.582.586-.061.121.129-.73.073-.118.768Z" transform="translate(-297.427 -174.235)" fill="#fff"/>
        <path id="Path_901" data-name="Path 901" d="M318.954,197.918l.1-.62-.631.066-.126-.132.771-.077.113-.725.125.131-.093.582.585-.06.123.129-.731.073-.118.768Z" transform="translate(-301.866 -178.944)" fill="#fff"/>
        <path id="Path_902" data-name="Path 902" d="M324.243,203.5l.1-.618-.631.066-.125-.132.769-.077.114-.727.125.132-.093.582.586-.06.121.128-.731.073-.118.768Z" transform="translate(-306.322 -183.644)" fill="#fff"/>
        <path id="Path_903" data-name="Path 903" d="M329.513,209.048l.1-.618-.631.066-.125-.132.769-.079.114-.725.125.132-.093.582.586-.061.121.129-.731.073-.117.768Z" transform="translate(-310.761 -188.319)" fill="#fff"/>
        <path id="Path_904" data-name="Path 904" d="M347.763,228.378l.1-.618-.631.066-.125-.132.769-.077.113-.727.125.132-.093.582.586-.061.121.129-.731.072-.118.768Z" transform="translate(-326.134 -204.602)" fill="#fff"/>
        <path id="Path_905" data-name="Path 905" d="M353.043,233.968l.1-.62-.63.066-.125-.131.769-.079.114-.725.125.132-.093.582.586-.061.121.129-.731.073-.118.768Z" transform="translate(-330.582 -209.311)" fill="#fff"/>
        <path id="Path_906" data-name="Path 906" d="M358.331,239.558l.1-.62L357.8,239l-.125-.132.769-.077.113-.725.125.131-.093.582.586-.06.121.128-.731.073-.117.768Z" transform="translate(-335.038 -214.02)" fill="#fff"/>
        <path id="Path_907" data-name="Path 907" d="M363.613,245.138l.1-.618-.631.066-.125-.132.769-.077.113-.727.126.132-.095.582.586-.061.121.129-.731.072-.117.768Z" transform="translate(-339.486 -218.72)" fill="#fff"/>
        <path id="Path_908" data-name="Path 908" d="M384.027,261.4l-1.154,1.092-.113-.12,1.05-.992-.257-.271.106-.1Z" transform="translate(-356.165 -233.344)" fill="#fff"/>
        <path id="Path_909" data-name="Path 909" d="M386.562,266.635c-.192.183-.473.183-.738-.1a.828.828,0,0,1-.244-.556l.148-.032a.7.7,0,0,0,.2.486c.181.191.37.213.514.077s.137-.315-.066-.53l-.077-.082.087-.082.7-.06-.558-.59.106-.1.7.742-.083.08-.719.061C386.761,266.218,386.75,266.464,386.562,266.635Z" transform="translate(-358.54 -236.764)" fill="#fff"/>
        <path id="Path_910" data-name="Path 910" d="M393.457,276.093l-.219-.232-.3.287-.114-.118.3-.287-.616-.651.087-.082,1.343-.11.125.131-1.3.115.473.5.266-.252.11.115-.268.252.219.232Z" transform="translate(-364.378 -245.044)" fill="#fff"/>
        <path id="Path_911" data-name="Path 911" d="M397.942,280.271l-.106.1-.766-.81.085-.079.924.035a.526.526,0,0,0,.432-.114c.134-.128.128-.3-.039-.473a.539.539,0,0,0-.427-.192v-.158a.712.712,0,0,1,.552.252c.221.235.243.495.049.678a.693.693,0,0,1-.539.158l-.758-.027Z" transform="translate(-368.219 -248.144)" fill="#fff"/>
        <path id="Path_912" data-name="Path 912" d="M259.955,170.483a.418.418,0,0,1,.684.348l-.158-.009a.244.244,0,1,0-.419.134.239.239,0,0,0,.2.076v.158a.394.394,0,0,1-.315-.136.389.389,0,0,1,.011-.571Z" transform="translate(-252.609 -157.006)" fill="#fff"/>
        <path id="Path_913" data-name="Path 913" d="M262.643,174.8l-.243-.255-.158.063-.123-.131.788-.276.118.126-.315.768-.137-.137Zm.058-.131.128-.287-.293.112Z" transform="translate(-254.542 -160.218)" fill="#fff"/>
        <path id="Path_914" data-name="Path 914" d="M266.463,177.855l.052-.252h0l-.106-.11-.158.145-.121-.128.552-.52.225.238a.282.282,0,0,1,.025.427.244.244,0,0,1-.281.052l-.06.29Zm.334-.542-.1-.1-.192.181.1.1c.073.077.147.082.206.027s.058-.131-.014-.214Z" transform="translate(-257.92 -162.568)" fill="#fff"/>
        <path id="Path_915" data-name="Path 915" d="M269.69,181.379l.137-.047a.438.438,0,0,0,.115.236c.071.076.125.082.158.05.1-.1-.271-.35-.066-.544.095-.088.243-.087.391.069a.5.5,0,0,1,.132.238l-.134.052a.43.43,0,0,0-.1-.194c-.073-.076-.128-.077-.158-.046-.1.1.271.352.069.542-.093.087-.243.085-.392-.073A.55.55,0,0,1,269.69,181.379Z" transform="translate(-260.919 -165.96)" fill="#fff"/>
        <path id="Path_916" data-name="Path 916" d="M274.989,185.734l-.552.522-.12-.128.225-.214-.236-.251-.225.214-.121-.128.552-.52.12.126-.218.206.236.251.217-.207Z" transform="translate(-264.516 -169.509)" fill="#fff"/>
        <path id="Path_917" data-name="Path 917" d="M278.667,190a.416.416,0,1,1,0,.571.394.394,0,0,1,0-.571Zm.448.473a.23.23,0,0,0,.014-.339.243.243,0,1,0-.014.339Z" transform="translate(-268.377 -173.418)" fill="#fff"/>
        <path id="Path_918" data-name="Path 918" d="M282.322,193.49l.12.128-.448.426.262.276-.1.1-.381-.4Z" transform="translate(-271.094 -176.467)" fill="#fff"/>
        <path id="Path_919" data-name="Path 919" d="M285.18,196.51l.236.251a.38.38,0,1,1-.55.52l-.236-.251Zm-.216.665a.236.236,0,1,0,.342-.315l-.11-.117-.34.317Z" transform="translate(-273.504 -179.011)" fill="#fff"/>
        <path id="Path_920" data-name="Path 920" d="M289.036,201.46l-.1.1-.4-.427.552-.52.392.416-.1.1-.274-.289-.12.112.241.257-.1.093-.241-.255-.128.12Z" transform="translate(-276.789 -182.465)" fill="#fff"/>
        <path id="Path_921" data-name="Path 921" d="M292.033,204.9l.052-.251h0l-.106-.11-.158.145-.121-.128.552-.522.225.24a.282.282,0,0,1,.025.427.244.244,0,0,1-.281.052l-.06.29Zm.334-.542-.1-.1-.191.183.1.1c.074.077.147.082.207.025S292.439,204.432,292.367,204.353Z" transform="translate(-279.459 -185.346)" fill="#fff"/>
        <path id="Path_922" data-name="Path 922" d="M246.632,179.46l.293-.019a.339.339,0,0,0,.069.307c.093.1.2.095.315-.016l.5-.473-.353-.374.2-.186.585.618-.689.649a.472.472,0,0,1-.752-.011A.588.588,0,0,1,246.632,179.46Z" transform="translate(-241.492 -164.009)" fill="#fff"/>
        <path id="Path_923" data-name="Path 923" d="M251.663,188.835a.2.2,0,1,1-.008.285A.2.2,0,0,1,251.663,188.835Z" transform="translate(-245.68 -172.5)" fill="#fff"/>
        <path id="Path_924" data-name="Path 924" d="M257.465,187.316l-1.39.656-.249-.263.5-.913-.946.438-.247-.262.731-1.353.241.254-.52.946.984-.456.214.227-.523.954.987-.463Z" transform="translate(-248.654 -169.838)" fill="#fff"/>
        <path id="Path_925" data-name="Path 925" d="M265.044,196.787a.2.2,0,0,1,.282.288.2.2,0,0,1-.282-.288Zm-.219.26.224.236-.817.771-.222-.236Z" transform="translate(-256.134 -179.204)" fill="#fff"/>
        <path id="Path_926" data-name="Path 926" d="M267.866,199.74l.224.236-1.125,1.066-.224-.236Z" transform="translate(-258.434 -181.732)" fill="#fff"/>
        <path id="Path_927" data-name="Path 927" d="M270.6,202.63l.224.236-1.126,1.064-.224-.236Z" transform="translate(-260.733 -184.167)" fill="#fff"/>
        <path id="Path_928" data-name="Path 928" d="M273.244,205.465a.188.188,0,0,1,.271.022.184.184,0,0,1,.011.268.2.2,0,0,1-.282-.29Zm-.219.262.224.236-.815.771-.224-.236Z" transform="translate(-263.041 -186.514)" fill="#fff"/>
        <path id="Path_929" data-name="Path 929" d="M276.5,211.727l-.473.44-.21-.221.1-.1a.369.369,0,0,1-.348-.142.362.362,0,0,1-.041-.538c.142-.132.339-.129.574.118l.178.189c.1-.1.1-.213-.017-.34a.537.537,0,0,0-.3-.158l.085-.24a.862.862,0,0,1,.432.257A.454.454,0,0,1,276.5,211.727Zm-.43-.039.084-.079-.158-.158c-.1-.112-.178-.107-.233-.057s-.05.143.028.227a.241.241,0,0,0,.279.058Z" transform="translate(-265.752 -190.998)" fill="#fff"/>
        <path id="Path_930" data-name="Path 930" d="M282.346,217.9l-.473.441-.222-.236.43-.407c.131-.125.136-.241.046-.336a.257.257,0,0,0-.385.02l-.408.388-.224-.236.43-.407c.132-.126.139-.24.046-.337a.252.252,0,0,0-.383.024l-.4.391-.224-.236.815-.771.214.225-.095.09a.451.451,0,0,1,.348.158.419.419,0,0,1,.12.4.506.506,0,0,1,.413.167A.431.431,0,0,1,282.346,217.9Z" transform="translate(-270.092 -195.597)" fill="#fff"/>
        <path id="Path_931" data-name="Path 931" d="M290.09,227.395l.244-.082a.756.756,0,0,0,.189.358c.1.109.17.123.216.08.132-.126-.473-.49-.143-.8.158-.145.4-.109.621.129a.928.928,0,0,1,.225.381l-.243.08a.631.631,0,0,0-.158-.293c-.1-.106-.177-.12-.219-.08-.139.132.462.5.14.8-.158.143-.393.106-.631-.139A.954.954,0,0,1,290.09,227.395Z" transform="translate(-278.103 -204.582)" fill="#fff"/>
        <path id="Path_932" data-name="Path 932" d="M348.3,286.69a.637.637,0,1,1-.12.974A.655.655,0,0,1,348.3,286.69Zm.631.662c.241-.227.262-.407.145-.53s-.295-.112-.536.117-.262.407-.147.528.292.114.533-.115Z" transform="translate(-326.898 -254.761)" fill="#fff"/>
        <path id="Path_933" data-name="Path 933" d="M355.045,294.423a.5.5,0,0,1-.733-.068.631.631,0,0,1,.077-.973.714.714,0,0,1,1.083,0,.788.788,0,0,1,.208.366l-.266.079a.492.492,0,0,0-.136-.249.388.388,0,0,0-.59-.008.5.5,0,0,1,.342.173.473.473,0,0,1,.014.679Zm-.236-.227a.221.221,0,0,0-.013-.331.229.229,0,0,0-.333-.033.225.225,0,0,0,.019.336.221.221,0,0,0,.329.028Z" transform="translate(-332.037 -260.404)" fill="#fff"/>
        <path id="Path_934" data-name="Path 934" d="M358.841,298.8l.2.21-1.9.851-.2-.211Z" transform="translate(-334.415 -265.177)" fill="#fff"/>
        <path id="Path_935" data-name="Path 935" d="M362.962,303.552l-.2.189-.761-.8.158-.15.774.044a.369.369,0,0,0,.3-.074c.084-.079.077-.183-.03-.295a.355.355,0,0,0-.315-.12l-.054-.288a.679.679,0,0,1,.6.235c.224.238.251.509.058.692a.578.578,0,0,1-.5.139l-.46-.027Z" transform="translate(-338.677 -267.915)" fill="#fff"/>
        <path id="Path_936" data-name="Path 936" d="M369.654,311.317l-.158-.172-.222.21-.227-.24.224-.21-.541-.572.166-.158,1.146-.136.244.257-1.078.139.27.285.2-.188.219.232-.2.188.158.173Z" transform="translate(-344.346 -274.645)" fill="#fff"/>
        <path id="Path_937" data-name="Path 937" d="M386.609,215.731a2.282,2.282,0,0,0-.44-2.891,2.857,2.857,0,0,0-.837-.549,1.777,1.777,0,0,0-2.188.642,2.426,2.426,0,0,0,.035,1.975,2.544,2.544,0,0,0,1.294,1.614,1.76,1.76,0,0,0,1.882-.473A1.985,1.985,0,0,0,386.609,215.731Z" transform="translate(-356.322 -192.189)" fill="#f36e2c"/>
      </g>
      <g id="freepik--Wallet--inject-111" transform="translate(1747.164 1463.428)">
        <rect id="Rectangle_18791" data-name="Rectangle 18791" width="45.811" height="33.247" rx="3" transform="translate(1.861 0.043)" fill="#f36e2c"/>
        <path id="Path_938" data-name="Path 938" d="M271.3,239.78v-.1a2.225,2.225,0,0,0-.028-.295,2.689,2.689,0,0,0-.4-1.077,2.867,2.867,0,0,0-.561-.638,2.78,2.78,0,0,0-.9-.492c-.088-.03-.181-.047-.274-.074a2.449,2.449,0,0,0-.292-.046l-.3-.014h-1.7l-16.437.013H228.581a4.351,4.351,0,0,0-.837.047,2.689,2.689,0,0,0-1.46.788,2.643,2.643,0,0,0-.484.7,2.569,2.569,0,0,0-.246.815,6.861,6.861,0,0,0-.027.867v27.243a2.729,2.729,0,0,0,.675,1.792,2.68,2.68,0,0,0,1.669.9,8.276,8.276,0,0,0,.971.027H268.32a3.839,3.839,0,0,0,.739-.049,2.71,2.71,0,0,0,.692-.233,2.949,2.949,0,0,0,.315-.18,3.265,3.265,0,0,0,.284-.224,2.691,2.691,0,0,0,.91-1.873c.016-1.892,0-3.711.009-5.445,0-6.936.011-12.554.014-16.435,0-1.941,0-3.446.008-4.469v0c0,1.023,0,2.522.008,4.469,0,3.881,0,9.5.013,16.435,0,1.734.011,3.552,0,5.448a2.764,2.764,0,0,1-.448,1.364,2.825,2.825,0,0,1-.473.555,3.145,3.145,0,0,1-.292.229,3.088,3.088,0,0,1-.315.184,2.717,2.717,0,0,1-.708.24,3.761,3.761,0,0,1-.752.05H228.837a8.228,8.228,0,0,1-.982-.028,2.749,2.749,0,0,1-1.72-.925,2.812,2.812,0,0,1-.694-1.84c0-5.295,0-10.462,0-15.448V240.273a6.818,6.818,0,0,1,.028-.878,2.63,2.63,0,0,1,.254-.837,2.688,2.688,0,0,1,.5-.716,2.917,2.917,0,0,1,.687-.523,2.837,2.837,0,0,1,.813-.284l.213-.033.213-.011c.143-.008.284,0,.424,0h21.822l16.437.014h1.691l.307.016c.1.017.2.028.293.049a2.212,2.212,0,0,1,.276.076,2.79,2.79,0,0,1,.9.5,2.858,2.858,0,0,1,.563.645,2.679,2.679,0,0,1,.4,1.085,1.909,1.909,0,0,1,.025.3A.791.791,0,0,1,271.3,239.78Z" transform="translate(-223.628 -236.988)" fill="#263238"/>
        <path id="Path_939" data-name="Path 939" d="M506.19,250.041a2.75,2.75,0,0,1,.946,0A2.749,2.749,0,0,1,506.19,250.041Z" transform="translate(-460.123 -247.949)" fill="#263238"/>
        <path id="Path_940" data-name="Path 940" d="M481.71,250.041a11.376,11.376,0,0,1,1.93,0A11.376,11.376,0,0,1,481.71,250.041Z" transform="translate(-439.502 -247.949)" fill="#263238"/>
        <path id="Path_941" data-name="Path 941" d="M457.24,250.041a11.348,11.348,0,0,1,1.928,0A11.348,11.348,0,0,1,457.24,250.041Z" transform="translate(-418.889 -247.949)" fill="#263238"/>
        <path id="Path_942" data-name="Path 942" d="M432.76,250.041a11.376,11.376,0,0,1,1.929,0A11.376,11.376,0,0,1,432.76,250.041Z" transform="translate(-398.268 -247.949)" fill="#263238"/>
        <path id="Path_943" data-name="Path 943" d="M408.29,250.041a11.348,11.348,0,0,1,1.928,0A11.348,11.348,0,0,1,408.29,250.041Z" transform="translate(-377.656 -247.949)" fill="#263238"/>
        <path id="Path_944" data-name="Path 944" d="M383.81,250.041a11.376,11.376,0,0,1,1.929,0A11.376,11.376,0,0,1,383.81,250.041Z" transform="translate(-357.035 -247.949)" fill="#263238"/>
        <path id="Path_945" data-name="Path 945" d="M359.34,250.041a11.348,11.348,0,0,1,1.928,0A11.348,11.348,0,0,1,359.34,250.041Z" transform="translate(-336.422 -247.949)" fill="#263238"/>
        <path id="Path_946" data-name="Path 946" d="M334.86,250.041a11.376,11.376,0,0,1,1.929,0A11.376,11.376,0,0,1,334.86,250.041Z" transform="translate(-315.801 -247.949)" fill="#263238"/>
        <path id="Path_947" data-name="Path 947" d="M310.38,250.041a11.376,11.376,0,0,1,1.929,0A11.376,11.376,0,0,1,310.38,250.041Z" transform="translate(-295.18 -247.949)" fill="#263238"/>
        <path id="Path_948" data-name="Path 948" d="M285.91,250.015a11.319,11.319,0,0,1,1.925,0,11.319,11.319,0,0,1-1.925,0Z" transform="translate(-274.567 -247.923)" fill="#263238"/>
        <path id="Path_949" data-name="Path 949" d="M261.43,250.015a11.375,11.375,0,0,1,1.929,0,11.375,11.375,0,0,1-1.929,0Z" transform="translate(-253.946 -247.923)" fill="#263238"/>
        <path id="Path_950" data-name="Path 950" d="M242.952,250.987a5.361,5.361,0,0,1-.041-.946l.041-.041h.367l.3.009a1.011,1.011,0,0,1,.277.028.967.967,0,0,1-.277.03l-.3.008h-.367l.041-.041A5.552,5.552,0,0,1,242.952,250.987Z" transform="translate(-238.342 -247.949)" fill="#263238"/>
        <path id="Path_951" data-name="Path 951" d="M242.952,269.247a9.548,9.548,0,0,1,0-1.767,9.544,9.544,0,0,1,0,1.767Z" transform="translate(-238.342 -262.673)" fill="#263238"/>
        <path id="Path_952" data-name="Path 952" d="M242.981,291.677a9.548,9.548,0,0,1,0-1.767A9.546,9.546,0,0,1,242.981,291.677Z" transform="translate(-238.371 -281.568)" fill="#263238"/>
        <path id="Path_953" data-name="Path 953" d="M242.981,314.1a9.562,9.562,0,0,1,0-1.769A9.559,9.559,0,0,1,242.981,314.1Z" transform="translate(-238.371 -300.453)" fill="#263238"/>
        <path id="Path_954" data-name="Path 954" d="M242.981,336.549a9.562,9.562,0,0,1,0-1.769,9.559,9.559,0,0,1,0,1.769Z" transform="translate(-238.371 -319.364)" fill="#263238"/>
        <path id="Path_955" data-name="Path 955" d="M242.981,358.957a9.545,9.545,0,0,1,0-1.767A9.542,9.542,0,0,1,242.981,358.957Z" transform="translate(-238.371 -338.242)" fill="#263238"/>
        <path id="Path_956" data-name="Path 956" d="M242.981,381.387a9.545,9.545,0,0,1,0-1.767A9.543,9.543,0,0,1,242.981,381.387Z" transform="translate(-238.371 -357.136)" fill="#263238"/>
        <path id="Path_957" data-name="Path 957" d="M242.981,403.817a9.545,9.545,0,0,1,0-1.767A9.543,9.543,0,0,1,242.981,403.817Z" transform="translate(-238.371 -376.03)" fill="#263238"/>
        <path id="Path_958" data-name="Path 958" d="M243.9,425.434a5.564,5.564,0,0,1-.946.041c-.082-.082-.024-.024-.041-.043h0v-.667a.888.888,0,0,1,.03-.276.994.994,0,0,1,.028.276c0,.1,0,.2.009.3v.366h0c-.019-.017.041.043-.041-.039A5.379,5.379,0,0,1,243.9,425.434Z" transform="translate(-238.349 -394.933)" fill="#263238"/>
        <path id="Path_959" data-name="Path 959" d="M263.212,430.233a10.934,10.934,0,0,1-1.892,0,10.934,10.934,0,0,1,1.892,0Z" transform="translate(-253.854 -399.731)" fill="#263238"/>
        <path id="Path_960" data-name="Path 960" d="M287.332,430.233a10.934,10.934,0,0,1-1.892,0,10.934,10.934,0,0,1,1.892,0Z" transform="translate(-274.172 -399.731)" fill="#263238"/>
        <path id="Path_961" data-name="Path 961" d="M311.4,430.261a11.036,11.036,0,0,1-1.9,0,11.045,11.045,0,0,1,1.9,0Z" transform="translate(-294.439 -399.759)" fill="#263238"/>
        <path id="Path_962" data-name="Path 962" d="M335.521,430.261a11.035,11.035,0,0,1-1.9,0,11.044,11.044,0,0,1,1.9,0Z" transform="translate(-314.757 -399.759)" fill="#263238"/>
        <path id="Path_963" data-name="Path 963" d="M359.641,430.261a11.035,11.035,0,0,1-1.9,0,11.044,11.044,0,0,1,1.9,0Z" transform="translate(-335.074 -399.759)" fill="#263238"/>
        <path id="Path_964" data-name="Path 964" d="M383.761,430.261a11.035,11.035,0,0,1-1.9,0,11.045,11.045,0,0,1,1.9,0Z" transform="translate(-355.392 -399.759)" fill="#263238"/>
        <path id="Path_965" data-name="Path 965" d="M407.841,430.261a11.035,11.035,0,0,1-1.9,0,11.045,11.045,0,0,1,1.9,0Z" transform="translate(-375.676 -399.759)" fill="#263238"/>
        <path id="Path_966" data-name="Path 966" d="M432,430.261a11.035,11.035,0,0,1-1.9,0,11.044,11.044,0,0,1,1.9,0Z" transform="translate(-396.028 -399.759)" fill="#263238"/>
        <path id="Path_967" data-name="Path 967" d="M456.121,430.261a11.035,11.035,0,0,1-1.9,0,11.044,11.044,0,0,1,1.9,0Z" transform="translate(-416.346 -399.759)" fill="#263238"/>
        <path id="Path_968" data-name="Path 968" d="M480.251,430.261a11.035,11.035,0,0,1-1.9,0,11.044,11.044,0,0,1,1.9,0Z" transform="translate(-436.672 -399.759)" fill="#263238"/>
        <path id="Path_969" data-name="Path 969" d="M503.416,430.261a2.748,2.748,0,0,1-.946,0,2.748,2.748,0,0,1,.946,0Z" transform="translate(-456.99 -399.76)" fill="#263238"/>
        <g id="Group_11757" data-name="Group 11757" transform="translate(1.848 18.483)" opacity="0.3">
          <path id="Path_970" data-name="Path 970" d="M241.494,354.24a6.74,6.74,0,0,1-.473,2.522c-.482.946-.631,1.321-1.639,1.687s-13.7,1.761-13.7,1.761v-4.283Z" transform="translate(-225.68 -354.24)"/>
        </g>
        <g id="Group_11758" data-name="Group 11758" transform="translate(1.861 8.812)" opacity="0.3">
          <path id="Path_971" data-name="Path 971" d="M241.339,296.618s.145-1.609-3.892-2.207c-4.617-.683-11.687-1.521-11.687-1.521v3.044Z" transform="translate(-225.76 -292.89)"/>
        </g>
        <rect id="Rectangle_18792" data-name="Rectangle 18792" width="17.644" height="10.391" rx="2" transform="translate(0.024 11.081)" fill="#f36e2c"/>
        <path id="Path_972" data-name="Path 972" d="M216.236,317.471H216.1a2.039,2.039,0,0,1-.393-.054,2.172,2.172,0,0,1-.6-.233,2.233,2.233,0,0,1-.664-.572,2.262,2.262,0,0,1-.449-1,3.285,3.285,0,0,1-.038-.631v-5.719a2.283,2.283,0,0,1,.9-1.75,2.229,2.229,0,0,1,.976-.429,2.879,2.879,0,0,1,.545-.038h13a2.3,2.3,0,0,1,2.286,2.073c.017.222.011.438.013.654v5c0,.2.008.4,0,.6a2.359,2.359,0,0,1-.036.3,2.961,2.961,0,0,1-.079.287,2.3,2.3,0,0,1-1.666,1.487,2.734,2.734,0,0,1-.276.049c-.093.008-.186.011-.279.014H223.88l-5.593-.014-1.521-.008h0l1.521-.008,5.593-.013h4.92a4.669,4.669,0,0,0,1.08-.063,2.224,2.224,0,0,0,1.589-1.447,3.3,3.3,0,0,0,.117-1.16v-5c0-.216,0-.435-.011-.646a2.218,2.218,0,0,0-.484-1.179,2.447,2.447,0,0,0-.473-.44,2.4,2.4,0,0,0-.591-.282,2.456,2.456,0,0,0-.651-.1h-13a2.854,2.854,0,0,0-.534.036,2.17,2.17,0,0,0-.946.413,2.22,2.22,0,0,0-.883,1.7c-.008.642,0,1.261,0,1.852v3.865a3.333,3.333,0,0,0,.035.623,2.254,2.254,0,0,0,1.677,1.8,2.141,2.141,0,0,0,.389.06Z" transform="translate(-213.956 -296)" fill="#263238"/>
        <circle id="Ellipse_11" data-name="Ellipse 11" cx="3.777" cy="3.777" r="3.777" transform="translate(8.576 12.89)" fill="#263238"/>
        <path id="Path_973" data-name="Path 973" d="M298.46,332.673a3.994,3.994,0,0,0,.9-.473,3.263,3.263,0,0,0,.763-.788,2.96,2.96,0,0,0,.408-2.568,3.209,3.209,0,0,0-.482-.985,3.907,3.907,0,0,0-.709-.728.381.381,0,0,1,.061.035,1.894,1.894,0,0,1,.169.118,2.875,2.875,0,0,1,.527.541,3.2,3.2,0,0,1,.508,1,2.968,2.968,0,0,1-.419,2.633,3.194,3.194,0,0,1-.788.788,2.794,2.794,0,0,1-.668.348,1.666,1.666,0,0,1-.2.061A.2.2,0,0,1,298.46,332.673Z" transform="translate(-285.139 -312.92)" fill="#fafafa"/>
      </g>
      <g id="freepik--Money--inject-111" transform="translate(1742.145 1439.724)">
        <path id="Path_974" data-name="Path 974" d="M586.484,152.332a3.716,3.716,0,1,1-4.029-3.358A3.716,3.716,0,0,1,586.484,152.332Z" transform="translate(-538.593 -148.959)" fill="#f36e2c"/>
        <g id="Group_11759" data-name="Group 11759" transform="translate(41.317 0.759)" opacity="0.3">
          <path id="Path_975" data-name="Path 975" d="M594.787,160.608a1.761,1.761,0,0,1-.1-.336,3.021,3.021,0,0,0-.4-.835,2.886,2.886,0,0,0-.42-.479,2.823,2.823,0,0,0-.6-.42,2.635,2.635,0,0,0-.361-.157,2.738,2.738,0,0,0-.4-.107,2.777,2.777,0,0,0-.42-.048,2.937,2.937,0,0,0-.436.018,3.119,3.119,0,0,0-.428.084,2.81,2.81,0,0,0-.4.148,2.754,2.754,0,0,0-.672.437,2.829,2.829,0,0,0-.48.546,2.889,2.889,0,0,0-.292.566,2.982,2.982,0,0,0-.191.907,1.652,1.652,0,0,1-.023.348c-.018,0-.048-.12-.062-.348a2.626,2.626,0,0,1,.131-.958,2.827,2.827,0,0,1,.784-1.209,2.874,2.874,0,0,1,1.143-.643,3.107,3.107,0,0,1,.462-.095,3.179,3.179,0,0,1,.471-.018,2.993,2.993,0,0,1,.455.055,2.9,2.9,0,0,1,.809.3,2.839,2.839,0,0,1,1.05.987,2.616,2.616,0,0,1,.356.9A.907.907,0,0,1,594.787,160.608Z" transform="translate(-589.102 -158.007)"/>
        </g>
        <g id="Group_11760" data-name="Group 11760" transform="translate(42.958 1.731)" opacity="0.3">
          <path id="Path_976" data-name="Path 976" d="M610.35,173.206l.051.49-.438.046-.049-.478a2.092,2.092,0,0,1-1.127-.237l.185-.56a1.777,1.777,0,0,0,.881.222l-.076-.731c-.5-.068-1.058-.173-1.123-.8-.049-.464.248-.9.931-1.048l-.05-.486.438-.045.05.477a2,2,0,0,1,.917.175l-.162.559a1.807,1.807,0,0,0-.693-.158l.077.745c.5.063,1.049.168,1.113.787C611.322,172.623,611.029,173.052,610.35,173.206Zm-.639-1.89-.065-.622c-.226.076-.3.213-.29.358S609.512,171.275,609.712,171.316Zm.863.977c-.016-.154-.152-.223-.347-.269l.063.6C610.5,172.557,610.589,172.433,610.575,172.293Z" transform="translate(-608.649 -169.58)"/>
        </g>
        <path id="Path_977" data-name="Path 977" d="M589.738,190.5a.1.1,0,0,1,.006.023.444.444,0,0,0,.012.066c.005.027.01.066.017.107a1.213,1.213,0,0,0,.029.146,2.864,2.864,0,0,0,.766,1.382l.133.121c.023.019.044.041.068.06l.075.055c.05.037.1.078.154.112l.168.1a2.867,2.867,0,0,0,.768.3,2.805,2.805,0,0,0,1.74-.16,2.866,2.866,0,0,0,.7-.433l.146-.13c.047-.044.084-.093.13-.139l.063-.068c.02-.023.038-.049.057-.072.036-.049.072-.1.108-.143a2.973,2.973,0,0,0,.3-.576,2.853,2.853,0,0,0,.2-.923,1.107,1.107,0,0,0,0-.149V190a.137.137,0,0,1,0-.023.091.091,0,0,1,0,.023.349.349,0,0,0,.005.067c.005.027,0,.067.006.11a.954.954,0,0,1,0,.149,2.763,2.763,0,0,1-.184.933,2.874,2.874,0,0,1-.3.588l-.1.147c-.019.024-.037.05-.057.074l-.064.07c-.043.046-.084.1-.132.14l-.147.133a2.9,2.9,0,0,1-.71.442,2.832,2.832,0,0,1-1.763.163,2.876,2.876,0,0,1-.779-.306l-.168-.1c-.055-.035-.1-.077-.155-.114l-.075-.057c-.024-.019-.046-.042-.07-.062l-.136-.128a2.944,2.944,0,0,1-.405-.52,2.769,2.769,0,0,1-.351-.884,1.024,1.024,0,0,1-.025-.147c-.005-.042-.009-.079-.013-.109s-.005-.05-.008-.067A.11.11,0,0,1,589.738,190.5Z" transform="translate(-548.368 -186.537)" fill="#263238"/>
        <path id="Path_978" data-name="Path 978" d="M560.189,285.895a2.159,2.159,0,1,1-1.007-2.878A2.159,2.159,0,0,1,560.189,285.895Z" transform="translate(-517.538 -271.567)" fill="#f36e2c"/>
        <g id="Group_11761" data-name="Group 11761" transform="translate(39.204 11.686)" opacity="0.3">
          <path id="Path_979" data-name="Path 979" d="M566.94,290.548a.961.961,0,0,1,.047-.2,1.759,1.759,0,0,0,.048-.536,1.734,1.734,0,0,0-.066-.364,1.66,1.66,0,0,0-.174-.385,1.6,1.6,0,0,0-.721-.627,1.687,1.687,0,0,0-.239-.084,1.63,1.63,0,0,0-.243-.044,1.51,1.51,0,0,0-.238-.008,1.528,1.528,0,0,0-.227.026,1.613,1.613,0,0,0-.4.129,1.719,1.719,0,0,0-.315.195,1.752,1.752,0,0,0-.365.4,1.021,1.021,0,0,1-.115.168.479.479,0,0,1,.073-.192,1.511,1.511,0,0,1,.353-.442,1.628,1.628,0,0,1,.325-.22,1.673,1.673,0,0,1,1.191-.13,1.857,1.857,0,0,1,.259.091,1.791,1.791,0,0,1,.241.131,1.683,1.683,0,0,1,.21.163,1.67,1.67,0,0,1,.316.389,1.656,1.656,0,0,1,.23.807,1.526,1.526,0,0,1-.09.555A.5.5,0,0,1,566.94,290.548Z" transform="translate(-563.93 -288.175)"/>
        </g>
        <g id="Group_11762" data-name="Group 11762" transform="translate(39.724 12.329)" opacity="0.3">
          <path id="Path_980" data-name="Path 980" d="M570.857,297.859l-.12.259-.232-.107.118-.252a1.218,1.218,0,0,1-.492-.454l.259-.224a1.036,1.036,0,0,0,.373.374l.18-.388c-.229-.182-.477-.4-.322-.734a.579.579,0,0,1,.776-.246l.12-.258.232.108-.118.252a1.157,1.157,0,0,1,.405.36l-.252.232a1.053,1.053,0,0,0-.3-.285l-.183.395c.229.18.473.4.321.724C571.516,297.859,571.242,297.982,570.857,297.859Zm.244-1.134.154-.329c-.136-.029-.217.015-.252.092s.012.156.1.236Zm.14.745c.037-.084-.009-.157-.093-.238l-.148.321c.127.027.211-.01.242-.084Z" transform="translate(-570.13 -295.83)"/>
        </g>
        <path id="Path_981" data-name="Path 981" d="M562.219,300s-.025.068-.066.191a1.65,1.65,0,0,0-.077.541,1.715,1.715,0,0,0,.051.374,1.768,1.768,0,0,0,.16.405,1.679,1.679,0,0,0,.294.375,1.616,1.616,0,0,0,.911.436,1.666,1.666,0,0,0,.476-.007A1.63,1.63,0,0,0,564.7,302a1.68,1.68,0,0,0,.374-.4c.07-.109.1-.175.107-.172a.212.212,0,0,1-.021.048,1.352,1.352,0,0,1-.071.133,1.639,1.639,0,0,1-1.118.75,1.662,1.662,0,0,1-.489.009,1.648,1.648,0,0,1-.934-.447,1.69,1.69,0,0,1-.3-.386,1.758,1.758,0,0,1-.168-.411,1.713,1.713,0,0,1-.046-.382,1.572,1.572,0,0,1,.091-.546,1.087,1.087,0,0,1,.059-.139A.265.265,0,0,1,562.219,300Z" transform="translate(-522.994 -287.321)" fill="#263238"/>
        <path id="Path_982" data-name="Path 982" d="M103.9,283.151a3.526,3.526,0,1,1-3.993-2.972A3.526,3.526,0,0,1,103.9,283.151Z" transform="translate(-96.892 -269.129)" fill="#f36e2c"/>
        <g id="Group_11763" data-name="Group 11763" transform="translate(0.798 11.741)" opacity="0.3">
          <path id="Path_983" data-name="Path 983" d="M111.773,291.144a1.674,1.674,0,0,1-.117-.309,2.827,2.827,0,0,0-.425-.771,2.784,2.784,0,0,0-.42-.431,2.668,2.668,0,0,0-.588-.363,2.438,2.438,0,0,0-.35-.129,2.5,2.5,0,0,0-.38-.084,2.637,2.637,0,0,0-.4-.024,2.876,2.876,0,0,0-.412.04,2.808,2.808,0,0,0-.4.1,2.749,2.749,0,0,0-.369.16,2.512,2.512,0,0,0-.329.207,2.583,2.583,0,0,0-.285.242,2.669,2.669,0,0,0-.672,1.091,2.828,2.828,0,0,0-.133.87,2.244,2.244,0,0,1,0,.33.763.763,0,0,1-.076-.326,2.451,2.451,0,0,1,.074-.914,2.7,2.7,0,0,1,.238-.594,2.769,2.769,0,0,1,.44-.592,2.62,2.62,0,0,1,.3-.265,2.683,2.683,0,0,1,.352-.228,2.771,2.771,0,0,1,1.275-.332,2.833,2.833,0,0,1,.433.029,2.585,2.585,0,0,1,.409.092,2.713,2.713,0,0,1,1.419,1.025,2.508,2.508,0,0,1,.384.834A.859.859,0,0,1,111.773,291.144Z" transform="translate(-106.401 -288.828)"/>
        </g>
        <g id="Group_11764" data-name="Group 11764" transform="translate(2.332 12.654)" opacity="0.3">
          <path id="Path_984" data-name="Path 984" d="M126.4,303.124l.074.462-.412.066-.072-.45a1.958,1.958,0,0,1-1.079-.168l.146-.54a1.679,1.679,0,0,0,.847.168l-.11-.688c-.476-.038-1.012-.109-1.106-.7-.07-.437.188-.864.828-1.042l-.074-.458.413-.065.071.449a1.9,1.9,0,0,1,.878.118l-.125.541a1.711,1.711,0,0,0-.666-.113l.112.7c.475.034,1,.106,1.1.687C127.292,302.52,127.037,302.942,126.4,303.124Zm-.7-1.757-.094-.588c-.211.084-.278.218-.256.354S125.508,301.339,125.7,301.367Zm.869.881c-.024-.144-.155-.2-.342-.238l.091.569C126.514,302.5,126.588,302.379,126.567,302.248Z" transform="translate(-124.678 -299.71)"/>
        </g>
        <path id="Path_985" data-name="Path 985" d="M107.232,318.08a.136.136,0,0,1,.006.021c0,.016.009.037.015.062l.022.1a1.179,1.179,0,0,0,.035.137,2.705,2.705,0,0,0,.387.806,2.77,2.77,0,0,0,.41.462l.132.107c.023.018.044.037.068.054l.074.049c.05.032.1.068.151.1l.163.084a2.737,2.737,0,0,0,.743.243,2.67,2.67,0,0,0,1.64-.243,2.746,2.746,0,0,0,.64-.447l.131-.132c.043-.044.078-.092.117-.137l.056-.068c.018-.024.034-.048.05-.071l.1-.141a2.854,2.854,0,0,0,.259-.561,2.7,2.7,0,0,0,.137-.884.925.925,0,0,0-.006-.141c0-.039-.006-.074-.008-.1a.407.407,0,0,0,0-.064.072.072,0,0,1,0-.022.069.069,0,0,1,0,.022.6.6,0,0,0,.008.063c0,.025.008.064.013.1a1.008,1.008,0,0,1,.009.142,2.6,2.6,0,0,1-.124.893,2.75,2.75,0,0,1-.258.571l-.095.143c-.017.024-.032.049-.05.073l-.056.069c-.039.046-.075.1-.118.14s-.084.089-.133.133a2.754,2.754,0,0,1-.65.457,2.686,2.686,0,0,1-1.665.246,2.762,2.762,0,0,1-.755-.252l-.168-.09c-.054-.03-.1-.067-.153-.1l-.075-.05c-.024-.018-.045-.038-.069-.055l-.133-.109a2.784,2.784,0,0,1-.411-.472,2.621,2.621,0,0,1-.378-.819.867.867,0,0,1-.032-.139c-.007-.039-.013-.073-.018-.1l-.01-.063A.084.084,0,0,1,107.232,318.08Z" transform="translate(-106.362 -303.16)" fill="#263238"/>
      </g>
    </g>
  </g>
</svg>
