<svg xmlns="http://www.w3.org/2000/svg" xmlns:xlink="http://www.w3.org/1999/xlink" width="74" height="74" viewBox="0 0 74 74">
  <defs>
    <radialGradient id="radial-gradient" cx="0.5" cy="0.5" r="0.5" gradientUnits="objectBoundingBox">
      <stop offset="0"/>
      <stop offset="1" stop-opacity="0.09"/>
    </radialGradient>
  </defs>
  <g id="Group_12026" data-name="Group 12026" transform="translate(9110 -10272)">
    <rect id="Rectangle_18681" data-name="Rectangle 18681" width="74" height="74" rx="10" transform="translate(-9110 10272)" fill="#f6f6f6"/>
    <ellipse id="Ellipse_15" data-name="Ellipse 15" cx="23" cy="2" rx="23" ry="2" transform="translate(-9098 10335)" opacity="0.11" fill="url(#radial-gradient)"/>
    <g id="freepik--box-1--inject-92" transform="translate(-9260.004 9978.097)">
      <rect id="Rectangle_18834" data-name="Rectangle 18834" width="20.504" height="5.165" transform="translate(177.847 318.106) rotate(90)"/>
      <rect id="Rectangle_18835" data-name="Rectangle 18835" width="2.253" height="5.165" transform="translate(177.847 323.749) rotate(90)" fill="#dbdbdb"/>
      <rect id="Rectangle_18836" data-name="Rectangle 18836" width="0.837" height="5.165" transform="translate(177.851 321.986) rotate(90)" fill="#dbdbdb"/>
      <rect id="Rectangle_18837" data-name="Rectangle 18837" width="2.253" height="5.165" transform="translate(177.851 333.503) rotate(90)" fill="#dbdbdb"/>
      <rect id="Rectangle_18838" data-name="Rectangle 18838" width="23.922" height="3.61" transform="translate(181.457 314.523) rotate(90)" fill="#f36e2c"/>
      <rect id="Rectangle_18839" data-name="Rectangle 18839" width="9.199" height="2.164" transform="translate(180.72 316.772) rotate(90)" fill="#ebebeb"/>
      <rect id="Rectangle_18840" data-name="Rectangle 18840" width="20.863" height="3.61" transform="translate(191.192 317.585) rotate(90)"/>
      <rect id="Rectangle_18841" data-name="Rectangle 18841" width="8.023" height="2.168" transform="translate(190.483 325.523) rotate(90)" fill="#dbdbdb"/>
      <rect id="Rectangle_18842" data-name="Rectangle 18842" width="18.171" height="6.129" transform="translate(187.586 320.278) rotate(90)" fill="#a6a6a6"/>
      <rect id="Rectangle_18843" data-name="Rectangle 18843" width="1.693" height="6.129" transform="translate(187.582 334.827) rotate(90)" fill="#455a64"/>
      <rect id="Rectangle_18844" data-name="Rectangle 18844" width="0.656" height="6.129" transform="translate(187.582 333.064) rotate(90)" fill="#455a64"/>
      <path id="Path_1377" data-name="Path 1377" d="M0,0H17.075V4.235H0Z" transform="translate(172.715 322.78) rotate(113.23)"/>
      <rect id="Rectangle_18846" data-name="Rectangle 18846" width="1.593" height="4.235" transform="translate(167.325 335.343) rotate(113.23)" fill="#455a64"/>
      <rect id="Rectangle_18847" data-name="Rectangle 18847" width="1.593" height="4.235" transform="translate(171.329 326.013) rotate(113.23)" fill="#c96f39"/>
      <rect id="Rectangle_18848" data-name="Rectangle 18848" width="0.617" height="4.235" transform="translate(170.272 328.48) rotate(113.23)" fill="#c96f39"/>
      <path id="Path_1333" data-name="Path 1333" d="M283.34,318.314a4.243,4.243,0,0,1-2.739.5,14.57,14.57,0,0,1-.841,4.544,5.483,5.483,0,0,1-5.712,3.888,9.5,9.5,0,0,1-.964-.054s2.391,4.478,2.912,5.2,1.053,2.484-.243,2.927-2.874-1.543-2.874-1.543a3.752,3.752,0,0,1-2.056,3.433c.1.59,1.651,3.305.729,4.243a5.284,5.284,0,0,1-6.557.656c-1.057-.779-.1-5.091-.1-5.091a10.284,10.284,0,0,1-4.906-3.024,1.924,1.924,0,0,1-.127-.2v-.023a4.544,4.544,0,0,1-.347-4.146l.039-.093a4.394,4.394,0,0,1,.7-1.138,12.985,12.985,0,0,1,5.037-4.355h0a7.406,7.406,0,0,1-2.619-3.707,4.979,4.979,0,0,1,.258-3.186c.066-.162.143-.328.224-.494a13.623,13.623,0,0,1,3.406-4.358,4.162,4.162,0,0,1-1.122-2.129c-.386-2.067,1.377-3.807,3.818-3.174,1.659.424,1.994,2.083,2.04,3.117l.231-.031a8.231,8.231,0,0,1,3.776.463,8.056,8.056,0,0,1,2.623,1.7,8.383,8.383,0,0,1,1.385,1.712.765.765,0,0,1,.046.073c.752-.64,2.361-1.7,3.884-.652C285.33,314.777,285.16,317.258,283.34,318.314Z" transform="translate(-64.658 0)" fill="#f36e2c"/>
      <path id="Path_1334" data-name="Path 1334" d="M283.34,318.314a4.243,4.243,0,0,1-2.739.5,14.57,14.57,0,0,1-.841,4.544,5.483,5.483,0,0,1-5.712,3.888,9.5,9.5,0,0,1-.964-.054s2.391,4.478,2.912,5.2,1.053,2.484-.243,2.927-2.874-1.543-2.874-1.543a3.752,3.752,0,0,1-2.056,3.433c.1.59,1.651,3.305.729,4.243a5.284,5.284,0,0,1-6.557.656c-1.057-.779-.1-5.091-.1-5.091a10.284,10.284,0,0,1-4.906-3.024,1.924,1.924,0,0,1-.127-.2v-.023a4.544,4.544,0,0,1-.347-4.146l.039-.093a4.394,4.394,0,0,1,.7-1.138,12.985,12.985,0,0,1,5.037-4.355h0a7.406,7.406,0,0,1-2.619-3.707,4.979,4.979,0,0,1,.258-3.186c.066-.162.143-.328.224-.494a13.623,13.623,0,0,1,3.406-4.358,4.162,4.162,0,0,1-1.122-2.129c-.386-2.067,1.377-3.807,3.818-3.174,1.659.424,1.994,2.083,2.04,3.117l.231-.031a8.231,8.231,0,0,1,3.776.463,8.056,8.056,0,0,1,2.623,1.7,8.383,8.383,0,0,1,1.385,1.712.765.765,0,0,1,.046.073c.752-.64,2.361-1.7,3.884-.652C285.33,314.777,285.16,317.258,283.34,318.314Z" transform="translate(-64.658 0)" opacity="0.3"/>
      <path id="Path_1335" data-name="Path 1335" d="M261.475,352.772a8.786,8.786,0,0,0-4.389,3.641,10.576,10.576,0,0,1-1.288-.44c-2.152-.918-2.056-2.037-1.335-2.731a3.96,3.96,0,0,1,2.314-.694,27.613,27.613,0,0,1,4.7.224Z" transform="translate(-61.485 -28.055)" fill="#f36e2c"/>
      <path id="Path_1336" data-name="Path 1336" d="M261.475,352.772a8.786,8.786,0,0,0-4.389,3.641,10.576,10.576,0,0,1-1.288-.44c-2.152-.918-2.056-2.037-1.335-2.731a3.96,3.96,0,0,1,2.314-.694,27.613,27.613,0,0,1,4.7.224Z" transform="translate(-61.485 -28.055)" opacity="0.3"/>
      <path id="Path_1337" data-name="Path 1337" d="M313,326.957s1.273-1.427,2.457-.609a1.617,1.617,0,0,1,.058,2.827,2.492,2.492,0,0,1-2.079.158Z" transform="translate(-97.728 -11.817)" fill="#f36e2c"/>
      <path id="Path_1338" data-name="Path 1338" d="M281.907,312.584s.243-1.894-1.157-2.252a1.611,1.611,0,0,0-2.172,1.805,2.268,2.268,0,0,0,1.068,1.6Z" transform="translate(-76.563 -2.088)" fill="#f36e2c"/>
      <path id="Path_1339" data-name="Path 1339" d="M248.821,368.787a9.858,9.858,0,0,1-5.4.714c-3.506-.579-2.291-6.221-.517-5.573a23,23,0,0,0,5.558.69,4.544,4.544,0,0,0,.347,4.146Z" transform="translate(-53.606 -35.026)" fill="#f36e2c"/>
      <path id="Path_1340" data-name="Path 1340" d="M248.821,368.787a9.858,9.858,0,0,1-5.4.714c-3.506-.579-2.291-6.221-.517-5.573a23,23,0,0,0,5.558.69,4.544,4.544,0,0,0,.347,4.146Z" transform="translate(-53.606 -35.026)" opacity="0.3"/>
      <path id="Path_1341" data-name="Path 1341" d="M274.655,395.016a4.694,4.694,0,0,1,1.4-.968,5.54,5.54,0,0,1,1.647-.478,5.64,5.64,0,0,1,1.709.046,6.014,6.014,0,0,1,1.612.54,9.358,9.358,0,0,0-1.635-.386,7.555,7.555,0,0,0-.833-.05h-.413a2.943,2.943,0,0,0-.413.042,6.662,6.662,0,0,0-3.086,1.227Z" transform="translate(-74.164 -53.239)" opacity="0.3"/>
      <path id="Path_1342" data-name="Path 1342" d="M284.61,385.74a7.607,7.607,0,0,1,.224.771c.066.258.116.521.166.771s.085.525.116.791a6.821,6.821,0,0,1,.054.8,6.942,6.942,0,0,1-.224-.771c-.066-.258-.116-.521-.166-.771s-.085-.521-.116-.771A6.886,6.886,0,0,1,284.61,385.74Z" transform="translate(-80.288 -48.457)" opacity="0.3"/>
      <path id="Path_1343" data-name="Path 1343" d="M281.67,331.83a5.091,5.091,0,0,1-.17-1.1v-.559a4.427,4.427,0,0,1,.023-.559,13.33,13.33,0,0,1,.386-2.2,19.5,19.5,0,0,1,1.674-4.142l.266-.49c.093-.162.189-.32.285-.482s.189-.32.293-.478l.3-.467a16.406,16.406,0,0,1,1.358-1.778,12.224,12.224,0,0,1,1.624-1.543,6.766,6.766,0,0,1,.922-.609,2.839,2.839,0,0,1,1.049-.366,2.1,2.1,0,0,0-.528.162l-.251.12c-.085.042-.162.089-.243.135a7.056,7.056,0,0,0-.9.644,11.721,11.721,0,0,0-1.543,1.562,21.018,21.018,0,0,0-2.445,3.687,20.331,20.331,0,0,0-1.736,4.085,13.854,13.854,0,0,0-.424,2.172c0,.181-.039.366-.042.552v.555A5.317,5.317,0,0,0,281.67,331.83Z" transform="translate(-78.378 -6.261)" opacity="0.3"/>
      <path id="Path_1344" data-name="Path 1344" d="M277.805,339.087c-.629.251-2.542,2.175-2.372,3.159s3.016,2.372,4.05,1.832c.818-.424,1.068-3.552.505-4.262A2.067,2.067,0,0,0,277.805,339.087Z" transform="translate(-74.644 -19.739)" fill="#fff"/>
      <path id="Path_1345" data-name="Path 1345" d="M281.283,338.739c-.069.235.7.972,1.014,1.065s1.381.054,1.458-.17-.459-.621-1.088-.872C282.212,338.577,281.368,338.465,281.283,338.739Z" transform="translate(-78.242 -19.483)" fill="#263238"/>
      <path id="Path_1346" data-name="Path 1346" d="M244.29,364.6a4.166,4.166,0,0,1,.771,1.088,4.11,4.11,0,0,1,.386,1.281,3.748,3.748,0,0,1-.093,1.327,4.342,4.342,0,0,1-.224.629,4.479,4.479,0,0,1-.32.582,4.938,4.938,0,0,0,.459-1.23,4.04,4.04,0,0,0,.089-.644,3.672,3.672,0,0,0-.019-.652,4.352,4.352,0,0,0-.343-1.257,4.57,4.57,0,0,0-.3-.579A4.411,4.411,0,0,0,244.29,364.6Z" transform="translate(-55.52 -35.47)" opacity="0.3"/>
      <path id="Path_1347" data-name="Path 1347" d="M245.22,365.81c.212.046.424.093.64.131s.424.081.64.116c.428.069.856.127,1.288.166s.864.058,1.3.058a3.631,3.631,0,0,0,.648-.039c.212-.039.432-.05.648-.077a6.345,6.345,0,0,1-1.292.2,11.366,11.366,0,0,1-1.308-.035c-.436-.046-.868-.1-1.3-.193A10.145,10.145,0,0,1,245.22,365.81Z" transform="translate(-56.091 -36.214)" opacity="0.3"/>
      <path id="Path_1348" data-name="Path 1348" d="M291.495,372.517a5.279,5.279,0,0,1-.613-.555,7.55,7.55,0,0,1-.544-.621,7.37,7.37,0,0,1-.482-.671,5.494,5.494,0,0,1-.386-.729c.189.2.359.417.532.629l.509.636c.17.212.339.424.5.644S291.341,372.277,291.495,372.517Z" transform="translate(-83.274 -38.751)" opacity="0.3"/>
      <path id="Path_1349" data-name="Path 1349" d="M294.558,340.919c.98.447,0,2.372-.9,1.956S293.736,340.533,294.558,340.919Z" transform="translate(-85.626 -20.892)" fill="#263238"/>
      <path id="Path_1350" data-name="Path 1350" d="M277.119,333.152c.98.451,0,2.372-.9,1.956S276.3,332.774,277.119,333.152Z" transform="translate(-74.914 -16.122)" fill="#263238"/>
      <path id="Path_1351" data-name="Path 1351" d="M272.153,355.37a14.508,14.508,0,0,0-1.23.933,13.713,13.713,0,0,0-1.157,1.022,15.046,15.046,0,0,0-1.956,2.334,10.461,10.461,0,0,0-1.3,2.731l-.2.737c-.042.251-.069.5-.112.771l-.058.386v.386a7.4,7.4,0,0,1-.027.771,7.883,7.883,0,0,1,.127-3.1,8.924,8.924,0,0,1,1.269-2.866,12.133,12.133,0,0,1,2.075-2.341A11.893,11.893,0,0,1,272.153,355.37Z" transform="translate(-68.861 -29.8)" opacity="0.3"/>
      <path id="Path_1352" data-name="Path 1352" d="M281.349,355.7a15.762,15.762,0,0,1-7.255-1.844,14.614,14.614,0,0,1-2.534-1.786,12.09,12.09,0,0,1,1.342-.771h0s2.013,1.929,7.8,3.186C280.7,354.494,280.987,355,281.349,355.7Z" transform="translate(-72.272 -27.3)" opacity="0.3"/>
      <rect id="Rectangle_18849" data-name="Rectangle 18849" width="33.634" height="24.89" transform="translate(159.495 330.059)" fill="#f36e2c"/>
      <rect id="Rectangle_18850" data-name="Rectangle 18850" width="33.634" height="24.89" transform="translate(158.176 328.877)" opacity="0.1"/>
      <rect id="Rectangle_18851" data-name="Rectangle 18851" width="17.368" height="24.89" transform="translate(193.129 330.059)" fill="#f36e2c"/>
      <path id="Path_1353" data-name="Path 1353" d="M209.236,375.06H207.99l-.3-.621-.428.621-.582-1.277-.552,1.277h-2.291l-.258-.852-.247.852h-.467v-8.05h6.376Z" transform="translate(-30.07 -36.951)" fill="#fff"/>
      <g id="Group_11776" data-name="Group 11776" transform="translate(194.328 331.772)" opacity="0.1">
        <path id="Path_1354" data-name="Path 1354" d="M273.673,392.923q-1.929-2.65-3.822-5.327l-3.768-5.35-3.722-5.377q-1.851-2.7-3.66-5.4,1.928,2.658,3.822,5.327l3.768,5.354L270,387.519Q271.86,390.215,273.673,392.923Z" transform="translate(-258.7 -371.462)"/>
        <path id="Path_1355" data-name="Path 1355" d="M273.673,371.45q-1.817,2.7-3.664,5.4l-3.718,5.4-3.768,5.354q-1.894,2.665-3.822,5.323,1.809-2.7,3.66-5.4l3.722-5.377,3.768-5.354Q271.745,374.111,273.673,371.45Z" transform="translate(-258.7 -371.45)"/>
      </g>
      <path id="Path_1356" data-name="Path 1356" d="M153.91,375.064h33.634l5.581-8.054H159.5Z" transform="translate(0 -36.951)" fill="#f36e2c"/>
      <g id="Group_11777" data-name="Group 11777" transform="translate(153.91 330.059)" opacity="0.2">
        <path id="Path_1357" data-name="Path 1357" d="M153.91,375.064h33.634l5.581-8.054H159.5Z" transform="translate(-153.91 -367.01)"/>
      </g>
      <path id="Path_1358" data-name="Path 1358" d="M261.165,375.067h17.314L272.9,367.01H255.58Z" transform="translate(-62.455 -36.951)" fill="#f36e2c"/>
      <path id="Path_1359" data-name="Path 1359" d="M261.165,375.067h17.314L272.9,367.01H255.58Z" transform="translate(-62.455 -36.951)" opacity="0.1"/>
      <rect id="Rectangle_18852" data-name="Rectangle 18852" width="22.845" height="8.084" transform="translate(164.701 340.189) rotate(5.46)"/>
      <path id="Path_1360" data-name="Path 1360" d="M193.036,400.995a3.885,3.885,0,0,1-.131.7,2.657,2.657,0,0,1-.274.633,2.057,2.057,0,0,1-.44.5,1.894,1.894,0,0,1-.625.351l-.2.054a1.928,1.928,0,0,1-.216.039h-.224a1.7,1.7,0,0,1-.2,0h-.085a.306.306,0,0,1-.085-.023.12.12,0,0,1-.062-.042.1.1,0,0,1,0-.077.19.19,0,0,1,.023-.085.347.347,0,0,1,.054-.077l.069-.069a.223.223,0,0,1,.073-.039.546.546,0,0,1,0-.158v-.316a3.479,3.479,0,0,1,.019-.432c.019-.158,0-.324.027-.494l.035-.505a2.868,2.868,0,0,1,.035-.463c0-.143.023-.266.031-.386a.93.93,0,0,1,.019-.228c.023-.212.046-.417.069-.621s.05-.413.073-.625a.112.112,0,0,1-.069-.027.073.073,0,0,1-.027-.062.177.177,0,0,1,.039-.1.236.236,0,0,1,.077-.073.273.273,0,0,1,.1-.042.329.329,0,0,1,.1,0l.089.019.089.027a2.732,2.732,0,0,1,.771.386,2.218,2.218,0,0,1,.536.59,2.314,2.314,0,0,1,.27.775,2.8,2.8,0,0,1,.035.864Zm-.494-.112a2.353,2.353,0,0,0-.019-.64,1.832,1.832,0,0,0-.548-1.045,2.23,2.23,0,0,0-.528-.386h0c-.058.579-.1,1.157-.139,1.724s-.058,1.157-.077,1.728v.525a1.342,1.342,0,0,0,.563-.27,1.928,1.928,0,0,0,.386-.471,2.283,2.283,0,0,0,.239-.582,3.564,3.564,0,0,0,.123-.563Z" transform="translate(-22.471 -56.19)" fill="#fff"/>
      <path id="Path_1361" data-name="Path 1361" d="M200.106,401.669a2.98,2.98,0,0,1-.035.328c-.015.123-.039.258-.062.386s-.058.285-.1.428-.085.289-.135.428a2.364,2.364,0,0,1-.181.386,1.288,1.288,0,0,1-.231.312.911.911,0,0,1-.293.2.772.772,0,0,1-.363.05.679.679,0,0,1-.351-.127.883.883,0,0,1-.251-.27,1.259,1.259,0,0,1-.131-.316,2.762,2.762,0,0,1-.085-.386c-.023-.139-.039-.289-.05-.44s0-.3,0-.451v-.42a1.6,1.6,0,0,1,.023-.347,2.865,2.865,0,0,1,.073-.521,3.862,3.862,0,0,1,.135-.532,3.008,3.008,0,0,1,.212-.5,1.706,1.706,0,0,1,.312-.42.251.251,0,0,1,.046-.042l.062-.05.066-.039h.066a.131.131,0,0,1,.1.073.46.46,0,0,1,.158-.042.729.729,0,0,1,.158,0,.745.745,0,0,1,.413.158.976.976,0,0,1,.266.332,1.739,1.739,0,0,1,.147.447,3.025,3.025,0,0,1,.062.5,4.115,4.115,0,0,1,0,.486C200.129,401.414,200.117,401.549,200.106,401.669Zm-.54.1a1.559,1.559,0,0,1,.019-.266,2.571,2.571,0,0,0,0-.386v-.451a2.7,2.7,0,0,0-.054-.424,1.092,1.092,0,0,0-.123-.324.258.258,0,0,0-.2-.139.123.123,0,0,0-.1.039.771.771,0,0,0-.089.116.829.829,0,0,0-.081.154l-.077.162c-.027.054-.05.1-.073.139a.2.2,0,0,1-.066.085.042.042,0,0,1-.031,0h-.023a.267.267,0,0,1-.108-.031,3.275,3.275,0,0,0-.123.451c-.027.15-.05.3-.066.455v1.35a2.714,2.714,0,0,0,.042.4,2.61,2.61,0,0,0,.073.347.985.985,0,0,0,.112.247.216.216,0,0,0,.158.1.127.127,0,0,0,.093-.019l.085-.05a.772.772,0,0,0,.2-.224,1.693,1.693,0,0,0,.158-.312,3.283,3.283,0,0,0,.12-.386c.035-.147.066-.258.089-.386s.042-.251.058-.366S199.558,401.854,199.566,401.765Z" transform="translate(-26.984 -56.799)" fill="#fff"/>
      <path id="Path_1362" data-name="Path 1362" d="M206.645,404.413a.614.614,0,0,1-.023.116.348.348,0,0,1-.05.1.2.2,0,0,1-.085.066.247.247,0,0,1-.123,0,.25.25,0,0,1-.143-.05.427.427,0,0,1-.093-.12.907.907,0,0,1-.093-.224,2.462,2.462,0,0,1-.069-.255c-.019-.085-.035-.174-.05-.258s-.031-.166-.046-.243q-.133-.579-.231-1.157c-.066-.386-.147-.771-.228-1.157-.058.486-.116.972-.166,1.454s-.1.968-.147,1.454v.085a.34.34,0,0,1-.027.089.219.219,0,0,1-.046.069.123.123,0,0,1-.085.019.343.343,0,0,1-.251-.116.386.386,0,0,1-.066-.274q.093-.949.185-1.875c.062-.621.12-1.246.181-1.871l.046-.478a.236.236,0,0,1,.039-.127c.023-.035.066-.046.131-.042a.459.459,0,0,1,.139.035.385.385,0,0,1,.12.066.3.3,0,0,1,.081.1.251.251,0,0,1,.023.143,3.878,3.878,0,0,1,.185.579c.046.2.089.386.131.594.062.289.12.579.181.868s.116.582.177.876c.027-.424.054-.852.077-1.277s.039-.849.035-1.277v-.274a1.589,1.589,0,0,1,0-.27.1.1,0,0,1,.058-.093.2.2,0,0,1,.108,0,.9.9,0,0,1,.177.035.282.282,0,0,1,.12.069.247.247,0,0,1,.066.116.987.987,0,0,1,.031.177c0,.123,0,.247,0,.386v.363c0,.3-.019.606-.039.9s-.042.6-.062.9-.042.6-.062.895S206.672,404.109,206.645,404.413Z" transform="translate(-31.151 -56.982)" fill="#fff"/>
      <path id="Path_1363" data-name="Path 1363" d="M213.675,403.586a.278.278,0,0,1-.066.147.363.363,0,0,1-.123.1.151.151,0,0,1-.058,0h-.243l.031.505v.471a2.194,2.194,0,0,0,.042.474v.039a.15.15,0,0,1,0,.042.089.089,0,0,1-.031.066.173.173,0,0,1-.066.031h-.2a.475.475,0,0,1-.158-.031.143.143,0,0,1-.081-.066.224.224,0,0,1-.031-.108V405.1c0-.417-.039-.833-.066-1.25H211.8l-.17.652a.953.953,0,0,1-.035.162l-.046.212c-.019.073-.035.139-.054.2a.736.736,0,0,1-.054.135l-.042.054a.1.1,0,0,1-.066,0,.328.328,0,0,1-.12-.035.463.463,0,0,1-.1-.069.336.336,0,0,1-.062-.1.266.266,0,0,1,0-.123.835.835,0,0,1,.027-.135.563.563,0,0,1,.039-.131c.039-.147.077-.293.112-.436s.069-.289.108-.436h-.054l-.054-.027a.154.154,0,0,1-.046-.039.062.062,0,0,1,0-.05.073.073,0,0,1,.031-.058.292.292,0,0,1,.066-.05.277.277,0,0,1,.077-.035l.066-.023c.077-.312.15-.621.224-.93s.143-.617.2-.933c.019-.085.035-.17.05-.258l.046-.262a1.2,1.2,0,0,1,.054-.255,1.882,1.882,0,0,1,.077-.251.44.44,0,0,1,.12-.185.262.262,0,0,1,.216-.054.3.3,0,0,1,.081,0,.218.218,0,0,1,.066.035.517.517,0,0,1,.158.258,3.661,3.661,0,0,1,.143.49c.046.193.089.386.123.617s.069.436.1.644.054.386.069.559.031.289.042.366h.363l.077.027a.162.162,0,0,1,.062.05A.12.12,0,0,1,213.675,403.586Zm-1.057-.127c-.027-.324-.062-.648-.1-.964s-.089-.644-.15-.964c-.073.336-.15.667-.228,1s-.162.66-.247.991l.363-.027C212.375,403.486,212.5,403.474,212.618,403.459Z" transform="translate(-35.095 -57.454)" fill="#fff"/>
      <path id="Path_1364" data-name="Path 1364" d="M219.865,401.507a.282.282,0,0,1-.089.189.355.355,0,0,1-.2.089,1.877,1.877,0,0,1-.386,0l-.386-.023-.062.667c-.054.563-.093,1.13-.112,1.7s0,1.134,0,1.7v.1a.47.47,0,0,1,0,.1.154.154,0,0,1-.05.112.177.177,0,0,1-.123.027.95.95,0,0,1-.15-.031.386.386,0,0,1-.135-.058A.181.181,0,0,1,218.1,406a.386.386,0,0,1-.019-.116v-.964c0-.343,0-.687.031-1.026s.035-.683.069-1.026a4.224,4.224,0,0,1,.058-.555c.023-.17.039-.386.054-.559h-.42a3.856,3.856,0,0,1-.424-.023.112.112,0,0,1-.081-.031.1.1,0,0,1-.027-.081.22.22,0,0,1,.1-.174.451.451,0,0,1,.193-.077,2.732,2.732,0,0,1,.355,0h.382a.339.339,0,0,1,0-.066.131.131,0,0,1,.023-.058.092.092,0,0,1,.039-.039.123.123,0,0,1,.069,0,.385.385,0,0,1,.162.05.3.3,0,0,1,.12.12h.729a1.157,1.157,0,0,1,.162,0h.073a.169.169,0,0,1,.062.023.112.112,0,0,1,.039.046A.24.24,0,0,1,219.865,401.507Z" transform="translate(-38.963 -57.952)" fill="#fff"/>
      <path id="Path_1365" data-name="Path 1365" d="M225.9,406.154a.154.154,0,0,1-.054.108,1.082,1.082,0,0,1-.12.093l-.139.081-.12.058-.239.116a1.878,1.878,0,0,1-.247.089,1.375,1.375,0,0,1-.251.05,1.22,1.22,0,0,1-.266,0h-.054a1.011,1.011,0,0,1-.22-.046.668.668,0,0,1-.2-.1.571.571,0,0,1-.154-.15.528.528,0,0,1-.1-.2,1.158,1.158,0,0,1-.027-.22v-.76q.054-1.038.116-2.071v-.471a2.222,2.222,0,0,1,.054-.343.581.581,0,0,1,.116-.224.428.428,0,0,1,.22-.112,1.3,1.3,0,0,1,.355,0l.44.046.444.046h.135a.386.386,0,0,1,.131.023.291.291,0,0,1,.069.031q.031,0,.023.069a.2.2,0,0,1-.1.17.471.471,0,0,1-.2.062,1.154,1.154,0,0,1-.231,0l-.2-.019-.44-.042h-.27a.472.472,0,0,0-.035.1.905.905,0,0,0,0,.108c-.023.247-.039.486-.05.725l-.035.729h.949a.108.108,0,0,1,.093.046.158.158,0,0,1,.019.108.614.614,0,0,1,0,.089.324.324,0,0,1-.031.077.2.2,0,0,1-.085.093.34.34,0,0,1-.127.027h-.509l-.274-.019v1.554a1.119,1.119,0,0,0,0,.174.239.239,0,0,0,.077.1.321.321,0,0,0,.123.031.807.807,0,0,0,.266-.023,1.865,1.865,0,0,0,.282-.1,2.913,2.913,0,0,0,.266-.143,2.318,2.318,0,0,0,.228-.162l.077-.054a.131.131,0,0,1,.093-.023.166.166,0,0,1,.093.039.27.27,0,0,1,.077.085.324.324,0,0,1,.05.1.233.233,0,0,1-.031.046Z" transform="translate(-42.884 -58.468)" fill="#fff"/>
      <rect id="Rectangle_18853" data-name="Rectangle 18853" width="6.453" height="1.385" transform="translate(162.99 342.424) rotate(-31.63)"/>
      <rect id="Rectangle_18854" data-name="Rectangle 18854" width="6.453" height="1.385" transform="translate(182.739 350.669) rotate(-31.63)"/>
      <rect id="Rectangle_18855" data-name="Rectangle 18855" width="6.453" height="1.385" transform="translate(188.044 345.68) rotate(-137.46)"/>
      <rect id="Rectangle_18856" data-name="Rectangle 18856" width="6.453" height="1.385" transform="translate(167.407 350.321) rotate(-137.46)"/>
    </g>
  </g>
</svg>
