<svg xmlns="http://www.w3.org/2000/svg" width="205" height="129" viewBox="0 0 205 129">
  <g id="Group_12031" data-name="Group 12031" transform="translate(-112 -248)">
    <g id="Group_11844" data-name="Group 11844" transform="translate(-3891 -3942)">
      <path id="Path_1730" data-name="Path 1730" d="M0,0H205V89a12,12,0,0,1-12,12H12A12,12,0,0,1,0,89Z" transform="translate(4003 4218)" fill="#fde5d9"/>
      <path id="Rectangle_19048" data-name="Rectangle 19048" d="M12,0H193a12,12,0,0,1,12,12V34a0,0,0,0,1,0,0H0a0,0,0,0,1,0,0V12A12,12,0,0,1,12,0Z" transform="translate(4003 4190)" fill="#f36e2c"/>
      <rect id="Rectangle_19049" data-name="Rectangle 19049" width="63" height="59" transform="translate(4017 4232)" fill="#f36e2c" opacity="0.57"/>
      <g id="Group_11847" data-name="Group 11847">
        <rect id="Rectangle_19054" data-name="Rectangle 19054" width="2" height="15" transform="translate(4017 4296)"/>
        <rect id="Rectangle_19054-2" data-name="Rectangle 19054" width="1" height="15" transform="translate(4020 4296)"/>
        <rect id="Rectangle_19054-3" data-name="Rectangle 19054" width="2" height="15" transform="translate(4023 4296)"/>
        <rect id="Rectangle_19054-4" data-name="Rectangle 19054" width="2" height="15" transform="translate(4026 4296)"/>
        <rect id="Rectangle_19054-5" data-name="Rectangle 19054" width="2" height="15" transform="translate(4029 4296)"/>
        <rect id="Rectangle_19054-6" data-name="Rectangle 19054" width="1" height="15" transform="translate(4033 4296)"/>
        <rect id="Rectangle_19054-7" data-name="Rectangle 19054" width="2" height="15" transform="translate(4035 4296)"/>
        <rect id="Rectangle_19054-8" data-name="Rectangle 19054" width="2" height="15" transform="translate(4038 4296)"/>
        <rect id="Rectangle_19054-9" data-name="Rectangle 19054" width="2" height="15" transform="translate(4041 4296)"/>
        <rect id="Rectangle_19054-10" data-name="Rectangle 19054" width="2" height="15" transform="translate(4044 4296)"/>
        <rect id="Rectangle_19054-11" data-name="Rectangle 19054" width="1" height="15" transform="translate(4047 4296)"/>
        <rect id="Rectangle_19054-12" data-name="Rectangle 19054" width="1" height="15" transform="translate(4050 4296)"/>
        <rect id="Rectangle_19054-13" data-name="Rectangle 19054" width="2" height="15" transform="translate(4053 4296)"/>
        <rect id="Rectangle_19054-14" data-name="Rectangle 19054" width="2" height="15" transform="translate(4056 4296)"/>
        <rect id="Rectangle_19054-15" data-name="Rectangle 19054" width="2" height="15" transform="translate(4059 4296)"/>
        <rect id="Rectangle_19054-16" data-name="Rectangle 19054" width="2" height="15" transform="translate(4062 4296)"/>
        <rect id="Rectangle_19054-17" data-name="Rectangle 19054" width="1" height="15" transform="translate(4065 4296)"/>
        <rect id="Rectangle_19054-18" data-name="Rectangle 19054" width="1" height="15" transform="translate(4068 4296)"/>
        <rect id="Rectangle_19054-19" data-name="Rectangle 19054" width="2" height="15" transform="translate(4071 4296)"/>
        <rect id="Rectangle_19054-20" data-name="Rectangle 19054" width="1" height="15" transform="translate(4075 4296)"/>
        <rect id="Rectangle_19054-21" data-name="Rectangle 19054" width="2" height="15" transform="translate(4077 4296)"/>
      </g>
      <rect id="Rectangle_19050" data-name="Rectangle 19050" width="10" height="14" transform="translate(4087 4232)" fill="#f36e2c" opacity="0.67"/>
      <rect id="Rectangle_19050-2" data-name="Rectangle 19050" width="95" height="14" transform="translate(4101 4232)" fill="#f36e2c"/>
      <rect id="Rectangle_19050-3" data-name="Rectangle 19050" width="10" height="13" transform="translate(4087 4249)" fill="#f36e2c" opacity="0.67"/>
      <rect id="Rectangle_19050-4" data-name="Rectangle 19050" width="95" height="13" transform="translate(4101 4249)" fill="#fff"/>
      <rect id="Rectangle_19050-5" data-name="Rectangle 19050" width="10" height="14" transform="translate(4087 4265)" fill="#f36e2c" opacity="0.67"/>
      <rect id="Rectangle_19050-6" data-name="Rectangle 19050" width="41" height="14" transform="translate(4101 4265)" fill="#fff"/>
      <rect id="Rectangle_19053" data-name="Rectangle 19053" width="41" height="14" transform="translate(4155 4265)" fill="#fff"/>
      <rect id="Rectangle_19051" data-name="Rectangle 19051" width="41" height="14" transform="translate(4101 4281)" fill="#fff"/>
      <rect id="Rectangle_19050-7" data-name="Rectangle 19050" width="10" height="14" transform="translate(4087 4281)" fill="#f36e2c" opacity="0.67"/>
      <rect id="Rectangle_19050-8" data-name="Rectangle 19050" width="10" height="13" transform="translate(4087 4298)" fill="#f36e2c" opacity="0.67"/>
      <rect id="Rectangle_19050-9" data-name="Rectangle 19050" width="10" height="13" transform="translate(4132 4298)" fill="#fff"/>
      <rect id="Rectangle_19052" data-name="Rectangle 19052" width="28" height="13" transform="translate(4101 4298)" fill="#fff"/>
      <g id="Group_11843" data-name="Group 11843" transform="translate(4167.286 4281.429)">
        <circle id="Ellipse_37" data-name="Ellipse 37" cx="10" cy="10" r="10" transform="translate(4.714 4.571)" fill="#f36e2c"/>
        <g id="Ellipse_39" data-name="Ellipse 39" transform="translate(-0.286 -0.429)" fill="none" stroke="#f36e2c" stroke-width="1">
          <circle cx="14.5" cy="14.5" r="14.5" stroke="none"/>
          <circle cx="14.5" cy="14.5" r="14" fill="none"/>
        </g>
        <g id="Ellipse_38" data-name="Ellipse 38" transform="translate(1.714 2.571)" fill="none" stroke="#f36e2c" stroke-width="1" stroke-dasharray="6">
          <circle cx="12.5" cy="12.5" r="12.5" stroke="none"/>
          <circle cx="12.5" cy="12.5" r="12" fill="none"/>
        </g>
      </g>
      <path id="Path_1708" data-name="Path 1708" d="M4205.6,4334.727s12.112-.857,4.845-12.309,2.643,9.029,0,20.041-8.369,1.761-4.845-1.763,4.624,11.452,10.57,6.607-.661-13.7,10.791-12.577,6.387-7.244,6.387-7.244-38.759,19.82-34.575,14.976,32.373-1.763,32.373-1.763" transform="translate(-45.845 -37.616)" fill="none" stroke="#000" stroke-width="0.5"/>
    </g>
    <text id="Vehical_Registration" data-name="Vehical Registration" transform="translate(148 272)" fill="#fff" font-size="15" font-family="SegoeUI-Semibold, Segoe UI" font-weight="600"><tspan x="0" y="0">Vehical Registration</tspan></text>
    <path id="car" d="M11.253,22.5a3.611,3.611,0,0,0-1.1-2.649,3.611,3.611,0,0,0-2.649-1.1,3.611,3.611,0,0,0-2.649,1.1,3.735,3.735,0,0,0,0,5.3,3.611,3.611,0,0,0,2.649,1.1,3.611,3.611,0,0,0,2.649-1.1A3.611,3.611,0,0,0,11.253,22.5ZM12.1,15H35.914L33.828,6.635a.852.852,0,0,0-.328-.411A.845.845,0,0,0,33.008,6H15a.845.845,0,0,0-.492.223.852.852,0,0,0-.328.411Zm32.163,7.5a3.761,3.761,0,1,0-1.1,2.649A3.611,3.611,0,0,0,44.259,22.5Zm3.751-2.251v9a.721.721,0,0,1-.749.749H45.01v3a4.5,4.5,0,1,1-9,0V30H12v3a4.344,4.344,0,0,1-1.312,3.189A4.334,4.334,0,0,1,7.5,37.506a4.348,4.348,0,0,1-3.189-1.312A4.338,4.338,0,0,1,3,33.005V30H.75A.721.721,0,0,1,0,29.255v-9a5.061,5.061,0,0,1,1.535-3.715A5.065,5.065,0,0,1,5.251,15h.656L8.369,5.181a6.6,6.6,0,0,1,2.438-3.693A6.634,6.634,0,0,1,15,0h18a6.64,6.64,0,0,1,4.2,1.488,6.6,6.6,0,0,1,2.439,3.693L42.1,15h.656a5.241,5.241,0,0,1,5.25,5.252Z" transform="translate(132.999 301)" fill="#fff"/>
  </g>
</svg>
