<svg xmlns="http://www.w3.org/2000/svg" width="166" height="46" viewBox="0 0 166 46">
  <g id="Group_12033" data-name="Group 12033" transform="translate(-35 -167)">
    <circle id="Ellipse_1339" data-name="Ellipse 1339" cx="23" cy="23" r="23" transform="translate(35 167)" fill="#f36e2c"/>
    <circle id="Ellipse_1340" data-name="Ellipse 1340" cx="23" cy="23" r="23" transform="translate(95 167)" fill="#fde5d9"/>
    <circle id="Ellipse_1341" data-name="Ellipse 1341" cx="23" cy="23" r="23" transform="translate(155 167)" fill="#fde5d9"/>
    <path id="car" d="M5.978,11.955a1.918,1.918,0,0,0-.585-1.407,1.918,1.918,0,0,0-1.407-.585,1.918,1.918,0,0,0-1.407.585,1.984,1.984,0,0,0,0,2.814,1.918,1.918,0,0,0,1.407.585,1.918,1.918,0,0,0,1.407-.585A1.918,1.918,0,0,0,5.978,11.955ZM6.427,7.97H19.079L17.971,3.525a.453.453,0,0,0-.174-.218.449.449,0,0,0-.261-.118H7.97a.449.449,0,0,0-.261.118.453.453,0,0,0-.174.218Zm17.086,3.985a2,2,0,1,0-.585,1.407A1.918,1.918,0,0,0,23.513,11.955Zm1.993-1.2v4.782a.383.383,0,0,1-.4.4h-1.2v1.594a2.391,2.391,0,1,1-4.782,0V15.94H6.376v1.594a2.308,2.308,0,0,1-.7,1.694,2.3,2.3,0,0,1-1.694.7,2.31,2.31,0,0,1-1.694-.7,2.3,2.3,0,0,1-.7-1.694V15.94H.4a.383.383,0,0,1-.4-.4V10.76A2.688,2.688,0,0,1,.816,8.786,2.691,2.691,0,0,1,2.79,7.97h.349L4.447,2.752A3.5,3.5,0,0,1,5.742.791,3.524,3.524,0,0,1,7.97,0h9.564a3.527,3.527,0,0,1,2.229.791,3.509,3.509,0,0,1,1.3,1.962L22.367,7.97h.349A2.784,2.784,0,0,1,25.5,10.76Z" transform="translate(44.999 180)" fill="#fff"/>
    <path id="motorcycle" d="M32.219,10.922a6.073,6.073,0,0,1-.308,2.78A6.166,6.166,0,0,1,28.3,17.475a6.227,6.227,0,0,1-6.665-1.316,6.006,6.006,0,0,1-1.883-3.837,6.086,6.086,0,0,1,.385-2.947A6.293,6.293,0,0,1,21.8,6.987l-.994-1.5A8.038,8.038,0,0,0,18.693,8.2a7.764,7.764,0,0,0-.77,3.417.915.915,0,0,1-.259.651.841.841,0,0,1-.638.272H12.476a6.056,6.056,0,0,1-2.086,3.836,6.071,6.071,0,0,1-4.117,1.54,6.039,6.039,0,0,1-4.431-1.842A6.046,6.046,0,0,1,0,11.65,6.037,6.037,0,0,1,1.842,7.218,6.043,6.043,0,0,1,6.273,5.377,6.317,6.317,0,0,1,8.4,5.755l.336-.63a6.152,6.152,0,0,0-4.257-1.54h-.9a.861.861,0,0,1-.63-.266.879.879,0,0,1,0-1.26.861.861,0,0,1,.63-.266H5.377a10.281,10.281,0,0,1,2.031.189,6.419,6.419,0,0,1,1.631.539,11.221,11.221,0,0,1,1,.553q.308.2.714.511h8.779l-1.19-1.792H15.234a.857.857,0,0,1-.686-.315.864.864,0,0,1-.2-.735A.848.848,0,0,1,14.674.21a.938.938,0,0,1,.6-.21h3.542a.869.869,0,0,1,.742.393l.98,1.471,1.6-1.6A.878.878,0,0,1,22.781,0H24.2a.861.861,0,0,1,.63.266.861.861,0,0,1,.266.63V2.689a.861.861,0,0,1-.266.63.861.861,0,0,1-.63.266H21.689L23.3,5.994a6.243,6.243,0,0,1,7.268,1.379A6.13,6.13,0,0,1,32.219,10.922ZM6.273,16.13a4.34,4.34,0,0,0,2.843-1.015,4.394,4.394,0,0,0,1.554-2.569h-4.4a.871.871,0,0,1-.77-.434.856.856,0,0,1-.014-.882L7.547,7.352A4.773,4.773,0,0,0,6.273,7.17,4.313,4.313,0,0,0,3.109,8.486a4.319,4.319,0,0,0-1.316,3.164,4.31,4.31,0,0,0,1.316,3.164,4.316,4.316,0,0,0,3.164,1.316Zm19.715,0a4.495,4.495,0,0,0,4.481-4.481,4.495,4.495,0,0,0-4.481-4.481,4.6,4.6,0,0,0-1.695.336l2.437,3.641a.9.9,0,0,1,.14.686.818.818,0,0,1-.378.56.828.828,0,0,1-.5.154.819.819,0,0,1-.742-.406L22.808,8.5a4.462,4.462,0,0,0,.014,6.315,4.319,4.319,0,0,0,3.164,1.316Z" transform="translate(102 181)" fill="#f36e2c"/>
    <path id="truck" d="M20.527,5.961l3.244,4.308v5.423H21.643a3.288,3.288,0,0,1-3.269,3.244,3.064,3.064,0,0,1-2.281-.963,3.159,3.159,0,0,1-.938-2.281H8.667A3.117,3.117,0,0,1,7.7,17.973a3.146,3.146,0,0,1-2.306.963,3.064,3.064,0,0,1-2.281-.963,3.159,3.159,0,0,1-.938-2.281H0V3.781A2.1,2.1,0,0,1,.633,2.235,2.1,2.1,0,0,1,2.18,1.6h15.1V5.961ZM5.4,17.314a1.645,1.645,0,0,0,1.647-1.647,1.5,1.5,0,0,0-.482-1.14A1.632,1.632,0,0,0,5.4,14.071a1.558,1.558,0,0,0-1.6,1.6,1.639,1.639,0,0,0,.456,1.166A1.508,1.508,0,0,0,5.4,17.314ZM20.02,7.583H17.283v2.686H22.1Zm-1.647,9.731a1.645,1.645,0,0,0,1.647-1.647,1.5,1.5,0,0,0-.482-1.14,1.632,1.632,0,0,0-1.166-.456,1.558,1.558,0,0,0-1.6,1.6,1.639,1.639,0,0,0,.456,1.166A1.508,1.508,0,0,0,18.373,17.314Z" transform="translate(166 179.398)" fill="#f36e2c"/>
  </g>
</svg>
