<svg xmlns="http://www.w3.org/2000/svg" width="19.841" height="17.199" viewBox="0 0 19.841 17.199">
  <path id="home" d="M11.449,2.386a.661.661,0,0,0-.82,0L1.125,9.8l.82,1.045,1.164-.913V18.12a1.323,1.323,0,0,0,1.323,1.323H17.659a1.323,1.323,0,0,0,1.323-1.323V9.939l1.164.906.82-1.038Zm.919,15.734H9.723V12.829h2.646Zm1.323,0V12.829a1.323,1.323,0,0,0-1.323-1.323H9.723A1.323,1.323,0,0,0,8.4,12.829V18.12H4.432V8.9l6.614-5.152,6.614,5.159V18.12Z" transform="translate(-1.125 -2.244)" fill="#f36e2c"/>
</svg>
