<svg xmlns="http://www.w3.org/2000/svg" width="401.544" height="267.783" viewBox="0 0 401.544 267.783">
  <g id="Group_12043" data-name="Group 12043" transform="translate(0)">
    <path id="Path_159" data-name="Path 159" d="M1608.369,820.184s-112.251-19.733-37.928-139.06,99.632-53.21,136.618-68.173,141.6-112.594,212.754-9.726-22.191,216.958-22.191,216.958Z" transform="translate(-1545.011 -556.7)" fill="#f36e2c" opacity="0.06"/>
    <g id="GPS_navigator-cuate" data-name="GPS navigator-cuate" transform="translate(63.084 72.594)">
      <g id="freepik--background-complete--inject-31" transform="translate(0.462 0)">
        <path id="Path_1" data-name="Path 1" d="M204.619,49.96c-3.235,0-57.684.358-61.1.248-.248,0-.381-.367-.133-.486,2.156-1.069,4.588-.853,6.841-1.61a7.422,7.422,0,0,0,3.047-2.294,6.254,6.254,0,0,1,2.831-1.835,5.965,5.965,0,0,1,3.088-.1,29.909,29.909,0,0,1,3.115,1.3,6.413,6.413,0,0,0,7.025-1.89,15.482,15.482,0,0,1,5.148-3.955,6.836,6.836,0,0,1,5.455-.078c2,.918,3.368,2.725,5.244,3.817,2.221,1.3,4.882,1,7.341,1.376s4.345,2.459,6.5,3.671a4.588,4.588,0,0,0,2.349.725,13.763,13.763,0,0,0,1.432-.2,1.948,1.948,0,0,1,1.941.551C204.849,49.322,204.821,49.96,204.619,49.96Z" transform="translate(-100.378 -38.726)" fill="#ebebeb"/>
        <path id="Path_2" data-name="Path 2" d="M647.046,67.006c-2.363,0-42.111.266-44.612.184-.179,0-.275-.271-.1-.358,1.574-.78,3.363-.624,5-1.175a5.349,5.349,0,0,0,2.225-1.675,4.546,4.546,0,0,1,2.065-1.349,4.363,4.363,0,0,1,2.253-.073,19.32,19.32,0,0,1,2.294.945,4.681,4.681,0,0,0,5.13-1.376,11.28,11.28,0,0,1,3.758-2.891,4.992,4.992,0,0,1,3.983-.055c1.441.661,2.455,2,3.831,2.79,1.62.945,3.565.725,5.354,1.009s3.171,1.794,4.744,2.666a3.368,3.368,0,0,0,1.716.532,10.172,10.172,0,0,0,1.042-.151,1.436,1.436,0,0,1,1.422.4C647.22,66.543,647.2,67.006,647.046,67.006Z" transform="translate(-348.772 -49.587)" fill="#ebebeb"/>
        <path id="Path_3" data-name="Path 3" d="M137.008,125.573c-2.363,0-42.116.262-44.612.179a.193.193,0,0,1-.1-.358c1.574-.78,3.359-.619,5-1.175a5.269,5.269,0,0,0,2.221-1.675,4.625,4.625,0,0,1,2.069-1.349,4.364,4.364,0,0,1,2.253-.073,21.383,21.383,0,0,1,2.294.945,4.683,4.683,0,0,0,5.13-1.376,11.28,11.28,0,0,1,3.758-2.891,5.01,5.01,0,0,1,3.983-.055c1.459.661,2.459,1.991,3.827,2.79,1.624.95,3.565.725,5.359,1.009s3.171,1.8,4.744,2.666a3.368,3.368,0,0,0,1.711.532,8.962,8.962,0,0,0,1.046-.147,1.413,1.413,0,0,1,1.386.4C137.182,125.1,137.164,125.573,137.008,125.573Z" transform="translate(-72.754 -81.28)" fill="#ebebeb"/>
        <path id="Path_4" data-name="Path 4" d="M94.614,227.867c-2.363,0-42.116.262-44.612.184-.179,0-.275-.271-.1-.358,1.578-.78,3.363-.624,5-1.175a5.335,5.335,0,0,0,2.221-1.675,4.634,4.634,0,0,1,2.069-1.367,4.414,4.414,0,0,1,2.253-.069,21.369,21.369,0,0,1,2.294.945,4.683,4.683,0,0,0,5.13-1.376,11.28,11.28,0,0,1,3.758-2.891,4.969,4.969,0,0,1,3.983-.055c1.459.661,2.459,1.987,3.827,2.785,1.624.95,3.565.725,5.359,1.014s3.171,1.794,4.74,2.666a3.4,3.4,0,0,0,1.716.532,10.089,10.089,0,0,0,1.046-.151,1.427,1.427,0,0,1,1.418.4C94.784,227.4,94.766,227.867,94.614,227.867Z" transform="translate(-49.81 -136.633)" fill="#ebebeb"/>
        <path id="Path_5" data-name="Path 5" d="M289.308,169.767c-.046.133-62.653,0-61.863,0,.362,0-.546-.541-.193-.711,2.037-1.014,4.267-1.042,6.488-1.243a10,10,0,0,0,3.79-.918,9.872,9.872,0,0,0,2.753-2.68,11.76,11.76,0,0,1,10.691-4.051c4.451.7,7.961,4.088,12.42,4.712,2.68.376,5.212-.661,7.828-1.028a9.6,9.6,0,0,1,5.882,1.069,11.1,11.1,0,0,0,4.313,1.4c1.225.087,2.455-.05,3.671-.064a8.259,8.259,0,0,1,5.423,2.166C290.721,168.6,291.354,169.767,289.308,169.767Z" transform="translate(-145.792 -104.378)" fill="#ebebeb"/>
        <rect id="Rectangle_2" data-name="Rectangle 2" width="25.506" height="133.711" transform="translate(81.373 189.96) rotate(180)" fill="#ebebeb"/>
        <rect id="Rectangle_3" data-name="Rectangle 3" width="4.96" height="5.107" transform="translate(77.413 65.701) rotate(180)" fill="#fff"/>
        <rect id="Rectangle_4" data-name="Rectangle 4" width="4.96" height="5.107" transform="translate(71.068 65.701) rotate(180)" fill="#fff"/>
        <rect id="Rectangle_5" data-name="Rectangle 5" width="4.96" height="5.107" transform="translate(77.413 74.368) rotate(180)" fill="#fff"/>
        <rect id="Rectangle_6" data-name="Rectangle 6" width="4.96" height="5.107" transform="translate(71.068 74.368) rotate(180)" fill="#fff"/>
        <rect id="Rectangle_7" data-name="Rectangle 7" width="4.96" height="5.107" transform="translate(77.413 83.036) rotate(180)" fill="#fff"/>
        <rect id="Rectangle_8" data-name="Rectangle 8" width="4.96" height="5.107" transform="translate(71.068 83.036) rotate(180)" fill="#fff"/>
        <rect id="Rectangle_9" data-name="Rectangle 9" width="4.96" height="5.107" transform="translate(77.413 91.707) rotate(180)" fill="#fff"/>
        <rect id="Rectangle_10" data-name="Rectangle 10" width="4.96" height="5.107" transform="translate(71.068 91.707) rotate(180)" fill="#fff"/>
        <rect id="Rectangle_11" data-name="Rectangle 11" width="4.96" height="5.107" transform="translate(77.413 100.37) rotate(180)" fill="#fff"/>
        <rect id="Rectangle_12" data-name="Rectangle 12" width="4.96" height="5.107" transform="translate(71.068 100.37) rotate(180)" fill="#fff"/>
        <rect id="Rectangle_13" data-name="Rectangle 13" width="4.96" height="5.107" transform="translate(77.413 109.037) rotate(180)" fill="#fff"/>
        <rect id="Rectangle_14" data-name="Rectangle 14" width="4.96" height="5.107" transform="translate(71.068 109.037) rotate(180)" fill="#fff"/>
        <rect id="Rectangle_15" data-name="Rectangle 15" width="4.96" height="5.107" transform="translate(77.413 117.705) rotate(180)" fill="#fff"/>
        <rect id="Rectangle_16" data-name="Rectangle 16" width="4.96" height="5.107" transform="translate(71.068 117.705) rotate(180)" fill="#fff"/>
        <rect id="Rectangle_17" data-name="Rectangle 17" width="4.96" height="5.107" transform="translate(77.413 126.376) rotate(180)" fill="#fff"/>
        <rect id="Rectangle_18" data-name="Rectangle 18" width="4.96" height="5.107" transform="translate(71.068 126.376) rotate(180)" fill="#fff"/>
        <rect id="Rectangle_19" data-name="Rectangle 19" width="4.96" height="5.107" transform="translate(77.413 135.044) rotate(180)" fill="#fff"/>
        <rect id="Rectangle_20" data-name="Rectangle 20" width="4.96" height="5.107" transform="translate(71.068 135.044) rotate(180)" fill="#fff"/>
        <rect id="Rectangle_21" data-name="Rectangle 21" width="4.96" height="5.107" transform="translate(77.413 143.711) rotate(180)" fill="#fff"/>
        <rect id="Rectangle_22" data-name="Rectangle 22" width="4.96" height="5.107" transform="translate(71.068 143.711) rotate(180)" fill="#fff"/>
        <rect id="Rectangle_23" data-name="Rectangle 23" width="4.96" height="5.107" transform="translate(77.413 152.383) rotate(180)" fill="#fff"/>
        <rect id="Rectangle_24" data-name="Rectangle 24" width="4.96" height="5.107" transform="translate(71.068 152.383) rotate(180)" fill="#fff"/>
        <rect id="Rectangle_25" data-name="Rectangle 25" width="4.96" height="5.107" transform="translate(77.413 161.045) rotate(180)" fill="#fff"/>
        <rect id="Rectangle_26" data-name="Rectangle 26" width="4.96" height="5.107" transform="translate(71.068 161.045) rotate(180)" fill="#fff"/>
        <rect id="Rectangle_27" data-name="Rectangle 27" width="4.96" height="5.107" transform="translate(77.413 169.712) rotate(180)" fill="#fff"/>
        <rect id="Rectangle_28" data-name="Rectangle 28" width="4.96" height="5.107" transform="translate(71.068 169.712) rotate(180)" fill="#fff"/>
        <rect id="Rectangle_29" data-name="Rectangle 29" width="4.96" height="5.107" transform="translate(77.413 178.38) rotate(180)" fill="#fff"/>
        <rect id="Rectangle_30" data-name="Rectangle 30" width="4.96" height="5.107" transform="translate(59.822 173.278)" fill="#fff"/>
        <rect id="Rectangle_31" data-name="Rectangle 31" width="4.96" height="5.107" transform="translate(59.822 164.61)" fill="#fff"/>
        <rect id="Rectangle_32" data-name="Rectangle 32" width="4.96" height="5.107" transform="translate(59.822 155.943)" fill="#fff"/>
        <rect id="Rectangle_33" data-name="Rectangle 33" width="4.96" height="5.107" transform="translate(59.822 147.271)" fill="#fff"/>
        <rect id="Rectangle_34" data-name="Rectangle 34" width="4.96" height="5.107" transform="translate(59.822 138.604)" fill="#fff"/>
        <rect id="Rectangle_35" data-name="Rectangle 35" width="4.96" height="5.107" transform="translate(59.822 129.937)" fill="#fff"/>
        <rect id="Rectangle_36" data-name="Rectangle 36" width="4.96" height="5.107" transform="translate(59.822 121.27)" fill="#fff"/>
        <rect id="Rectangle_37" data-name="Rectangle 37" width="4.96" height="5.107" transform="translate(59.822 112.602)" fill="#fff"/>
        <rect id="Rectangle_38" data-name="Rectangle 38" width="4.96" height="5.107" transform="translate(59.822 103.935)" fill="#fff"/>
        <rect id="Rectangle_39" data-name="Rectangle 39" width="4.96" height="5.107" transform="translate(59.822 95.268)" fill="#fff"/>
        <rect id="Rectangle_40" data-name="Rectangle 40" width="4.96" height="5.107" transform="translate(59.822 86.596)" fill="#fff"/>
        <rect id="Rectangle_41" data-name="Rectangle 41" width="4.96" height="5.107" transform="translate(59.822 77.929)" fill="#fff"/>
        <rect id="Rectangle_42" data-name="Rectangle 42" width="4.96" height="5.107" transform="translate(59.822 69.262)" fill="#fff"/>
        <rect id="Rectangle_43" data-name="Rectangle 43" width="4.96" height="5.107" transform="translate(59.822 60.594)" fill="#fff"/>
        <rect id="Rectangle_44" data-name="Rectangle 44" width="4.96" height="5.107" transform="translate(71.068 178.38) rotate(180)" fill="#fff"/>
        <rect id="Rectangle_45" data-name="Rectangle 45" width="20.11" height="133.711" transform="translate(55.867 189.96) rotate(180)" fill="#dbdbdb"/>
        <rect id="Rectangle_46" data-name="Rectangle 46" width="4.093" height="5.107" transform="translate(37.826 173.278)" fill="#c7c7c7"/>
        <rect id="Rectangle_47" data-name="Rectangle 47" width="4.093" height="5.107" transform="translate(43.066 173.278)" fill="#c7c7c7"/>
        <rect id="Rectangle_48" data-name="Rectangle 48" width="4.093" height="5.107" transform="translate(37.826 164.61)" fill="#c7c7c7"/>
        <rect id="Rectangle_49" data-name="Rectangle 49" width="4.093" height="5.107" transform="translate(43.066 164.61)" fill="#c7c7c7"/>
        <rect id="Rectangle_50" data-name="Rectangle 50" width="4.093" height="5.107" transform="translate(37.826 155.943)" fill="#c7c7c7"/>
        <rect id="Rectangle_51" data-name="Rectangle 51" width="4.093" height="5.107" transform="translate(43.066 155.943)" fill="#c7c7c7"/>
        <rect id="Rectangle_52" data-name="Rectangle 52" width="4.093" height="5.107" transform="translate(37.826 147.271)" fill="#c7c7c7"/>
        <rect id="Rectangle_53" data-name="Rectangle 53" width="4.093" height="5.107" transform="translate(43.066 147.271)" fill="#c7c7c7"/>
        <rect id="Rectangle_54" data-name="Rectangle 54" width="4.093" height="5.107" transform="translate(37.826 138.604)" fill="#c7c7c7"/>
        <rect id="Rectangle_55" data-name="Rectangle 55" width="4.093" height="5.107" transform="translate(43.066 138.604)" fill="#c7c7c7"/>
        <rect id="Rectangle_56" data-name="Rectangle 56" width="4.093" height="5.107" transform="translate(37.826 129.937)" fill="#c7c7c7"/>
        <rect id="Rectangle_57" data-name="Rectangle 57" width="4.093" height="5.107" transform="translate(43.066 129.937)" fill="#c7c7c7"/>
        <rect id="Rectangle_58" data-name="Rectangle 58" width="4.093" height="5.107" transform="translate(37.826 121.27)" fill="#c7c7c7"/>
        <rect id="Rectangle_59" data-name="Rectangle 59" width="4.093" height="5.107" transform="translate(43.066 121.27)" fill="#c7c7c7"/>
        <rect id="Rectangle_60" data-name="Rectangle 60" width="4.093" height="5.107" transform="translate(37.826 112.602)" fill="#c7c7c7"/>
        <rect id="Rectangle_61" data-name="Rectangle 61" width="4.093" height="5.107" transform="translate(43.066 112.602)" fill="#c7c7c7"/>
        <rect id="Rectangle_62" data-name="Rectangle 62" width="4.093" height="5.107" transform="translate(37.826 103.935)" fill="#c7c7c7"/>
        <rect id="Rectangle_63" data-name="Rectangle 63" width="4.093" height="5.107" transform="translate(43.066 103.935)" fill="#c7c7c7"/>
        <rect id="Rectangle_64" data-name="Rectangle 64" width="4.093" height="5.107" transform="translate(37.826 95.268)" fill="#c7c7c7"/>
        <rect id="Rectangle_65" data-name="Rectangle 65" width="4.093" height="5.107" transform="translate(43.066 95.268)" fill="#c7c7c7"/>
        <rect id="Rectangle_66" data-name="Rectangle 66" width="4.093" height="5.107" transform="translate(37.826 86.596)" fill="#c7c7c7"/>
        <rect id="Rectangle_67" data-name="Rectangle 67" width="4.093" height="5.107" transform="translate(43.066 86.596)" fill="#c7c7c7"/>
        <rect id="Rectangle_68" data-name="Rectangle 68" width="4.093" height="5.107" transform="translate(37.826 77.929)" fill="#c7c7c7"/>
        <rect id="Rectangle_69" data-name="Rectangle 69" width="4.093" height="5.107" transform="translate(43.066 77.929)" fill="#c7c7c7"/>
        <rect id="Rectangle_70" data-name="Rectangle 70" width="4.093" height="5.107" transform="translate(37.826 69.262)" fill="#c7c7c7"/>
        <rect id="Rectangle_71" data-name="Rectangle 71" width="4.093" height="5.107" transform="translate(43.066 69.262)" fill="#c7c7c7"/>
        <rect id="Rectangle_72" data-name="Rectangle 72" width="4.093" height="5.107" transform="translate(37.826 60.594)" fill="#c7c7c7"/>
        <rect id="Rectangle_73" data-name="Rectangle 73" width="4.093" height="5.107" transform="translate(52.352 65.701) rotate(180)" fill="#c7c7c7"/>
        <rect id="Rectangle_74" data-name="Rectangle 74" width="4.093" height="5.107" transform="translate(52.352 74.368) rotate(180)" fill="#c7c7c7"/>
        <rect id="Rectangle_75" data-name="Rectangle 75" width="4.093" height="5.107" transform="translate(52.352 83.036) rotate(180)" fill="#c7c7c7"/>
        <rect id="Rectangle_76" data-name="Rectangle 76" width="4.093" height="5.107" transform="translate(52.352 91.707) rotate(180)" fill="#c7c7c7"/>
        <rect id="Rectangle_77" data-name="Rectangle 77" width="4.093" height="5.107" transform="translate(52.352 100.37) rotate(180)" fill="#c7c7c7"/>
        <rect id="Rectangle_78" data-name="Rectangle 78" width="4.093" height="5.107" transform="translate(52.352 109.037) rotate(180)" fill="#c7c7c7"/>
        <rect id="Rectangle_79" data-name="Rectangle 79" width="4.093" height="5.107" transform="translate(52.352 117.705) rotate(180)" fill="#c7c7c7"/>
        <rect id="Rectangle_80" data-name="Rectangle 80" width="4.093" height="5.107" transform="translate(52.352 126.376) rotate(180)" fill="#c7c7c7"/>
        <rect id="Rectangle_81" data-name="Rectangle 81" width="4.093" height="5.107" transform="translate(52.352 135.044) rotate(180)" fill="#c7c7c7"/>
        <rect id="Rectangle_82" data-name="Rectangle 82" width="4.093" height="5.107" transform="translate(52.352 143.711) rotate(180)" fill="#c7c7c7"/>
        <rect id="Rectangle_83" data-name="Rectangle 83" width="4.093" height="5.107" transform="translate(52.352 152.383) rotate(180)" fill="#c7c7c7"/>
        <rect id="Rectangle_84" data-name="Rectangle 84" width="4.093" height="5.107" transform="translate(52.352 161.045) rotate(180)" fill="#c7c7c7"/>
        <rect id="Rectangle_85" data-name="Rectangle 85" width="4.093" height="5.107" transform="translate(52.352 169.712) rotate(180)" fill="#c7c7c7"/>
        <rect id="Rectangle_86" data-name="Rectangle 86" width="4.093" height="5.107" transform="translate(52.352 178.38) rotate(180)" fill="#c7c7c7"/>
        <rect id="Rectangle_87" data-name="Rectangle 87" width="4.093" height="5.107" transform="translate(43.066 60.594)" fill="#c7c7c7"/>
        <rect id="Rectangle_88" data-name="Rectangle 88" width="25.235" height="95.707" transform="translate(131.88 189.96) rotate(180)" fill="#ebebeb"/>
        <rect id="Rectangle_89" data-name="Rectangle 89" width="21.647" height="6.346" transform="translate(128.292 94.254) rotate(180)" fill="#c7c7c7"/>
        <rect id="Rectangle_90" data-name="Rectangle 90" width="19.702" height="71.549" transform="translate(129.114 169.111) rotate(180)" fill="#dbdbdb"/>
        <rect id="Rectangle_91" data-name="Rectangle 91" width="19.702" height="1.693" transform="translate(129.114 106.087) rotate(180)" fill="#fff"/>
        <rect id="Rectangle_92" data-name="Rectangle 92" width="19.702" height="1.688" transform="translate(129.114 113.089) rotate(180)" fill="#fff"/>
        <rect id="Rectangle_93" data-name="Rectangle 93" width="19.702" height="1.688" transform="translate(129.114 120.09) rotate(180)" fill="#fff"/>
        <rect id="Rectangle_94" data-name="Rectangle 94" width="19.702" height="1.693" transform="translate(129.114 127.097) rotate(180)" fill="#fff"/>
        <rect id="Rectangle_95" data-name="Rectangle 95" width="19.702" height="1.688" transform="translate(129.114 134.098) rotate(180)" fill="#fff"/>
        <rect id="Rectangle_96" data-name="Rectangle 96" width="19.702" height="1.693" transform="translate(129.114 141.1) rotate(180)" fill="#fff"/>
        <rect id="Rectangle_97" data-name="Rectangle 97" width="19.702" height="1.688" transform="translate(129.114 148.106) rotate(180)" fill="#fff"/>
        <rect id="Rectangle_98" data-name="Rectangle 98" width="19.702" height="1.688" transform="translate(129.114 155.108) rotate(180)" fill="#fff"/>
        <rect id="Rectangle_99" data-name="Rectangle 99" width="19.702" height="1.693" transform="translate(129.114 162.11) rotate(180)" fill="#fff"/>
        <rect id="Rectangle_100" data-name="Rectangle 100" width="19.702" height="1.693" transform="translate(129.114 169.111) rotate(180)" fill="#fff"/>
        <rect id="Rectangle_101" data-name="Rectangle 101" width="15.807" height="95.707" transform="translate(106.645 189.96) rotate(180)" fill="#dbdbdb"/>
        <rect id="Rectangle_102" data-name="Rectangle 102" width="13.434" height="6.346" transform="translate(106.645 94.254) rotate(180)" fill="#a6a6a6"/>
        <rect id="Rectangle_103" data-name="Rectangle 103" width="12.154" height="71.549" transform="translate(104.461 169.111) rotate(180)" fill="#c7c7c7"/>
        <rect id="Rectangle_104" data-name="Rectangle 104" width="12.154" height="1.693" transform="translate(104.461 106.087) rotate(180)" fill="#fff"/>
        <rect id="Rectangle_105" data-name="Rectangle 105" width="12.154" height="1.688" transform="translate(104.461 113.089) rotate(180)" fill="#fff"/>
        <rect id="Rectangle_106" data-name="Rectangle 106" width="12.154" height="1.688" transform="translate(104.461 120.09) rotate(180)" fill="#fff"/>
        <rect id="Rectangle_107" data-name="Rectangle 107" width="12.154" height="1.693" transform="translate(104.461 127.097) rotate(180)" fill="#fff"/>
        <rect id="Rectangle_108" data-name="Rectangle 108" width="12.154" height="1.688" transform="translate(104.461 134.098) rotate(180)" fill="#fff"/>
        <rect id="Rectangle_109" data-name="Rectangle 109" width="12.154" height="1.693" transform="translate(104.461 141.1) rotate(180)" fill="#fff"/>
        <rect id="Rectangle_110" data-name="Rectangle 110" width="12.154" height="1.688" transform="translate(104.461 148.106) rotate(180)" fill="#fff"/>
        <rect id="Rectangle_111" data-name="Rectangle 111" width="12.154" height="1.688" transform="translate(104.461 155.108) rotate(180)" fill="#fff"/>
        <rect id="Rectangle_112" data-name="Rectangle 112" width="12.154" height="1.693" transform="translate(104.461 162.11) rotate(180)" fill="#fff"/>
        <rect id="Rectangle_113" data-name="Rectangle 113" width="12.154" height="1.693" transform="translate(104.461 169.111) rotate(180)" fill="#fff"/>
        <rect id="Rectangle_114" data-name="Rectangle 114" width="13.476" height="15.921" transform="translate(34.284 111.786) rotate(180)" fill="#dbdbdb"/>
        <rect id="Rectangle_115" data-name="Rectangle 115" width="8.548" height="16.504" transform="translate(20.808 112.368) rotate(180)" fill="#c7c7c7"/>
        <rect id="Rectangle_116" data-name="Rectangle 116" width="8.479" height="9.475" transform="translate(20.175 112.373) rotate(180)" fill="#dbdbdb"/>
        <rect id="Rectangle_117" data-name="Rectangle 117" width="5.29" height="9.475" transform="translate(11.691 112.373) rotate(180)" fill="#c7c7c7"/>
        <rect id="Rectangle_118" data-name="Rectangle 118" width="21.794" height="79.207" transform="translate(39.455 189.96) rotate(180)" fill="#ebebeb"/>
        <rect id="Rectangle_119" data-name="Rectangle 119" width="6.855" height="2.799" transform="translate(36.963 116.961) rotate(180)" fill="#fff"/>
        <rect id="Rectangle_120" data-name="Rectangle 120" width="6.855" height="2.799" transform="translate(28.2 116.961) rotate(180)" fill="#fff"/>
        <rect id="Rectangle_121" data-name="Rectangle 121" width="6.855" height="2.799" transform="translate(36.963 121.715) rotate(180)" fill="#fff"/>
        <rect id="Rectangle_122" data-name="Rectangle 122" width="6.855" height="2.799" transform="translate(28.2 121.715) rotate(180)" fill="#fff"/>
        <rect id="Rectangle_123" data-name="Rectangle 123" width="6.855" height="2.799" transform="translate(36.963 126.468) rotate(180)" fill="#fff"/>
        <rect id="Rectangle_124" data-name="Rectangle 124" width="6.855" height="2.799" transform="translate(28.2 126.468) rotate(180)" fill="#fff"/>
        <rect id="Rectangle_125" data-name="Rectangle 125" width="6.855" height="2.799" transform="translate(36.963 131.222) rotate(180)" fill="#fff"/>
        <rect id="Rectangle_126" data-name="Rectangle 126" width="6.855" height="2.799" transform="translate(28.2 131.222) rotate(180)" fill="#fff"/>
        <rect id="Rectangle_127" data-name="Rectangle 127" width="6.855" height="2.799" transform="translate(36.963 135.975) rotate(180)" fill="#fff"/>
        <rect id="Rectangle_128" data-name="Rectangle 128" width="6.855" height="2.799" transform="translate(28.2 135.975) rotate(180)" fill="#fff"/>
        <rect id="Rectangle_129" data-name="Rectangle 129" width="6.855" height="2.799" transform="translate(36.963 140.728) rotate(180)" fill="#fff"/>
        <rect id="Rectangle_130" data-name="Rectangle 130" width="6.855" height="2.799" transform="translate(28.2 140.728) rotate(180)" fill="#fff"/>
        <rect id="Rectangle_131" data-name="Rectangle 131" width="6.855" height="2.799" transform="translate(36.963 145.486) rotate(180)" fill="#fff"/>
        <rect id="Rectangle_132" data-name="Rectangle 132" width="6.855" height="2.799" transform="translate(28.2 145.486) rotate(180)" fill="#fff"/>
        <rect id="Rectangle_133" data-name="Rectangle 133" width="6.855" height="2.799" transform="translate(36.963 150.24) rotate(180)" fill="#fff"/>
        <rect id="Rectangle_134" data-name="Rectangle 134" width="6.855" height="2.799" transform="translate(28.2 150.24) rotate(180)" fill="#fff"/>
        <rect id="Rectangle_135" data-name="Rectangle 135" width="6.855" height="2.799" transform="translate(36.963 154.989) rotate(180)" fill="#fff"/>
        <rect id="Rectangle_136" data-name="Rectangle 136" width="6.855" height="2.799" transform="translate(28.2 154.989) rotate(180)" fill="#fff"/>
        <rect id="Rectangle_137" data-name="Rectangle 137" width="6.855" height="2.799" transform="translate(36.963 159.747) rotate(180)" fill="#fff"/>
        <rect id="Rectangle_138" data-name="Rectangle 138" width="6.855" height="2.799" transform="translate(28.2 159.747) rotate(180)" fill="#fff"/>
        <rect id="Rectangle_139" data-name="Rectangle 139" width="6.855" height="2.799" transform="translate(36.963 164.5) rotate(180)" fill="#fff"/>
        <rect id="Rectangle_140" data-name="Rectangle 140" width="6.855" height="2.799" transform="translate(28.2 164.5) rotate(180)" fill="#fff"/>
        <rect id="Rectangle_141" data-name="Rectangle 141" width="6.855" height="2.799" transform="translate(36.963 169.254) rotate(180)" fill="#fff"/>
        <rect id="Rectangle_142" data-name="Rectangle 142" width="6.855" height="2.799" transform="translate(28.2 169.254) rotate(180)" fill="#fff"/>
        <rect id="Rectangle_143" data-name="Rectangle 143" width="6.855" height="2.799" transform="translate(36.963 174.012) rotate(180)" fill="#fff"/>
        <rect id="Rectangle_144" data-name="Rectangle 144" width="6.855" height="2.799" transform="translate(28.2 174.012) rotate(180)" fill="#fff"/>
        <rect id="Rectangle_145" data-name="Rectangle 145" width="6.855" height="2.799" transform="translate(36.963 178.765) rotate(180)" fill="#fff"/>
        <rect id="Rectangle_146" data-name="Rectangle 146" width="6.855" height="2.799" transform="translate(28.2 178.765) rotate(180)" fill="#fff"/>
        <rect id="Rectangle_147" data-name="Rectangle 147" width="17.66" height="79.207" transform="translate(17.66 189.96) rotate(180)" fill="#c7c7c7"/>
        <rect id="Rectangle_148" data-name="Rectangle 148" width="5.625" height="2.799" transform="translate(1.771 175.962)" fill="#ebebeb"/>
        <rect id="Rectangle_149" data-name="Rectangle 149" width="5.625" height="2.799" transform="translate(8.97 175.962)" fill="#ebebeb"/>
        <rect id="Rectangle_150" data-name="Rectangle 150" width="5.625" height="2.799" transform="translate(1.771 171.208)" fill="#ebebeb"/>
        <rect id="Rectangle_151" data-name="Rectangle 151" width="5.625" height="2.799" transform="translate(8.97 171.208)" fill="#ebebeb"/>
        <rect id="Rectangle_152" data-name="Rectangle 152" width="5.625" height="2.799" transform="translate(1.771 166.455)" fill="#ebebeb"/>
        <rect id="Rectangle_153" data-name="Rectangle 153" width="5.625" height="2.799" transform="translate(8.97 166.455)" fill="#ebebeb"/>
        <rect id="Rectangle_154" data-name="Rectangle 154" width="5.625" height="2.799" transform="translate(1.771 161.701)" fill="#ebebeb"/>
        <rect id="Rectangle_155" data-name="Rectangle 155" width="5.625" height="2.799" transform="translate(8.97 161.701)" fill="#ebebeb"/>
        <rect id="Rectangle_156" data-name="Rectangle 156" width="5.625" height="2.799" transform="translate(1.771 156.948)" fill="#ebebeb"/>
        <rect id="Rectangle_157" data-name="Rectangle 157" width="5.625" height="2.799" transform="translate(8.97 156.948)" fill="#ebebeb"/>
        <rect id="Rectangle_158" data-name="Rectangle 158" width="5.625" height="2.799" transform="translate(1.771 152.194)" fill="#ebebeb"/>
        <rect id="Rectangle_159" data-name="Rectangle 159" width="5.625" height="2.799" transform="translate(8.97 152.194)" fill="#ebebeb"/>
        <rect id="Rectangle_160" data-name="Rectangle 160" width="5.625" height="2.799" transform="translate(1.771 147.436)" fill="#ebebeb"/>
        <rect id="Rectangle_161" data-name="Rectangle 161" width="5.625" height="2.799" transform="translate(8.97 147.436)" fill="#ebebeb"/>
        <rect id="Rectangle_162" data-name="Rectangle 162" width="5.625" height="2.799" transform="translate(1.771 142.683)" fill="#ebebeb"/>
        <rect id="Rectangle_163" data-name="Rectangle 163" width="5.625" height="2.799" transform="translate(8.97 142.683)" fill="#ebebeb"/>
        <rect id="Rectangle_164" data-name="Rectangle 164" width="5.625" height="2.799" transform="translate(1.771 137.93)" fill="#ebebeb"/>
        <rect id="Rectangle_165" data-name="Rectangle 165" width="5.625" height="2.799" transform="translate(8.97 137.93)" fill="#ebebeb"/>
        <rect id="Rectangle_166" data-name="Rectangle 166" width="5.625" height="2.799" transform="translate(1.771 133.176)" fill="#ebebeb"/>
        <rect id="Rectangle_167" data-name="Rectangle 167" width="5.625" height="2.799" transform="translate(8.97 133.176)" fill="#ebebeb"/>
        <rect id="Rectangle_168" data-name="Rectangle 168" width="5.625" height="2.799" transform="translate(1.771 128.423)" fill="#ebebeb"/>
        <rect id="Rectangle_169" data-name="Rectangle 169" width="5.625" height="2.799" transform="translate(8.97 128.423)" fill="#ebebeb"/>
        <rect id="Rectangle_170" data-name="Rectangle 170" width="5.625" height="2.799" transform="translate(1.771 123.665)" fill="#ebebeb"/>
        <rect id="Rectangle_171" data-name="Rectangle 171" width="5.625" height="2.799" transform="translate(8.97 123.665)" fill="#ebebeb"/>
        <rect id="Rectangle_172" data-name="Rectangle 172" width="5.625" height="2.799" transform="translate(1.771 118.911)" fill="#ebebeb"/>
        <rect id="Rectangle_173" data-name="Rectangle 173" width="5.625" height="2.799" transform="translate(8.97 118.911)" fill="#ebebeb"/>
        <rect id="Rectangle_174" data-name="Rectangle 174" width="5.625" height="2.799" transform="translate(1.771 114.158)" fill="#ebebeb"/>
        <rect id="Rectangle_175" data-name="Rectangle 175" width="5.625" height="2.799" transform="translate(8.97 114.158)" fill="#ebebeb"/>
        <rect id="Rectangle_176" data-name="Rectangle 176" width="25.708" height="51.613" transform="translate(163.379 189.96) rotate(180)" fill="#ebebeb"/>
        <rect id="Rectangle_177" data-name="Rectangle 177" width="4.547" height="3.161" transform="translate(159.337 145.977) rotate(180)" fill="#dbdbdb"/>
        <rect id="Rectangle_178" data-name="Rectangle 178" width="4.547" height="3.161" transform="translate(159.337 152.731) rotate(180)" fill="#dbdbdb"/>
        <rect id="Rectangle_179" data-name="Rectangle 179" width="4.547" height="3.161" transform="translate(159.337 159.485) rotate(180)" fill="#dbdbdb"/>
        <rect id="Rectangle_180" data-name="Rectangle 180" width="4.547" height="3.161" transform="translate(159.337 166.239) rotate(180)" fill="#dbdbdb"/>
        <rect id="Rectangle_181" data-name="Rectangle 181" width="4.547" height="3.161" transform="translate(159.337 172.993) rotate(180)" fill="#dbdbdb"/>
        <rect id="Rectangle_182" data-name="Rectangle 182" width="4.547" height="3.161" transform="translate(159.337 179.747) rotate(180)" fill="#dbdbdb"/>
        <rect id="Rectangle_183" data-name="Rectangle 183" width="4.547" height="3.161" transform="translate(159.337 186.501) rotate(180)" fill="#dbdbdb"/>
        <rect id="Rectangle_184" data-name="Rectangle 184" width="4.547" height="3.161" transform="translate(152.794 145.977) rotate(180)" fill="#dbdbdb"/>
        <rect id="Rectangle_185" data-name="Rectangle 185" width="4.547" height="3.161" transform="translate(152.794 152.731) rotate(180)" fill="#dbdbdb"/>
        <rect id="Rectangle_186" data-name="Rectangle 186" width="4.547" height="3.161" transform="translate(152.794 159.485) rotate(180)" fill="#dbdbdb"/>
        <rect id="Rectangle_187" data-name="Rectangle 187" width="4.547" height="3.161" transform="translate(152.794 166.239) rotate(180)" fill="#dbdbdb"/>
        <rect id="Rectangle_188" data-name="Rectangle 188" width="4.547" height="3.161" transform="translate(152.794 172.993) rotate(180)" fill="#dbdbdb"/>
        <rect id="Rectangle_189" data-name="Rectangle 189" width="4.547" height="3.161" transform="translate(152.794 179.747) rotate(180)" fill="#dbdbdb"/>
        <rect id="Rectangle_190" data-name="Rectangle 190" width="4.547" height="3.161" transform="translate(152.794 186.501) rotate(180)" fill="#dbdbdb"/>
        <rect id="Rectangle_191" data-name="Rectangle 191" width="4.547" height="3.161" transform="translate(146.265 145.977) rotate(180)" fill="#dbdbdb"/>
        <rect id="Rectangle_192" data-name="Rectangle 192" width="4.547" height="3.161" transform="translate(146.265 152.731) rotate(180)" fill="#dbdbdb"/>
        <rect id="Rectangle_193" data-name="Rectangle 193" width="4.547" height="3.161" transform="translate(146.265 159.485) rotate(180)" fill="#dbdbdb"/>
        <rect id="Rectangle_194" data-name="Rectangle 194" width="4.547" height="3.161" transform="translate(146.265 166.239) rotate(180)" fill="#dbdbdb"/>
        <rect id="Rectangle_195" data-name="Rectangle 195" width="4.547" height="3.161" transform="translate(146.265 172.993) rotate(180)" fill="#dbdbdb"/>
        <rect id="Rectangle_196" data-name="Rectangle 196" width="4.547" height="3.161" transform="translate(146.265 179.747) rotate(180)" fill="#dbdbdb"/>
        <rect id="Rectangle_197" data-name="Rectangle 197" width="4.547" height="3.161" transform="translate(146.265 186.501) rotate(180)" fill="#dbdbdb"/>
        <rect id="Rectangle_198" data-name="Rectangle 198" width="17.114" height="5.377" transform="translate(154.79 138.347) rotate(180)" fill="#dbdbdb"/>
        <rect id="Rectangle_199" data-name="Rectangle 199" width="10.851" height="3.331" transform="translate(148.522 132.97) rotate(180)" fill="#ebebeb"/>
        <rect id="Rectangle_200" data-name="Rectangle 200" width="18.036" height="51.613" transform="translate(137.675 189.96) rotate(180)" fill="#dbdbdb"/>
        <rect id="Rectangle_201" data-name="Rectangle 201" width="3.703" height="3.161" transform="translate(121.483 182.835)" fill="#c7c7c7"/>
        <rect id="Rectangle_202" data-name="Rectangle 202" width="3.703" height="3.161" transform="translate(121.483 176.081)" fill="#c7c7c7"/>
        <rect id="Rectangle_203" data-name="Rectangle 203" width="3.703" height="3.161" transform="translate(121.483 169.327)" fill="#c7c7c7"/>
        <rect id="Rectangle_204" data-name="Rectangle 204" width="3.703" height="3.161" transform="translate(121.483 162.573)" fill="#c7c7c7"/>
        <rect id="Rectangle_205" data-name="Rectangle 205" width="3.703" height="3.161" transform="translate(121.483 155.819)" fill="#c7c7c7"/>
        <rect id="Rectangle_206" data-name="Rectangle 206" width="3.703" height="3.161" transform="translate(121.483 149.065)" fill="#c7c7c7"/>
        <rect id="Rectangle_207" data-name="Rectangle 207" width="3.703" height="3.161" transform="translate(121.483 142.311)" fill="#c7c7c7"/>
        <rect id="Rectangle_208" data-name="Rectangle 208" width="3.703" height="3.161" transform="translate(126.81 182.835)" fill="#c7c7c7"/>
        <rect id="Rectangle_209" data-name="Rectangle 209" width="3.703" height="3.161" transform="translate(126.81 176.081)" fill="#c7c7c7"/>
        <rect id="Rectangle_210" data-name="Rectangle 210" width="3.703" height="3.161" transform="translate(126.81 169.327)" fill="#c7c7c7"/>
        <rect id="Rectangle_211" data-name="Rectangle 211" width="3.703" height="3.161" transform="translate(126.81 162.573)" fill="#c7c7c7"/>
        <rect id="Rectangle_212" data-name="Rectangle 212" width="3.703" height="3.161" transform="translate(126.81 155.819)" fill="#c7c7c7"/>
        <rect id="Rectangle_213" data-name="Rectangle 213" width="3.703" height="3.161" transform="translate(126.81 149.065)" fill="#c7c7c7"/>
        <rect id="Rectangle_214" data-name="Rectangle 214" width="3.703" height="3.161" transform="translate(126.81 142.311)" fill="#c7c7c7"/>
        <rect id="Rectangle_215" data-name="Rectangle 215" width="3.703" height="3.161" transform="translate(132.124 182.835)" fill="#c7c7c7"/>
        <rect id="Rectangle_216" data-name="Rectangle 216" width="3.703" height="3.161" transform="translate(132.124 176.081)" fill="#c7c7c7"/>
        <rect id="Rectangle_217" data-name="Rectangle 217" width="3.703" height="3.161" transform="translate(132.124 169.327)" fill="#c7c7c7"/>
        <rect id="Rectangle_218" data-name="Rectangle 218" width="3.703" height="3.161" transform="translate(132.124 162.573)" fill="#c7c7c7"/>
        <rect id="Rectangle_219" data-name="Rectangle 219" width="3.703" height="3.161" transform="translate(132.124 155.819)" fill="#c7c7c7"/>
        <rect id="Rectangle_220" data-name="Rectangle 220" width="3.703" height="3.161" transform="translate(132.124 149.065)" fill="#c7c7c7"/>
        <rect id="Rectangle_221" data-name="Rectangle 221" width="3.703" height="3.161" transform="translate(132.124 142.311)" fill="#c7c7c7"/>
        <rect id="Rectangle_222" data-name="Rectangle 222" width="15.302" height="5.377" transform="translate(137.671 138.347) rotate(180)" fill="#c7c7c7"/>
        <rect id="Rectangle_223" data-name="Rectangle 223" width="8.291" height="3.331" transform="translate(137.675 132.97) rotate(180)" fill="#dbdbdb"/>
      </g>
      <g id="freepik--Floor--inject-31" transform="translate(0.462 189.616)">
        <path id="Path_6" data-name="Path 6" d="M49.81,452.219l37.3-.115,37.3-.041,74.605-.073,74.605.073,37.3.041,37.3.115-37.3.11-37.3.041-74.605.078-74.605-.078-37.3-.041Z" transform="translate(-49.81 -451.99)" fill="#263238"/>
      </g>
      <g id="freepik--Trees--inject-31" transform="translate(0 123.343)">
        <path id="Path_7" data-name="Path 7" d="M64.814,335.745s10.369,23.028-6.557,23.047-5.965-23.818-5.965-23.818-3.918-1.72.61-14.577,6.566-12.847,8.452-12.847c2.386,0,4.588,5.556,2.992,14.1C64.328,321.613,70.3,332.267,64.814,335.745Z" transform="translate(-48.802 -307.55)" fill="#37474f"/>
        <path id="Path_8" data-name="Path 8" d="M66.17,411.545l1.6-34.715,1.666,34.71Z" transform="translate(-58.201 -345.043)" fill="#263238"/>
        <path id="Path_9" data-name="Path 9" d="M68.23,400.07l6.148-7.19-4.818,8.14Z" transform="translate(-59.316 -353.728)" fill="#263238"/>
        <path id="Path_10" data-name="Path 10" d="M75.818,363.161s-4.831-1.913-8.653,4.758c-3.923,6.841,1.009,11.342,4.914,8.653,0,0,3.07,6.424,9.2,4.9s7.121-6.424,7.121-6.424,5.437.376,5.589-3.671-3.817-7.694-3.817-7.694-.243-10.094-6.832-10.03S75.818,363.161,75.818,363.161Z" transform="translate(-57.961 -332.498)" fill="#455a64"/>
        <path id="Path_11" data-name="Path 11" d="M97.57,416.989l1.349-30.1,1.413,30.094Z" transform="translate(-75.194 -350.487)" fill="#263238"/>
        <path id="Path_12" data-name="Path 12" d="M94.64,401.588,90.4,393.15l4.937,7.121Z" transform="translate(-71.314 -353.874)" fill="#263238"/>
        <path id="Path_13" data-name="Path 13" d="M675.474,335.745s10.369,23.028-6.557,23.047-5.965-23.818-5.965-23.818-3.918-1.72.61-14.577,6.566-12.847,8.451-12.847c2.386,0,4.611,5.556,3,14.1C674.993,321.613,680.957,332.267,675.474,335.745Z" transform="translate(-379.276 -307.55)" fill="#37474f"/>
        <path id="Path_14" data-name="Path 14" d="M676.84,411.545l1.592-34.715,1.67,34.71Z" transform="translate(-388.68 -345.043)" fill="#263238"/>
        <path id="Path_15" data-name="Path 15" d="M678.9,400.07l6.144-7.19-4.818,8.14Z" transform="translate(-389.795 -353.728)" fill="#263238"/>
        <path id="Path_16" data-name="Path 16" d="M163.863,350.187s-9.039,20.188,5.79,20.188,5.185-20.886,5.185-20.886,3.432-1.514-.564-12.769-5.772-11.25-7.424-11.25c-2.092,0-4.029,4.877-2.6,12.361C164.285,337.831,159.054,347.173,163.863,350.187Z" transform="translate(-109.594 -317.248)" fill="#37474f"/>
        <path id="Path_17" data-name="Path 17" d="M179.228,416.622l-1.464-30.4-1.395,30.406Z" transform="translate(-117.839 -350.124)" fill="#263238"/>
        <path id="Path_18" data-name="Path 18" d="M174.346,406.586l-5.4-6.286,4.235,7.121Z" transform="translate(-113.823 -357.744)" fill="#263238"/>
        <path id="Path_19" data-name="Path 19" d="M616.02,363.2s-4.827-1.913-8.653,4.758c-3.918,6.841,1.009,11.342,4.914,8.653,0,0,3.074,6.424,9.2,4.9s7.116-6.424,7.116-6.424,5.442.376,5.589-3.671-3.836-7.658-3.836-7.658-.243-10.094-6.832-10.03S616.02,363.2,616.02,363.2Z" transform="translate(-350.306 -332.541)" fill="#455a64"/>
        <path id="Path_20" data-name="Path 20" d="M637.78,416.989l1.344-30.1,1.413,30.094Z" transform="translate(-367.542 -350.487)" fill="#263238"/>
        <path id="Path_21" data-name="Path 21" d="M634.831,401.556l-4.221-8.406,5.056,7.107Z" transform="translate(-363.661 -353.874)" fill="#263238"/>
      </g>
      <g id="freepik--Device--inject-31" transform="translate(102.533 7.724)">
        <path id="Path_22" data-name="Path 22" d="M468.611,61.121V181.366a5.556,5.556,0,0,1-5.556,5.556H277.831a5.561,5.561,0,0,1-5.561-5.556V61.121a5.561,5.561,0,0,1,5.561-5.561H463.054A5.561,5.561,0,0,1,468.611,61.121Z" transform="translate(-272.27 -55.56)" fill="#263238"/>
        <rect id="Rectangle_224" data-name="Rectangle 224" width="177.873" height="115.546" transform="translate(9.236 7.91)" fill="#fff"/>
        <path id="Path_23" data-name="Path 23" d="M493.034,247.444l34.641,0-.629-5.029h14.247l-1.5-8.851-46.993.014Z" transform="translate(-391.615 -151.889)" fill="#ebebeb"/>
        <path id="Path_24" data-name="Path 24" d="M594.86,72.8l.872,3.914,27.121-.023L621.541,72.8Z" transform="translate(-446.847 -64.89)" fill="#ebebeb"/>
        <path id="Path_25" data-name="Path 25" d="M612.43,93.382l-2.179-7.942-12.581.009,1.767,7.938Z" transform="translate(-448.368 -71.73)" fill="#ebebeb"/>
        <path id="Path_26" data-name="Path 26" d="M641.07,144.52l3.46,12.815,14.435,0V136.5Z" transform="translate(-471.855 -99.363)" fill="#dbdbdb"/>
        <path id="Path_27" data-name="Path 27" d="M650.844,118.491l-17.7,7.993-5.272-19.61,18.968-.014Z" transform="translate(-464.711 -83.322)" fill="#ebebeb"/>
        <path id="Path_28" data-name="Path 28" d="M292.4,159.935v11.842l3.276,4.515,38.959-7.516,1.376-9.177L323.32,144l-19.679,4.093v.032C302.435,152.493,298.4,156.563,292.4,159.935Z" transform="translate(-283.164 -103.421)" fill="#ebebeb"/>
        <path id="Path_29" data-name="Path 29" d="M324.81,287.636h29.365l3.8-31.338-26.731-.018Z" transform="translate(-300.703 -164.184)" fill="#dbdbdb"/>
        <path id="Path_30" data-name="Path 30" d="M292.4,225.08v28.277h9.934l2.941-12.76Z" transform="translate(-283.164 -147.3)" fill="#ebebeb"/>
        <path id="Path_31" data-name="Path 31" d="M447.115,85.559l-.885,14,14.384-.009.023-14Z" transform="translate(-366.413 -71.79)" fill="#ebebeb"/>
        <path id="Path_32" data-name="Path 32" d="M381.06,100.059l24.946-5.208L407.819,72.8H385.859Z" transform="translate(-331.144 -64.89)" fill="#ebebeb"/>
        <path id="Path_33" data-name="Path 33" d="M470.83,76.755l3.115,0,0-3.95h-3.037Z" transform="translate(-379.725 -64.89)" fill="#ebebeb"/>
        <path id="Path_34" data-name="Path 34" d="M448.43,76.764l7.364-.009.128-3.955h-7.245Z" transform="translate(-367.603 -64.89)" fill="#ebebeb"/>
        <path id="Path_35" data-name="Path 35" d="M292.4,295.31v13.448h5.914l3.1-13.448Z" transform="translate(-283.164 -185.306)" fill="#ebebeb"/>
        <path id="Path_36" data-name="Path 36" d="M438.191,256.25l-30.581.055-2.06,20.051,32.5,0Z" transform="translate(-344.398 -164.168)" fill="#ebebeb"/>
        <path id="Path_37" data-name="Path 37" d="M403.03,314.078h15.444L419,305.14H403.948Z" transform="translate(-343.034 -190.626)" fill="#ebebeb"/>
        <path id="Path_38" data-name="Path 38" d="M459.862,311.131l.041-6-13.668,0-.284,6Z" transform="translate(-366.261 -190.621)" fill="#ebebeb"/>
        <path id="Path_39" data-name="Path 39" d="M445.65,322.91h14.031l.009-1.45H445.723Z" transform="translate(-366.099 -199.458)" fill="#ebebeb"/>
        <path id="Path_40" data-name="Path 40" d="M341.961,205.63l-2.868,18.807-22,0L306.93,212.421Z" transform="translate(-291.027 -136.774)" fill="#dbdbdb"/>
        <path id="Path_41" data-name="Path 41" d="M292.4,128.78v17.949c2.849-2.083,4.785-4.414,5.506-6.882C299.209,135.552,297.016,131.657,292.4,128.78Z" transform="translate(-283.164 -95.185)" fill="#ebebeb"/>
        <path id="Path_42" data-name="Path 42" d="M658.67,72.8l1.6,4.6,8.222,2.693V72.8Z" transform="translate(-481.38 -64.89)" fill="#ebebeb"/>
        <path id="Path_43" data-name="Path 43" d="M633.07,85.429l2.3,7.938,19.266-.014V88.792l-9.9-3.372Z" transform="translate(-467.526 -71.719)" fill="#ebebeb"/>
        <path id="Path_44" data-name="Path 44" d="M677.72,106.86l1.078,3v-3Z" transform="translate(-491.689 -83.322)" fill="#ebebeb"/>
        <path id="Path_45" data-name="Path 45" d="M494.01,305.009l.156,8.993h70.191l15.022-6.024V305Z" transform="translate(-392.27 -190.55)" fill="#ebebeb"/>
        <path id="Path_46" data-name="Path 46" d="M530.055,282.823l-1.8-14.453-34.866,0,.243,14.453Z" transform="translate(-391.934 -170.727)" fill="#ebebeb"/>
        <path id="Path_47" data-name="Path 47" d="M582.705,153.34l-34.655.018,3.831,33.994,38.991-.014Z" transform="translate(-421.515 -108.476)" fill="#ebebeb"/>
        <path id="Path_48" data-name="Path 48" d="M516.569,211.76l-24.139.009.119,7.158,24.721-.009Z" transform="translate(-391.415 -140.091)" fill="#ebebeb"/>
        <path id="Path_49" data-name="Path 49" d="M625.589,242.4l-2.129-8.851-16.44,0,1.656,8.846Z" transform="translate(-453.428 -151.884)" fill="#ebebeb"/>
        <path id="Path_50" data-name="Path 50" d="M585.6,258.059l2.161,14.448,13.219,0,.895,4.735,27.071,0V260.087l-6.18-2.037Z" transform="translate(-441.836 -165.142)" fill="#dbdbdb"/>
        <path id="Path_51" data-name="Path 51" d="M658.5,215.895l3.643,14.779,6.254,2.221v-17Z" transform="translate(-481.288 -142.326)" fill="#ebebeb"/>
        <path id="Path_52" data-name="Path 52" d="M649.83,186.465l3.221,11.948,10.654,0V186.46Z" transform="translate(-476.596 -126.4)" fill="#ebebeb"/>
        <path id="Path_53" data-name="Path 53" d="M429.574,205.6l-37.5.009-2.735,20.454,40.1-.009Z" transform="translate(-335.625 -136.758)" fill="#ebebeb"/>
        <path id="Path_54" data-name="Path 54" d="M491.43,153.389l21.973-.009,2.436,24.868-23.987.009Z" transform="translate(-390.874 -108.498)" fill="#dbdbdb"/>
        <path id="Path_55" data-name="Path 55" d="M490.86,123.28l57.619.17,2.776,11.544-60.166.028Z" transform="translate(-390.565 -92.208)" fill="#ebebeb"/>
        <path id="Path_56" data-name="Path 56" d="M397.36,178.378l35.912-.018-.064,10.035-37.188.014Z" transform="translate(-339.24 -122.016)" fill="#ebebeb"/>
        <path id="Path_57" data-name="Path 57" d="M384.008,149.375,370.72,134.863l25.52-5.433-1.932,19.941Z" transform="translate(-325.549 -95.537)" fill="#ebebeb"/>
        <path id="Path_58" data-name="Path 58" d="M431.22,144.684l21.12-.009.161-23.9-6.749,0-12.81,2.964Z" transform="translate(-358.29 -90.85)" fill="#ebebeb"/>
        <path id="Path_59" data-name="Path 59" d="M489.52,72.8l.427,19.849,57.514-.032-1.014-4.171-9.709.009L533.553,72.8Z" transform="translate(-389.84 -64.89)" fill="#ebebeb"/>
        <path id="Path_60" data-name="Path 60" d="M330.76,86.629l20.716-.009,2.7-13.82H334.619Z" transform="translate(-303.923 -64.89)" fill="#ebebeb"/>
        <path id="Path_61" data-name="Path 61" d="M318.52,125.881l23.423-5.258,2.45-12.563-20.913.014Z" transform="translate(-297.299 -83.972)" fill="#ebebeb"/>
        <path id="Path_62" data-name="Path 62" d="M292.4,72.8V94.48c4.272,1.762,7.506,4.129,9.4,6.832L310.189,72.8Z" transform="translate(-283.164 -64.89)" fill="#ebebeb"/>
        <path id="Path_63" data-name="Path 63" d="M485.241,184.586H481.57V108.045h62.974l-1.395-6.525h29.5v3.671h-24.96l1.395,6.525H485.241Z" transform="translate(-385.538 -80.432)" fill="#f36e2c"/>
        <path id="Path_64" data-name="Path 64" d="M484.118,277.083l-8.089-3.349-8.089,3.349,8.089-12Z" transform="translate(-378.161 -168.947)" fill="#37474f"/>
        <rect id="Rectangle_225" data-name="Rectangle 225" width="48.672" height="14.256" transform="translate(9.236 7.91)" fill="#455a64"/>
        <path id="Path_65" data-name="Path 65" d="M336.467,86.852a.546.546,0,0,1-.551.555h-3.579a.562.562,0,0,1-.385-.968l2.982-2.7a1.276,1.276,0,0,0,.422-.968,1.312,1.312,0,0,0-.33-.876,1.294,1.294,0,0,0-.968-.422,1.312,1.312,0,0,0-.876.335l-.312.28a.546.546,0,0,1-.785-.041.555.555,0,0,1,.041-.785l.312-.28a2.372,2.372,0,0,1,1.62-.624,2.414,2.414,0,0,1,1.79.794,2.359,2.359,0,0,1,.619,1.62,2.422,2.422,0,0,1-.794,1.794l-1.9,1.721h2.147a.551.551,0,0,1,.551.564Z" transform="translate(-304.473 -68.981)" fill="#fff"/>
        <path id="Path_66" data-name="Path 66" d="M345,83.842a4.3,4.3,0,0,1,.684-2.409,2.12,2.12,0,0,1,3.735,0,4.63,4.63,0,0,1,0,4.813,2.115,2.115,0,0,1-3.735,0A4.309,4.309,0,0,1,345,83.842Zm3.973,0a3.363,3.363,0,0,0-.482-1.794,1.175,1.175,0,0,0-.918-.615,1.22,1.22,0,0,0-.959.615,3.363,3.363,0,0,0-.459,1.794,3.322,3.322,0,0,0,.459,1.78,1.234,1.234,0,0,0,.959.624,1.188,1.188,0,0,0,.918-.624,3.322,3.322,0,0,0,.5-1.78Z" transform="translate(-311.629 -68.957)" fill="#fff"/>
        <path id="Path_67" data-name="Path 67" d="M360.619,83.842a4.3,4.3,0,0,1,.684-2.409,2.12,2.12,0,0,1,3.735,0,4.63,4.63,0,0,1,0,4.813,2.115,2.115,0,0,1-3.735,0A4.309,4.309,0,0,1,360.619,83.842Zm3.973,0a3.363,3.363,0,0,0-.459-1.794,1.175,1.175,0,0,0-.918-.615,1.22,1.22,0,0,0-.959.615,3.363,3.363,0,0,0-.523,1.794,3.322,3.322,0,0,0,.482,1.78,1.234,1.234,0,0,0,.959.624,1.188,1.188,0,0,0,.918-.624,3.322,3.322,0,0,0,.5-1.78Z" transform="translate(-320.082 -68.957)" fill="#fff"/>
        <path id="Path_68" data-name="Path 68" d="M378.846,88.5v2.9a.275.275,0,0,1-.275.271.266.266,0,0,1-.266-.271V89.326l-.707.982a.275.275,0,0,1-.225.115h0a.28.28,0,0,1-.225-.115l-.7-.982V91.4a.275.275,0,0,1-.546,0V88.5a.271.271,0,0,1,.271-.271h0a.252.252,0,0,1,.216.11l.977,1.376.977-1.376a.266.266,0,0,1,.22-.11h0a.275.275,0,0,1,.284.271Z" transform="translate(-328.352 -73.24)" fill="#fff"/>
        <path id="Path_69" data-name="Path 69" d="M316.732,88.738H314.9V85.094a1.569,1.569,0,0,0-1.569-1.569H312.08V81.69h1.248a3.409,3.409,0,0,1,3.4,3.4Z" transform="translate(-293.814 -69.701)" fill="#fff"/>
        <path id="Path_70" data-name="Path 70" d="M309.615,83.195V77.62l-2.785,2.785Z" transform="translate(-290.973 -67.498)" fill="#fff"/>
        <rect id="Rectangle_226" data-name="Rectangle 226" width="177.873" height="14.187" transform="translate(9.236 109.265)" fill="#fff"/>
        <rect id="Rectangle_227" data-name="Rectangle 227" width="14.187" height="14.187" transform="translate(9.236 109.265)" fill="#37474f"/>
        <rect id="Rectangle_228" data-name="Rectangle 228" width="14.187" height="14.187" transform="translate(170.119 101.208)" fill="#37474f"/>
        <path id="Path_71" data-name="Path 71" d="M334.571,299.915h-.633l-.128.34a.151.151,0,0,1-.138.092h-.05a.147.147,0,0,1-.083-.188l.574-1.537a.147.147,0,0,1,.142-.092.138.138,0,0,1,.138.092l.578,1.537a.156.156,0,0,1-.087.188h-.05a.142.142,0,0,1-.133-.092Zm-.106-.289-.211-.56-.211.56Z" transform="translate(-305.422 -187.049)" fill="#37474f"/>
        <path id="Path_72" data-name="Path 72" d="M338.611,300.09a.142.142,0,0,1-.087.184h-.06a.2.2,0,0,1-.1-.027.322.322,0,0,1-.083-.092.711.711,0,0,1-.055-.317.2.2,0,0,0-.032-.11.252.252,0,0,0-.078-.078.458.458,0,0,0-.147-.06h-.312v.564a.147.147,0,1,1-.289,0v-1.542a.142.142,0,0,1,.142-.142h.459a.56.56,0,0,1,.358.991.46.46,0,0,1,.092.1.491.491,0,0,1,.083.28.57.57,0,0,0,0,.156A.138.138,0,0,1,338.611,300.09Zm-.363-1.051a.266.266,0,0,0-.271-.271h-.321v.541h.321a.271.271,0,0,0,.271-.266Z" transform="translate(-307.498 -187.017)" fill="#37474f"/>
        <path id="Path_73" data-name="Path 73" d="M342.175,300.09a.151.151,0,0,1-.092.183h-.06a.2.2,0,0,1-.106-.027.323.323,0,0,1-.083-.092.712.712,0,0,1-.055-.317.2.2,0,0,0-.032-.11.251.251,0,0,0-.078-.078.421.421,0,0,0-.147-.06h-.307v.564a.147.147,0,1,1-.289,0v-1.542a.142.142,0,0,1,.142-.142h.459a.56.56,0,0,1,.358.991.457.457,0,0,1,.092.1.491.491,0,0,1,.083.28.848.848,0,0,0,0,.156.156.156,0,0,1,.115.1Zm-.367-1.051a.266.266,0,0,0-.271-.271h-.321v.541h.321a.271.271,0,0,0,.271-.266Z" transform="translate(-309.424 -187.017)" fill="#37474f"/>
        <path id="Path_74" data-name="Path 74" d="M344.61,298.642a.142.142,0,0,1,.142-.142.147.147,0,0,1,.147.142v1.542a.147.147,0,0,1-.147.147.142.142,0,0,1-.142-.147Z" transform="translate(-311.418 -187.033)" fill="#37474f"/>
        <path id="Path_75" data-name="Path 75" d="M346.779,300.339h0l-.693-1.574a.138.138,0,0,1,.078-.184.142.142,0,0,1,.188.073l.509,1.211.509-1.211a.144.144,0,0,1,.266.11l-.647,1.528h-.138Z" transform="translate(-312.211 -187.069)" fill="#37474f"/>
        <path id="Path_76" data-name="Path 76" d="M350.612,299.92h-.633l-.128.34a.147.147,0,0,1-.133.092h-.05a.147.147,0,0,1-.087-.188l.578-1.537a.151.151,0,0,1,.275,0l.578,1.537a.147.147,0,0,1-.087.188h-.05a.147.147,0,0,1-.133-.092Zm-.105-.289-.211-.56-.211.56Z" transform="translate(-314.103 -187.053)" fill="#37474f"/>
        <path id="Path_77" data-name="Path 77" d="M353.49,300.209v-1.542a.147.147,0,0,1,.289,0v1.376h.711a.147.147,0,1,1,0,.294h-.858A.147.147,0,0,1,353.49,300.209Z" transform="translate(-316.224 -187.058)" fill="#37474f"/>
        <path id="Path_78" data-name="Path 78" d="M335.429,307.52v4.162a.4.4,0,0,1-.395.39.385.385,0,0,1-.39-.39V308.2l-.28.161a.344.344,0,0,1-.2.06.395.395,0,0,1-.2-.73l.867-.519h.138a.083.083,0,0,1,.046,0h.078a.046.046,0,0,0,.032,0,.064.064,0,0,1,.041,0h.028c.023,0,.028.023.041.023l.028.023h.032l.028.028v.027l.032.032h0v.073a.245.245,0,0,0,0,.032v.051Z" transform="translate(-305.555 -191.726)" fill="#37474f"/>
        <path id="Path_79" data-name="Path 79" d="M341.949,309.083a1.721,1.721,0,0,1,.518,1.243,1.766,1.766,0,0,1-.518,1.239,1.739,1.739,0,0,1-1.239.514h0a1.721,1.721,0,0,1-1.23-.514.4.4,0,0,1,.564-.569.945.945,0,0,0,1.354,0,.959.959,0,0,0,.28-.67.96.96,0,0,0-1.633-.679.4.4,0,0,1-.564,0c-.028-.028-.05-.064-.078-.092s0-.023,0-.023a.037.037,0,0,0,0-.032v-.051h0a.553.553,0,0,1,0-.124l.216-1.835a.4.4,0,0,1,.174-.28h.05a.4.4,0,0,1,.184-.041h2.088a.4.4,0,1,1,0,.8H340.37l-.083.7a1.865,1.865,0,0,1,.459-.064A1.726,1.726,0,0,1,341.949,309.083Z" transform="translate(-308.578 -191.725)" fill="#37474f"/>
        <path id="Path_80" data-name="Path 80" d="M349.528,309.55a.528.528,0,1,1-.528.528A.532.532,0,0,1,349.528,309.55Zm0,2.813a.537.537,0,0,1,.528.532.528.528,0,1,1-.528-.532Z" transform="translate(-313.794 -193.013)" fill="#37474f"/>
        <path id="Path_81" data-name="Path 81" d="M355.083,309.031a1.725,1.725,0,0,1,.518,1.239,1.755,1.755,0,0,1-3,1.243.4.4,0,1,1,.551-.564.945.945,0,0,0,.674.275.973.973,0,0,0,.679-.275.959.959,0,0,0,.28-.679.918.918,0,0,0-.28-.674.95.95,0,0,0-.674-.28.372.372,0,0,1-.289-.128h0a.395.395,0,0,1,0-.564l.72-.734h-1.147a.395.395,0,0,1-.395-.4.39.39,0,0,1,.395-.395H355.2a.394.394,0,0,1,.4.395.458.458,0,0,1-.05.193.49.49,0,0,1-.073.1l-.89.918A1.7,1.7,0,0,1,355.083,309.031Z" transform="translate(-315.652 -191.681)" fill="#37474f"/>
        <path id="Path_82" data-name="Path 82" d="M365.454,310.784a.39.39,0,0,1-.395.39H365v.528a.39.39,0,1,1-.775,0v-.537h-2.23a.34.34,0,0,1-.239-.083.381.381,0,0,1-.064-.546l2.615-3.253h0l.023-.028a.082.082,0,0,0,.037-.023l.028-.023h.11a.046.046,0,0,0,.032,0h.119a.051.051,0,0,0,.037,0h.069l.037.027.032.023h.023l.028.028v.028a.148.148,0,0,1,.028.037v.028c0,.014,0,.028,0,.041v.028a.069.069,0,0,1,0,.046v2.914h.073a.395.395,0,0,1,.477.376Zm-1.243-2.134L362.8,310.4h1.409Z" transform="translate(-320.613 -191.746)" fill="#37474f"/>
        <path id="Path_83" data-name="Path 83" d="M372.6,314.071h-.427v.748a.193.193,0,0,1-.381,0v-2.046a.188.188,0,0,1,.188-.193h.619a.739.739,0,0,1,0,1.477Zm-.427-.385h.427a.353.353,0,1,0,0-.707h-.427Z" transform="translate(-326.128 -194.653)" fill="#37474f"/>
        <path id="Path_84" data-name="Path 84" d="M378.243,312.772V314.8a.2.2,0,0,1-.2.188.188.188,0,0,1-.188-.188v-1.436l-.5.688a.188.188,0,0,1-.156.078h0a.2.2,0,0,1-.161-.078l-.5-.688v1.45a.193.193,0,0,1-.385,0v-2.046a.193.193,0,0,1,.193-.193h0a.192.192,0,0,1,.151.078l.684.954.688-.954a.188.188,0,0,1,.156-.078h0a.2.2,0,0,1,.211.193Z" transform="translate(-328.493 -194.652)" fill="#37474f"/>
        <path id="Path_85" data-name="Path 85" d="M620.354,299.817a.133.133,0,0,1,.188-.023.835.835,0,0,0,.5.2.537.537,0,0,0,.326-.1.229.229,0,0,0,.115-.188.172.172,0,0,0-.023-.083.314.314,0,0,0-.078-.078,1.146,1.146,0,0,0-.358-.124h0a1.5,1.5,0,0,1-.335-.1.551.551,0,0,1-.243-.2.439.439,0,0,1,.151-.6.771.771,0,0,1,.459-.138,1.01,1.01,0,0,1,.569.206.138.138,0,0,1,.037.188.133.133,0,0,1-.184.037.766.766,0,0,0-.422-.165.518.518,0,0,0-.294.087.206.206,0,0,0-.1.165.123.123,0,0,0,0,.073.322.322,0,0,0,.069.069.945.945,0,0,0,.326.115h0a1.379,1.379,0,0,1,.362.11.606.606,0,0,1,.262.216.46.46,0,0,1,.06.22.514.514,0,0,1-.22.408.835.835,0,0,1-.486.147,1.143,1.143,0,0,1-.67-.261A.138.138,0,0,1,620.354,299.817Z" transform="translate(-460.627 -186.973)" fill="#37474f"/>
        <path id="Path_86" data-name="Path 86" d="M624.952,299.62h-.3v.564a.147.147,0,1,1-.294,0v-1.542a.147.147,0,0,1,.147-.142h.459a.56.56,0,1,1,0,1.119Zm-.321-.289h.321a.275.275,0,0,0,.271-.271.271.271,0,0,0-.271-.271h-.3Z" transform="translate(-462.812 -187.033)" fill="#37474f"/>
        <path id="Path_87" data-name="Path 87" d="M627.64,300.184v-1.542a.142.142,0,0,1,.142-.142h.853a.147.147,0,0,1,0,.289h-.706v.459h.606a.147.147,0,1,1,0,.294h-.606V300h.706a.147.147,0,1,1,0,.294h-.83A.142.142,0,0,1,627.64,300.184Z" transform="translate(-464.587 -187.033)" fill="#37474f"/>
        <path id="Path_88" data-name="Path 88" d="M631,300.184v-1.542a.142.142,0,0,1,.147-.142H632a.147.147,0,0,1,0,.289h-.706v.459h.624a.147.147,0,1,1,0,.294h-.606V300h.706a.147.147,0,1,1,0,.294h-.853A.147.147,0,0,1,631,300.184Z" transform="translate(-466.405 -187.033)" fill="#37474f"/>
        <path id="Path_89" data-name="Path 89" d="M634.39,300.184v-1.542a.142.142,0,0,1,.142-.142h.312a.918.918,0,1,1,0,1.835h-.312a.147.147,0,0,1-.142-.151Zm.289-.147h.165a.624.624,0,1,0,0-1.248h-.174Z" transform="translate(-468.24 -187.033)" fill="#37474f"/>
        <path id="Path_90" data-name="Path 90" d="M623.7,309.031a1.739,1.739,0,0,1,.514,1.239,1.757,1.757,0,0,1-3,1.243.4.4,0,0,1,.569-.564.918.918,0,0,0,.67.275.964.964,0,0,0,.679-.275.945.945,0,0,0,.284-.679.918.918,0,0,0-.284-.674.94.94,0,0,0-.67-.28.358.358,0,0,1-.289-.128h0a.4.4,0,0,1,0-.564l.72-.734H621.75a.4.4,0,0,1-.4-.4.395.395,0,0,1,.4-.395h2.056a.395.395,0,0,1,.4.395.4.4,0,0,1-.051.193.461.461,0,0,1-.069.1l-.89.918A1.7,1.7,0,0,1,623.7,309.031Z" transform="translate(-461.046 -191.681)" fill="#37474f"/>
        <path id="Path_91" data-name="Path 91" d="M634.015,310.78a.39.39,0,0,1-.4.39h-.069v.528a.39.39,0,1,1-.78,0v-.537h-2.23a.348.348,0,0,1-.243-.083.385.385,0,0,1-.064-.546l2.62-3.253h0v-.028c0-.027.032,0,.037-.023a.07.07,0,0,0,.028-.023.108.108,0,0,1,.041,0,.036.036,0,0,1,.032,0h.188a.055.055,0,0,0,.037,0h.069l.037.027.037.023h0a.03.03,0,0,1,.028.027c0,.028,0,0,0,.028l.027.037a.05.05,0,0,0,0,.028.084.084,0,0,1,0,.041v.028a.126.126,0,0,1,0,.046V310.4h.069a.395.395,0,0,1,.537.376Zm-1.248-2.134-1.409,1.748h1.409Z" transform="translate(-465.942 -191.742)" fill="#37474f"/>
        <path id="Path_92" data-name="Path 92" d="M642.451,312.773v2.033a.2.2,0,0,1-.193.188.188.188,0,0,1-.193-.188v-1.436l-.473.688a.188.188,0,0,1-.156.078h0a.2.2,0,0,1-.161-.078l-.491-.688v1.45a.193.193,0,1,1-.385,0v-2.046a.193.193,0,0,1,.193-.193h0a.192.192,0,0,1,.151.078l.684.954.688-.954a.188.188,0,0,1,.156-.078h0A.2.2,0,0,1,642.451,312.773Z" transform="translate(-471.492 -194.652)" fill="#37474f"/>
        <path id="Path_93" data-name="Path 93" d="M646.687,314.784v-2.046a.193.193,0,1,1,.381,0v.826h.918v-.826a.193.193,0,1,1,.381,0v2.033a.193.193,0,0,1-.381,0v-.826h-.918v.826a.193.193,0,0,1-.381,0Z" transform="translate(-474.894 -194.618)" fill="#37474f"/>
        <path id="Path_94" data-name="Path 94" d="M651.49,283.2v-1.542a.145.145,0,0,1,.289,0v1.376h.707a.147.147,0,1,1,0,.289h-.853A.142.142,0,0,1,651.49,283.2Z" transform="translate(-477.494 -177.844)" fill="#fff"/>
        <path id="Path_95" data-name="Path 95" d="M654.76,281.662a.142.142,0,0,1,.147-.142.147.147,0,0,1,.147.142V283.2a.147.147,0,0,1-.294,0Z" transform="translate(-479.264 -177.844)" fill="#fff"/>
        <path id="Path_96" data-name="Path 96" d="M658.039,281.662V283.2a.147.147,0,0,1-.147.142.142.142,0,0,1-.142-.142v-1.1l-.376.523a.147.147,0,0,1-.119.06h0a.138.138,0,0,1-.119-.06l-.376-.523v1.1a.147.147,0,0,1-.289,0v-1.542a.142.142,0,0,1,.142-.142h0a.138.138,0,0,1,.115.06l.519.72.523-.72a.133.133,0,0,1,.115-.06h0a.147.147,0,0,1,.156.142Z" transform="translate(-480.189 -177.843)" fill="#fff"/>
        <path id="Path_97" data-name="Path 97" d="M661.31,281.662a.142.142,0,0,1,.142-.142.147.147,0,0,1,.147.142V283.2a.142.142,0,0,1-.147.142.138.138,0,0,1-.142-.142Z" transform="translate(-482.808 -177.844)" fill="#fff"/>
        <path id="Path_98" data-name="Path 98" d="M663.952,281.809h-.413v1.376a.147.147,0,0,1-.289,0v-1.376h-.418a.147.147,0,0,1-.142-.147.142.142,0,0,1,.142-.142h1.115a.147.147,0,0,1,.147.142A.151.151,0,0,1,663.952,281.809Z" transform="translate(-483.555 -177.844)" fill="#fff"/>
        <path id="Path_99" data-name="Path 99" d="M652.6,293.806a.39.39,0,0,1-.395.39h-.073v.528a.39.39,0,1,1-.775,0v-.537h-2.23a.353.353,0,0,1-.239-.083.376.376,0,0,1-.064-.546l2.615-3.253h0l.023-.027.032-.023h.073a.023.023,0,0,1,.028,0h.3l.037.027h.032l.032.028v.028l.028.037v.028a.167.167,0,0,1,0,.041v.028a.059.059,0,0,1,0,.041v2.918h.073a.395.395,0,0,1,.5.376Zm-1.243-2.134-1.409,1.748h1.409Z" transform="translate(-476.004 -182.568)" fill="#fff"/>
        <path id="Path_100" data-name="Path 100" d="M659.149,292.578a3.013,3.013,0,0,1,.482-1.693,1.583,1.583,0,0,1,1.312-.785,1.606,1.606,0,0,1,1.312.785,3.263,3.263,0,0,1,0,3.382,1.624,1.624,0,0,1-1.312.785,1.606,1.606,0,0,1-1.312-.785,3.018,3.018,0,0,1-.482-1.688Zm2.794,0a2.358,2.358,0,0,0-.339-1.262.831.831,0,0,0-.661-.431.854.854,0,0,0-.67.431,2.359,2.359,0,0,0-.339,1.262,2.294,2.294,0,0,0,.339,1.248.858.858,0,0,0,.67.459.831.831,0,0,0,.661-.459A2.293,2.293,0,0,0,661.944,292.578Z" transform="translate(-481.639 -182.487)" fill="#fff"/>
        <path id="Path_101" data-name="Path 101" d="M304.811,308.552H301.14v-1.835h3.671a1.569,1.569,0,1,0,0-3.134h-1.243v-1.835h1.243a3.4,3.4,0,1,1,0,6.8Z" transform="translate(-287.894 -188.789)" fill="#fff"/>
        <path id="Path_102" data-name="Path 102" d="M303.955,303.245V297.67l-2.785,2.79Z" transform="translate(-287.91 -186.584)" fill="#fff"/>
        <rect id="Rectangle_229" data-name="Rectangle 229" width="7.511" height="7.511" transform="translate(176.795 55.651)" fill="#37474f"/>
        <rect id="Rectangle_230" data-name="Rectangle 230" width="0.739" height="4.304" transform="translate(180.181 57.257)" fill="#fff"/>
        <rect id="Rectangle_231" data-name="Rectangle 231" width="0.739" height="4.304" transform="translate(182.7 59.037) rotate(90)" fill="#fff"/>
        <rect id="Rectangle_232" data-name="Rectangle 232" width="7.511" height="7.511" transform="translate(176.795 68.2)" fill="#37474f"/>
        <rect id="Rectangle_233" data-name="Rectangle 233" width="0.739" height="4.304" transform="translate(182.705 71.586) rotate(90)" fill="#fff"/>
      </g>
      <g id="freepik--Lines--inject-31" transform="translate(1.178 173.047)">
        <path id="Path_103" data-name="Path 103" d="M69.05,429.1c1.8-.092,3.593-.138,5.391-.174s3.593-.037,5.387-.055,3.593,0,5.391.055l2.693.064c.918.037,1.8.06,2.693.11-.918.055-1.794.073-2.693.115l-2.693.064c-1.8.037-3.593.032-5.391.05s-3.593,0-5.387-.05S70.862,429.2,69.05,429.1Z" transform="translate(-60.938 -422.906)" fill="#263238"/>
        <path id="Path_104" data-name="Path 104" d="M70.82,416.108c1.376-.1,2.753-.138,4.129-.174s2.753-.05,4.129-.055,2.753,0,4.129.05l2.06.064c.684.041,1.376.064,2.06.115-.688.05-1.376.073-2.06.11l-2.06.064c-1.376.041-2.753.051-4.129.055s-2.753,0-4.129-.055S72.2,416.2,70.82,416.108Z" transform="translate(-61.896 -415.877)" fill="#263238"/>
        <path id="Path_105" data-name="Path 105" d="M51.37,422.651c1.918-.1,3.831-.142,5.749-.179s3.831-.032,5.749-.05,3.831,0,5.745.05l2.872.064c.959.037,1.918.06,2.877.115-.959.05-1.918.073-2.877.11l-2.872.064c-1.913.037-3.831.037-5.745.05s-3.831,0-5.749-.05S53.288,422.743,51.37,422.651Z" transform="translate(-51.37 -419.415)" fill="#263238"/>
        <path id="Path_106" data-name="Path 106" d="M389.22,443.821c1.8-.092,3.593-.138,5.391-.174s3.593-.037,5.387-.055,3.593,0,5.391.055l2.693.064c.918.037,1.8.06,2.693.11-.895.055-1.794.073-2.693.115l-2.693.064c-1.8.037-3.593.032-5.391.051s-3.593,0-5.387-.051S391.019,443.918,389.22,443.821Z" transform="translate(-234.206 -430.872)" fill="#263238"/>
        <path id="Path_107" data-name="Path 107" d="M374.31,436.931c1.918-.1,3.836-.138,5.749-.174s3.831-.037,5.749-.055,3.831,0,5.744.055l2.872.064c.959.037,1.918.06,2.877.11-.959.05-1.918.073-2.877.115l-2.872.064c-1.913.032-3.831.032-5.744.051s-3.831,0-5.749-.055S376.228,437.028,374.31,436.931Z" transform="translate(-226.137 -427.143)" fill="#263238"/>
      </g>
      <g id="freepik--Car--inject-31" transform="translate(10.104 108.546)">
        <path id="Path_108" data-name="Path 108" d="M103.52,384.089h45.589s-4.992-21.3-22.794-21.3S104.3,379.331,103.52,384.089Z" transform="translate(-88.519 -322.646)" fill="#f36e2c"/>
        <path id="Path_109" data-name="Path 109" d="M103.52,384.089h45.589s-4.992-21.3-22.794-21.3S104.3,379.331,103.52,384.089Z" transform="translate(-88.519 -322.646)" opacity="0.2"/>
        <path id="Path_110" data-name="Path 110" d="M391.89,389.1h45.589s-4.992-21.3-22.794-21.3S392.67,384.341,391.89,389.1Z" transform="translate(-244.577 -325.358)" fill="#f36e2c"/>
        <path id="Path_111" data-name="Path 111" d="M391.89,389.1h45.589s-4.992-21.3-22.794-21.3S392.67,384.341,391.89,389.1Z" transform="translate(-244.577 -325.358)" opacity="0.2"/>
        <path id="Path_112" data-name="Path 112" d="M75.4,297.887c-.977,1.555-2.693,18.66-2.794,19.271s-1.523,3.212-1.546,3.716-.376,8.208-.174,8.718a21.149,21.149,0,0,0,1.569,2.62c.252.3,6.713,5.864,7.433,5.937s7.41.124,7.534,0,.918-20.7,21.175-20.7,20.055,21.849,20.427,21.923,91.141,2.147,91.141,2.147c0-3.345.262-23.249,20.152-23.249a19.482,19.482,0,0,1,19.73,18.56c.092,3.276-.459,6.882-.275,6.882a19.713,19.713,0,0,0,3,0c.353-.151,4.588-2.941,4.937-3.042s2.794-.151,3.391-.3a39.273,39.273,0,0,0,4.863-3.969c.073-.151.2-1.6.225-1.721s4.267-5.313,4.464-5.887.275-5.313.275-5.786-7.708-12.976-9.511-14.352-14.591-5.836-18.353-6.511-24.318-3.739-25.066-4.267-35.866-20.647-41.978-22.148c-4.937-1.2-62.107.459-65.1.6s-11.273,1.643-12.072,1.643-9.979-.046-10.525.2,0,2.446.7,2.845S77.095,295.194,75.4,297.887Z" transform="translate(-70.825 -275.298)" fill="#f36e2c"/>
        <path id="Path_113" data-name="Path 113" d="M83.643,303.322a16.641,16.641,0,0,0,4.166.138c.376-.147,22.886-15.141,22.9-15.563,0-.22-4.221-.165-4.735-.138S83.23,302.945,83.643,303.322Z" transform="translate(-77.759 -282.027)" fill="#455a64"/>
        <path id="Path_114" data-name="Path 114" d="M138.25,300.323c.977,2.881,119.231,8.259,119.877,6.882.482-1.037-10.094-9.53-15.04-12.3S224,284.121,217.031,283.3s-21.06-.752-33.357-.5c-12.2.225-26.561.523-31.659,2.693C147.56,287.388,137.475,298.033,138.25,300.323Z" transform="translate(-107.291 -279.266)" fill="#263238"/>
        <path id="Path_115" data-name="Path 115" d="M145.481,300.255c.3,1.083,26.41,3.891,57.018,5.313s45.717,1.647,46.089,1.5-1.046-8.3-1.569-8.979-22.45-11.9-25.892-12.2-22.024-.335-31.425-.188-28.957,1.275-32.288,2.62C154.488,289.5,145.179,299.172,145.481,300.255Z" transform="translate(-111.223 -280.883)" fill="#455a64"/>
        <g id="Group_1" data-name="Group 1" transform="translate(34.947 4.745)" opacity="0.1">
          <path id="Path_116" data-name="Path 116" d="M202.938,286l-17.527,17.532c-3.129-.275-6.02-.551-8.621-.817l16.256-16.256C196.51,286.252,199.965,286.1,202.938,286Z" transform="translate(-163.117 -285.835)" fill="#fff"/>
          <path id="Path_117" data-name="Path 117" d="M357.086,319.715l-1.771,1.771c-1.776,0-4.854-.06-9.255-.179l9.121-9.117a2.213,2.213,0,0,1,.39.275C355.943,312.947,356.778,317.246,357.086,319.715Z" transform="translate(-254.721 -300.008)" fill="#fff"/>
          <path id="Path_118" data-name="Path 118" d="M235.113,285.64l-18.638,18.642c-1.5-.106-2.964-.211-4.4-.326L230.4,285.663C231.878,285.649,233.475,285.64,235.113,285.64Z" transform="translate(-182.215 -285.64)" fill="#fff"/>
          <path id="Path_119" data-name="Path 119" d="M329.066,301.578l-12.774,12.769-4.542-.17L325.919,300Q327.55,300.812,329.066,301.578Z" transform="translate(-236.154 -293.411)" fill="#fff"/>
          <path id="Path_120" data-name="Path 120" d="M185.357,287.43,169.582,303.2h0l-1.2-.138,15.54-15.54Z" transform="translate(-158.566 -286.609)" fill="#fff"/>
          <path id="Path_121" data-name="Path 121" d="M340.306,305.934l-11.512,11.517-1.294-.041,11.93-11.929Z" transform="translate(-244.677 -296.377)" fill="#fff"/>
          <path id="Path_122" data-name="Path 122" d="M296.035,288.786l-18.491,18.486-1.285-.051,18.812-18.812C295.379,288.516,295.7,288.649,296.035,288.786Z" transform="translate(-216.948 -287.139)" fill="#fff"/>
          <path id="Path_123" data-name="Path 123" d="M161.269,290.05l-13.2,13.191a10.727,10.727,0,0,1-1.083-.257l12.654-12.65C160.112,290.238,160.654,290.142,161.269,290.05Z" transform="translate(-146.99 -288.027)" fill="#fff"/>
        </g>
        <path id="Path_124" data-name="Path 124" d="M172.7,288.928c.124,0,.179.161.073.459-.615,1.7-5.4,11.31-6.6,13.554a1.028,1.028,0,0,1-.674.459l8.433.918a.693.693,0,0,1-.418-.766c.087-.532,3.212-11.833,4.2-14.609a1.17,1.17,0,0,1,.564-.592c.165,0-1.441.028-2.964.184A23.735,23.735,0,0,0,172.7,288.928Z" transform="translate(-122.061 -282.362)" fill="#263238"/>
        <path id="Path_125" data-name="Path 125" d="M205.42,287.312s.156.087.161.395c.055,2.657.353,15.972.1,16.7-.032.1-.073.156-.124.174l1.6.128a.762.762,0,0,1-.147-.4c-.179-2.253-.34-14.453-.312-16.71a.757.757,0,0,1,.151-.381Z" transform="translate(-143.664 -281.75)" fill="#263238"/>
        <path id="Path_126" data-name="Path 126" d="M261.851,286.213c.188.592.5,17.972.5,18.537s-.638.693-.638.693l9.883.459s-.642-.179-.752-.482-3.212-19.041-3.212-19.271.5-.459.5-.459H261.25A1.065,1.065,0,0,1,261.851,286.213Z" transform="translate(-173.878 -280.922)" fill="#263238"/>
        <path id="Path_127" data-name="Path 127" d="M78.945,329.846c-1.211.156-3.941,2.992-4.129,3.593s-.95,4.639-.551,5.24,1.835,2.092,3.092,2.143,7.341-2.845,7.883-3.34.95-3.538.3-4.515S80.505,329.649,78.945,329.846Z" transform="translate(-72.625 -304.812)" fill="#fff"/>
        <path id="Path_128" data-name="Path 128" d="M85.88,338.058c-.546.5-6.635,3.391-7.883,3.34a4.567,4.567,0,0,1-2.647-1.6,4.047,4.047,0,0,0,2.436.785,38.038,38.038,0,0,0,7.107-3.184c.734-.67.762-3.212.665-3.671s-3.776-2.826-3.776-2.826a12.591,12.591,0,0,1,4.4,2.638C86.825,334.52,86.426,337.558,85.88,338.058Z" transform="translate(-73.274 -305.388)" fill="#ebebeb"/>
        <path id="Path_129" data-name="Path 129" d="M73.246,378.775c-.335.335-.459,2.868-.1,3.092a6.241,6.241,0,0,0,2.794,0,5.108,5.108,0,0,0,1.349-2.753C77.215,378.458,73.645,378.376,73.246,378.775Z" transform="translate(-71.964 -331.166)" fill="#fff"/>
        <path id="Path_130" data-name="Path 130" d="M470.229,344.225c1.074,1.739,8.979,4.827,11.93,5.313,1.858.3,8.3.711,8.681.372s-2.753-4.639-4.34-5.685-9.635-3.744-12.085-3.629S469.146,342.463,470.229,344.225Z" transform="translate(-286.843 -310.634)" fill="#fff"/>
        <path id="Path_131" data-name="Path 131" d="M490.856,349.9c-.376.34-6.818-.069-8.681-.372-2.955-.486-10.86-3.574-11.93-5.318s1.757-3.51,4.189-3.625a4.848,4.848,0,0,1,.569,0c-2.267.835-2.73,2.606-1.349,3.616a38.152,38.152,0,0,0,7.566,3.872c1.766.5,8.052,1.468,8.6,1.032a1.106,1.106,0,0,0,.243-.918C490.654,349.083,491,349.78,490.856,349.9Z" transform="translate(-286.855 -310.628)" fill="#ebebeb"/>
        <g id="Group_2" data-name="Group 2" transform="translate(0.971 23.373)" opacity="0.5">
          <path id="Path_132" data-name="Path 132" d="M129.992,342.8a4.024,4.024,0,0,1-1.152,2.849,4.088,4.088,0,1,1,0-5.7A4.024,4.024,0,0,1,129.992,342.8Zm0,0a3.992,3.992,0,0,0-1.188-2.813,3.908,3.908,0,1,0,.023,5.625A3.992,3.992,0,0,0,129.992,342.8Z" transform="translate(-99.393 -332.988)"/>
          <path id="Path_133" data-name="Path 133" d="M98.676,361.024c-.408-.918-.78-1.835-1.142-2.73s-.707-1.835-1.06-2.753-.67-1.835-.986-2.79-.629-1.872-.918-2.822c.408.918.78,1.835,1.147,2.753s.707,1.835,1.06,2.753.67,1.835.986,2.79S98.4,360.056,98.676,361.024Z" transform="translate(-84.646 -339.06)"/>
          <path id="Path_134" data-name="Path 134" d="M72.94,374.074c1.964-.037,3.928-.032,5.891-.028l5.891.064,5.887.142c1.964.06,3.928.128,5.887.229-1.964.037-3.928.037-5.891.028l-5.891-.064-5.887-.138C76.863,374.244,74.9,374.179,72.94,374.074Z" transform="translate(-72.94 -352.11)"/>
          <path id="Path_135" data-name="Path 135" d="M275,332.47l.674,4.786.294,2.4c.041.4.087.8.119,1.207s0,.8,0,1.207L276,351.736l-.083,4.836-.037,2.418V360.2l-.092,1.207-.376,4.8L275,371.03l.243-4.822.28-4.822.069-1.2v-1.211l.023-2.414.05-4.827.165-9.635c0-.4.032-.808,0-1.2s-.055-.8-.092-1.2l-.243-2.4Z" transform="translate(-182.29 -329.612)"/>
          <path id="Path_136" data-name="Path 136" d="M272.777,331.292l.817,4.813.4,2.4.1.6a3.416,3.416,0,0,1,.073.61v1.22c-.028,3.253-.11,6.5-.211,9.755-.023.812-.06,1.624-.1,2.441a8.967,8.967,0,0,1-.459,2.4c-.459,1.565-.954,3.111-1.514,4.643a35.2,35.2,0,0,1-1.945,4.483l-.3.537c-.106.174-.225.344-.335.514a3.875,3.875,0,0,1-.372.5l-.2.243a.822.822,0,0,1-.358.105c-.821.087-1.629.1-2.445.124-6.506.133-13.012.073-19.514.032s-13.012-.142-19.514-.261-13.008-.3-19.509-.537c-3.248-.133-6.5-.239-9.745-.532a7.493,7.493,0,0,1-1.234-.2c-.229-.087-.367-.193-.56-.28s-.362-.174-.546-.257c-.734-.335-1.5-.629-2.23-1a8.6,8.6,0,0,1-2.051-1.376,18.671,18.671,0,0,1-1.477-1.968c-1.835-2.689-3.583-5.433-5.332-8.172s-3.478-5.506-5.2-8.259-3.418-5.533-5.093-8.323l-.624-1.051c-.05-.083-.1-.184-.147-.275l-.073-.138a.549.549,0,0,1-.023-.151l-.06-.606c-.069-.812-.133-1.624-.161-2.436v-.61a3.793,3.793,0,0,1,.133-.6c.115-.39.243-.775.381-1.156.271-.766.564-1.528.867-2.294q-.459,1.133-.849,2.294c-.133.385-.262.771-.367,1.161a3.418,3.418,0,0,0-.128.592v.61c.037.812.106,1.62.184,2.427l.06.61a.827.827,0,0,0,.028.147l.069.128c.05.087.092.17.147.257l.629,1.046c1.7,2.753,3.427,5.506,5.162,8.259,3.473,5.506,6.928,11.012,10.553,16.389a19.947,19.947,0,0,0,1.45,1.927,8.457,8.457,0,0,0,2,1.321c.725.358,1.482.652,2.225.986.188.083.376.17.56.262a5.174,5.174,0,0,0,.528.266,7.766,7.766,0,0,0,1.22.206c3.212.28,6.488.376,9.736.5,6.5.225,13,.362,19.5.486s13.008.243,19.509.317,13.008.138,19.509.028c.808-.028,1.629-.037,2.423-.119a2.01,2.01,0,0,0,.229-.041l.188-.229a3.738,3.738,0,0,0,.363-.459c.11-.17.225-.33.33-.5l.3-.528a34.305,34.305,0,0,0,1.945-4.451q.849-2.294,1.523-4.625a8.637,8.637,0,0,0,.459-2.368l.115-2.432c.128-3.248.234-6.5.289-9.75v-1.22a3.347,3.347,0,0,0-.064-.6l-.1-.6-.385-2.409Z" transform="translate(-127.003 -326.24)"/>
          <path id="Path_137" data-name="Path 137" d="M468.518,355.28a21.911,21.911,0,0,1-2.7,1.936c-.918.6-1.881,1.165-2.822,1.743s-1.909,1.115-2.877,1.652-1.941,1.064-2.932,1.555c.918-.615,1.858-1.2,2.8-1.78l2.836-1.716,2.859-1.684,1.432-.835a13.839,13.839,0,0,0,1.4-.872Z" transform="translate(-280.886 -341.956)"/>
          <path id="Path_138" data-name="Path 138" d="M183.48,376.01l12.673.33,12.668.385,25.336.775,25.332.886,12.668.445,12.664.5L272.153,379l-12.668-.385-25.341-.775-25.332-.886-12.668-.445Z" transform="translate(-132.761 -353.174)"/>
          <path id="Path_139" data-name="Path 139" d="M180.819,336.3l-.5.023H180.2c-.028,0-.032.023-.05.06a1.917,1.917,0,0,0-.046.234,7.007,7.007,0,0,0,0,.982,1.629,1.629,0,0,0,.041.459,1.174,1.174,0,0,0,.055.211h.133c.317.027.652.037.977.05,1.317.041,2.638.083,3.955.106l1.978.055h1.413a.6.6,0,0,0,.05-.124,1.425,1.425,0,0,1,.05-.225,5.607,5.607,0,0,0,.041-.964,4.181,4.181,0,0,0-.046-.482.61.61,0,0,0-.051-.184.536.536,0,0,0-.184-.051c-.642-.115-1.308-.151-1.964-.216a17.968,17.968,0,0,1,1.987.05.541.541,0,0,1,.28.087.573.573,0,0,1,.119.275,3.794,3.794,0,0,1,.069.5,5.7,5.7,0,0,1,0,1.009,1.732,1.732,0,0,1-.046.262.459.459,0,0,1-.179.3.151.151,0,0,1-.1.032h-1.45l-1.982-.028c-1.317-.05-2.638-.087-3.96-.184-.33-.027-.656-.05-.991-.1a.82.82,0,0,1-.151-.032.383.383,0,0,1-.083-.032.229.229,0,0,1-.06-.087,1.051,1.051,0,0,1-.064-.271,4.625,4.625,0,0,1,0-.5,6.584,6.584,0,0,1,.1-1,1.606,1.606,0,0,1,.069-.243l.032-.064c0-.023.069-.041.083-.037h.119Z" transform="translate(-130.848 -331.624)"/>
          <path id="Path_140" data-name="Path 140" d="M286.452,339.006l-.5.028h-.124c-.028,0-.032.023-.05.06a1.294,1.294,0,0,0-.041.239,6.311,6.311,0,0,0-.023.977,4.171,4.171,0,0,0,.027.509.675.675,0,0,0,.055.211h.133c.321.032.652.037.982.051,1.317.041,2.634.083,3.955.105l1.978.055h1.409a.746.746,0,0,0,.055-.124,1.633,1.633,0,0,1,.046-.225,5.6,5.6,0,0,0,.041-.963,4.02,4.02,0,0,0-.041-.459.741.741,0,0,0-.055-.184c0-.023-.11-.041-.184-.055-.642-.115-1.308-.151-1.964-.216a19.285,19.285,0,0,1,1.991.05.556.556,0,0,1,.28.087.611.611,0,0,1,.115.275,4.956,4.956,0,0,1,.073.5,6.235,6.235,0,0,1,0,1.014.911.911,0,0,1-.041.262.459.459,0,0,1-.184.3.146.146,0,0,1-.1.032h-1.45l-1.982-.027c-1.321-.046-2.643-.087-3.96-.184-.335-.027-.661-.05-1-.1a.531.531,0,0,1-.147-.032l-.083-.028a.376.376,0,0,1-.064-.087.917.917,0,0,1-.06-.271,4.741,4.741,0,0,1-.023-.5,6.542,6.542,0,0,1,.1-1,1.231,1.231,0,0,1,.064-.248.23.23,0,0,1,.037-.064.087.087,0,0,1,.078-.032h.124Z" transform="translate(-187.988 -333.128)"/>
        </g>
        <circle id="Ellipse_1" data-name="Ellipse 1" cx="18.858" cy="18.858" r="18.858" transform="translate(15.861 78.164) rotate(-81.13)" fill="#263238"/>
        <circle id="Ellipse_2" data-name="Ellipse 2" cx="13.769" cy="13.769" r="13.769" transform="translate(21.592 73.804) rotate(-80.74)" fill="#dbdbdb"/>
        <circle id="Ellipse_3" data-name="Ellipse 3" cx="12.696" cy="12.696" r="12.696" transform="translate(24.706 49.747)" fill="#a6a6a6"/>
        <path id="Path_141" data-name="Path 141" d="M148.037,393.34h-3.983c1.344-1.945-3.345-8.718-3.345-8.718l2.1-.7c1.376,2.4,2.092,3.1,3.239,3.1s1.835-.7,3.248-3.1l2.092.7S146.693,391.394,148.037,393.34Z" transform="translate(-108.645 -334.081)" fill="#dbdbdb"/>
        <path id="Path_142" data-name="Path 142" d="M134.8,398.068l-1.23,3.79c-1.436-1.877-9.333.486-9.333.486v-2.212c2.712-.587,3.593-1.032,3.946-2.124s-.1-1.973-1.941-4.042l1.317-1.776S132.54,398.737,134.8,398.068Z" transform="translate(-99.732 -338.557)" fill="#dbdbdb"/>
        <path id="Path_143" data-name="Path 143" d="M135.607,414.1l3.212,2.345c-2.234.78-2.427,9.025-2.427,9.025L134.3,424.8c.275-2.753.124-3.735-.8-4.409s-1.9-.519-4.446.6l-1.28-1.8S135.556,416.463,135.607,414.1Z" transform="translate(-101.642 -350.414)" fill="#dbdbdb"/>
        <path id="Path_144" data-name="Path 144" d="M152.78,416.445l3.212-2.345c.055,2.363,7.837,5.093,7.837,5.093l-1.285,1.8c-2.537-1.12-3.515-1.276-4.441-.6s-1.078,1.652-.8,4.409l-2.106.665S155.014,417.225,152.78,416.445Z" transform="translate(-115.177 -350.414)" fill="#dbdbdb"/>
        <path id="Path_145" data-name="Path 145" d="M158.64,401.848l-1.23-3.781c2.262.679,7.263-5.878,7.263-5.878l1.317,1.776c-1.835,2.069-2.294,2.95-1.945,4.042s1.239,1.537,3.951,2.129v2.207S160.076,399.967,158.64,401.848Z" transform="translate(-117.682 -338.557)" fill="#dbdbdb"/>
        <circle id="Ellipse_4" data-name="Ellipse 4" cx="3.684" cy="3.684" r="3.684" transform="translate(33.194 65.415) rotate(-81.11)" fill="#dbdbdb"/>
        <circle id="Ellipse_5" data-name="Ellipse 5" cx="18.858" cy="18.858" r="18.858" transform="translate(145.135 51.233) rotate(-20.13)" fill="#263238"/>
        <circle id="Ellipse_6" data-name="Ellipse 6" cx="13.769" cy="13.769" r="13.769" transform="matrix(0.17, -0.985, 0.985, 0.17, 153.42, 73.667)" fill="#dbdbdb"/>
        <circle id="Ellipse_7" data-name="Ellipse 7" cx="12.696" cy="12.696" r="12.696" transform="translate(156.636 49.747)" fill="#a6a6a6"/>
        <path id="Path_146" data-name="Path 146" d="M435.582,393.34h-3.987c1.344-1.945-3.345-8.718-3.345-8.718l2.1-.7c1.376,2.4,2.092,3.1,3.239,3.1s1.835-.7,3.249-3.1l2.092.7S434.238,391.394,435.582,393.34Z" transform="translate(-264.254 -334.081)" fill="#dbdbdb"/>
        <path id="Path_147" data-name="Path 147" d="M422.325,398.068l-1.23,3.79c-1.436-1.877-9.333.486-9.333.486l-.023-2.212c2.712-.587,3.593-1.032,3.946-2.124s-.1-1.973-1.941-4.042l1.317-1.776S420.063,398.737,422.325,398.068Z" transform="translate(-255.319 -338.557)" fill="#dbdbdb"/>
        <path id="Path_148" data-name="Path 148" d="M423.146,414.1l3.212,2.345c-2.23.78-2.423,9.025-2.423,9.025l-2.111-.665c.28-2.753.128-3.735-.8-4.409s-1.909-.519-4.446.6l-1.28-1.8S423.1,416.463,423.146,414.1Z" transform="translate(-257.246 -350.414)" fill="#dbdbdb"/>
        <path id="Path_149" data-name="Path 149" d="M440.33,416.445l3.212-2.345c.055,2.363,7.837,5.093,7.837,5.093l-1.285,1.8c-2.537-1.12-3.515-1.276-4.441-.6s-1.078,1.652-.8,4.409l-2.106.665S442.565,417.225,440.33,416.445Z" transform="translate(-270.791 -350.414)" fill="#dbdbdb"/>
        <path id="Path_150" data-name="Path 150" d="M446.211,401.848,445,398.068c2.262.679,7.263-5.878,7.263-5.878l1.317,1.776c-1.835,2.069-2.294,2.95-1.945,4.042s1.239,1.537,3.95,2.129v2.207S447.643,399.967,446.211,401.848Z" transform="translate(-273.319 -338.557)" fill="#dbdbdb"/>
        <path id="Path_151" data-name="Path 151" d="M439.261,406.871a3.671,3.671,0,1,1-3.671-3.671A3.671,3.671,0,0,1,439.261,406.871Z" transform="translate(-266.24 -344.515)" fill="#dbdbdb"/>
        <path id="Path_152" data-name="Path 152" d="M360.181,316.636c-.688.688-.624,6.837-.124,7.341s7.341.95,7.878-2.868S361.255,315.576,360.181,316.636Z" transform="translate(-227.142 -297.502)" fill="#f36e2c"/>
        <path id="Path_153" data-name="Path 153" d="M368.08,301.665h-5.566c-14.467-9.548-34.325-18.986-34.325-18.986l3.294-.8c12.021,5.818,35.2,19.124,35.788,19.555a3.671,3.671,0,0,0,.808.229Z" transform="translate(-210.104 -278.86)" fill="#455a64"/>
        <g id="Group_3" data-name="Group 3" transform="translate(15.001 1.715)" opacity="0.5">
          <path id="Path_154" data-name="Path 154" d="M103.52,369.973a24.451,24.451,0,0,1,4.226-5.194,26.757,26.757,0,0,1,5.432-3.95,26.359,26.359,0,0,1,12.966-3.212l1.688.083.84.037c.28.032.56.078.84.115l1.67.239c.551.115,1.1.262,1.643.39a20.773,20.773,0,0,1,6.185,2.652,21.67,21.67,0,0,1,5.006,4.478,29.757,29.757,0,0,1,3.538,5.689,31.684,31.684,0,0,0-3.707-5.547,21.335,21.335,0,0,0-5.02-4.29,24.3,24.3,0,0,0-12.682-3.359,27.016,27.016,0,0,0-6.593.711,25.941,25.941,0,0,0-6.208,2.335,26.36,26.36,0,0,0-5.446,3.813,25.169,25.169,0,0,0-4.377,5.01Z" transform="translate(-103.52 -321.56)" fill="#fff"/>
          <path id="Path_155" data-name="Path 155" d="M391.45,369.973a24.452,24.452,0,0,1,4.226-5.194,26.757,26.757,0,0,1,5.433-3.95,26.359,26.359,0,0,1,12.966-3.212l1.688.083.84.037c.28.032.56.078.84.115l1.67.239c.551.115,1.1.262,1.643.39a20.773,20.773,0,0,1,6.185,2.652,21.668,21.668,0,0,1,5.006,4.478,29.76,29.76,0,0,1,3.538,5.689,31.681,31.681,0,0,0-3.707-5.547,21.336,21.336,0,0,0-5.02-4.29,24.3,24.3,0,0,0-12.682-3.359,27.016,27.016,0,0,0-6.593.711,25.941,25.941,0,0,0-6.208,2.335,26.36,26.36,0,0,0-5.442,3.794,25.165,25.165,0,0,0-4.382,5.029Z" transform="translate(-259.34 -321.56)" fill="#fff"/>
          <path id="Path_156" data-name="Path 156" d="M109.47,296.156c2.936-2.294,5.919-4.552,8.92-6.768s6.034-4.4,9.177-6.465c.395-.252.794-.5,1.2-.739.2-.119.408-.234.624-.339a3.832,3.832,0,0,1,.688-.262c.918-.262,1.808-.491,2.716-.72,1.835-.459,3.629-.876,5.465-1.23a31.8,31.8,0,0,1,5.589-.574c1.867-.041,3.735-.037,5.6.05-1.863,0-3.73.05-5.589.17a32.251,32.251,0,0,0-5.506.688c-1.835.408-3.634.83-5.437,1.294-.918.229-1.808.459-2.693.734a3.212,3.212,0,0,0-.619.239c-.2.1-.4.211-.6.33-.4.234-.789.486-1.179.734-3.125,2.023-6.148,4.217-9.177,6.364Z" transform="translate(-106.74 -279.035)" fill="#fff"/>
        </g>
        <path id="Path_157" data-name="Path 157" d="M290.586,370.16c-14.444,3.3-14.655,19.665-14.655,22.666,0,0-90.765-2.069-91.141-2.147-.3-.064-.211-14.389-10.92-19.844a27.086,27.086,0,0,1,13.306,16.555c.252.918,13.471,2.294,36.064,3.024s42.212.266,45.965-.257S277.308,370.086,290.586,370.16Z" transform="translate(-126.59 -326.635)" opacity="0.1"/>
        <path id="Path_158" data-name="Path 158" d="M491.433,381.932c-.2.578-4.441,5.763-4.464,5.887s-.147,1.569-.225,1.725a39.6,39.6,0,0,1-4.864,3.964c-.6.151-3.042.2-3.391.3s-4.588,2.891-4.941,3.042a19.666,19.666,0,0,1-2.992,0c-.179,0,.372-3.606.275-6.882A19.808,19.808,0,0,0,460.32,373.54c3.721.794,9.929,5.873,12.434,11.113s1.863,5.625,2.446,6.254,2.533-.642,3.427-.867,3.818-.3,4.942-.523,1.3-2.248,2.074-2.7A42.581,42.581,0,0,0,491.433,381.932Z" transform="translate(-281.609 -328.464)" opacity="0.1"/>
      </g>
    </g>
  </g>
</svg>
