<svg id="location" xmlns="http://www.w3.org/2000/svg" width="13.443" height="17.109" viewBox="0 0 13.443 17.109">
  <path id="Path_7707" data-name="Path 7707" d="M15.43,15.111a3.055,3.055,0,1,1,3.055-3.055A3.055,3.055,0,0,1,15.43,15.111Zm0-4.889a1.833,1.833,0,1,0,1.833,1.833,1.833,1.833,0,0,0-1.833-1.833Z" transform="translate(-8.709 -5.334)"/>
  <path id="Path_7708" data-name="Path 7708" d="M12.347,19.36,7.191,13.28q-.107-.137-.212-.275A6.654,6.654,0,0,1,5.625,8.972a6.722,6.722,0,1,1,13.443,0A6.651,6.651,0,0,1,17.715,13v0s-.183.241-.211.273ZM7.954,12.268s.143.188.175.229l4.217,4.974,4.223-4.98c.027-.034.17-.223.171-.224a5.439,5.439,0,0,0,1.106-3.295,5.5,5.5,0,1,0-11,0,5.441,5.441,0,0,0,1.108,3.3Z" transform="translate(-5.625 -2.25)"/>
</svg>
