<svg id="logout" xmlns="http://www.w3.org/2000/svg" width="12.925" height="15.079" viewBox="0 0 12.925 15.079">
  <path id="Path_7746" data-name="Path 7746" d="M5.577,17.329h6.462a1.078,1.078,0,0,0,1.077-1.077V14.636H12.039v1.616H5.577V3.327h6.462V4.943h1.077V3.327A1.078,1.078,0,0,0,12.039,2.25H5.577A1.078,1.078,0,0,0,4.5,3.327V16.252A1.078,1.078,0,0,0,5.577,17.329Z" transform="translate(-4.5 -2.25)"/>
  <path id="Path_7747" data-name="Path 7747" d="M16.951,16.951l1.932-1.931H11.25V13.943h7.632l-1.931-1.931.761-.762,3.231,3.231-3.231,3.231Z" transform="translate(-8.019 -6.942)"/>
</svg>
