<svg xmlns="http://www.w3.org/2000/svg" xmlns:xlink="http://www.w3.org/1999/xlink" width="342" height="213.802" viewBox="0 0 342 213.802">
  <defs>
    <radialGradient id="radial-gradient" cx="0.5" cy="0.5" r="0.5" gradientUnits="objectBoundingBox">
      <stop offset="0"/>
      <stop offset="1" stop-color="#767676" stop-opacity="0"/>
    </radialGradient>
  </defs>
  <g id="Group_12042" data-name="Group 12042" transform="translate(-49 -329.198)">
    <g id="freepik--background-simple--inject-111" transform="translate(-44.547 258.132)" opacity="0.06">
      <path id="Path_881" data-name="Path 881" d="M433.823,167.059c-5.9-27.949-28.482-53.063-56.975-55.1-18.469-1.312-36.264,6.084-53.819,11.975s-37.1,10.288-54.217,3.238c-19.364-7.975-30.373-28.294-46.892-41.165-22.591-17.6-55.628-19.534-81.118-6.441S97.97,119.442,94.322,147.853s5.809,57.83,23.657,80.222l.539.668A138.192,138.192,0,0,0,217.1,279.967l73.271,4.9c57.713-1,82.8-16.331,106.923-31.62S441.693,204.365,433.823,167.059Z" transform="translate(0 0)" fill="#f36e2c"/>
    </g>
    <g id="Confirmed-cuate" transform="translate(85.78 319.409)">
      <g id="freepik--background-complete--inject-36" transform="translate(42.22 39.08)">
        <path id="Path_1378" data-name="Path 1378" d="M60.6,67.289l6.036-.129,3.064-.051H72.98v.207l.028,5.148v.23h-.23L66.7,72.64c-2.033,0-4.062-.051-6.091-.078H60.48v-.124c0-.874.041-1.739.06-2.6Zm0,0,.064,2.6c0,.856.051,1.7.06,2.544l-.124-.124c2.029,0,4.058-.074,6.091-.074l6.091-.032-.23.23.023-5.148.207.207c-1.008,0-2.006,0-3.013-.028l-3.027-.051Z" transform="translate(-52.079 -54.215)" fill="#ebebeb"/>
        <path id="Path_1379" data-name="Path 1379" d="M75.349,53.179l6.036-.129L84.449,53h3.285v.207l.028,5.148v.23H87.54l-6.1-.064c-2.033,0-4.062-.051-6.091-.078H75.22v-.124c0-.874.041-1.739.06-2.6Zm0,0,.064,2.6c0,.856.051,1.7.06,2.544l-.124-.124c2.029,0,4.058-.074,6.091-.074l6.1-.032-.23.23V53.179l.207.207c-1,0-2.006,0-3.013-.028l-3.027-.051Z" transform="translate(-60.038 -46.596)" fill="#ebebeb"/>
        <path id="Path_1380" data-name="Path 1380" d="M101.029,196.917l6.036-.129,3.064-.051c1.026-.023,2.056,0,3.082-.028h.2v.207l.028,5.148v.23h-.23l-6.091-.032c-2.033,0-4.062-.051-6.091-.074H100.9v-.124c0-.874.041-1.744.06-2.6Zm0,0,.064,2.6c0,.856.051,1.707.06,2.549l-.124-.129c2.029,0,4.058-.074,6.091-.074l6.091-.028-.23.23v-5.148l.207.2h-3.013l-3.027-.051Z" transform="translate(-73.904 -124.191)" fill="#ebebeb"/>
        <path id="Path_1381" data-name="Path 1381" d="M115.849,182.807l6.036-.129,3.064-.051c1.026,0,2.056,0,3.082-.028h.2v.207l.028,5.148v.23h-.23l-6.091-.032c-2.033,0-4.062-.051-6.091-.074h-.129v-.124c0-.874.041-1.744.064-2.6Zm0,0,.064,2.6c0,.856.051,1.707.06,2.549l-.124-.11c2.029-.023,4.058-.069,6.091-.074l6.091-.028-.23.23v-5.148l.207.2c-1,0-2.006,0-3.013-.023l-3.027-.051Z" transform="translate(-81.906 -116.573)" fill="#ebebeb"/>
        <path id="Path_1382" data-name="Path 1382" d="M45.827,53.179l6.041-.129L54.909,53h3.285v.207l.023,5.148v.23h-.235L51.9,58.521c-2.029,0-4.058-.051-6.091-.078H45.68v-.124c0-.874.041-1.739.06-2.6Zm0,0,.069,2.6c0,.856.051,1.7.06,2.544l-.129-.124c2.033,0,4.062-.074,6.091-.074L58.01,58.1l-.23.23.009-5.148.2.207c-1,0-2,0-3.009-.028l-3.027-.051Z" transform="translate(-44.088 -46.596)" fill="#ebebeb"/>
        <path id="Path_1383" data-name="Path 1383" d="M424.7,290.1l-6.036.129-3.064.055c-1.026,0-2.052,0-3.082.023h-.2V290.1l-.028-5.143v-.235h.23l6.091.028c2.033,0,4.062.051,6.091.074h.129v.124c0,.87-.041,1.739-.06,2.6Zm0,0-.064-2.6c0-.856-.051-1.7-.06-2.544l.124.124c-2.029.023-4.058.074-6.091.074l-6.091.028.23-.225-.023,5.143-.207-.2h3.013l3.027.055Z" transform="translate(-242.037 -171.712)" fill="#ebebeb"/>
        <path id="Path_1384" data-name="Path 1384" d="M439.482,304.208l-6.041.129-3.064.055c-1.026,0-2.052,0-3.078.023h-.207v-.207l-.023-5.148v-.23h.235l6.091.028c2.029,0,4.058.051,6.091.074h.124v.12c0,.874-.041,1.744-.06,2.6Zm0,0-.069-2.6c0-.856-.051-1.7-.06-2.549l.129.129c-2.033.023-4.062.074-6.091.074l-6.091.028.23-.23-.032,5.148-.2-.2c1,0,2,0,3.009.023l3.027.055Z" transform="translate(-250.017 -179.33)" fill="#ebebeb"/>
        <path id="Path_1385" data-name="Path 1385" d="M72.862,304.208l-6.036.129-3.064.055c-1.026,0-2.056,0-3.082.023h-.2v-.207l-.028-5.148v-.23H60.7l6.091.028c2.033,0,4.062.051,6.091.074h.129v.12c0,.874-.041,1.744-.064,2.6Zm0,0-.064-2.6c0-.856-.051-1.7-.06-2.549l.124.129c-2.029.023-4.058.074-6.091.074l-6.068.028.23-.23-.023,5.148-.207-.2c1,0,2.006,0,3.013.023l3.027.055Z" transform="translate(-52.063 -179.33)" fill="#ebebeb"/>
        <path id="Path_1386" data-name="Path 1386" d="M412.534,53.179l6.041-.129L421.639,53h3.285v.207l.023,5.148v.23h-.23l-6.091-.064c-2.029,0-4.062-.051-6.091-.078h-.124v-.124c0-.874.037-1.739.06-2.6Zm0,0,.064,2.6c.023.856.055,1.7.06,2.544l-.124-.124c2.029,0,4.062-.074,6.091-.074l6.091-.032-.23.23.028-5.148.2.207c-1,0-2.006,0-3.009-.028l-3.046-.051Z" transform="translate(-242.102 -46.596)" fill="#ebebeb"/>
        <path id="Path_1387" data-name="Path 1387" d="M378.782,125.388H317.53V39.85h61.252Zm-59.435-1.817h57.617v-81.9H319.347Z" transform="translate(-190.872 -39.496)" fill="#ebebeb"/>
        <rect id="Rectangle_18862" data-name="Rectangle 18862" width="1.817" height="82.336" transform="translate(156.373 2.645)" fill="#ebebeb"/>
        <rect id="Rectangle_18863" data-name="Rectangle 18863" width="64.551" height="2.53" transform="translate(125.011 4.03)" fill="#ebebeb"/>
        <rect id="Rectangle_18864" data-name="Rectangle 18864" width="64.551" height="2.53" transform="translate(125.011 6.878)" fill="#ebebeb"/>
        <rect id="Rectangle_18865" data-name="Rectangle 18865" width="64.551" height="2.53" transform="translate(125.011 9.721)" fill="#ebebeb"/>
        <rect id="Rectangle_18866" data-name="Rectangle 18866" width="64.551" height="2.53" transform="translate(125.011 12.569)" fill="#ebebeb"/>
        <rect id="Rectangle_18867" data-name="Rectangle 18867" width="64.551" height="2.53" transform="translate(125.011 15.416)" fill="#ebebeb"/>
        <rect id="Rectangle_18868" data-name="Rectangle 18868" width="64.551" height="2.53" transform="translate(125.011 18.264)" fill="#ebebeb"/>
        <rect id="Rectangle_18869" data-name="Rectangle 18869" width="64.551" height="2.53" transform="translate(125.011 21.112)" fill="#ebebeb"/>
        <rect id="Rectangle_18870" data-name="Rectangle 18870" width="64.551" height="2.53" transform="translate(125.011 23.96)" fill="#ebebeb"/>
        <rect id="Rectangle_18871" data-name="Rectangle 18871" width="64.551" height="2.53" transform="translate(125.011 26.808)" fill="#ebebeb"/>
        <rect id="Rectangle_18872" data-name="Rectangle 18872" width="0.455" height="49.249" transform="translate(183.705 3.515)" fill="#a6a6a6"/>
        <path id="Path_1388" data-name="Path 1388" d="M441.885,155.649H440.27l.4-2.319h.805Z" transform="translate(-257.144 -100.769)" fill="#a6a6a6"/>
        <rect id="Rectangle_18873" data-name="Rectangle 18873" width="0.455" height="61.671" transform="translate(185.343 3.515)" fill="#a6a6a6"/>
        <path id="Path_1389" data-name="Path 1389" d="M445.445,181.759H443.83l.4-2.319h.805Z" transform="translate(-259.067 -114.866)" fill="#a6a6a6"/>
        <rect id="Rectangle_18874" data-name="Rectangle 18874" width="70.191" height="5.295" transform="translate(122.191)" fill="#dbdbdb"/>
        <rect id="Rectangle_18875" data-name="Rectangle 18875" width="51.444" height="3.055" transform="translate(0 30.364)" fill="#ebebeb"/>
        <rect id="Rectangle_18876" data-name="Rectangle 18876" width="3.055" height="10.103" transform="translate(3.906 33.419)" fill="#ebebeb"/>
        <rect id="Rectangle_18877" data-name="Rectangle 18877" width="3.055" height="3.124" transform="translate(3.906 33.419)" fill="#dbdbdb"/>
        <rect id="Rectangle_18878" data-name="Rectangle 18878" width="3.055" height="10.103" transform="translate(44.483 33.419)" fill="#ebebeb"/>
        <rect id="Rectangle_18879" data-name="Rectangle 18879" width="3.055" height="3.124" transform="translate(44.483 33.419)" fill="#dbdbdb"/>
        <rect id="Rectangle_18880" data-name="Rectangle 18880" width="19.47" height="4.904" transform="translate(11.598 10.894) rotate(90)" fill="#c7c7c7"/>
        <rect id="Rectangle_18881" data-name="Rectangle 18881" width="2.139" height="4.904" transform="translate(11.598 9.859) rotate(90)" fill="#dbdbdb"/>
        <rect id="Rectangle_18882" data-name="Rectangle 18882" width="0.796" height="4.904" transform="translate(11.598 14.736) rotate(90)" fill="#dbdbdb"/>
        <rect id="Rectangle_18883" data-name="Rectangle 18883" width="2.139" height="5.511" transform="translate(12.21 25.671) rotate(90)" fill="#dbdbdb"/>
        <rect id="Rectangle_18884" data-name="Rectangle 18884" width="22.708" height="3.427" transform="translate(15.021 7.655) rotate(90)" fill="#dbdbdb"/>
        <rect id="Rectangle_18885" data-name="Rectangle 18885" width="8.736" height="2.056" transform="translate(14.322 9.79) rotate(90)" fill="#ebebeb"/>
        <rect id="Rectangle_18886" data-name="Rectangle 18886" width="22.708" height="3.427" transform="matrix(0.711, 0.703, -0.703, 0.711, 23.242, 11.969)" fill="#c7c7c7"/>
        <rect id="Rectangle_18887" data-name="Rectangle 18887" width="8.736" height="2.056" transform="matrix(0.711, 0.703, -0.703, 0.711, 28.921, 18.523)" fill="#dbdbdb"/>
        <rect id="Rectangle_18888" data-name="Rectangle 18888" width="17.248" height="5.82" transform="translate(20.841 13.121) rotate(90)" fill="#a6a6a6"/>
        <rect id="Rectangle_18889" data-name="Rectangle 18889" width="1.606" height="5.82" transform="translate(20.841 26.932) rotate(90)" fill="#c7c7c7"/>
        <rect id="Rectangle_18890" data-name="Rectangle 18890" width="0.626" height="5.82" transform="translate(20.841 25.253) rotate(90)" fill="#c7c7c7"/>
        <rect id="Rectangle_18891" data-name="Rectangle 18891" width="16.212" height="4.021" transform="translate(6.694 14.161) rotate(90)" fill="#a6a6a6"/>
        <rect id="Rectangle_18892" data-name="Rectangle 18892" width="1.509" height="4.021" transform="translate(6.694 27.139) rotate(90)" fill="#c7c7c7"/>
        <rect id="Rectangle_18893" data-name="Rectangle 18893" width="1.509" height="4.021" transform="translate(6.694 17.496) rotate(90)" fill="#c7c7c7"/>
        <rect id="Rectangle_18894" data-name="Rectangle 18894" width="0.584" height="4.021" transform="translate(6.694 20.045) rotate(90)" fill="#c7c7c7"/>
      </g>
      <g id="freepik--Shadow--inject-36" transform="translate(45.192 214.734)">
        <path id="Path_1390" data-name="Path 1390" d="M233.917,425.318c0,2.445-41.47,4.428-92.619,4.428s-92.619-1.983-92.619-4.428,41.47-4.428,92.619-4.428S233.917,422.873,233.917,425.318Z" transform="translate(-46.68 -420.89)" opacity="0.64" fill="url(#radial-gradient)"/>
      </g>
      <g id="freepik--Plant--inject-36" transform="translate(188.546 132.895)">
        <path id="Path_1391" data-name="Path 1391" d="M378.618,307.456s-7.632-1.73-11.814-5.585-6.524-10.761-6.524-10.761a65.616,65.616,0,0,1,8.562,2.25,14.432,14.432,0,0,1,2.59,3.68,17.4,17.4,0,0,0,0-2.618,11.579,11.579,0,0,1,2.719,1.647C377.633,299.087,378.618,307.456,378.618,307.456Z" transform="translate(-360.28 -268.977)" fill="#f36e2c"/>
        <path id="Path_1392" data-name="Path 1392" d="M366.932,295.759c-1.04-.718-2.1-1.412-3.133-2.139-.064-.041,0-.143.06-.1,1.969,1.173,3.906,2.429,5.783,3.745q.98.69,1.932,1.422l-.133-.225c-.23-.382-.46-.759-.713-1.136a16.052,16.052,0,0,0-1.619-2.162c-.023-.023,0-.06.037-.037.593.685,1.187,1.38,1.73,2.093.258.345.5.7.727,1.067.12.193.235.382.34.58l.115.193c.989.777,1.951,1.587,2.866,2.438q.851.791,1.642,1.638c-.3-.92-.557-1.84-.9-2.76,0-.032.041-.046.051,0,.331.952.695,1.914.952,2.894.584.63,1.146,1.284,1.67,1.969l-.028-.124c-.087-.363-.175-.722-.271-1.077-.184-.69-.391-1.38-.621-2.056a11.961,11.961,0,0,0-2.052-3.869c-.023-.028,0-.064.037-.037a14.929,14.929,0,0,1,2.926,6.1c.083.322.156.649.23.975.041.175.087.35.115.529.23.313.46.626.676.948a33.4,33.4,0,0,1,3.22,6.335,73.574,73.574,0,0,1,2.466,7.609.041.041,0,0,1-.078,0c-1.5-4.467-3.018-9-5.576-12.987a29.422,29.422,0,0,0-1.744-2.443,14.4,14.4,0,0,1-3.713-.736,16.7,16.7,0,0,1-3.717-1.8,23.041,23.041,0,0,1-1.909-1.44.028.028,0,1,1,.032-.041,15.26,15.26,0,0,0,3.5,2.121,18.94,18.94,0,0,0,3.851,1.288c.561.124,1.136.216,1.707.294a32.082,32.082,0,0,0-2.25-2.493c-.258-.258-.524-.506-.791-.755a18.022,18.022,0,0,0-2.82-1.615c-1.251-.607-2.484-1.247-3.722-1.877-.7-.354-1.38-.718-2.093-1.063-.032,0,0-.055.028-.041,1.251.607,2.526,1.173,3.791,1.753s2.4,1.095,3.542,1.734l.147.087c-1.035-.92-2.107-1.757-3.22-2.586C369,297.231,367.976,296.5,366.932,295.759Z" transform="translate(-362.165 -270.272)" fill="#263238"/>
        <path id="Path_1393" data-name="Path 1393" d="M371.551,306.985c.621.271,1.251.511,1.868.8s1.228.639,1.84.994a.024.024,0,1,1-.023.041c-.607-.29-1.224-.561-1.84-.865s-1.228-.644-1.863-.92C371.505,306.985,371.519,306.953,371.551,306.985Z" transform="translate(-366.348 -277.541)" fill="#263238"/>
        <path id="Path_1394" data-name="Path 1394" d="M430.761,243a10.912,10.912,0,0,0-2.3,6.34c-.023.685.083,1.642.166,2.76a18.141,18.141,0,0,0-4.982,4.26,9.008,9.008,0,0,1,5.033-1.205,15.56,15.56,0,0,1-.29,2.3,8.556,8.556,0,0,0-3.22.639,7.246,7.246,0,0,1,2.917.58c-1.38,4.329-5.4,8.778-16.562,10.664a23.463,23.463,0,0,1,1.978-15.716C416.854,247.03,430.761,243,430.761,243Z" transform="translate(-387.645 -243)" fill="#f36e2c"/>
        <path id="Path_1395" data-name="Path 1395" d="M403.319,291.344q.29-2.76.722-5.521a110.405,110.405,0,0,1,2.25-10.931,44.018,44.018,0,0,1,1.615-4.982,7.289,7.289,0,0,1-.041-.893v-1.077c0-.713.041-1.426.1-2.139a25.857,25.857,0,0,1,.685-4.191c.207-.8.46-1.578.676-2.365a.028.028,0,0,1,.051,0,30.7,30.7,0,0,0-.828,4.182,39.941,39.941,0,0,0-.373,4.191c0,.382-.023.768-.023,1.15v.492a36.466,36.466,0,0,1,1.882-3.892,47.609,47.609,0,0,1,3.823-5.719,2.391,2.391,0,0,1,.092-.626c.051-.248.106-.5.161-.75.115-.506.244-1.017.382-1.518.276-1.012.644-1.992.962-2.99a.028.028,0,0,1,.051,0c-.294.989-.492,2.015-.718,3.023-.115.5-.221.994-.331,1.5-.055.248-.11.5-.161.745v.06q.676-.856,1.38-1.684c2.13-2.5,4.467-4.812,6.823-7.1.29-.285.584-.557.879-.837,0,0,.06,0,.037.041-2.25,2.346-4.463,4.716-6.56,7.2-.5.593-.989,1.192-1.472,1.794l.764-.506c.649-.423,1.307-.837,1.983-1.215s1.38-.754,2.056-1.1,1.481-.644,2.176-1.044c.028,0,.055.032.023.046a16.01,16.01,0,0,0-2.038,1.127c-.681.4-1.357.81-2.024,1.233s-1.316.828-1.969,1.251c-.543.354-1.077.741-1.642,1.063a53.558,53.558,0,0,0-3.579,5.208,38.72,38.72,0,0,0-1.84,3.51l.4-.175,1.026-.46c.653-.29,1.316-.575,1.974-.86,1.251-.547,2.526-1.044,3.754-1.642a17.4,17.4,0,0,0,2.006-1.113c.028,0,.051,0,.023.046a45.238,45.238,0,0,1-7.389,3.809l-1.1.488c-.3.133-.607.281-.92.4a39.062,39.062,0,0,0-1.891,5.176,105.864,105.864,0,0,0-2.429,10.8c-.64,3.648-1.072,7.32-1.408,11.009-.041.46-.083.92-.138,1.38a.147.147,0,0,1-.29,0C402.951,295.08,403.122,293.208,403.319,291.344Z" transform="translate(-383.298 -246.493)" fill="#263238"/>
        <path id="Path_1396" data-name="Path 1396" d="M418.084,269.492c.2-1.136.506-2.245.81-3.358,0-.032.06,0,.051,0-.281,1.09-.483,2.2-.69,3.308s-.391,2.263-.552,3.4c0,0-.032.023-.032,0A29.644,29.644,0,0,1,418.084,269.492Z" transform="translate(-391.267 -255.483)" fill="#263238"/>
        <path id="Path_1397" data-name="Path 1397" d="M428.988,277.116a20.564,20.564,0,0,1,2.429-1.38c.4-.207.819-.409,1.228-.607s.87-.377,1.293-.589c.028,0,.051.028,0,.041-.409.207-.8.46-1.2.672l-1.242.681c-.814.437-1.619.92-2.475,1.279a.064.064,0,0,1-.037-.1Z" transform="translate(-397.373 -260.03)" fill="#263238"/>
        <path id="Path_1398" data-name="Path 1398" d="M382.843,275.179s-7.062-1.688-10.305-6.441c-3.1-4.522-4.1-12.238-4.177-12.918.124.626,1.583,7.361,6.39,10.508C378.435,268.748,382,270.726,382.843,275.179Z" transform="translate(-364.643 -249.922)" fill="#263238" opacity="0.1"/>
        <path id="Path_1399" data-name="Path 1399" d="M385.621,271.362a9.017,9.017,0,0,1,2.6,4.288H388.2a10.489,10.489,0,0,0-2.613-4.256C385.561,271.38,385.6,271.339,385.621,271.362Z" transform="translate(-373.94 -258.31)" fill="#263238"/>
        <path id="Path_1400" data-name="Path 1400" d="M382.841,275.125s-7.062-1.688-10.305-6.441c-3.1-4.522-4.1-12.237-4.177-12.918a.159.159,0,0,1,0-.046s3.386,4.817,6.947,6.045S383.862,267.254,382.841,275.125Z" transform="translate(-364.641 -249.868)" fill="#f36e2c"/>
        <path id="Path_1401" data-name="Path 1401" d="M371.017,261.505a28.818,28.818,0,0,0,2.185,3.736,14.9,14.9,0,0,0,2.9,2.99c.962.764,1.974,1.454,2.944,2.2v-.037c-.184-.267-.377-.534-.58-.787-.4-.52-.846-1.008-1.293-1.491-.874-.952-1.771-1.886-2.558-2.917a10.647,10.647,0,0,1-1.132-1.84c0-.032.032-.046.046,0,1.146,2.388,3.437,3.915,5.061,5.93a11,11,0,0,1,.649.893,3.807,3.807,0,0,1,.409.718,14.925,14.925,0,0,1,2.411,2.438,9.658,9.658,0,0,0-.285-1.38,6.8,6.8,0,0,0-.75-1.79c0-.028.028-.06.046-.028a8.65,8.65,0,0,1,.824,1.776,6.176,6.176,0,0,1,.258,1.523h0a14.076,14.076,0,0,1,.957,1.486c-.032-.152-.06-.3-.087-.46-.143-.7-.294-1.408-.46-2.1a12.662,12.662,0,0,0-1.7-3.979c-.023-.028,0-.055.041-.028a15.14,15.14,0,0,1,1.882,3.892c.225.695.4,1.38.566,2.112.078.345.147.695.212,1.044.037.179.074.368.106.552a25.661,25.661,0,0,1,1.629,4.789,70.523,70.523,0,0,1,1.5,8.93,74.219,74.219,0,0,1,.488,9.482c0,.4-.032.8-.051,1.192a.083.083,0,1,1-.166,0c-.069-1.569-.11-3.138-.2-4.7s-.23-3.128-.4-4.693a83.873,83.873,0,0,0-1.472-9.132,23.566,23.566,0,0,0-2.728-7.444,13.987,13.987,0,0,0-2.549-3.032c-.989-.888-2.07-1.665-3.115-2.489a17.056,17.056,0,0,1-2.862-2.76,22.609,22.609,0,0,1-2.245-3.644L371,261.5C370.957,261.505,370.989,261.478,371.017,261.505Z" transform="translate(-366.057 -252.985)" fill="#263238"/>
        <path id="Path_1402" data-name="Path 1402" d="M373.648,263.759a24.673,24.673,0,0,0,1.573,2.76s0,.041-.032,0a19.052,19.052,0,0,1-1.592-2.76C373.583,263.745,373.634,263.727,373.648,263.759Z" transform="translate(-367.469 -254.199)" fill="#263238"/>
        <path id="Path_1403" data-name="Path 1403" d="M433.664,291.11s.115,10.038-5.889,12.932-9.2.488-13.3,1.458h0c.156-.239,3.069-4.426,7.7-5.576C426.943,298.733,432.2,295.292,433.664,291.11Z" transform="translate(-389.545 -268.977)" fill="#f36e2c"/>
        <path id="Path_1404" data-name="Path 1404" d="M433.664,291.11s.115,10.038-5.889,12.932-9.2.488-13.3,1.458h0a22.692,22.692,0,0,1,6.827-2.02C425.094,303.021,432.321,300.56,433.664,291.11Z" transform="translate(-389.545 -268.977)" opacity="0.1"/>
        <path id="Path_1405" data-name="Path 1405" d="M408.145,312.88a9.936,9.936,0,0,1,2.388-1.619c.124-.06.258-.11.391-.166a2.373,2.373,0,0,1,.2-.23c.184-.189.368-.368.566-.538a8.665,8.665,0,0,1,1.21-.87c.994-.584,2.084-.994,3.1-1.537.028,0,.055.028.023.046-.5.258-.989.547-1.477.833s-.962.543-1.426.842a10.627,10.627,0,0,0-1.187.888c-.106.092-.207.193-.308.294a16.264,16.264,0,0,1,2.029-.538c1.1-.221,2.208-.377,3.308-.612a15.936,15.936,0,0,0,1.592-.428c.5-.4.994-.8,1.468-1.238a12.24,12.24,0,0,0,1.55-1.721c0-.023.064,0,.041.028a18.588,18.588,0,0,1-2.457,2.719c.258-.1.511-.207.764-.322a12.343,12.343,0,0,0,5.116-4.255c0-.028.064,0,.046.028a14.036,14.036,0,0,1-4.141,3.975,12.468,12.468,0,0,1-2.613,1.238,24.5,24.5,0,0,1-3.248.768,22.66,22.66,0,0,0-3.179.754,9.619,9.619,0,0,0-2.668,1.4,12.5,12.5,0,0,0-3.6,4.458,22.45,22.45,0,0,0-1.983,7.361c0,.106-.175.106-.17,0C403.761,320.2,404.892,315.806,408.145,312.88Z" transform="translate(-383.605 -276.177)" fill="#263238"/>
        <path id="Path_1406" data-name="Path 1406" d="M428.754,312.909a3.432,3.432,0,0,1,1.233-1.118,4.564,4.564,0,0,0,1.468-1.215c0-.028.064,0,.041.028a5.011,5.011,0,0,1-1.293,1.159,4.573,4.573,0,0,0-1.412,1.169C428.773,312.955,428.736,312.932,428.754,312.909Z" transform="translate(-397.249 -279.481)" fill="#263238"/>
        <path id="Path_1407" data-name="Path 1407" d="M404.449,338.88l-.271,5.521-.837,16.861H390.749l-.837-16.861-.271-5.521Z" transform="translate(-376.133 -294.77)" fill="#37474f"/>
        <path id="Path_1408" data-name="Path 1408" d="M404.449,338.88l-.271,5.521H389.911l-.271-5.521Z" transform="translate(-376.133 -294.77)" fill="#263238"/>
        <rect id="Rectangle_18895" data-name="Rectangle 18895" width="16.576" height="5.268" transform="translate(12.624 41.805)" fill="#37474f"/>
      </g>
      <g id="freepik--Device--inject-36" transform="translate(80.207 45.41)">
        <rect id="Rectangle_18896" data-name="Rectangle 18896" width="172.204" height="115.212" rx="8" transform="translate(115.212) rotate(90)" fill="#263238"/>
        <rect id="Rectangle_18897" data-name="Rectangle 18897" width="105.358" height="148.203" transform="translate(4.992 12.053)" fill="#fff"/>
        <rect id="Rectangle_18898" data-name="Rectangle 18898" width="1.79" height="25.073" rx="0.895" transform="translate(70.136 6.1) rotate(90)" fill="#37474f"/>
        <circle id="Ellipse_22" data-name="Ellipse 22" cx="3.243" cy="3.243" r="3.243" transform="translate(54.36 162.837)" fill="#37474f"/>
        <rect id="Rectangle_18899" data-name="Rectangle 18899" width="72.891" height="1.026" transform="translate(21.227 32.406)" fill="#ebebeb"/>
        <rect id="Rectangle_18900" data-name="Rectangle 18900" width="72.891" height="1.026" transform="translate(21.227 35.59)" fill="#ebebeb"/>
        <rect id="Rectangle_18901" data-name="Rectangle 18901" width="72.891" height="1.026" transform="translate(21.227 132.538)" fill="#ebebeb"/>
        <rect id="Rectangle_18902" data-name="Rectangle 18902" width="72.891" height="1.026" transform="translate(21.227 135.721)" fill="#ebebeb"/>
        <circle id="Ellipse_23" data-name="Ellipse 23" cx="3.368" cy="3.368" r="3.368" transform="translate(35.581 140.032)" fill="#f36e2c"/>
        <path id="Path_1409" data-name="Path 1409" d="M207.216,362.557l-2.006-2.029.676-.667,1.169,1.187,2.438-3.818.8.511Z" transform="translate(-168.212 -217.193)" fill="#fff"/>
        <path id="Path_1410" data-name="Path 1410" d="M227.778,362.185a2.116,2.116,0,0,1,.129-.708,1.891,1.891,0,0,1,.382-.626,1.84,1.84,0,0,1,1.422-.621,1.771,1.771,0,0,1,.92.239,1.5,1.5,0,0,1,.584.616l-.575.419a.966.966,0,0,0-.189-.281,1.064,1.064,0,0,0-.235-.179,1.16,1.16,0,0,0-.267-.1,1.381,1.381,0,0,0-.271-.028,1.017,1.017,0,0,0-.5.115,1.068,1.068,0,0,0-.354.3,1.33,1.33,0,0,0-.212.419,1.532,1.532,0,0,0,0,.966,1.307,1.307,0,0,0,.235.423,1.246,1.246,0,0,0,.363.294,1.007,1.007,0,0,0,.46.11,1.2,1.2,0,0,0,.276-.037.966.966,0,0,0,.271-.1,1.145,1.145,0,0,0,.239-.184.952.952,0,0,0,.179-.276l.621.359a1.182,1.182,0,0,1-.267.391,1.6,1.6,0,0,1-.391.281,2.011,2.011,0,0,1-.952.239,1.716,1.716,0,0,1-.768-.175,1.979,1.979,0,0,1-.6-.46,2.138,2.138,0,0,1-.391-.644A1.96,1.96,0,0,1,227.778,362.185Z" transform="translate(-180.396 -218.813)" fill="#f36e2c"/>
        <path id="Path_1411" data-name="Path 1411" d="M237.839,364.173a1.758,1.758,0,0,1-.782-.17,1.974,1.974,0,0,1-.989-1.086,2.006,2.006,0,0,1-.138-.731,1.978,1.978,0,0,1,.147-.75,2.066,2.066,0,0,1,.4-.635,2.024,2.024,0,0,1,.612-.46,1.839,1.839,0,0,1,.768-.161,1.661,1.661,0,0,1,.773.175,1.914,1.914,0,0,1,.6.46,2.1,2.1,0,0,1,.409.663,2.015,2.015,0,0,1,.138.727,1.978,1.978,0,0,1-.147.75,1.952,1.952,0,0,1-.4.63,1.923,1.923,0,0,1-.607.432A1.785,1.785,0,0,1,237.839,364.173Zm-1.136-1.987a1.619,1.619,0,0,0,.078.492,1.353,1.353,0,0,0,.221.419,1.229,1.229,0,0,0,.359.294,1.035,1.035,0,0,0,.483.106,1.063,1.063,0,0,0,.492-.11,1.177,1.177,0,0,0,.359-.3,1.431,1.431,0,0,0,.221-.423,1.7,1.7,0,0,0,.074-.46,1.478,1.478,0,0,0-.083-.492,1.311,1.311,0,0,0-.225-.419,1,1,0,0,0-.359-.29,1.017,1.017,0,0,0-.46-.106,1.044,1.044,0,0,0-.488.11.994.994,0,0,0-.359.3,1.353,1.353,0,0,0-.221.419,1.55,1.55,0,0,0-.092.46Z" transform="translate(-184.799 -218.786)" fill="#f36e2c"/>
        <path id="Path_1412" data-name="Path 1412" d="M246.279,361.688V364.2h-.759v-3.92h.589l2.043,2.572v-2.567h.764V364.2h-.621Z" transform="translate(-189.977 -218.84)" fill="#f36e2c"/>
        <path id="Path_1413" data-name="Path 1413" d="M254.67,364.2v-3.92h2.636v.667h-1.872v1.012h1.555v.616h-1.555V364.2Z" transform="translate(-194.918 -218.84)" fill="#f36e2c"/>
        <path id="Path_1414" data-name="Path 1414" d="M261.56,364.2v-3.92h.764v3.92Z" transform="translate(-198.638 -218.84)" fill="#f36e2c"/>
        <path id="Path_1415" data-name="Path 1415" d="M265,364.2v-3.92h1.734a1.145,1.145,0,0,1,.5.11,1.426,1.426,0,0,1,.4.3,1.514,1.514,0,0,1,.258.419,1.238,1.238,0,0,1,.092.46,1.293,1.293,0,0,1-.189.695,1.1,1.1,0,0,1-.515.46l.893,1.477h-.87l-.8-1.316h-.75V364.2Zm.764-1.983h.957a.359.359,0,0,0,.193-.051.483.483,0,0,0,.156-.133.606.606,0,0,0,.106-.2.74.74,0,0,0,.041-.248.749.749,0,0,0-.046-.253.639.639,0,0,0-.12-.2.589.589,0,0,0-.17-.133.433.433,0,0,0-.2-.046h-.92Z" transform="translate(-200.495 -218.84)" fill="#f36e2c"/>
        <path id="Path_1416" data-name="Path 1416" d="M276.184,364.2V361.6l-1.008,1.932h-.414L273.75,361.6V364.2H273v-3.92h.819l1.159,2.231,1.169-2.231h.814v3.92Z" transform="translate(-204.815 -218.84)" fill="#f36e2c"/>
        <path id="Path_1417" data-name="Path 1417" d="M286.074,363.533v.667H283.35v-3.92h2.673v.667h-1.914v.92h1.652v.621h-1.652v1.021Z" transform="translate(-210.403 -218.84)" fill="#f36e2c"/>
        <path id="Path_1418" data-name="Path 1418" d="M290.57,364.2v-3.92h1.422a2.065,2.065,0,0,1,.842.156,1.688,1.688,0,0,1,.607.419,1.744,1.744,0,0,1,.363.621,2.5,2.5,0,0,1,0,1.569,1.711,1.711,0,0,1-1,1.012,2.121,2.121,0,0,1-.8.143Zm2.586-1.964a1.56,1.56,0,0,0-.078-.52,1.109,1.109,0,0,0-.225-.409,1.007,1.007,0,0,0-.363-.267,1.311,1.311,0,0,0-.5-.092h-.662v2.586h.662a1.233,1.233,0,0,0,.5-.1,1.022,1.022,0,0,0,.363-.271,1.191,1.191,0,0,0,.221-.414A1.521,1.521,0,0,0,293.156,362.234Z" transform="translate(-214.302 -218.839)" fill="#f36e2c"/>
      </g>
      <g id="freepik--Envelope--inject-36" transform="translate(100.868 90.685)">
        <path id="Path_1419" data-name="Path 1419" d="M245,246.7H187.36V197.941l28.813-18.3L245,197.941Z" transform="translate(-179.235 -166.579)" fill="#f36e2c"/>
        <path id="Path_1420" data-name="Path 1420" d="M245,246.7H187.36V197.941l28.813-18.3L245,197.941Z" transform="translate(-179.235 -166.579)" opacity="0.2"/>
        <rect id="Rectangle_18903" data-name="Rectangle 18903" width="51.135" height="65.645" transform="translate(11.373 10.742)" fill="#ebebeb"/>
        <path id="Path_1421" data-name="Path 1421" d="M229.488,223.481,217.78,211.63l3.934-3.887,6.841,6.924,14.207-22.276,4.665,2.972Z" transform="translate(-195.66 -173.463)" fill="#f36e2c"/>
        <path id="Path_1422" data-name="Path 1422" d="M245,246v36.529H187.36V246c2.475,1.38,4.909,2.871,7.361,4.306s4.881,2.926,7.306,4.417c2.7,1.642,5.4,3.317,8.092,5l.087-.051c-.028,0-.046.046-.069.06q3.018,1.863,6.041,3.749c2.006-1.265,4.026-2.54,6.041-3.786-.023,0-.041-.041-.069-.06a.4.4,0,0,0,.087.046q4.035-2.517,8.092-5.005,3.639-2.222,7.3-4.407C240.1,248.848,242.521,247.38,245,246Z" transform="translate(-179.235 -202.41)" fill="#f36e2c"/>
        <g id="Group_11778" data-name="Group 11778" transform="translate(8.125 43.59)" opacity="0.2">
          <path id="Path_1423" data-name="Path 1423" d="M245,246c-2.328,1.633-4.7,3.22-7.043,4.812s-4.734,3.147-7.117,4.706q-3.726,2.443-7.467,4.84l-.225.156-6.639,4.233-.331.2-.322-.2-6.629-4.242-.235-.147q-3.749-2.4-7.476-4.849c-2.374-1.55-4.743-3.124-7.108-4.7s-4.716-3.2-7.043-4.812c2.475,1.38,4.909,2.871,7.361,4.306s4.881,2.926,7.306,4.417c2.7,1.642,5.4,3.317,8.092,5h0q3.036,1.872,6.059,3.759c2.006-1.265,4.026-2.54,6.041-3.786h0q4.035-2.517,8.092-5.005,3.639-2.222,7.3-4.407C240.1,248.848,242.521,247.38,245,246Z" transform="translate(-187.36 -246)"/>
          <path id="Path_1424" data-name="Path 1424" d="M210.343,275.67c-.028,0-.046.046-.069.06l-.92.773c-1.445,1.219-2.926,2.388-4.43,3.524-1.84,1.38-3.713,2.76-5.6,4.076s-3.8,2.6-5.751,3.851-3.91,2.466-5.944,3.584c1.748-1.532,3.565-2.963,5.4-4.352s3.722-2.76,5.6-4.081,3.809-2.613,5.755-3.86c1.55-.994,3.128-1.974,4.734-2.889.373-.216.745-.423,1.127-.635Z" transform="translate(-187.506 -262.02)"/>
          <path id="Path_1425" data-name="Path 1425" d="M285.694,291.537c-2.033-1.118-4.007-2.337-5.944-3.584s-3.874-2.544-5.76-3.851-3.763-2.678-5.6-4.076c-1.5-1.136-2.977-2.3-4.412-3.515l-.92-.782c-.023,0-.041-.041-.069-.06a.4.4,0,0,0,.087.046c.382.216.755.423,1.127.639,1.606.92,3.174,1.9,4.734,2.889,1.946,1.247,3.851,2.544,5.746,3.86s3.763,2.678,5.6,4.081S283.946,290.005,285.694,291.537Z" transform="translate(-228.196 -262.02)"/>
        </g>
        <path id="Path_1426" data-name="Path 1426" d="M196.13,158.864a31.621,31.621,0,0,1,0-7.614A31.615,31.615,0,0,1,196.13,158.864Z" transform="translate(-183.847 -151.25)" fill="#263238"/>
        <path id="Path_1427" data-name="Path 1427" d="M183.037,164.113a28.214,28.214,0,0,1-2.857-2.53,27.67,27.67,0,0,1-2.53-2.852A31.744,31.744,0,0,1,183.037,164.113Z" transform="translate(-173.993 -155.289)" fill="#263238"/>
        <path id="Path_1428" data-name="Path 1428" d="M177.314,176.994a27.853,27.853,0,0,1-3.809.23,27.111,27.111,0,0,1-3.8-.225,27.074,27.074,0,0,1,3.8-.23A27.845,27.845,0,0,1,177.314,176.994Z" transform="translate(-169.7 -165.028)" fill="#263238"/>
        <path id="Path_1429" data-name="Path 1429" d="M182.563,184.285a31.979,31.979,0,0,1-5.383,5.387,31.528,31.528,0,0,1,5.383-5.392Z" transform="translate(-173.739 -169.084)" fill="#263238"/>
        <path id="Path_1430" data-name="Path 1430" d="M302.584,158.864a28.6,28.6,0,0,1-.225-3.809,27.746,27.746,0,0,1,.235-3.8,31.621,31.621,0,0,1,0,7.614Z" transform="translate(-241.328 -151.25)" fill="#263238"/>
        <path id="Path_1431" data-name="Path 1431" d="M309.89,164.113a31.744,31.744,0,0,1,5.387-5.383,27.664,27.664,0,0,1-2.53,2.852,28.209,28.209,0,0,1-2.857,2.53Z" transform="translate(-245.395 -155.289)" fill="#263238"/>
        <path id="Path_1432" data-name="Path 1432" d="M313,176.994a27.853,27.853,0,0,1,3.809-.225,27.032,27.032,0,0,1,3.8.23,27.069,27.069,0,0,1-3.8.225A27.848,27.848,0,0,1,313,176.994Z" transform="translate(-247.074 -165.028)" fill="#263238"/>
        <path id="Path_1433" data-name="Path 1433" d="M310.37,184.29a31.529,31.529,0,0,1,5.383,5.387,28.267,28.267,0,0,1-2.852-2.535,27.721,27.721,0,0,1-2.53-2.852Z" transform="translate(-245.654 -169.09)" fill="#263238"/>
      </g>
    </g>
  </g>
</svg>
