<svg id="user-profile" xmlns="http://www.w3.org/2000/svg" width="15.567" height="14.529" viewBox="0 0 15.567 14.529">
  <path id="Path_7709" data-name="Path 7709" d="M9.257,3.288A2.595,2.595,0,1,1,6.663,5.882,2.595,2.595,0,0,1,9.257,3.288m0-1.038A3.632,3.632,0,1,0,12.89,5.882,3.632,3.632,0,0,0,9.257,2.25Z" transform="translate(-4.068 -2.25)"/>
  <path id="Path_7710" data-name="Path 7710" d="M12.628,26.477H11.59V23.882A2.6,2.6,0,0,0,9,21.288H5.882a2.6,2.6,0,0,0-2.595,2.595v2.595H2.25V23.882A3.632,3.632,0,0,1,5.882,20.25H9a3.632,3.632,0,0,1,3.632,3.632Z" transform="translate(-2.25 -11.947)"/>
  <path id="Path_7711" data-name="Path 7711" d="M24.75,4.5h5.189V5.538H24.75Z" transform="translate(-14.372 -3.462)"/>
  <path id="Path_7712" data-name="Path 7712" d="M24.75,10.125h5.189v1.038H24.75Z" transform="translate(-14.372 -6.493)"/>
  <path id="Path_7713" data-name="Path 7713" d="M24.75,15.75h3.632v1.038H24.75Z" transform="translate(-14.372 -9.523)"/>
</svg>
