<svg xmlns="http://www.w3.org/2000/svg" xmlns:xlink="http://www.w3.org/1999/xlink" width="342" height="222.348" viewBox="0 0 342 222.348">
  <defs>
    <radialGradient id="radial-gradient" cx="0.5" cy="0.5" r="0.5" gradientUnits="objectBoundingBox">
      <stop offset="0"/>
      <stop offset="1" stop-color="#fff"/>
    </radialGradient>
  </defs>
  <g id="Group_12041" data-name="Group 12041" transform="translate(-43 -256)">
    <g id="freepik--background-simple--inject-111" transform="translate(-50.547 184.934)" opacity="0.06">
      <path id="Path_881" data-name="Path 881" d="M433.823,167.059c-5.9-27.949-28.482-53.063-56.975-55.1-18.469-1.312-36.264,6.084-53.819,11.975s-37.1,10.288-54.217,3.238c-19.364-7.975-30.373-28.294-46.892-41.165-22.591-17.6-55.628-19.534-81.118-6.441S97.97,119.442,94.322,147.853s5.809,57.83,23.657,80.222l.539.668A138.192,138.192,0,0,0,217.1,279.967l73.271,4.9c57.713-1,82.8-16.331,106.923-31.62S441.693,204.365,433.823,167.059Z" transform="translate(0 0)" fill="#f36e2c"/>
    </g>
    <g id="Invite-cuate_3_" data-name="Invite-cuate (3)" transform="translate(77.637 243.422)">
      <g id="freepik--background-complete--inject-17" transform="translate(40.369 35.582)">
        <rect id="Rectangle_18911" data-name="Rectangle 18911" width="30.561" height="19.381" transform="translate(13.243 24.343) rotate(-7.77)" fill="#ebebeb"/>
        <path id="Path_1436" data-name="Path 1436" d="M100,79.64c-1.065,1.336-2.157,2.625-3.213,3.942s-2.185,2.593-3.281,3.878-2.295,2.671-3.451,3.993l-.106.129q-1.528,1.749-3.075,3.5l-.151.165-.188-.119c-1.3-.849-2.6-1.7-3.9-2.556a1.139,1.139,0,0,1-.138-.087c-1.469-.968-2.937-1.941-4.4-2.933s-2.8-1.891-4.195-2.85-2.786-1.932-4.167-2.937c1.437.826,2.859,1.7,4.282,2.556s2.85,1.744,4.273,2.634q2.368,1.473,4.736,3h0q1.776,1.129,3.548,2.295c.918-1.051,1.868-2.1,2.809-3.139h0c1.253-1.377,2.5-2.781,3.763-4.158q1.694-1.836,3.405-3.672C97.7,82.045,98.837,80.819,100,79.64Z" transform="translate(-56.476 -59.42)" fill="#fff"/>
        <path id="Path_1437" data-name="Path 1437" d="M86.154,107.41l-.032.037c-.138.156-.28.317-.422.459-.67.743-1.377,1.464-2.074,2.171-.863.867-1.753,1.707-2.653,2.543s-1.808,1.638-2.754,2.432-1.882,1.579-2.868,2.295c.808-.918,1.661-1.808,2.524-2.671s1.758-1.707,2.653-2.543,1.836-1.648,2.754-2.442c.743-.633,1.5-1.262,2.295-1.859.179-.142.363-.275.546-.413Z" transform="translate(-59.512 -74.445)" fill="#fff"/>
        <path id="Path_1438" data-name="Path 1438" d="M125.629,112.25c-1.147-.459-2.272-.918-3.378-1.455s-2.208-1.065-3.3-1.611-2.171-1.138-3.213-1.744c-.867-.486-1.73-.991-2.57-1.528l-.542-.344-.037-.028h.046l.638.257c.918.363,1.8.766,2.694,1.179,1.115.514,2.208,1.06,3.3,1.616s2.171,1.134,3.213,1.739S124.619,111.571,125.629,112.25Z" transform="translate(-79.66 -73.433)" fill="#fff"/>
        <rect id="Rectangle_18912" data-name="Rectangle 18912" width="23.957" height="37.776" transform="matrix(0.23, -0.973, 0.973, 0.23, 136.472, 109.755)" fill="#ebebeb"/>
        <path id="Path_1439" data-name="Path 1439" d="M386.967,232.633c-1.836,1.069-3.672,2.07-5.48,3.116s-3.672,2.019-5.507,3.011q-2.878,1.556-5.755,3.07l-.179.106-5.1,2.689-.248.119-.165-.22q-1.689-2.331-3.355-4.681c-.041-.05-.083-.106-.119-.161-1.267-1.772-2.529-3.543-3.777-5.338-1.193-1.7-2.382-3.428-3.566-5.154s-2.354-3.47-3.5-5.241c1.29,1.593,2.538,3.236,3.8,4.856s2.515,3.272,3.754,4.934q2.07,2.754,4.13,5.562h0l3.084,4.2c1.538-.794,3.089-1.6,4.631-2.373h0q3.089-1.574,6.191-3.121,2.754-1.377,5.558-2.722C383.25,234.386,385.1,233.478,386.967,232.633Z" transform="translate(-208.225 -137.499)" fill="#fff"/>
        <path id="Path_1440" data-name="Path 1440" d="M355.635,258.55l-.055.028-.693.353c-1.106.56-2.226,1.083-3.359,1.579-1.377.615-2.781,1.189-4.186,1.753s-2.818,1.088-4.25,1.588-2.864.982-4.333,1.377c1.349-.716,2.722-1.349,4.1-1.964s2.786-1.189,4.186-1.753,2.823-1.092,4.254-1.593c1.138-.4,2.295-.789,3.456-1.129l.812-.234Z" transform="translate(-202.03 -156.219)" fill="#fff"/>
        <path id="Path_1441" data-name="Path 1441" d="M404.224,276.034c-1.129-1.019-2.2-2.093-3.249-3.18s-2.074-2.2-3.089-3.327-2-2.272-2.956-3.442c-.785-.95-1.556-1.914-2.295-2.91q-.243-.316-.459-.633a.445.445,0,0,0-.037-.05.221.221,0,0,0,.051.041l.62.578c.89.826,1.739,1.689,2.584,2.556,1.056,1.088,2.07,2.208,3.084,3.332s2,2.272,2.956,3.442S403.343,274.79,404.224,276.034Z" transform="translate(-230.911 -158.351)" fill="#fff"/>
        <path id="Path_1442" data-name="Path 1442" d="M67.992,318.92l-6.021.129-3.057.05c-1.023.023-2.052,0-3.075.023h-.2v-.207l-.028-5.136v-.229h.229l6.076.028c2.029,0,4.053.051,6.076.078h.129v.124c0,.872-.041,1.739-.06,2.593Zm0,0-.064-2.6c0-.854-.05-1.7-.06-2.538l.124.124c-2.024.023-4.048.073-6.076.078l-6.076.028.229-.229v5.136l-.207-.207c1,0,2,0,3.006.027l3.02.051Z" transform="translate(-48.831 -185.977)" fill="#ebebeb"/>
        <path id="Path_1443" data-name="Path 1443" d="M53.222,333.03l-6.021.129-3.057.05c-1.023.023-2.052,0-3.075.023h-.2v-.207l-.028-5.136v-.229h.229l6.076.028c2.024,0,4.053.051,6.076.078h.129v.124c0,.872-.037,1.739-.06,2.593Zm0,0-.064-2.6c-.023-.854-.05-1.7-.06-2.538l.124.124c-2.024.023-4.053.073-6.076.078l-6.076.028.229-.229-.023,5.136-.207-.206c1,0,2,0,3.006.027l3.02.05Z" transform="translate(-40.84 -193.611)" fill="#ebebeb"/>
        <path id="Path_1444" data-name="Path 1444" d="M268.572,193.245l-6.021.128-3.057.05c-1.023,0-2.051,0-3.075.028h-.2v-.207l-.028-5.136v-.229h.229l6.076.028c2.029,0,4.053.055,6.077.078h.129v.124c0,.872-.041,1.739-.064,2.6Zm0,0-.064-2.593c0-.858-.05-1.7-.06-2.543l.124.124c-2.024.028-4.048.073-6.077.078l-6.076.028.229-.229-.023,5.136-.207-.2c1,0,2,0,3.006.023l3.02.051Z" transform="translate(-157.355 -117.983)" fill="#ebebeb"/>
        <path id="Path_1445" data-name="Path 1445" d="M253.8,207.36l-6.021.128-3.057.05c-1.023.023-2.051,0-3.075.028h-.2v-.207l-.027-5.136V202h.229l6.077.028c2.024,0,4.053.055,6.076.078h.129v.124c0,.872-.037,1.739-.06,2.593Zm0,0-.064-2.593c-.023-.858-.05-1.7-.06-2.543l.124.124c-2.024.028-4.053.073-6.076.078l-6.076.028.229-.23v5.136l-.206-.2h3.006l3.02.05Z" transform="translate(-149.364 -125.623)" fill="#ebebeb"/>
        <path id="Path_1446" data-name="Path 1446" d="M239.119,193.245l-6.026.128-3.057.05c-1.019,0-2.047,0-3.07.028h-.207V187.88h.229l6.076.028c2.024,0,4.048.055,6.077.078h.119v.124c0,.872-.041,1.739-.06,2.6Zm0,0-.064-2.593c-.023-.858-.055-1.7-.064-2.543l.129.124c-2.029.028-4.053.073-6.076.078l-6.076.028.229-.229-.028,5.136-.2-.2c1,0,2,0,3,.023l3.02.051Z" transform="translate(-141.432 -117.983)" fill="#ebebeb"/>
        <path id="Path_1447" data-name="Path 1447" d="M444.062,333.03l-6.026.129-3.057.05c-1.019.023-2.047,0-3.07.023H431.7v-.207l-.023-5.136v-.229h.229l6.076.028c2.024,0,4.053.051,6.077.078h.124v.124c0,.872-.037,1.739-.06,2.593Zm0,0-.064-2.6c0-.854-.055-1.7-.06-2.538l.124.124c-2.024.023-4.053.073-6.077.078l-6.076.028.229-.229-.028,5.136-.2-.206c1,0,2,0,3,.027l3.02.05Z" transform="translate(-252.304 -193.611)" fill="#ebebeb"/>
        <path id="Path_1448" data-name="Path 1448" d="M429.341,50.563l-6.026.124-3.057.055H417V45.17h.234l6.077.028c2.024,0,4.048.05,6.076.073h.124v.124c0,.867-.041,1.735-.06,2.593Zm0,0-.064-2.6c-.023-.854-.055-1.7-.064-2.538l.129.124c-2.029,0-4.052.073-6.076.073l-6.077.032.229-.229-.028,5.136-.2-.207c1,0,2,0,3,.023l3.02.055Z" transform="translate(-244.362 -40.77)" fill="#ebebeb"/>
        <path id="Path_1449" data-name="Path 1449" d="M444.062,64.67l-6.026.124-3.057.055H431.7V64.67l-.023-5.136V59.3h.229l6.076.028c2.024,0,4.053.05,6.077.073h.124v.124c0,.867-.037,1.735-.06,2.593Zm0,0-.064-2.6c0-.854-.055-1.7-.06-2.538l.124.124c-2.024,0-4.053.073-6.077.073l-6.076.028.229-.225-.028,5.136-.2-.207h3l3.02.055Z" transform="translate(-252.304 -48.415)" fill="#ebebeb"/>
        <path id="Path_1450" data-name="Path 1450" d="M53.222,50.563l-6.021.124-3.075.055H40.868v-.2L40.84,45.4V45.17h.229l6.076.028c2.024,0,4.053.05,6.076.073h.129v.124c0,.867-.037,1.735-.06,2.593Zm0,0-.064-2.6c-.023-.854-.05-1.7-.06-2.538l.124.124c-2.024,0-4.053.073-6.076.073l-6.076.032.229-.229-.023,5.136-.207-.207c1,0,2,0,3.006.023l3.02.055Z" transform="translate(-40.84 -40.77)" fill="#ebebeb"/>
        <path id="Path_1451" data-name="Path 1451" d="M406.812,105.563a11.258,11.258,0,1,0-5.168-12.19A11.258,11.258,0,0,0,406.812,105.563Z" transform="translate(-235.89 -62.133)" fill="#ebebeb"/>
        <path id="Path_1452" data-name="Path 1452" d="M418.41,102.385A3.428,3.428,0,1,0,421.8,98.92,3.428,3.428,0,0,0,418.41,102.385Z" transform="translate(-245.124 -69.851)" fill="#fff"/>
        <path id="Path_1453" data-name="Path 1453" d="M413.215,120.236v1.414a11.249,11.249,0,0,0,11.841-.147v-1.409a5.925,5.925,0,0,0-11.845.142Z" transform="translate(-242.311 -78.221)" fill="#fff"/>
        <path id="Path_1454" data-name="Path 1454" d="M53.775,211.375a8.72,8.72,0,1,0-3.915-9.754,8.72,8.72,0,0,0,3.915,9.754Z" transform="translate(-45.555 -121.936)" fill="#ebebeb"/>
        <path id="Path_1455" data-name="Path 1455" d="M62.74,208.925a2.653,2.653,0,1,0,2.621-2.685A2.653,2.653,0,0,0,62.74,208.925Z" transform="translate(-52.689 -127.917)" fill="#fff"/>
        <path id="Path_1456" data-name="Path 1456" d="M58.73,222.6V223.7a8.72,8.72,0,0,0,9.179-.11v-1.092a4.59,4.59,0,1,0-9.179.11Z" transform="translate(-50.519 -134.257)" fill="#fff"/>
        <path id="Path_1457" data-name="Path 1457" d="M162.123,45.444a5.31,5.31,0,1,0-2.391-5.939,5.292,5.292,0,0,0,2.391,5.939Z" transform="translate(-105.067 -35.582)" fill="#ebebeb"/>
        <path id="Path_1458" data-name="Path 1458" d="M167.59,43.954a1.616,1.616,0,1,0,1.6-1.634A1.615,1.615,0,0,0,167.59,43.954Z" transform="translate(-109.418 -39.228)" fill="#fff"/>
        <path id="Path_1459" data-name="Path 1459" d="M165.14,52.29v.665a5.292,5.292,0,0,0,5.581-.069v-.665a2.791,2.791,0,1,0-5.581.069Z" transform="translate(-108.092 -43.093)" fill="#fff"/>
      </g>
      <g id="freepik--Shadow--inject-17" transform="translate(45.243 214.604)">
        <path id="Path_1543" data-name="Path 1543" d="M91.023,0c50.271,0,91.023,4.549,91.023,10.161S141.294,20.322,91.023,20.322,0,15.773,0,10.161,40.753,0,91.023,0Z" transform="translate(0 0)" opacity="0.12" fill="url(#radial-gradient)"/>
      </g>
      <g id="freepik--Plant--inject-17" transform="translate(185.914 140.023)">
        <path id="Path_1460" data-name="Path 1460" d="M398.463,279.864a36.457,36.457,0,0,1,.844-5.911,13.218,13.218,0,0,1,2.12-5.048,6.37,6.37,0,0,1,4.158-2.593,5.8,5.8,0,0,1,4.374,1.556,20.8,20.8,0,0,1,3.75,4.589,55.464,55.464,0,0,1,3.24,5.673.055.055,0,0,1-.1.05,35.765,35.765,0,0,0-2.9-4.741,29.939,29.939,0,0,0-3.337-4.039,6.554,6.554,0,0,0-4.158-2.162,5.108,5.108,0,0,0-4.066,2.093,12.426,12.426,0,0,0-2.051,4.814,36.076,36.076,0,0,0-.835,5.65c-.317,3.91-.4,7.843-.491,11.767q-.074,3.327-.1,6.655l-.028,3.373a20.766,20.766,0,0,1-.128,3.254c-.037.22-.395.2-.431,0a19.212,19.212,0,0,1-.151-3.084q0-1.6-.037-3.213-.028-3.112-.023-6.219C398.133,288.181,398.183,284.013,398.463,279.864Z" transform="translate(-379.69 -264.842)" fill="#263238"/>
        <path id="Path_1461" data-name="Path 1461" d="M410.064,275.224a9.064,9.064,0,0,1,1.212-3.405c1.129-1.537,2.354-.867,1.225.835a10.226,10.226,0,0,0-1.593,4.2,16.188,16.188,0,0,0,4.2,4.057,18.335,18.335,0,0,1-.188-4.2c.459-3.36,2.474-3.171,1.969-.5a23.009,23.009,0,0,0-.459,5.393,11.476,11.476,0,0,0,2.455,1.2c-.133-.385-.271-.854-.427-1.423-.812-3.011,1.193-3.947,1.258-2.253a23.863,23.863,0,0,0,.78,4.268c1.1.372,2.015.624,2.575.821a9.384,9.384,0,0,1,3.763,2.57,11.684,11.684,0,0,0,2.566-3.318c-.7-.606-1.808-1.5-3.35-2.588-2.887-2.038-1.882-4.612.408-3.011a13.215,13.215,0,0,1,3.516,4.392,17.96,17.96,0,0,0,1.308-6.012c-2.267-2.13-7.876-5.094-6.187-5.094,1.524,0,4.924,2.231,6.173,3.093a15.093,15.093,0,0,0-.193-1.749c-2.134-1.377-9.073-3.575-7.967-4.2,1.216-.688,6.058,1.556,7.522,2.263a8.762,8.762,0,0,0-1.285-2.653c-2.951-3.952-8.261-5.315-10.593-4.562-1.643.532-1.161,4.7-1.515,4.562C410.638,265.251,407.637,267.128,410.064,275.224Zm16.173-.459c.459-.565,2.634,1.1,2.01,2.01S425.646,275.472,426.238,274.765Zm-11.313-3.552c.569.363-.271,2.465-1.152,1.836C413.025,272.5,414.351,270.845,414.925,271.213Z" transform="translate(-385.702 -263.148)" fill="#f36e2c"/>
        <path id="Path_1462" data-name="Path 1462" d="M421.648,277.686c.3-.587.61-1.175.95-1.739a10.051,10.051,0,0,1,1.088-1.579c-.092-.119-.184-.234-.28-.349s.028-.11.069-.064c.11.124.216.252.321.381a.087.087,0,0,1,.046.055c.409.486.794.991,1.161,1.505a17.222,17.222,0,0,1,1.914.555c.647.216,1.29.459,1.918.707.069.028.032.138-.032.106-.624-.275-1.253-.542-1.9-.757s-1.235-.367-1.836-.542c.2.285.4.569.592.863a22.594,22.594,0,0,1,3.387,1.377c1.147.542,2.249,1.175,3.346,1.808.06.037,0,.133-.06.1a37.352,37.352,0,0,0-3.327-1.721c-1.06-.5-2.157-.918-3.213-1.377,2.694,4.2,4.314,9.055,6.471,13.548.032.069-.069.119-.1.055-.661-1.574-1.418-3.112-2.139-4.658-.643-1.377-1.271-2.79-1.918-4.186-.188-.4-.386-.812-.583-1.216a57.2,57.2,0,0,0,.459,6.751.055.055,0,1,1-.11,0c-.156-2.4-.578-4.759-.564-7.173V280.1a30.154,30.154,0,0,0-1.469-2.7,31.181,31.181,0,0,0-2.249,6.494c0,.069-.124.037-.106-.037a32,32,0,0,1,2.258-6.618,25.458,25.458,0,0,0-1.9-2.754c-.3.56-.684,1.088-1.023,1.62s-.661,1.046-.968,1.583a22.789,22.789,0,0,0-1.684,3.566c-.028.064-.138.032-.11-.037C420.538,280.054,421.061,278.851,421.648,277.686Z" transform="translate(-391.562 -268.978)" fill="#263238"/>
        <path id="Path_1463" data-name="Path 1463" d="M377.222,288.547c1.726-1.735,3.736-4.011,6.425-4.007,2.579,0,4.475,2.079,5.567,4.222a22.171,22.171,0,0,1,1.872,7.247,87.56,87.56,0,0,1,.684,8.908c.046,1.652.041,3.309,0,4.961a32.687,32.687,0,0,1-.381,5.012.25.25,0,0,1-.491,0c-.078-1.377-.023-2.79,0-4.186s0-2.754-.064-4.13c-.1-2.777-.3-5.549-.629-8.307a40.272,40.272,0,0,0-1.235-7.21c-.647-2.1-1.868-4.5-4-5.425-2.9-1.257-5.737,1.042-7.641,2.983C377.259,288.666,377.172,288.6,377.222,288.547Z" transform="translate(-368.376 -274.722)" fill="#263238"/>
        <path id="Path_1464" data-name="Path 1464" d="M357.981,287.68h0c0,.353.037.7.06,1.046a6.269,6.269,0,0,1,2.832-1.175c2.455-.262,2.295,1.606.661,1.684a9.313,9.313,0,0,0-3.369.675,20.631,20.631,0,0,0,1.427,5.879,47.439,47.439,0,0,0,6.485-.817c-.61-1.3-2-3.029-1.294-3.167s1.482,1.377,1.877,3.047a30.551,30.551,0,0,0,4.713-1.3c-1.079-.918-2.754-2.1-2.107-2.593s1.96,1.143,2.754,2.331a9.439,9.439,0,0,0,2.038-1.134c-1.455-2.139-5-2.575-4.534-4.131s3.777.6,5.269,3.456a8.478,8.478,0,0,0,2.074-6.572c-1.524-.179-4.452.142-4.241-.95s2.331-.886,4.062-.248a6.067,6.067,0,0,0-1.014-2.409c-1.606-2.061-6.508.56-6.508.56s.523-4.924-1.345-5.778a5.6,5.6,0,0,0-4.883.638,4.114,4.114,0,0,1,2.882,1.17c.666.945-.385,1.464-1.051,1.023a5.3,5.3,0,0,0-2.928-1.409,9.636,9.636,0,0,0-1.767,1.955c-.184.257-.349.523-.519.817a6.728,6.728,0,0,1,5.737.1c2.125,1.056.918,3.263-.89,2.4s-3.566-1.7-5.507-1.216a13.685,13.685,0,0,0-.918,5.507,9.509,9.509,0,0,1,3.144-1.51c2.111-.555,2.754.707.431.941A9.3,9.3,0,0,0,357.981,287.68Zm2.57-3.392c-.147-.684,1.354-.881,1.6-.326.211.473-1.455,1.01-1.6.326Zm12.814,3.791c.142-.376,1.143.05,1.051.514-.119.624-1.184-.142-1.046-.514Zm-7.072,2.4c.73-.294,1.868,1.524,1.074,1.937s-1.666-1.7-1.069-1.937Z" transform="translate(-357.966 -269.982)" fill="#f36e2c"/>
        <path id="Path_1465" data-name="Path 1465" d="M362.131,302.793c1.1-1.836,2.189-3.672,3.346-5.507.537-.84,1.1-1.666,1.684-2.474l-.262-.06-.436-.087c-.34-.06-.679-.106-1.023-.142s-.642-.05-.964-.055a5.183,5.183,0,0,0-1.033.055c-.041,0-.05-.055,0-.055.344,0,.7-.028,1.042-.037a9.043,9.043,0,0,1,1,.028c.335.028.624.05.918.1.174.028.344.055.514.092a2.451,2.451,0,0,1,.308.064q.918-1.235,1.836-2.41a21.805,21.805,0,0,0-6.021-1.923c-.037,0-.023-.06,0-.055a20.3,20.3,0,0,1,6.109,1.836c.353-.431.707-.863,1.065-1.29s.822-.945,1.184-1.455a.026.026,0,1,1,.041.032,21.927,21.927,0,0,0-1.377,1.707h0a21.107,21.107,0,0,1,2.24,1.8q1.1.973,2.143,2.01c0,.023,0,.064-.041.037q-1.028-1.019-2.139-1.951c-.743-.615-1.528-1.184-2.295-1.794h0c-.17.229-.34.459-.514.675l-.257.34v.023c-.289.372-.574.748-.854,1.12a9.291,9.291,0,0,1,.849,1.537c.248.519.459,1.056.661,1.593a23.6,23.6,0,0,1,.918,3.451c0,.032-.05.05-.055,0a20.109,20.109,0,0,0-1-3.378c-.216-.565-.459-1.115-.711-1.661s-.5-.973-.721-1.478c-.243.326-.491.656-.734.991-.069.1-.133.193-.207.289,0,.023,0,.051-.023.051h0c-.757,1.056-1.478,2.139-2.175,3.213a.991.991,0,0,1,.092.239c.046.133.087.266.128.4.078.271.142.546.193.822s.083.519.11.785a7.194,7.194,0,0,0,.064.89c0,.041-.06.046-.055,0a2.823,2.823,0,0,0-.06-.831c-.041-.285-.092-.569-.161-.849s-.124-.5-.2-.753c-.037-.124-.078-.248-.119-.372s-.055-.133-.078-.2c-.326.514-.652,1.028-.968,1.547-.633,1.033-1.262,2.065-1.9,3.093C362.182,302.889,362.1,302.843,362.131,302.793Z" transform="translate(-360.216 -277.352)" fill="#263238"/>
        <path id="Path_1466" data-name="Path 1466" d="M399.119,328.213c.032-1.042.2-2.093.307-3.13l.344-3.125a46.643,46.643,0,0,1,.8-6.031,8.789,8.789,0,0,1,2.455-4.511,4.021,4.021,0,0,1,2.4-1.147,4.168,4.168,0,0,1,2.556.789,9,9,0,0,1,2.148,2.263,22.668,22.668,0,0,1,1.675,2.722c0,.037-.037.055-.06,0a13.929,13.929,0,0,0-3.621-4.062,4.309,4.309,0,0,0-2.295-.95,3.093,3.093,0,0,0-2.185.9,8.342,8.342,0,0,0-2.336,4.131,41.572,41.572,0,0,0-.918,5.572c-.147,1.1-.289,2.208-.431,3.309s-.239,2.226-.459,3.309a.2.2,0,0,1-.39-.041Z" transform="translate(-380.231 -288.642)" fill="#263238"/>
        <path id="Path_1467" data-name="Path 1467" d="M408.733,319.53a5.88,5.88,0,0,0,1.134,1.161c-.17-1.019-.376-2.827.138-3.791.794-1.5,1.74-.748,1.267.551a10.557,10.557,0,0,0-.771,3.672,16.065,16.065,0,0,0,3.465,1.634,5.769,5.769,0,0,1-.115-1.781c.161-1.6,1.377-1.57,1.065.092a10.1,10.1,0,0,0-.165,1.955,36.357,36.357,0,0,0,5.4,1.225,15.878,15.878,0,0,0,2.235-3.979c-1.3-.326-3.933-.4-3.878-1.326.073-1.253,2.625-.289,4.131.62a10.1,10.1,0,0,0,.459-3.369,16.955,16.955,0,0,0-3.589-.592c-2.68-.234-2.547-1.753-.606-1.716a10.614,10.614,0,0,1,4.1,1.377c-.56-3.644-3.341-5.966-5.567-6.067-3.768-.165-2.414,4.5-2.414,4.5a9.93,9.93,0,0,0-4.934-1.739C407.691,312,406.172,315.987,408.733,319.53Zm10.005-6.756c-.083-.523,1.593-.652,1.675,0C420.528,313.569,418.825,313.325,418.738,312.775Zm2.708,5.507c-.037-.344.684-.4.849.028C422.391,318.571,421.446,318.6,421.446,318.282Zm-9,.317c.564.078.886,2.1-.083,2.061-.757-.051-.409-2.148.069-2.079Z" transform="translate(-384.714 -288.059)" fill="#f36e2c"/>
        <path id="Path_1468" data-name="Path 1468" d="M420.062,333.636c.092-.252.174-.509.252-.766-.073.262-.138.523-.184.785C420.122,333.705,420.03,333.682,420.062,333.636Z" transform="translate(-391.559 -300.871)" fill="#263238"/>
        <path id="Path_1469" data-name="Path 1469" d="M421.419,323.136c.174-.519.372-1.033.574-1.537.11-.271.22-.542.34-.808a3.408,3.408,0,0,1,.33-.675,5.613,5.613,0,0,1-.3-.656h.037a8.048,8.048,0,0,1,.73,1.129c.106.179.2.358.3.537a5.857,5.857,0,0,1,.633.1c.225.041.459.087.67.138l.665.156c.225.05.459.124.665.161.055,0,.032.087,0,.069a4.048,4.048,0,0,0-.7-.184c-.216-.046-.427-.083-.647-.115s-.436-.06-.656-.083l-.5-.037c.092.156.184.312.271.459l.041.078a2.149,2.149,0,0,1,.537.064l.578.11c.39.087.78.179,1.166.289.812.225,1.611.486,2.409.748.046,0,0,.078-.028.064a23,23,0,0,0-2.419-.67l-1.152-.257-.578-.119a3.677,3.677,0,0,1-.459-.1c.408.762.8,1.538,1.157,2.327.776,1.716,1.432,3.488,2.1,5.25,0,.046-.055.073-.069.032a48.55,48.55,0,0,0-2.231-5.14l-.459-.918-.041.184-.11.629c-.069.418-.142.835-.2,1.253a14.267,14.267,0,0,0-.3,2.6c0,.055-.083.051-.073,0a11.683,11.683,0,0,0,.092-1.267c.028-.436.06-.877.11-1.313s.106-.84.174-1.258l.11-.629a1.194,1.194,0,0,1,.119-.459l-.661-1.317c-.207-.413-.418-.826-.633-1.235l-.285-.523a5.042,5.042,0,0,1-.248.633l-.289.707c-.216.523-.418,1.051-.615,1.579-.285.753-.6,1.519-.831,2.295C420.969,324.669,421.162,323.889,421.419,323.136Z" transform="translate(-391.93 -293.616)" fill="#263238"/>
        <path id="Path_1470" data-name="Path 1470" d="M420.62,332.659l.055-.179Z" transform="translate(-391.865 -300.66)" fill="#263238"/>
        <path id="Path_1471" data-name="Path 1471" d="M385.47,344.95l.266,5.576.679,14.374h14.829l.679-14.374.262-5.576Z" transform="translate(-372.847 -307.407)" fill="#37474f"/>
        <path id="Path_1472" data-name="Path 1472" d="M385.47,344.95l.266,5.576h16.187l.262-5.576Z" transform="translate(-372.847 -307.407)" fill="#263238"/>
        <rect id="Rectangle_18913" data-name="Rectangle 18913" width="18.822" height="4.511" transform="translate(30.389 39.796) rotate(180)" fill="#37474f"/>
        <rect id="Rectangle_18914" data-name="Rectangle 18914" width="2.602" height="2.359" transform="translate(24.592 57.493)" fill="#37474f"/>
        <rect id="Rectangle_18915" data-name="Rectangle 18915" width="2.602" height="1.179" transform="translate(24.592 57.493)" fill="#263238"/>
        <rect id="Rectangle_18916" data-name="Rectangle 18916" width="2.602" height="2.359" transform="translate(14.766 57.493)" fill="#37474f"/>
        <rect id="Rectangle_18917" data-name="Rectangle 18917" width="2.602" height="1.179" transform="translate(14.766 57.493)" fill="#263238"/>
      </g>
      <g id="freepik--Floor--inject-17" transform="translate(39.97 199.651)">
        <path id="Path_1473" data-name="Path 1473" d="M39.97,393.295l24.1-.11,24.1-.041,48.194-.073,48.194.073,24.1.041,24.1.11-24.1.115-24.1.041-48.194.073-48.194-.073-24.1-.041Z" transform="translate(-39.97 -393.07)" fill="#263238"/>
      </g>
      <g id="freepik--Device--inject-17" transform="translate(91.243 47.899)">
        <path id="Path_1474" data-name="Path 1474" d="M234.154,62.42H159.267a7.646,7.646,0,0,0-7.577,7.72V224.3a7.651,7.651,0,0,0,7.577,7.715h74.887a7.655,7.655,0,0,0,7.582-7.715V70.14A7.651,7.651,0,0,0,234.154,62.42Zm2.841,157.107a7.08,7.08,0,0,1-6.783,7.343H163.2a7.081,7.081,0,0,1-6.792-7.343V76c0-8.261,3.038-8.67,6.792-8.67h13.424c.78,0,1.418.886,1.418,1.983v.459c0,2.57,1.409,2.579,3.135,2.579h31.034c1.744,0,3.144,0,3.144-2.579v-.459c0-1.1.629-1.983,1.423-1.983H230.2c3.745,0,6.783,1.1,6.783,8.67Z" transform="translate(-151.689 -62.42)" fill="#263238"/>
        <path id="Path_1475" data-name="Path 1475" d="M242.572,82.02V225.56a7.08,7.08,0,0,1-6.783,7.343H168.782a7.078,7.078,0,0,1-6.792-7.343V82.02c0-8.261,3.038-8.67,6.792-8.67h13.424c.78,0,1.418.89,1.418,1.987V75.8c0,2.575,1.409,2.584,3.135,2.584H217.8c1.744,0,3.144,0,3.144-2.584v-.459c0-1.1.629-1.987,1.423-1.987h13.42C239.557,73.35,242.572,74.451,242.572,82.02Z" transform="translate(-157.262 -68.334)" fill="#fff"/>
        <path id="Path_1476" data-name="Path 1476" d="M242.578,82.03V95.05H162V82.03c0-8.261,3.038-8.67,6.792-8.67h13.424c.78,0,1.418.886,1.418,1.983V75.8c0,2.57,1.409,2.579,3.135,2.579h31.039c1.744,0,3.144,0,3.144-2.579v-.459c0-1.1.629-1.983,1.423-1.983h13.42C239.562,73.36,242.578,74.457,242.578,82.03Z" transform="translate(-157.268 -68.339)" fill="#f36e2c"/>
        <path id="Path_1477" data-name="Path 1477" d="M248.412,75.826h-8.463a.523.523,0,0,1-.519-.523h0a.523.523,0,0,1,.519-.523h8.463a.523.523,0,0,1,.523.523h0a.523.523,0,0,1-.523.523Z" transform="translate(-199.161 -69.107)" fill="#fff"/>
        <g id="freepik--u5Zjqx--inject-17" transform="translate(19.731 7.531)">
          <path id="Path_1478" data-name="Path 1478" d="M197.581,79.413l-.129.133a.558.558,0,0,0-.073.073,1.767,1.767,0,0,0-2.5,0l-.069-.073-.129-.129h0l.165-.147a2.007,2.007,0,0,1,.376-.239,1.983,1.983,0,0,1,.5-.17l.252-.032h.395a1.763,1.763,0,0,1,.459.11,1.5,1.5,0,0,1,.312.147,1.921,1.921,0,0,1,.3.207l.138.124Z" transform="translate(-194.68 -78.83)" fill="#fff"/>
          <path id="Path_1479" data-name="Path 1479" d="M195.757,80.681l-.207-.2a1.427,1.427,0,0,1,.835-.418,1.473,1.473,0,0,1,1.253.413l-.207.207A1.193,1.193,0,0,0,195.757,80.681Z" transform="translate(-195.151 -79.488)" fill="#fff"/>
          <path id="Path_1480" data-name="Path 1480" d="M197.717,81.568l-.2.2a.6.6,0,0,0-.431-.174.583.583,0,0,0-.427.179l-.207-.207a.89.89,0,0,1,1.267,0Z" transform="translate(-195.638 -80.168)" fill="#fff"/>
          <path id="Path_1481" data-name="Path 1481" d="M197.8,82.514a.188.188,0,1,1-.188-.184.184.184,0,0,1,.188.184Z" transform="translate(-196.163 -80.724)" fill="#fff"/>
        </g>
        <path id="Path_1482" data-name="Path 1482" d="M173.45,80.362a.537.537,0,1,1,.532.532A.537.537,0,0,1,173.45,80.362Z" transform="translate(-163.463 -71.834)" fill="#fff"/>
        <path id="Path_1483" data-name="Path 1483" d="M177.12,80.372a.532.532,0,1,1,.532.532.532.532,0,0,1-.532-.532Z" transform="translate(-165.449 -71.845)" fill="#fff"/>
        <path id="Path_1484" data-name="Path 1484" d="M180.78,80.362a.537.537,0,1,1,.532.532.537.537,0,0,1-.532-.532Z" transform="translate(-167.429 -71.834)" fill="#fff"/>
        <path id="Path_1485" data-name="Path 1485" d="M184.44,80.362a.537.537,0,1,1,.537.532.537.537,0,0,1-.537-.532Z" transform="translate(-169.409 -71.834)" fill="#fff"/>
        <path id="Path_1486" data-name="Path 1486" d="M188.11,80.362a.537.537,0,1,1,.532.532A.537.537,0,0,1,188.11,80.362Z" transform="translate(-171.395 -71.834)" fill="#fff"/>
        <path id="Path_1487" data-name="Path 1487" d="M319.276,81.125H314.93V79.11h4.346Zm-4.131-.22h3.9V79.33h-3.9Z" transform="translate(-240.011 -71.45)" fill="#fff"/>
        <rect id="Rectangle_18918" data-name="Rectangle 18918" width="2.804" height="1.331" transform="translate(75.277 8.004)" fill="#fff"/>
        <rect id="Rectangle_18919" data-name="Rectangle 18919" width="0.386" height="1.079" transform="translate(79.265 8.128)" fill="#fff"/>
        <path id="Path_1488" data-name="Path 1488" d="M175.832,104.511l-2.382-2.23,2.382-2.23.367.39-1.96,1.84,1.96,1.836Z" transform="translate(-163.463 -82.78)" fill="#fff"/>
        <path id="Path_1489" data-name="Path 1489" d="M317.787,104.482h-1.606v-.56a.128.128,0,0,0-.069-.11,1.682,1.682,0,0,1-.179-.106.133.133,0,0,0-.138,0l-.482.28-.8-1.377.486-.28a.138.138,0,0,0,.06-.119v-.2a.142.142,0,0,0-.06-.124l-.486-.28.8-1.377.482.28a.128.128,0,0,0,.133,0l.184-.1a.133.133,0,0,0,.069-.115V99.7h1.606v.555a.133.133,0,0,0,.069.115,1.655,1.655,0,0,1,.179.1.138.138,0,0,0,.138,0l.482-.28.8,1.377-.486.275a.124.124,0,0,0-.06.124v.2a.119.119,0,0,0,.06.119l.486.28-.8,1.377-.486-.28a.128.128,0,0,0-.133,0,1.672,1.672,0,0,1-.179.106.128.128,0,0,0-.069.11Zm-1.262-.344h.918v-.216a.459.459,0,0,1,.257-.418,1.535,1.535,0,0,0,.147-.087.459.459,0,0,1,.5,0l.184.106.459-.794-.188-.106a.459.459,0,0,1-.229-.459v-.17a.459.459,0,0,1,.234-.459l.184-.106-.459-.794-.184.106a.459.459,0,0,1-.5,0,.758.758,0,0,0-.147-.083.459.459,0,0,1-.257-.422v-.211h-.918v.211a.459.459,0,0,1-.262.422,1.181,1.181,0,0,0-.147.083.459.459,0,0,1-.491,0l-.188-.106-.459.794.184.106a.459.459,0,0,1,.234.459v.17a.459.459,0,0,1-.234.459l-.184.106.459.794.188-.106a.459.459,0,0,1,.5,0,1.542,1.542,0,0,0,.147.087.459.459,0,0,1,.257.418Zm.459-.844a1.207,1.207,0,1,1,1.2-1.2,1.207,1.207,0,0,1-1.2,1.2Zm0-2.065a.358.358,0,1,0,0-.014Z" transform="translate(-239.784 -82.59)" fill="#fff"/>
        <rect id="Rectangle_18920" data-name="Rectangle 18920" width="25.999" height="8.146" transform="translate(32.118 141.902)" fill="#f36e2c"/>
        <path id="Path_1490" data-name="Path 1490" d="M236.092,379.842a1.675,1.675,0,0,1-.762-.17,1.9,1.9,0,0,1-.592-.459,2.047,2.047,0,0,1-.386-.638,2.116,2.116,0,0,1-.133-.73,1.956,1.956,0,0,1,.142-.748,2.1,2.1,0,0,1,.395-.638,1.965,1.965,0,0,1,.6-.459,1.767,1.767,0,0,1,.748-.161,1.7,1.7,0,0,1,.766.17,1.992,1.992,0,0,1,.587.459,2.065,2.065,0,0,1,.381.633,2.087,2.087,0,0,1,.133.725,2.06,2.06,0,0,1-.138.748,1.973,1.973,0,0,1-.395.629,1.873,1.873,0,0,1-.6.436,1.716,1.716,0,0,1-.748.2Zm-1.244-1.983a1.6,1.6,0,0,0,.087.532,1.436,1.436,0,0,0,.252.459,1.188,1.188,0,0,0,.39.317,1.23,1.23,0,0,0,1.046,0,1.212,1.212,0,0,0,.386-.33,1.4,1.4,0,0,0,.243-.459,1.68,1.68,0,0,0,.083-.519,1.607,1.607,0,0,0-.087-.537,1.465,1.465,0,0,0-.252-.459,1.235,1.235,0,0,0-.39-.312,1.166,1.166,0,0,0-1.037,0,1.272,1.272,0,0,0-.39.321,1.551,1.551,0,0,0-.248.459,1.684,1.684,0,0,0-.083.528Z" transform="translate(-196.342 -231.996)" fill="#fff"/>
        <path id="Path_1491" data-name="Path 1491" d="M243.78,379.9V376h1.643a1.083,1.083,0,0,1,.487.11,1.271,1.271,0,0,1,.385.289,1.316,1.316,0,0,1,.248.408,1.261,1.261,0,0,1,.092.459,1.293,1.293,0,0,1-.087.459,1.193,1.193,0,0,1-.239.4,1.1,1.1,0,0,1-.372.289,1.032,1.032,0,0,1-.459.106h-1.056V379.9Zm.62-1.909h1.019a.524.524,0,0,0,.239-.055.487.487,0,0,0,.184-.151.807.807,0,0,0,.124-.234.954.954,0,0,0,.041-.289.767.767,0,0,0-.05-.3.679.679,0,0,0-.138-.229.614.614,0,0,0-.2-.147.537.537,0,0,0-.234-.051H244.4Z" transform="translate(-201.515 -232.083)" fill="#fff"/>
        <path id="Path_1492" data-name="Path 1492" d="M253.94,379.355v.546h-2.68V376h2.634v.546h-2.019v1.111h1.749v.514h-1.749v1.193Z" transform="translate(-205.562 -232.083)" fill="#fff"/>
        <path id="Path_1493" data-name="Path 1493" d="M259.115,377.147V379.9H258.5V376h.482l2.235,2.818V376h.624v3.906h-.514Z" transform="translate(-209.479 -232.083)" fill="#fff"/>
      </g>
      <g id="freepik--Invitation--inject-17" transform="translate(101.598 93.996)">
        <path id="Path_1494" data-name="Path 1494" d="M243.593,249.984H174.25V191.326l34.664-22.016,34.678,22.016Z" transform="translate(-174.25 -166.35)" fill="#f36e2c"/>
        <path id="Path_1495" data-name="Path 1495" d="M243.593,249.984H174.25V191.326l34.664-22.016,34.678,22.016Z" transform="translate(-174.25 -166.35)" opacity="0.2"/>
        <rect id="Rectangle_18921" data-name="Rectangle 18921" width="61.522" height="78.976" transform="translate(3.91 0.17)" fill="#fff"/>
        <path id="Path_1496" data-name="Path 1496" d="M244.114,242.006l-61.5.106h-.11v-.106l-.064-78.976v-.17h.174l61.5.046h.119v.124Zm0,0-.124-78.976.124.119-61.5.05.17-.17-.087,78.976-.106-.11Z" transform="translate(-178.681 -162.86)" fill="#dbdbdb"/>
        <path id="Path_1497" data-name="Path 1497" d="M294.354,269.4q.087,3.465.133,6.921c0,2.295.069,4.617.069,6.926l.028,6.921-.028,6.926v.2h-.2c-2.414,0-4.828-.037-7.242-.064s-4.828-.078-7.242-.138c2.414-.06,4.828-.115,7.242-.138s4.828-.064,7.242-.064l-.2.2-.028-6.926.028-6.921c0-2.295.046-4.617.069-6.926S294.295,271.708,294.354,269.4Z" transform="translate(-231.396 -220.504)" fill="#f36e2c"/>
        <path id="Path_1498" data-name="Path 1498" d="M187.879,196.249q-.087-3.46-.133-6.926c-.023-2.295-.069-4.612-.069-6.921l-.028-6.926.028-6.921v-.207h.2c2.414,0,4.828.037,7.242.064s4.828.078,7.242.138c-2.414.06-4.828.115-7.242.138s-4.828.064-7.242.064l.2-.2.028,6.921-.028,6.944c0,2.295-.046,4.617-.069,6.921S187.939,193.941,187.879,196.249Z" transform="translate(-181.5 -165.83)" fill="#f36e2c"/>
        <path id="Path_1499" data-name="Path 1499" d="M249.87,168.551l7.063-.115,7.063-.064c2.354-.028,4.709,0,7.063-.032h7.293v.229l-.023,6.921-.032,6.921c-.037,4.617-.078,9.229-.174,13.846-.1-4.617-.138-9.229-.174-13.846l-.023-6.939-.023-6.921.229.229-7.091-.023c-2.354,0-4.709,0-7.063-.032l-7.045-.083Z" transform="translate(-215.164 -165.825)" fill="#f36e2c"/>
        <path id="Path_1500" data-name="Path 1500" d="M216.138,291.682c-4.709.087-9.418.133-14.126.165s-9.418.037-14.126.06h-.225v-8.3l.028-8.068.064-8.073.119-8.068.119,8.068.064,8.073.028,8.068v8.073l-.225-.225c4.709.023,9.418,0,14.126.055S211.429,291.6,216.138,291.682Z" transform="translate(-181.505 -215.093)" fill="#f36e2c"/>
        <path id="Path_1501" data-name="Path 1501" d="M216.15,185.072v-.2h3.268v.2h-1.042v7.765h1.042v.2H216.15v-.2h.918v-7.765Z" transform="translate(-196.92 -174.769)" fill="#f36e2c"/>
        <path id="Path_1502" data-name="Path 1502" d="M228.221,195.551h-2.754v-.188h.831v-5.4h-.918v-.188h.285a8.515,8.515,0,0,0,1.772-.161v1.253h.064a1.974,1.974,0,0,1,1.859-1.345c1.56,0,1.9,1.019,1.9,2.579v3.263h.831v.188h-2.777v-.188h.831v-3.089c0-1.019,0-2.4-1.019-2.4-1.432,0-1.721,1.785-1.721,3.213v2.272h.831Z" transform="translate(-201.914 -177.284)" fill="#f36e2c"/>
        <path id="Path_1503" data-name="Path 1503" d="M246.237,191.506c0-.877-.216-1.781-.991-1.781-.078,0-.128.037-.128.11s.041.1.115.115a.459.459,0,0,1,.353.459.61.61,0,0,1-.665.592.675.675,0,0,1-.693-.693.854.854,0,0,1,.918-.831c1.042,0,1.331.918,1.331,1.96,0,2.074-1.129,4.323-2.451,4.323-1.432,0-2.295-2.074-2.295-5.14v-.7h-.89v-.188h.262a8.487,8.487,0,0,0,1.772-.161v.766c0,2.084.39,4.86,1.6,4.86C245.3,195.223,246.237,193.24,246.237,191.506Z" transform="translate(-210.279 -177.26)" fill="#f36e2c"/>
        <path id="Path_1504" data-name="Path 1504" d="M257.38,192.549h.831v.188h-2.777v-.188h.826v-5.4h-.89v-.188h.262a8.261,8.261,0,0,0,1.749-.161Zm-.6-8.229a.734.734,0,0,1,.739.743.725.725,0,0,1-.739.73.716.716,0,0,1-.73-.73.725.725,0,0,1,.73-.743Z" transform="translate(-218.14 -174.471)" fill="#f36e2c"/>
        <path id="Path_1505" data-name="Path 1505" d="M265.436,192.589c0,.854,0,1.23.34,1.23.459,0,.918-.716,1.1-1.157l.2.078c-.275.7-.817,1.418-1.57,1.418-1.079,0-1.179-.766-1.179-1.836v-4h-.89v-.188h.087a1.741,1.741,0,0,0,1.758-1.657h.161v1.657h1.524v.188h-1.524Z" transform="translate(-222.501 -175.64)" fill="#f36e2c"/>
        <path id="Path_1506" data-name="Path 1506" d="M277.931,191.112c0,1.542-1.657,1.671-3.213,1.671h-.592v.363c0,1.258.459,2.295,1.735,2.295a1.951,1.951,0,0,0,1.836-1.707l.225.028a2.361,2.361,0,0,1-2.35,2.033c-1.808,0-2.662-1.331-2.662-3.139s.968-3.144,2.8-3.144C276.862,189.515,277.931,189.983,277.931,191.112Zm-3.355,1.446c1.244,0,2.134-.2,2.134-1.446,0-.794-.312-1.377-1.106-1.377-1.152,0-1.469,1.331-1.469,2.488v.353Z" transform="translate(-227.63 -177.279)" fill="#f36e2c"/>
        <rect id="Rectangle_18922" data-name="Rectangle 18922" width="44.009" height="0.408" transform="translate(12.763 24.471)" fill="#ebebeb"/>
        <rect id="Rectangle_18923" data-name="Rectangle 18923" width="44.009" height="0.408" transform="translate(12.763 27.115)" fill="#ebebeb"/>
        <rect id="Rectangle_18924" data-name="Rectangle 18924" width="44.009" height="0.408" transform="translate(12.763 29.763)" fill="#ebebeb"/>
        <rect id="Rectangle_18925" data-name="Rectangle 18925" width="44.009" height="0.408" transform="translate(12.763 32.406)" fill="#ebebeb"/>
        <rect id="Rectangle_18926" data-name="Rectangle 18926" width="44.009" height="0.408" transform="translate(12.763 35.05)" fill="#ebebeb"/>
        <rect id="Rectangle_18927" data-name="Rectangle 18927" width="30.874" height="0.408" transform="translate(19.326 37.698)" fill="#ebebeb"/>
        <rect id="Rectangle_18928" data-name="Rectangle 18928" width="44.009" height="0.408" transform="translate(12.763 42.99)" fill="#ebebeb"/>
        <rect id="Rectangle_18929" data-name="Rectangle 18929" width="44.009" height="0.408" transform="translate(12.763 45.633)" fill="#ebebeb"/>
        <rect id="Rectangle_18930" data-name="Rectangle 18930" width="44.009" height="0.408" transform="translate(12.763 48.281)" fill="#ebebeb"/>
        <rect id="Rectangle_18931" data-name="Rectangle 18931" width="44.009" height="0.408" transform="translate(12.763 50.925)" fill="#ebebeb"/>
        <rect id="Rectangle_18932" data-name="Rectangle 18932" width="44.009" height="0.408" transform="translate(12.763 53.573)" fill="#ebebeb"/>
        <path id="Path_1507" data-name="Path 1507" d="M243.593,249.27v43.976H174.25V249.27c2.974,1.684,5.9,3.456,8.849,5.186s5.875,3.52,8.789,5.31q4.874,2.969,9.739,6.017l.1-.06c-.028,0-.05.05-.083.073q3.644,2.267,7.279,4.548c2.419-1.519,4.842-3.052,7.27-4.548-.032,0-.05-.055-.083-.073a.552.552,0,0,0,.106.05q4.851-3.029,9.734-6.017,4.374-2.671,8.78-5.3C237.686,252.726,240.614,250.954,243.593,249.27Z" transform="translate(-174.25 -209.612)" fill="#f36e2c"/>
        <g id="Group_11800" data-name="Group 11800" transform="translate(0 39.658)" opacity="0.2">
          <path id="Path_1508" data-name="Path 1508" d="M243.593,249.27c-2.8,1.969-5.654,3.851-8.477,5.787s-5.7,3.791-8.559,5.668q-4.489,2.933-8.991,5.82l-.271.188q-3.979,2.547-7.986,5.09l-.395.243-.386-.243q-4-2.543-7.977-5.1c-.092-.055-.188-.115-.28-.179q-4.516-2.891-9-5.833c-2.85-1.863-5.7-3.759-8.55-5.654s-5.673-3.818-8.472-5.787c2.974,1.684,5.9,3.456,8.849,5.186s5.875,3.52,8.789,5.31q4.874,2.969,9.739,6.017h0q3.644,2.267,7.279,4.548c2.419-1.519,4.842-3.052,7.27-4.548h.023q4.851-3.029,9.734-6.017,4.374-2.671,8.78-5.3C237.686,252.726,240.614,250.954,243.593,249.27Z" transform="translate(-174.25 -249.27)"/>
          <path id="Path_1509" data-name="Path 1509" d="M201.922,285.12c-.028,0-.05.05-.083.073-.363.312-.73.624-1.092.918-1.739,1.469-3.52,2.873-5.333,4.236-2.208,1.689-4.466,3.3-6.737,4.906s-4.589,3.135-6.912,4.635-4.709,2.965-7.155,4.31c2.1-1.836,4.291-3.562,6.5-5.237s4.475-3.3,6.737-4.906,4.589-3.144,6.926-4.645c1.863-1.2,3.759-2.373,5.7-3.479.459-.262.918-.509,1.377-.762Z" transform="translate(-174.445 -268.667)"/>
          <path id="Path_1510" data-name="Path 1510" d="M292.8,304.229c-2.446-1.345-4.819-2.813-7.15-4.31s-4.635-3.066-6.926-4.635-4.53-3.213-6.737-4.906c-1.8-1.377-3.584-2.754-5.315-4.227l-1.1-.918c-.032,0-.05-.055-.083-.073a.55.55,0,0,0,.106.05c.459.262.918.509,1.349.771,1.941,1.106,3.823,2.295,5.7,3.479,2.341,1.5,4.631,3.061,6.912,4.645s4.53,3.213,6.737,4.906S290.686,302.384,292.8,304.229Z" transform="translate(-223.615 -268.688)"/>
        </g>
      </g>
      <g id="freepik--Sparkles--inject-17" transform="translate(106.141 89.366)">
        <path id="Path_1511" data-name="Path 1511" d="M316.468,154.872a2.522,2.522,0,0,1,0-2.1,2.3,2.3,0,0,1,.229,1.051A2.341,2.341,0,0,1,316.468,154.872Z" transform="translate(-255.616 -152.77)" fill="#263238"/>
        <path id="Path_1512" data-name="Path 1512" d="M310.836,157.361a2.473,2.473,0,0,1-1.5-1.5,2.524,2.524,0,0,1,1.482,1.487Z" transform="translate(-251.884 -154.442)" fill="#263238"/>
        <path id="Path_1513" data-name="Path 1513" d="M308.462,163.038a2.52,2.52,0,0,1-2.1,0,2.235,2.235,0,0,1,1.051-.229A2.3,2.3,0,0,1,308.462,163.038Z" transform="translate(-250.272 -158.201)" fill="#263238"/>
        <path id="Path_1514" data-name="Path 1514" d="M310.962,167.44a2.538,2.538,0,0,1-1.492,1.487A2.538,2.538,0,0,1,310.962,167.44Z" transform="translate(-251.955 -160.707)" fill="#263238"/>
        <path id="Path_1515" data-name="Path 1515" d="M316.624,169.1a2.3,2.3,0,0,1,.225,1.056,2.249,2.249,0,0,1-.229,1.051,2.367,2.367,0,0,1-.229-1.051,2.317,2.317,0,0,1,.234-1.056Z" transform="translate(-255.698 -161.605)" fill="#263238"/>
        <path id="Path_1516" data-name="Path 1516" d="M321,167.33a2.524,2.524,0,0,1,1.482,1.487A2.524,2.524,0,0,1,321,167.33Z" transform="translate(-258.193 -160.648)" fill="#263238"/>
        <path id="Path_1517" data-name="Path 1517" d="M322.69,162.879a2.519,2.519,0,0,1,2.1,0,2.236,2.236,0,0,1-1.051.229A2.355,2.355,0,0,1,322.69,162.879Z" transform="translate(-259.107 -158.115)" fill="#263238"/>
        <path id="Path_1518" data-name="Path 1518" d="M320.91,157.231a2.331,2.331,0,0,1,.583-.918,2.3,2.3,0,0,1,.918-.583,2.538,2.538,0,0,1-1.492,1.487Z" transform="translate(-258.144 -154.371)" fill="#263238"/>
        <path id="Path_1519" data-name="Path 1519" d="M194.259,253.247a2.3,2.3,0,0,1-.229-1.056,2.368,2.368,0,0,1,.229-1.051,2.253,2.253,0,0,1,.229,1.056A2.368,2.368,0,0,1,194.259,253.247Z" transform="translate(-189.495 -205.993)" fill="#263238"/>
        <path id="Path_1520" data-name="Path 1520" d="M188.647,255.747a2.515,2.515,0,0,1-1.487-1.487A2.547,2.547,0,0,1,188.647,255.747Z" transform="translate(-185.779 -207.681)" fill="#263238"/>
        <path id="Path_1521" data-name="Path 1521" d="M186.252,261.409a2.3,2.3,0,0,1-1.051.229,2.355,2.355,0,0,1-1.051-.229,2.249,2.249,0,0,1,1.051-.229A2.34,2.34,0,0,1,186.252,261.409Z" transform="translate(-184.15 -211.424)" fill="#263238"/>
        <path id="Path_1522" data-name="Path 1522" d="M188.757,265.81a2.547,2.547,0,0,1-1.487,1.487A2.547,2.547,0,0,1,188.757,265.81Z" transform="translate(-185.838 -213.93)" fill="#263238"/>
        <path id="Path_1523" data-name="Path 1523" d="M194.418,267.48a2.341,2.341,0,0,1,.229,1.051,2.3,2.3,0,0,1-.234,1.051,2.3,2.3,0,0,1-.225-1.051A2.226,2.226,0,0,1,194.418,267.48Z" transform="translate(-189.581 -214.834)" fill="#263238"/>
        <path id="Path_1524" data-name="Path 1524" d="M198.82,265.7a2.547,2.547,0,0,1,1.487,1.487,2.3,2.3,0,0,1-.918-.583A2.326,2.326,0,0,1,198.82,265.7Z" transform="translate(-192.087 -213.871)" fill="#263238"/>
        <path id="Path_1525" data-name="Path 1525" d="M200.48,261.249a2.372,2.372,0,0,1,1.056-.23,2.3,2.3,0,0,1,1.051.234,2.3,2.3,0,0,1-1.056.225A2.25,2.25,0,0,1,200.48,261.249Z" transform="translate(-192.985 -211.338)" fill="#263238"/>
        <path id="Path_1526" data-name="Path 1526" d="M198.71,255.637a2.515,2.515,0,0,1,1.487-1.487,2.3,2.3,0,0,1-.583.918,2.328,2.328,0,0,1-.9.569Z" transform="translate(-192.028 -207.622)" fill="#263238"/>
        <path id="Path_1527" data-name="Path 1527" d="M298.729,329.018a.734.734,0,0,1-.229-.546.725.725,0,0,1,.229-.542.762.762,0,0,1,.229.542A.771.771,0,0,1,298.729,329.018Z" transform="translate(-246.019 -247.54)" fill="#263238"/>
        <path id="Path_1528" data-name="Path 1528" d="M295.936,330.306a.748.748,0,0,1-.546-.22.762.762,0,0,1-.22-.546.753.753,0,0,1,.766.766Z" transform="translate(-244.217 -248.411)" fill="#263238"/>
        <path id="Path_1529" data-name="Path 1529" d="M294.723,333.1a.753.753,0,0,1-1.083,0,.725.725,0,0,1,.542-.229A.753.753,0,0,1,294.723,333.1Z" transform="translate(-243.39 -250.213)" fill="#263238"/>
        <path id="Path_1530" data-name="Path 1530" d="M296,335.5a.762.762,0,0,1-.22.546.744.744,0,0,1-.546.225.734.734,0,0,1,.22-.546A.744.744,0,0,1,296,335.5Z" transform="translate(-244.25 -251.636)" fill="#263238"/>
        <path id="Path_1531" data-name="Path 1531" d="M298.789,336.36a.771.771,0,0,1,.229.546.762.762,0,0,1-.229.542.735.735,0,0,1-.229-.542.753.753,0,0,1,.229-.546Z" transform="translate(-246.052 -252.102)" fill="#263238"/>
        <path id="Path_1532" data-name="Path 1532" d="M301.19,335.45a.743.743,0,0,1,.546.22.725.725,0,0,1,.22.546.753.753,0,0,1-.766-.766Z" transform="translate(-247.475 -251.609)" fill="#263238"/>
        <path id="Path_1533" data-name="Path 1533" d="M302.05,332.911a.748.748,0,0,1,.542-.229.321.321,0,1,1,0,.459A.771.771,0,0,1,302.05,332.911Z" transform="translate(-247.94 -250.062)" fill="#263238"/>
        <path id="Path_1534" data-name="Path 1534" d="M300.231,329.353a.766.766,0,1,1,.546-.225A.744.744,0,0,1,300.231,329.353Z" transform="translate(-246.543 -247.481)" fill="#263238"/>
      </g>
      <g id="freepik--paper-plane--inject-17" transform="translate(77.98 90.054)">
        <path id="Path_1535" data-name="Path 1535" d="M150.149,243.841l-.239-.248.67-.633.234.252Z" transform="translate(-137.463 -202.256)" fill="#263238"/>
        <path id="Path_1536" data-name="Path 1536" d="M138.491,247.435a16.986,16.986,0,0,1-1.836-.115l.037-.34c.6.06,1.207.1,1.836.11Zm2.295-.037v-.344c.6-.037,1.212-.087,1.836-.161l.041.344c-.624.069-1.244.133-1.85.161Zm-6.425-.427c-.615-.129-1.221-.289-1.8-.459l.106-.326c.565.174,1.157.33,1.762.459Zm10.588-.083-.06-.34c.587-.11,1.193-.234,1.79-.376l.083.335c-.61.142-1.221.271-1.817.4Zm4.043-.973-.1-.33c.583-.17,1.17-.358,1.749-.555l.11.326c-.587.179-1.179.385-1.767.56Zm-18.6-.252a15.423,15.423,0,0,1-1.629-.895l.184-.289a14.712,14.712,0,0,0,1.593.872Zm22.53-1.1-.124-.321c.56-.22,1.134-.459,1.7-.7l.133.317c-.569.243-1.147.482-1.712.7Zm-26.013-1.207a13.167,13.167,0,0,1-1.285-1.349l.266-.22a12.534,12.534,0,0,0,1.253,1.317Zm29.832-.459-.147-.307c.542-.262,1.092-.537,1.643-.822l.156.307q-.847.434-1.666.826Zm3.672-1.918-.17-.3q.8-.459,1.583-.918l.179.294c-.523.317-1.056.624-1.593.927Zm-36.087-.918a12.4,12.4,0,0,1-.757-1.7l.326-.115a12.785,12.785,0,0,0,.734,1.657Zm39.635-1.23-.188-.289q.776-.5,1.528-1.019l.193.285c-.5.353-1.014.693-1.533,1.028Zm3.41-2.359-.2-.275c.5-.367.982-.734,1.464-1.111l.211.271c-.486.381-.982.753-1.473,1.12Zm-44.39-.367a14.256,14.256,0,0,1-.193-1.836h.34a14.526,14.526,0,0,0,.193,1.808Zm47.662-2.185-.22-.266c.459-.39.945-.785,1.409-1.184l.225.262c-.468.408-.936.8-1.414,1.193Zm-47.451-1.955-.344-.032c.06-.6.147-1.216.271-1.836l.335.064c-.11.615-.207,1.221-.262,1.808Zm50.595-.757-.229-.252c.459-.413.918-.826,1.349-1.244l.234.252c-.45.422-.9.84-1.354,1.248Zm3.02-2.827-.239-.248,1.313-1.285.243.243Zm-52.779-.436-.33-.1c.179-.574.381-1.161.61-1.749l.317.124c-.239.583-.441,1.166-.615,1.73Zm55.739-2.488-.248-.239c.431-.436.858-.877,1.285-1.317l.248.239Zm-54.229-1.336-.307-.151c.262-.542.546-1.1.849-1.643l.3.165c-.321.551-.6,1.1-.863,1.634Zm57.112-1.638-.248-.239,1.271-1.331.248.239Zm-55.074-1.96-.289-.184c.321-.509.67-1.023,1.028-1.537l.28.2c-.395.509-.739,1.019-1.06,1.524Zm57.956-1.042-.252-.234,1.271-1.336.248.239Zm-55.57-2.322-.271-.211c.367-.459.757-.955,1.161-1.437l.262.22c-.427.482-.831.964-1.193,1.432Zm58.429-.67-.248-.239q.633-.661,1.28-1.322l.248.239q-.7.665-1.322,1.326ZM132.63,214.01l-.252-.23c.408-.459.831-.895,1.267-1.345l.243.239c-.473.45-.9.9-1.3,1.34Zm58.649-.459-.243-.239c.431-.436.863-.872,1.3-1.308l.239.248Zm2.942-2.91-.239-.248c.436-.427.881-.854,1.326-1.276l.239.248c-.491.408-.932.831-1.368,1.258Zm3-2.845-.229-.252c.459-.413.918-.826,1.377-1.244l.234.257Zm3.084-2.754-.229-.262,1.377-1.2.225.262c-.491.385-.955.776-1.414,1.175Zm3.162-2.666-.216-.266c.459-.386.95-.771,1.437-1.152l.211.266Zm3.249-2.556-.211-.275c.486-.367.978-.739,1.478-1.106l.2.28c-.537.344-1.028.711-1.51,1.079Zm3.332-2.446-.2-.285c.5-.349,1-.7,1.51-1.051l.193.28c-.551.33-1.051.679-1.547,1.028Zm3.415-2.336-.188-.285c.5-.335,1.023-.67,1.547-1.005l.184.289c-.565.312-1.079.643-1.583.978Zm3.493-2.217-.184-.294c.519-.317,1.046-.633,1.579-.95l.174.3c-.569.289-1.1.606-1.611.923Zm3.557-2.1-.17-.3c.532-.3,1.065-.6,1.611-.918l.165.3c-.56.294-1.12.6-1.648.895Zm3.63-1.987-.165-.308c.542-.285,1.083-.569,1.638-.849l.156.307c-.592.257-1.138.542-1.671.826Zm3.672-1.882-.151-.307c.546-.271,1.1-.537,1.657-.8l.151.307c-.569.243-1.143.514-1.689.78Zm3.736-1.776-.142-.312,1.68-.757.142.312Zm3.786-1.675-.138-.317c.565-.239,1.129-.459,1.7-.711l.128.317Z" transform="translate(-122.79 -169.474)" fill="#263238"/>
        <path id="Path_1537" data-name="Path 1537" d="M376.378,180.226l-.129-.321.854-.335.129.317Z" transform="translate(-259.925 -167.959)" fill="#263238"/>
        <path id="Path_1538" data-name="Path 1538" d="M370.574,162.051l-3.034,8.33,6.37-4.97,24.343-8.83Z" transform="translate(-255.212 -155.52)" fill="#f36e2c"/>
        <path id="Path_1539" data-name="Path 1539" d="M370.574,162.051l-3.034,8.33,6.37-4.97,24.343-8.83Z" transform="translate(-255.212 -155.52)" opacity="0.1"/>
        <path id="Path_1540" data-name="Path 1540" d="M374.723,177.761l-7.182,3.029,6.37-4.97Z" transform="translate(-255.212 -165.93)" fill="#263238"/>
        <path id="Path_1541" data-name="Path 1541" d="M381.42,165.41l24.343-8.83-19.969,19.487Z" transform="translate(-262.722 -155.52)" fill="#f36e2c"/>
        <path id="Path_1542" data-name="Path 1542" d="M362.225,160.8,352.11,154.27l37.794,1.06Z" transform="translate(-246.864 -154.27)" fill="#f36e2c"/>
      </g>
    </g>
  </g>
</svg>
