<svg xmlns="http://www.w3.org/2000/svg" width="14.268" height="11.414" viewBox="0 0 14.268 11.414">
  <path id="Icon_awesome-school" data-name="Icon awesome-school" d="M0,4.994v6.064a.357.357,0,0,0,.357.357H2.14V4.28H.713A.713.713,0,0,0,0,4.994Zm8.026-1.07H7.49V3.032a.178.178,0,0,0-.178-.178H6.955a.178.178,0,0,0-.178.178V4.459a.178.178,0,0,0,.178.178h1.07A.178.178,0,0,0,8.2,4.459V4.1A.178.178,0,0,0,8.026,3.924ZM11.1,2.5,7.529.12a.714.714,0,0,0-.791,0L3.171,2.5a.713.713,0,0,0-.318.593v8.323H5.707V8.2a.357.357,0,0,1,.357-.357H8.2a.357.357,0,0,1,.357.357v3.21h2.854V3.091A.714.714,0,0,0,11.1,2.5ZM7.134,5.707A1.783,1.783,0,1,1,8.917,3.924,1.784,1.784,0,0,1,7.134,5.707Zm6.42-1.427H12.127v7.134h1.783a.357.357,0,0,0,.357-.357V4.994A.713.713,0,0,0,13.554,4.28Z"/>
</svg>
