<svg id="settings-line" xmlns="http://www.w3.org/2000/svg" width="16.567" height="16.567" viewBox="0 0 16.567 16.567">
  <path id="Path_7716" data-name="Path 7716" d="M14.724,11a3.624,3.624,0,1,0,3.624,3.624A3.6,3.6,0,0,0,14.724,11Zm0,6.213a2.589,2.589,0,1,1,2.589-2.589A2.564,2.564,0,0,1,14.724,17.213Z" transform="translate(-6.389 -6.34)"/>
  <path id="Path_7717" data-name="Path 7717" d="M17.946,8.575,16.5,8.109l-.311-.777.725-1.346A.871.871,0,0,0,16.755,5L15.513,3.76a.871.871,0,0,0-.984-.155l-1.346.725-.777-.311L11.94,2.57A.841.841,0,0,0,11.164,2H9.4a.726.726,0,0,0-.725.621l-.466,1.45a2.287,2.287,0,0,0-.828.311L6.038,3.657a.871.871,0,0,0-.984.155L3.812,5.055a.871.871,0,0,0-.155.984L4.33,7.333c-.1.259-.207.57-.311.828l-1.45.466A.841.841,0,0,0,2,9.4v1.76a.825.825,0,0,0,.621.777l1.45.466.311.777-.725,1.346a.871.871,0,0,0,.155.984l1.243,1.243a.871.871,0,0,0,.984.155l1.346-.725.777.311L8.627,18a.841.841,0,0,0,.777.57h1.76A.841.841,0,0,0,11.94,18l.466-1.5.777-.311,1.346.725a.871.871,0,0,0,.984-.155l1.243-1.243a.871.871,0,0,0,.155-.984l-.725-1.346.311-.777L18,11.94a.841.841,0,0,0,.57-.777V9.4a.886.886,0,0,0-.621-.828Zm-.414,2.433-1.864.57-.052.259-.466,1.087L15,13.183l.932,1.709-1.035,1.035L13.183,15l-.259.155a4.915,4.915,0,0,1-1.087.466l-.259.052-.57,1.864H9.559l-.57-1.864-.259-.052L7.643,15.15,7.384,15l-1.709.932L4.64,14.891l.932-1.709-.155-.259a4.915,4.915,0,0,1-.466-1.087L4.9,11.578l-1.864-.57V9.559L4.8,9.041l.1-.259a4.395,4.395,0,0,1,.466-1.139l.155-.259L4.64,5.676,5.676,4.64l1.657.932.259-.155a4.395,4.395,0,0,1,1.139-.466l.259-.1.57-1.812h1.45l.57,1.812.259.1a4.915,4.915,0,0,1,1.087.466l.259.155,1.709-.932,1.035,1.035L15,7.384l.155.259a4.915,4.915,0,0,1,.466,1.087l.052.259,1.864.57Z" transform="translate(-2 -2)"/>
</svg>
