<svg xmlns="http://www.w3.org/2000/svg" width="18.723" height="17.385" viewBox="0 0 18.723 17.385">
  <path id="Icon_ionic-ios-star" data-name="Icon ionic-ios-star" d="M20.262,9.393H14.114L12.246,3.818a.677.677,0,0,0-1.27,0L9.108,9.393H2.919a.671.671,0,0,0-.669.669.491.491,0,0,0,.013.113.642.642,0,0,0,.28.472L7.6,14.207,5.656,19.845a.671.671,0,0,0,.23.752.647.647,0,0,0,.376.163.819.819,0,0,0,.418-.15l4.931-3.515,4.931,3.515a.783.783,0,0,0,.418.15.6.6,0,0,0,.372-.163.662.662,0,0,0,.23-.752l-1.939-5.638,5.011-3.594.121-.1a.7.7,0,0,0,.217-.447A.708.708,0,0,0,20.262,9.393Z" transform="translate(-2.25 -3.375)" fill="#f36e2c"/>
</svg>
