<svg xmlns="http://www.w3.org/2000/svg" xmlns:xlink="http://www.w3.org/1999/xlink" width="41.1" height="50.611" viewBox="0 0 41.1 50.611">
  <defs>
    <filter id="Path_7583" x="2.718" y="0" width="35.665" height="32.947" filterUnits="userSpaceOnUse">
      <feOffset dy="3" input="SourceAlpha"/>
      <feGaussianBlur stdDeviation="3" result="blur"/>
      <feFlood flood-opacity="0.161"/>
      <feComposite operator="in" in2="blur"/>
      <feComposite in="SourceGraphic"/>
    </filter>
    <filter id="Path_7584" x="0" y="13.588" width="41.1" height="37.023" filterUnits="userSpaceOnUse">
      <feOffset dy="3" input="SourceAlpha"/>
      <feGaussianBlur stdDeviation="3" result="blur-2"/>
      <feFlood flood-opacity="0.161"/>
      <feComposite operator="in" in2="blur-2"/>
      <feComposite in="SourceGraphic"/>
    </filter>
  </defs>
  <g id="unlock" transform="translate(9 6)">
    <g transform="matrix(1, 0, 0, 1, -9, -6)" filter="url(#Path_7583)">
      <path id="Path_7583-2" data-name="Path 7583" d="M126.165,0a8.843,8.843,0,0,0-8.832,8.832v5.435a.679.679,0,0,0,.679.679h2.718a.679.679,0,0,0,.679-.679V8.832a4.756,4.756,0,1,1,9.512,0V11.55a.679.679,0,0,0,.679.679h2.718A.679.679,0,0,0,135,11.55V8.832A8.843,8.843,0,0,0,126.165,0Z" transform="translate(-105.62 6)"/>
    </g>
    <g transform="matrix(1, 0, 0, 1, -9, -6)" filter="url(#Path_7584)">
      <path id="Path_7584-2" data-name="Path 7584" d="M78.064,213.333H94.37a3.4,3.4,0,0,1,3.4,3.4v12.229a3.4,3.4,0,0,1-3.4,3.4H78.064a3.4,3.4,0,0,1-3.4-3.4V216.73A3.4,3.4,0,0,1,78.064,213.333Z" transform="translate(-65.67 -193.74)" fill="#f36e2c"/>
    </g>
    <path id="Path_7585" data-name="Path 7585" d="M209.461,280.52a3.4,3.4,0,1,0-4.9,3.03l-.525,3.669a.679.679,0,0,0,.673.775h2.718a.679.679,0,0,0,.679-.775l-.525-3.669A3.41,3.41,0,0,0,209.461,280.52Z" transform="translate(-194.514 -259.458)" fill="#fff"/>
  </g>
</svg>
