<svg id="wallet-line" xmlns="http://www.w3.org/2000/svg" width="15.567" height="14.527" viewBox="0 0 15.567 14.527">
  <path id="Path_7714" data-name="Path 7714" d="M18.044,9.707h-.519V6.594a.519.519,0,0,0-.519-.519H4.554a.519.519,0,0,1-.519-.425V5.463a.519.519,0,0,1,.519-.425H16.788a.519.519,0,1,0,0-1.038H4.554A1.557,1.557,0,0,0,3,5.557a1.6,1.6,0,0,0,0,.187V16.416A2.127,2.127,0,0,0,5.14,18.527H17.006a.519.519,0,0,0,.519-.519V14.9h.519a.519.519,0,0,0,.519-.519V10.226A.519.519,0,0,0,18.044,9.707ZM16.487,17.49H5.14a1.1,1.1,0,0,1-1.105-1.074V7.051a1.614,1.614,0,0,0,.519.062H16.487V9.707H12.855a2.594,2.594,0,1,0,0,5.188h3.632Zm1.038-3.632h-4.67a1.557,1.557,0,0,1,0-3.113h4.67Z" transform="translate(-2.995 -4)"/>
  <path id="Path_7715" data-name="Path 7715" d="M23.067,19.278a.778.778,0,1,1-.778-.778A.778.778,0,0,1,23.067,19.278Z" transform="translate(-11.904 -10.977)"/>
</svg>
