<svg xmlns="http://www.w3.org/2000/svg" width="20.183" height="15.695" viewBox="0 0 20.183 15.695">
  <path id="Icon_awesome-home" data-name="Icon awesome-home" d="M9.823,6.325l-6.46,5.32v5.742a.561.561,0,0,0,.561.561l3.926-.01a.561.561,0,0,0,.558-.561V14.024a.561.561,0,0,1,.561-.561h2.242a.561.561,0,0,1,.561.561v3.351a.561.561,0,0,0,.561.562l3.925.011a.561.561,0,0,0,.561-.561V11.642L10.359,6.325A.427.427,0,0,0,9.823,6.325Zm10.2,3.616L17.1,7.527V2.674a.42.42,0,0,0-.42-.42H14.715a.42.42,0,0,0-.42.42V5.218L11.158,2.637a1.682,1.682,0,0,0-2.137,0L.152,9.941a.42.42,0,0,0-.056.592L.989,11.62a.42.42,0,0,0,.592.057L9.823,4.889a.427.427,0,0,1,.536,0L18.6,11.677a.42.42,0,0,0,.592-.056l.893-1.086a.42.42,0,0,0-.06-.593Z" transform="translate(0.001 -2.254)" fill="#f36e2c"/>
</svg>
